<svg width="50" height="64" viewBox="0 0 50 64" fill="none" xmlns="http://www.w3.org/2000/svg">
<path d="M20.0589 20.1537C17.3332 17.9204 13.3807 18.2086 10.8594 20.8023C8.1338 23.6842 8.1338 28.3671 10.8594 31.2492L20.0589 40.976L29.2583 31.2492C31.9839 28.3673 31.9839 23.6843 29.2583 20.8023C26.737 18.208 22.7846 17.9919 20.0589 20.1537ZM27.7589 22.3871C29.6666 24.4042 29.6666 27.7906 27.7589 29.8079L20.0589 37.9493L12.2907 29.8079C10.3829 27.7908 10.3829 24.4044 12.2907 22.3871C13.2449 21.3782 14.4711 20.8744 15.8342 20.8744C17.1292 20.8744 18.4236 21.4509 19.3777 22.3871L20.1274 23.1798L20.8772 22.3871C21.8313 21.3782 23.0576 20.8744 24.4207 20.8744C25.5783 20.8017 26.8051 21.3782 27.7587 22.3871H27.7589ZM36.822 4.08639C37.3672 4.08639 37.8443 4.59082 37.8443 5.16733C37.8443 5.74383 37.3672 6.24827 36.822 6.24827L4.04589 6.24771C3.50065 6.24771 3.02356 5.74328 3.02356 5.16677C3.02356 4.59026 3.50064 4.08583 4.04589 4.08583L36.822 4.08639ZM25.8511 50.9186C25.8511 51.2789 25.783 51.6392 25.783 51.9995C25.783 52.3598 25.783 52.7202 25.8511 53.0805L7.04406 53.0799C3.29604 53.0799 0.297729 49.3332 0.297729 44.7943V5.16829C0.297729 2.57455 2.06928 0.485352 4.18209 0.485352H38.73C39.2752 0.485352 39.7523 0.989782 39.7523 1.56629C39.7523 2.1428 39.2752 2.64723 38.73 2.64723L4.18209 2.64667C3.15976 2.64667 2.34236 3.79967 2.34236 5.16833C2.34236 6.53751 3.16023 7.68998 4.18209 7.68998H38.7976C39.3429 7.68998 39.82 8.19442 39.82 8.77092V38.3835C39.4792 38.3835 39.1384 38.3115 38.7976 38.3115C38.4568 38.3115 38.1161 38.3115 37.7753 38.3835L37.7758 9.85206H4.18145C3.49989 9.85206 2.8865 9.63588 2.34173 9.27557V44.7958C2.34173 48.1823 4.45399 50.92 7.04343 50.92L25.8511 50.9186ZM38.7299 40.1115C32.5287 40.1115 27.4863 45.443 27.4863 51.9996C27.4863 58.5562 32.5287 63.8877 38.7299 63.8877C44.931 63.8877 49.9734 58.5562 49.9734 51.9996C49.9734 45.443 44.931 40.1115 38.7299 40.1115ZM38.7299 61.7257C33.6875 61.7257 29.5304 57.3311 29.5304 51.9989C29.5304 46.6674 33.6868 42.272 38.7299 42.272C43.7723 42.272 47.9293 46.6667 47.9293 51.9989C47.9293 57.3309 43.841 61.7257 38.7299 61.7257ZM42.8868 49.4058C43.2957 49.8382 43.2957 50.4868 42.8868 50.9186C42.4778 51.351 41.8644 51.351 41.456 50.9186L39.8208 49.1896V57.4031C39.8208 57.9796 39.3437 58.4841 38.7985 58.4841C38.2532 58.4841 37.7762 57.9796 37.7762 57.4031V49.1896L36.1409 50.9186C35.732 51.351 35.1186 51.351 34.7102 50.9186C34.5058 50.7024 34.4376 50.4142 34.4376 50.1259C34.4376 49.8376 34.5058 49.5494 34.7102 49.3332L38.1174 45.7307C38.3219 45.5145 38.5263 45.4424 38.799 45.4424H39.0034C39.2079 45.4424 39.4123 45.5866 39.5487 45.7307L39.6168 45.8027L42.8868 49.4058Z" fill="white"/>
<path d="M20.0589 20.1537C17.3332 17.9204 13.3807 18.2086 10.8594 20.8023C8.1338 23.6842 8.1338 28.3671 10.8594 31.2492L20.0589 40.976L29.2583 31.2492C31.9839 28.3673 31.9839 23.6843 29.2583 20.8023C26.737 18.208 22.7846 17.9919 20.0589 20.1537ZM27.7589 22.3871C29.6666 24.4042 29.6666 27.7906 27.7589 29.8079L20.0589 37.9493L12.2907 29.8079C10.3829 27.7908 10.3829 24.4044 12.2907 22.3871C13.2449 21.3782 14.4711 20.8744 15.8342 20.8744C17.1292 20.8744 18.4236 21.4509 19.3777 22.3871L20.1274 23.1798L20.8772 22.3871C21.8313 21.3782 23.0576 20.8744 24.4207 20.8744C25.5783 20.8017 26.8051 21.3782 27.7587 22.3871H27.7589ZM36.822 4.08639C37.3672 4.08639 37.8443 4.59082 37.8443 5.16733C37.8443 5.74383 37.3672 6.24827 36.822 6.24827L4.04589 6.24771C3.50065 6.24771 3.02356 5.74328 3.02356 5.16677C3.02356 4.59026 3.50064 4.08583 4.04589 4.08583L36.822 4.08639ZM25.8511 50.9186C25.8511 51.2789 25.783 51.6392 25.783 51.9995C25.783 52.3598 25.783 52.7202 25.8511 53.0805L7.04406 53.0799C3.29604 53.0799 0.297729 49.3332 0.297729 44.7943V5.16829C0.297729 2.57455 2.06928 0.485352 4.18209 0.485352H38.73C39.2752 0.485352 39.7523 0.989782 39.7523 1.56629C39.7523 2.1428 39.2752 2.64723 38.73 2.64723L4.18209 2.64667C3.15976 2.64667 2.34236 3.79967 2.34236 5.16833C2.34236 6.53751 3.16023 7.68998 4.18209 7.68998H38.7976C39.3429 7.68998 39.82 8.19442 39.82 8.77092V38.3835C39.4792 38.3835 39.1384 38.3115 38.7976 38.3115C38.4568 38.3115 38.1161 38.3115 37.7753 38.3835L37.7758 9.85206H4.18145C3.49989 9.85206 2.8865 9.63588 2.34173 9.27557V44.7958C2.34173 48.1823 4.45399 50.92 7.04343 50.92L25.8511 50.9186ZM38.7299 40.1115C32.5287 40.1115 27.4863 45.443 27.4863 51.9996C27.4863 58.5562 32.5287 63.8877 38.7299 63.8877C44.931 63.8877 49.9734 58.5562 49.9734 51.9996C49.9734 45.443 44.931 40.1115 38.7299 40.1115ZM38.7299 61.7257C33.6875 61.7257 29.5304 57.3311 29.5304 51.9989C29.5304 46.6674 33.6868 42.272 38.7299 42.272C43.7723 42.272 47.9293 46.6667 47.9293 51.9989C47.9293 57.3309 43.841 61.7257 38.7299 61.7257ZM42.8868 49.4058C43.2957 49.8382 43.2957 50.4868 42.8868 50.9186C42.4778 51.351 41.8644 51.351 41.456 50.9186L39.8208 49.1896V57.4031C39.8208 57.9796 39.3437 58.4841 38.7985 58.4841C38.2532 58.4841 37.7762 57.9796 37.7762 57.4031V49.1896L36.1409 50.9186C35.732 51.351 35.1186 51.351 34.7102 50.9186C34.5058 50.7024 34.4376 50.4142 34.4376 50.1259C34.4376 49.8376 34.5058 49.5494 34.7102 49.3332L38.1174 45.7307C38.3219 45.5145 38.5263 45.4424 38.799 45.4424H39.0034C39.2079 45.4424 39.4123 45.5866 39.5487 45.7307L39.6168 45.8027L42.8868 49.4058Z" fill="black"/>
</svg>
