<svg width="62" height="65" viewBox="0 0 62 65" fill="none" xmlns="http://www.w3.org/2000/svg">
<path d="M40.0427 26.4936L41.2959 26.75C41.3562 26.7618 41.418 26.7685 41.4793 26.7685C41.5395 26.7685 41.6013 26.7618 41.6599 26.75L42.9396 26.4914C47.4595 25.578 50.8683 20.3951 50.8683 14.3815C50.8683 13.8184 50.4361 13.362 49.9041 13.362L33.0839 13.3615C32.5513 13.3615 32.1197 13.8726 32.1197 14.4357C32.1197 20.3855 35.5259 25.5686 40.0421 26.4935L40.0427 26.4936ZM48.906 15.4011C48.5806 19.9812 45.969 23.8034 42.5782 24.4894L41.4808 24.7112L40.4099 24.4922C37.0312 23.8006 34.426 19.9986 34.0868 15.4012L48.906 15.4011Z" fill="black"/>
<path d="M57.4769 56.8027H56.3442C56.6934 55.2184 56.8768 53.6146 56.8768 52.0152C56.8768 43.151 51.8571 35.6179 44.8308 33.7474V31.4721C51.8571 29.6019 56.8768 22.0677 56.8768 13.2043C56.8768 11.6055 56.6934 10.0012 56.3442 8.41685H57.4769C59.5085 8.41685 61.161 6.67001 61.161 4.5216C61.161 2.37477 59.5089 0.62793 57.4769 0.62793H25.511C23.4806 0.62793 21.8285 2.37477 21.8285 4.5216C21.8285 6.31206 22.9829 7.8085 24.541 8.26212C18.1059 8.83248 12.31 11.8083 7.98051 16.3576C7.95779 16.3778 7.92979 16.3856 7.90812 16.4085C7.88699 16.4308 7.87906 16.461 7.86004 16.485C3.06164 21.5908 0.0898438 28.6178 0.0898438 36.3674C0.0898438 44.117 3.06178 51.143 7.86004 56.2498C7.87906 56.2738 7.88646 56.3034 7.90812 56.3263C7.92926 56.3487 7.95779 56.357 7.98051 56.3771C12.3383 60.9557 18.1816 63.937 24.6654 64.4794C24.938 64.5475 25.2186 64.5928 25.5108 64.5928H57.4767C59.5082 64.5928 61.1607 62.846 61.1607 60.6991C61.1607 58.5511 59.5086 56.8039 57.4772 56.8039L57.4769 56.8027ZM54.9478 13.2039C54.9478 21.4163 50.2108 28.3341 43.6852 29.6541C43.2309 29.7457 42.9017 30.1652 42.9017 30.6551V34.5661C42.9017 35.056 43.2309 35.4756 43.6852 35.5672C50.2102 36.8867 54.9478 43.8047 54.9478 52.0174C54.9478 53.6156 54.7518 55.2222 54.364 56.8048H49.5229C49.1324 52.6711 46.3597 49.2126 42.7275 48.5702L41.6412 48.3791C41.5355 48.3607 41.4288 48.3629 41.3237 48.3802L40.2554 48.5702C36.6257 49.2176 33.8552 52.6766 33.4647 56.8048H28.6246C28.2368 55.2223 28.0408 53.6162 28.0408 52.0174C28.0408 43.8173 32.7731 36.9 39.2918 35.5672C39.7451 35.4744 40.0726 35.0549 40.0726 34.5661V30.6551C40.0726 30.1663 39.7451 29.7474 39.2918 29.6541C32.7727 28.3223 28.0408 21.4048 28.0408 13.2039C28.0408 11.6056 28.2368 9.99909 28.6246 8.41643H54.3634C54.7523 9.99895 54.9478 11.6051 54.9478 13.2039ZM47.613 56.8027H35.3725C35.7403 53.6577 37.8547 51.0639 40.5756 50.578L41.4849 50.4171L42.4116 50.5802C45.1246 51.0584 47.2352 53.6381 47.613 56.8027ZM22.0757 62.0638C17.4623 61.1203 13.3159 58.8098 9.99538 55.5602L12.43 52.9861C12.8067 52.5878 12.8067 51.9426 12.43 51.5443C12.0532 51.146 11.443 51.146 11.0663 51.5443L8.63175 54.1184C4.74686 49.6808 2.30444 43.8347 2.06775 37.3865H5.52037C6.05294 37.3865 6.48458 36.9296 6.48458 36.367C6.48458 35.8039 6.05241 35.3475 5.52037 35.3475H2.06775C2.30444 28.8988 4.74699 23.0527 8.63175 18.6156L11.0663 21.1898C11.2544 21.3886 11.5006 21.4886 11.7479 21.4886C11.9952 21.4886 12.2413 21.3892 12.4294 21.1898C12.8061 20.7915 12.8061 20.1463 12.4294 19.748L9.99487 17.1738C14.3072 12.9534 20.0237 10.3306 26.3214 10.2066C26.184 11.2038 26.1127 12.2054 26.1127 13.2048C26.1127 22.054 31.126 29.5878 38.145 31.4712V33.7493C36.198 34.2716 34.4133 35.242 32.8394 36.5418L27.4525 35.4631L22.2759 23.5644C22.0514 23.0522 21.475 22.8287 20.9963 23.0639C20.5129 23.3002 20.3005 23.9057 20.5229 24.4169L25.9082 36.7938C26.0387 37.0938 26.2986 37.3077 26.605 37.3697L31.0526 38.2602C27.993 41.6962 26.1131 46.6065 26.1131 52.0162C26.1131 53.6151 26.2965 55.2193 26.6457 56.8037H25.5119C23.4815 56.8037 21.8293 58.5505 21.8293 60.6989C21.8288 61.1805 21.9228 61.6374 22.0755 62.0642L22.0757 62.0638ZM23.7575 4.52032C23.7575 3.49804 24.5447 2.66565 25.5116 2.66565H57.4775C58.4454 2.66565 59.2327 3.498 59.2327 4.52032C59.2327 5.54371 58.4455 6.37613 57.4775 6.37613H55.0967L27.8945 6.37669H25.5128C24.5459 6.37669 23.7587 5.54434 23.7587 4.52045L23.7575 4.52032ZM57.4776 62.5515H26.7845C26.1753 62.5515 25.5777 62.5006 24.9791 62.4548C24.2732 62.2146 23.757 61.5219 23.757 60.6968C23.757 59.6734 24.5443 58.841 25.5111 58.841L27.8928 58.8405H57.4769C58.4448 58.8405 59.2321 59.6728 59.2321 60.6963C59.2321 61.7191 58.4449 62.5515 57.4769 62.5515L57.4776 62.5515Z" fill="black"/>
<path d="M42.2906 41.1132C42.2906 41.6763 42.7286 42.1394 43.2612 42.1394C43.7938 42.1394 44.2318 41.6763 44.2318 41.1132C44.2318 40.5507 43.7938 40.0859 43.2612 40.0859C42.7292 40.0859 42.2906 40.5507 42.2906 41.1132Z" fill="black"/>
<path d="M42.3217 37.7484C42.3217 38.3148 41.8869 38.7746 41.3512 38.7746C40.8149 38.7746 40.3806 38.3148 40.3806 37.7484C40.3806 37.1814 40.8149 36.7222 41.3512 36.7222C41.8869 36.7222 42.3217 37.1813 42.3217 37.7484Z" fill="black"/>
<path d="M41.3655 43.4686C41.3655 44.0356 40.9312 44.4948 40.3949 44.4948C39.8592 44.4948 39.4244 44.0356 39.4244 43.4686C39.4244 42.9021 39.8592 42.4424 40.3949 42.4424C40.9312 42.4424 41.3655 42.9021 41.3655 43.4686Z" fill="black"/>
<path d="M44.5494 45.8254C44.5494 46.3924 44.1146 46.8516 43.5788 46.8516C43.0426 46.8516 42.6083 46.3924 42.6083 45.8254C42.6083 45.259 43.0426 44.7992 43.5788 44.7992C44.1146 44.7992 44.5494 45.2589 44.5494 45.8254Z" fill="black"/>
</svg>
