<svg width="70" height="70" viewBox="0 0 70 70" fill="none" xmlns="http://www.w3.org/2000/svg">
<path d="M30.8252 53.6552H26.1561V47.0563C26.1561 46.4593 25.6604 45.9758 25.0498 45.9758C24.4393 45.9758 23.9436 46.4588 23.9436 47.0563V54.7353C23.9436 55.3322 24.4393 55.8158 25.0498 55.8158H30.8246C31.4352 55.8158 31.9309 55.3328 31.9309 54.7353C31.9309 54.1383 31.4357 53.6552 30.8252 53.6552ZM34.6802 39.7555C34.9483 39.7555 35.2176 39.6605 35.4314 39.469L38.9965 36.2502L41.7316 37.8903C42.2513 38.2019 42.9333 38.0444 43.253 37.5346C43.5732 37.0259 43.4102 36.3613 42.8894 36.0485L39.4403 33.9801C39.0161 33.7266 38.4742 33.7785 38.11 34.1074L33.9292 37.8812C33.481 38.2866 33.4529 38.9696 33.868 39.408C34.0864 39.6386 34.3831 39.7553 34.6804 39.7553L34.6802 39.7555ZM68.4198 12.3233L22.0628 0.590796C21.7775 0.518758 21.4774 0.560083 21.2247 0.705274C20.972 0.851019 20.7879 1.08836 20.7153 1.3659L17.5641 13.2521H1.10625C0.495667 13.2521 0 13.7363 0 14.3327V60.1878C0 60.7847 0.495667 61.2683 1.10625 61.2683H11.1563C13.6552 66.3164 18.9354 69.8162 25.0505 69.8162C31.1656 69.8162 36.4457 66.3166 38.9441 61.2683H48.9953C49.6059 61.2683 50.1016 60.7853 50.1016 60.1878V57.289L56.092 58.8051C56.1834 58.828 56.276 58.8397 56.3692 58.8397C56.5653 58.8397 56.7586 58.7894 56.9306 58.6906C57.1833 58.5448 57.3674 58.3075 57.44 58.03L69.2149 13.6416C69.3669 13.0625 69.0113 12.4734 68.4202 12.3237L68.4198 12.3233ZM25.0499 67.6551C17.7567 67.6551 11.8229 61.8603 11.8229 54.7364C11.8229 47.6126 17.7567 41.8166 25.0499 41.8166C32.3432 41.8166 38.2757 47.6126 38.2757 54.7364C38.2752 61.8603 32.3426 67.6551 25.0499 67.6551ZM22.6905 30.386L19.6131 27.5096C19.2232 27.1444 18.6183 27.1086 18.1855 27.4247L6.15676 36.2122V34.5693L18.7657 25.2313L31.4049 37.0476C31.6181 37.247 31.8937 37.348 32.1693 37.348C32.4305 37.348 32.6929 37.2581 32.9022 37.0772L38.9262 31.8715L43.9441 35.3611V45.9037H37.5364C34.7277 42.127 30.1844 39.6572 25.0509 39.6572C19.9176 39.6572 15.3736 42.127 12.5653 45.9037H6.15771L6.15714 38.4482C6.23375 38.4638 6.31036 38.4739 6.3881 38.4739C6.61907 38.4739 6.85119 38.4041 7.04956 38.2583L18.761 29.7031L21.1616 31.9474C21.6035 32.3596 22.3021 32.345 22.7258 31.9145C23.1477 31.4823 23.1323 30.7987 22.6904 30.3861L22.6905 30.386ZM6.1566 31.8586V19.2666H43.943V32.7075L39.4923 29.6128C39.0732 29.3213 38.5026 29.3509 38.1179 29.6842L32.1985 34.8L19.613 23.0344C19.2202 22.6659 18.6125 22.6335 18.1803 22.954L6.1566 31.8586ZM47.8873 59.1078H39.8205C40.251 57.7234 40.4871 56.2571 40.4871 54.7376C40.4871 52.3397 39.896 50.0797 38.8733 48.0643H45.0494C45.66 48.0643 46.1556 47.5813 46.1556 46.9837L46.1551 18.1864C46.1551 17.59 45.6594 17.1058 45.0488 17.1058L5.05099 17.1064C4.4404 17.1064 3.94474 17.5905 3.94474 18.1869V46.9843C3.94474 47.5813 4.4404 48.0649 5.05099 48.0649H11.2265C10.2026 50.0791 9.61263 52.3402 9.61263 54.7381C9.61263 56.2576 9.84875 57.7241 10.2792 59.1083L2.21192 59.1078V15.4142H47.8884L47.8873 59.1078ZM23.9214 13.2527L25.4078 7.65162L47.5398 13.2527H23.9214ZM49.9904 13.8725L61.9865 16.9093L58.534 29.9201L55.0197 25.833C54.6887 25.4482 54.1312 25.3365 53.671 25.5649L50.0985 27.3419L50.099 14.3327C50.099 14.1669 50.0585 14.0127 49.9904 13.8725ZM56.6565 32.8959L53.8478 30.0491C53.5042 29.7006 52.9651 29.6168 52.5289 29.8469L50.0991 31.1201V29.767L53.8917 27.8807L57.853 32.4872L55.1454 42.6937L50.0991 41.4166V33.5718L52.8364 32.1372L55.0638 34.3949C55.2805 34.6155 55.5703 34.7255 55.8602 34.7255C56.1369 34.7255 56.413 34.6256 56.628 34.4228C57.067 34.0096 57.0802 33.3255 56.6565 32.8961L56.6565 32.8959ZM55.5732 56.441L50.0991 55.0556V43.648L55.6618 45.0558C55.755 45.0798 55.8482 45.0904 55.9397 45.0904C56.4314 45.0904 56.8807 44.7676 57.0093 44.2807L64.4055 16.404C64.4792 16.1259 64.4364 15.8316 64.2883 15.5842C64.1391 15.3373 63.8967 15.1586 63.612 15.0866L24.8918 5.28615C24.3007 5.13705 23.6975 5.48439 23.5443 6.06125L21.6366 13.2499H19.8476L22.5781 2.95135L66.7939 14.1422L55.5732 56.441Z" fill="black"/>
</svg>
