<svg width="70" height="68" viewBox="0 0 70 68" fill="none" xmlns="http://www.w3.org/2000/svg">
<path d="M34.7156 30.2522C34.0728 30.2522 33.43 30.1666 32.7872 30.0804C28.1031 29.3947 24.2463 25.793 23.5113 21.4193C22.9602 18.3323 23.8785 15.1596 26.0831 12.7582C28.655 9.92835 32.6957 8.55624 36.6447 9.15643C41.3288 9.84219 45.1856 13.4439 45.9206 17.8175C46.4718 20.9046 45.5534 24.0773 43.3488 26.4787C41.2358 28.88 38.0218 30.2522 34.7156 30.2522ZM34.7156 11.6428C32.1438 11.6428 29.756 12.6721 28.1948 14.4727C26.5414 16.2733 25.8986 18.589 26.2664 20.9898C26.8176 24.3342 29.7565 26.9923 33.2461 27.5069C36.2768 27.9359 39.3074 26.9067 41.2365 24.7627C42.8899 22.9621 43.5327 20.6463 43.1648 18.2456C42.6137 14.9012 39.6747 12.243 36.1851 11.7285C35.7256 11.6429 35.1745 11.6428 34.7156 11.6428Z" fill="black"/>
<path d="M34.7157 55.2066L33.6133 53.8345C32.7866 52.8052 14.6937 29.5664 14.6937 19.6183C14.6937 9.32774 23.694 0.923218 34.7158 0.923218C45.7363 0.923218 54.7364 9.32698 54.7364 19.6183C54.7364 29.5655 36.5517 52.805 35.8167 53.7487L34.7157 55.2066ZM34.7157 3.49786C25.1641 3.49786 17.4497 10.7012 17.4497 19.6194C17.4497 27.423 30.7663 45.5159 34.7157 50.7473C38.6646 45.5162 51.9816 27.337 51.9816 19.6194C51.9816 10.7015 44.2669 3.49786 34.7157 3.49786Z" fill="black"/>
<path d="M34.7156 67.7267C15.2447 67.7267 0 62.0672 0 54.7781C0 48.4322 11.0211 43.3728 27.3689 42.0868L27.5528 44.6593C13.4095 45.7741 2.66456 50.1477 2.66456 54.7781C2.66456 59.6658 15.7979 65.1542 34.6239 65.1542C53.4517 65.1542 66.5833 59.6658 66.5833 54.7781C66.5833 50.0616 55.9301 45.6886 41.695 44.6593L41.879 42.0868C58.2263 43.3733 69.2479 48.4328 69.2479 54.7781C69.4318 61.9815 54.1857 67.7267 34.7156 67.7267Z" fill="black"/>
</svg>
