<svg width="36" height="34" viewBox="0 0 36 34" fill="none" xmlns="http://www.w3.org/2000/svg">
<path d="M0.940063 25.0268V8.86537C0.940063 3.98936 4.99436 0 9.94973 0H26.3742C31.3296 0 35.3838 3.98936 35.3838 8.86537V25.0268C35.3838 29.9028 31.3296 33.8922 26.3742 33.8922H9.94973C4.99436 33.8922 0.940063 29.9028 0.940063 25.0268Z" fill="black"/>
<path d="M23.5084 10.5591C22.8546 10.5591 22.3246 11.0808 22.3246 11.7243C22.3246 12.3677 22.8546 12.8894 23.5084 12.8894C24.1621 12.8894 24.6922 12.3677 24.6922 11.7243C24.6922 11.0808 24.1621 10.5591 23.5084 10.5591Z" fill="white"/>
<path d="M18.2445 12.0532C15.5024 12.0532 13.2715 14.2484 13.2715 16.9466C13.2715 19.6448 15.5024 21.84 18.2445 21.84C20.9866 21.84 23.2176 19.6448 23.2176 16.9466C23.2176 14.2484 20.9866 12.0532 18.2445 12.0532ZM18.2445 20.0818C16.4883 20.0818 15.0595 18.6759 15.0595 16.9478C15.0595 15.2197 16.4883 13.8138 18.2445 13.8138C20.0007 13.8138 21.4295 15.2197 21.4295 16.9478C21.4307 18.6747 20.0019 20.0818 18.2445 20.0818Z" fill="white"/>
<path d="M22.1926 26.8814H14.13C10.786 26.8814 8.06506 24.204 8.06506 20.9135V12.98C8.06506 9.6884 10.786 7.01221 14.13 7.01221H22.1926C25.5367 7.01221 28.2588 9.68956 28.2588 12.98V20.9135C28.2588 24.204 25.5378 26.8814 22.1926 26.8814ZM14.1312 8.88055C11.8343 8.88055 9.965 10.7188 9.965 12.98V20.9135C9.965 23.1736 11.8331 25.013 14.1312 25.013H22.1938C24.4907 25.013 26.36 23.1748 26.36 20.9135V12.98C26.36 10.7199 24.4907 8.88055 22.1938 8.88055H14.1312Z" fill="white"/>
</svg>
