<svg width="57" height="65" viewBox="0 0 57 65" fill="none" xmlns="http://www.w3.org/2000/svg">
<path d="M50.9689 44.4167C51.2083 44.3586 51.4804 44.1408 51.883 43.6693C53.5091 41.7644 54.9124 39.2243 55.772 36.8345C57.1478 33.0085 56.9735 28.4239 54.0448 25.8062V24.6481C54.0448 22.8175 52.6854 21.2874 50.9536 21.1646C49.879 21.0847 48.7848 21.0333 47.6806 20.987C46.812 19.7127 45.8525 18.6854 44.453 17.8313C44.3537 16.8169 43.9786 15.836 43.3673 15.0388C45.2165 12.5406 45.803 9.05825 44.8989 6.0332C44.919 5.97957 44.946 5.92874 44.9534 5.86897C45.1531 4.28588 44.1138 2.91557 43.0518 2.74854C42.2023 2.61224 41.3855 2.88373 40.6325 3.196C35.3116 5.40089 30.9824 9.72688 27.16 13.5641C26.1351 13.0133 24.8438 12.8149 23.4569 13.1121C17.9146 5.8891 15.6829 1.75917 11.9049 0.830193C11.097 0.631884 9.90826 0.560381 9.0751 0.84751C8.46329 1.05812 7.80287 1.64187 7.36116 2.28703C7.23383 2.34456 7.12341 2.43115 7.04627 2.56076C5.98326 4.33105 4.81039 6.71799 5.18126 9.48262C5.43644 11.4328 6.36737 13.255 7.74107 14.5673C5.97804 15.8046 5.34924 18.6011 7.14088 21.0507C5.8211 20.9942 4.56835 20.9294 3.36121 20.8518C1.90453 20.7552 0.646667 21.9439 0.646667 23.5186V30.7444C0.646667 32.2275 1.78787 33.4346 3.19106 33.4346H3.31205C3.24284 33.7363 3.30043 31.7973 3.27982 57.5243C3.27982 60.3437 5.11576 62.9536 9.74293 63.6513C12.1706 64.0178 14.6215 64.1502 17.0683 64.2781C19.4643 64.4032 21.8725 64.7144 24.2711 64.4731C25.165 64.3831 26.0537 64.215 26.9529 64.1954C27.8379 64.1764 28.6652 64.4725 29.5465 64.5306C31.3867 64.6513 33.2084 64.2379 35.0332 64.0669C40.0778 63.5943 39.5684 64.6351 49.0469 62.9704C49.9081 62.819 50.8121 62.648 51.4873 62.0631C52.7981 60.9269 52.0785 58.8734 50.8607 58.6561C51.0541 57.6657 50.931 58.2171 50.9695 44.4163L50.9689 44.4167ZM29.0997 19.3517C29.2133 19.3964 29.3253 19.4439 29.4384 19.4897C29.3671 19.6288 29.3274 19.7875 29.3539 19.9562C31.2732 32.2475 32.3712 49.1212 31.3747 62.2665C31.362 62.5072 31.3298 62.6553 31.1935 62.8228C30.2895 63.3278 29.2592 62.391 27.9061 62.2173C26.6825 62.0793 25.5852 62.5927 24.5681 62.8368C23.9457 62.9815 23.0966 62.9496 22.6027 62.4435C22.8679 57.4594 24.8676 42.9215 21.36 21.3588C23.8538 23.4168 27.8216 22.8314 29.0997 19.3517ZM42.7022 22.3342C44.1129 22.3448 45.5209 22.3794 46.902 22.4342C47.2105 22.9648 47.4863 23.5386 47.7357 24.1441C45.5384 25.0709 44.394 27.2607 44.3396 29.5521C41.9637 28.1209 38.6495 28.9856 36.9487 31.9492H32.2164C31.9469 28.8578 31.5982 25.7518 31.1703 22.6721C34.0365 23.0665 35.8931 23.0911 37.7697 22.9693C39.4779 23.4726 41.2942 23.462 42.7022 22.3342ZM48.254 25.5194C48.4812 26.226 48.6751 26.9858 48.8431 27.8098C48.0611 28.8114 49.0555 30.1963 50.1882 29.7996C51.3558 29.3862 51.4161 27.5361 50.147 27.1868C49.9954 26.4852 49.8258 25.8238 49.6314 25.2026C52.5166 25.0412 55.3564 28.1979 54.1597 34.2317C53.5653 37.222 52.2835 40.0425 50.4496 42.4049C49.9023 42.3373 48.5059 42.0423 47.9289 41.9222C42.3804 40.7676 41.2846 40.9904 39.7704 40.0039C38.5161 39.1872 37.618 37.7281 37.4267 36.1941C36.901 32.0307 40.9993 29.0158 43.8158 30.9491C44.667 31.5183 45.758 30.8782 45.7385 29.8129C45.7047 28.0695 46.4993 26.2573 48.254 25.5194ZM32.8175 61.6617C33.3833 53.6164 33.2449 44.7711 32.3879 34.0312C33.5281 34.4708 35.0365 34.3776 36.0847 34.3574C35.6166 37.1953 36.9131 39.8805 39.0365 41.2637C40.8449 42.4418 42.1029 42.2212 47.66 43.3742C48.3811 43.5245 49.0273 43.658 49.5699 43.7569V57.5252C49.5699 59.7636 47.8481 61.5848 45.7268 61.5848L32.8175 61.6617ZM30.9477 21.1519C30.8928 20.7804 30.841 20.4078 30.7839 20.038C31.727 20.4425 31.9896 20.5687 34.0949 21.4933C33.118 21.4296 32.0874 21.3178 30.9477 21.1519ZM10.9409 33.9907C14.465 34.122 17.9894 34.2527 21.5135 34.384C22.2251 43.4041 22.148 52.5374 21.2736 61.5841L8.51958 61.5846C6.40204 61.5846 4.68012 59.7642 4.68012 57.5257V33.6248C6.27625 34.1024 8.83025 33.913 10.9409 33.9912L10.9409 33.9907ZM52.637 24.5567C51.6025 23.8807 50.4524 23.5796 49.1082 23.7746C48.9381 23.3428 48.7595 22.9199 48.5598 22.5165C49.3291 22.5534 50.1031 22.5847 50.8591 22.6411C51.8308 22.7098 52.5925 23.5438 52.637 24.5567ZM45.8405 20.9178C45.1848 20.8977 44.5287 20.8821 43.8661 20.8714C44.1471 20.3128 44.2613 19.9408 44.3543 19.5101C44.8916 19.9084 45.3899 20.3838 45.8405 20.9178ZM42.2446 14.1227C42.0751 14.0768 41.8891 14.0958 41.7237 14.1958C41.4564 14.3578 41.0865 14.3545 40.8213 14.1886C40.4879 13.9785 40.0584 14.0958 39.8624 14.4467C39.6648 14.798 39.7742 15.2522 40.1065 15.4611C40.6649 15.8131 41.3185 15.898 42.0048 15.6589C44.2755 17.9906 43.0112 23.4372 37.533 21.3367C34.8648 20.3122 32.3163 19.0257 29.4262 17.8995C29.5096 16.8415 29.2819 15.9293 28.8217 15.1511C34.0983 13.068 39.0767 10.2492 43.6483 6.77623C44.2955 9.27601 43.7613 12.0825 42.2445 14.1227L42.2446 14.1227ZM41.1441 4.57359C41.8061 4.29986 42.3482 4.13675 42.847 4.21217C43.0425 4.24345 43.3827 4.56579 43.5185 5.05123C39.1904 8.43479 34.4707 11.1994 29.4697 13.2932C32.8652 9.92522 36.6777 6.42553 41.1437 4.57358L41.1441 4.57359ZM28.053 17.5594C28.0446 17.8924 27.9976 18.2108 27.912 18.5119C26.7982 22.5267 21.1471 21.3687 20.9337 17.903C20.4603 13.7898 28.044 12.9663 28.053 17.5594ZM9.51108 2.25472C10.0542 2.06702 10.9889 2.12344 11.5895 2.27148C14.7146 3.03959 16.8137 6.73104 22.0421 13.6116C22.0162 13.625 21.9893 13.6362 21.9639 13.6501C19.2557 12.2066 16.6726 10.3358 14.4557 8.67774C12.3218 7.09235 10.1297 5.35109 8.5605 3.05681C8.82995 2.70152 9.21881 2.35519 9.51097 2.25462L9.51108 2.25472ZM9.21416 15.5187C10.5514 16.6946 12.5559 15.5612 11.822 14.5629C11.5832 14.2406 11.1436 14.1819 10.8393 14.435C10.6142 14.6199 10.1741 14.5467 10.0145 14.2852C9.85288 14.0188 9.55859 13.902 9.28174 13.964C7.82506 12.8786 6.81552 11.1552 6.56923 9.27724C6.32144 7.42873 6.94857 5.71664 7.69036 4.30658C9.34776 6.59413 11.6154 8.3773 13.6484 9.88832C15.7258 11.4418 18.1287 13.1702 20.6753 14.5997C19.3116 16.0119 19.1869 18.0973 20.0899 19.7978C19.5225 20.1441 18.9444 20.4061 18.3385 20.6754C16.6331 21.4323 15.2473 22.3249 12.9521 22.4987C11.4042 22.5993 10.8055 22.2457 9.5555 21.4088C9.44455 21.3435 9.42659 21.2893 9.29926 21.2144C8.23097 20.391 7.56733 19.295 7.4755 18.1978C7.37987 17.0694 8.1026 15.6975 9.21416 15.5187ZM2.04787 23.5183C2.04787 22.8127 2.60895 22.2837 3.27308 22.329C4.977 22.4379 6.75803 22.5234 8.72124 22.5926C10.4405 23.8244 11.4596 24.0831 13.0467 23.9752C15.6656 23.7769 17.3299 22.7278 18.8806 22.0396C19.2382 21.8804 19.6017 21.7167 19.9684 21.5335C20.5417 25.0433 20.9886 28.5409 21.3077 31.9535L3.19183 31.954C2.56099 31.954 2.04799 31.4116 2.04799 30.7446L2.04787 23.5183Z" fill="black"/>
<path d="M26.5434 49.0745C26.517 49.4823 26.8076 49.8353 27.1933 49.8633C27.2097 49.8649 27.2261 49.8649 27.2424 49.8649C27.607 49.8649 27.9145 49.5661 27.9398 49.175C28.2405 44.544 28.1607 39.8522 27.7021 35.2323C27.6609 34.8257 27.3138 34.5385 26.9328 34.5737C26.5482 34.6167 26.2692 34.981 26.3094 35.3876C26.7601 39.9225 26.8388 44.5278 26.5434 49.0745Z" fill="black"/>
<path d="M26.1445 19.2831C27.619 18.0357 27.0859 15.2856 25.9009 15.8615C25.5501 16.0318 25.3958 16.4715 25.5575 16.843C25.7397 17.2625 25.6103 17.8379 25.2695 18.1261C24.9678 18.3814 24.9187 18.8473 25.1602 19.1668C25.4005 19.4853 25.8396 19.5395 26.1445 19.2831Z" fill="black"/>
</svg>
