<svg width="68" height="68" viewBox="0 0 68 68" fill="none" xmlns="http://www.w3.org/2000/svg">
<path d="M19.7669 36.4717L37.0496 45.6086C38.0292 46.1259 38.0181 47.6034 37.047 48.1145L19.6547 57.3095C18.7639 57.781 17.7368 57.0766 17.7373 56.0571L17.7315 37.6649C17.7315 36.5526 18.8912 35.894 19.7661 36.4716L19.7669 36.4717ZM21.1543 21.4788C19.9164 22.7882 18.0355 20.7995 19.2735 19.4907C23.9608 14.5346 31.5594 14.5346 36.2465 19.4907C37.4844 20.7995 35.6035 22.7883 34.3656 21.4788C30.718 17.622 24.8017 17.622 21.154 21.4788H21.1543ZM15.9443 15.9701C14.7064 17.2795 12.8255 15.2908 14.0635 13.982C21.6282 5.98358 33.8917 5.98358 41.4565 13.982C42.6943 15.2909 40.8135 17.2796 39.5756 15.9701C33.0507 9.07112 22.4701 9.07112 15.9454 15.9701H15.9443ZM10.7343 10.4614C9.49646 11.7709 7.61553 9.78215 8.85405 8.47335C19.295 -2.56729 36.224 -2.56729 46.6656 8.47335C47.9035 9.7822 46.0226 11.771 44.7848 10.4614C35.3825 0.52011 20.1375 0.52011 10.7346 10.4614H10.7343ZM55.4777 34.9916L65.3529 30.4924C66.2352 30.0919 67.2073 30.7963 67.2073 31.7834L67.2084 61.938C67.2084 62.9312 66.2436 63.663 65.2952 63.2027L55.4777 58.7309V58.9717C55.4777 63.4043 52.0525 67.0259 47.8591 67.0259H7.66027C3.46794 67.0259 0.041687 63.4043 0.041687 58.9717V34.7519C0.041687 30.3192 3.46794 26.6965 7.66027 26.6965H47.8591C52.0525 26.6965 55.4777 30.3192 55.4777 34.7519V34.9926L55.4777 34.9916ZM55.4777 55.6705L64.5481 59.8027V33.9197L55.4777 38.0519V55.6705ZM52.8175 58.9714V34.7516C52.8175 31.8707 50.5842 29.5095 47.8591 29.5095H7.66029C4.9356 29.5095 2.70189 31.8709 2.70189 34.7516V58.9714C2.70189 61.8523 4.93628 64.2135 7.66029 64.2135H47.8591C50.5842 64.2135 52.8175 61.8522 52.8175 58.9714ZM33.4951 46.8609L20.3908 39.9329V53.788L33.4951 46.8609Z" fill="black"/>
</svg>
