<svg width="52" height="60" viewBox="0 0 52 60" fill="none" xmlns="http://www.w3.org/2000/svg">
<path d="M10.9081 59.8704C8.01646 59.8704 5.24321 58.6559 3.19858 56.4941C1.15395 54.3323 0.00537109 51.4 0.00537109 48.3427C0.00537109 45.2853 1.15397 42.3531 3.19858 40.1912C5.24321 38.0294 8.01646 36.8149 10.9081 36.8149C13.7996 36.8149 16.5729 38.0294 18.6175 40.1912C20.6622 42.3531 21.8107 45.2853 21.8107 48.3427C21.8107 51.4 20.6621 54.3323 18.6175 56.4941C16.5729 58.656 13.7996 59.8704 10.9081 59.8704ZM10.9081 39.6963C8.73926 39.6963 6.65973 40.6074 5.12595 42.2285C3.59271 43.8502 2.73101 46.049 2.73101 48.3421C2.73101 50.6352 3.59272 52.8345 5.12595 54.4557C6.65973 56.0774 8.73926 56.9879 10.9081 56.9879C13.0769 56.9879 15.1564 56.0774 16.6902 54.4557C18.2234 52.8345 19.0851 50.6352 19.0851 48.3421C19.0851 46.049 18.2234 43.8502 16.6902 42.2285C15.1564 40.6074 13.0769 39.6963 10.9081 39.6963Z" fill="black"/>
<path d="M40.8897 48.3425C37.9981 48.3425 35.2249 47.1281 33.1803 44.9663C31.1356 42.8044 29.9871 39.8722 29.9871 36.8148C29.9871 33.7575 31.1357 30.8252 33.1803 28.6634C35.2249 26.5015 37.9981 25.2871 40.8897 25.2871C43.7813 25.2871 46.5546 26.5016 48.5992 28.6634C50.6438 30.8252 51.7924 33.7575 51.7924 36.8148C51.7924 39.8722 50.6438 42.8044 48.5992 44.9663C46.5546 47.1281 43.7813 48.3425 40.8897 48.3425ZM40.8897 28.1684C38.7209 28.1684 36.6414 29.0795 35.1076 30.7007C33.5744 32.3224 32.7127 34.5211 32.7127 36.8143C32.7127 39.1074 33.5744 41.3067 35.1076 42.9278C36.6414 44.5495 38.7209 45.4601 40.8897 45.4601C43.0585 45.4601 45.1386 44.5495 46.6718 42.9278C48.2056 41.3067 49.0668 39.1074 49.0668 36.8143C49.0668 34.5211 48.2056 32.3224 46.6718 30.7007C45.1386 29.0795 43.0585 28.1684 40.8897 28.1684Z" fill="black"/>
<path d="M21.8108 48.3426H19.0852V11.6267C19.0857 10.6793 19.3827 9.75821 19.93 9.00742C20.4774 8.25663 21.244 7.71868 22.111 7.47681L46.642 0.387336C47.8688 0.0326052 49.1817 0.310247 50.185 1.13701C51.2105 1.94087 51.8086 3.21677 51.7933 4.56634V35.3745H49.0676V4.56634C49.0724 4.11162 48.869 3.68259 48.5224 3.41334C48.1864 3.15023 47.7542 3.06532 47.3505 3.18318L22.8195 10.2442V10.2436C22.2273 10.4123 21.8146 10.9782 21.811 11.6268L21.8108 48.3426Z" fill="black"/>
</svg>
