<svg width="61" height="51" viewBox="0 0 61 51" fill="none" xmlns="http://www.w3.org/2000/svg">
<path d="M29.4948 41.4964H7.3064C6.13138 41.4964 5.00492 41.0031 4.17446 40.125C3.34339 39.2468 2.87686 38.0552 2.87686 36.8135V7.90303C2.87475 7.0327 3.11144 6.18022 3.55842 5.44902L26.6841 25.4873V25.4878C27.0846 25.818 27.6462 25.818 28.0467 25.4878L51.1724 5.44958V5.44902C51.6194 6.18026 51.8561 7.03269 51.8539 7.90303V17.8549C51.8539 18.4767 52.3305 18.9806 52.9185 18.9806C53.5066 18.9806 53.9837 18.4767 53.9837 17.8549V7.90303C53.9837 6.0641 53.2926 4.30053 52.0627 3.00001C50.8327 1.6995 49.1642 0.968872 47.4249 0.968872H7.30593C5.56615 0.968872 3.8982 1.69956 2.6682 3.00001C1.43821 4.30047 0.747192 6.0641 0.747192 7.90303V36.8135C0.747192 38.6524 1.43826 40.4166 2.6682 41.7171C3.89815 43.0176 5.56615 43.7482 7.30593 43.7482H29.4943C30.0824 43.7482 30.5589 43.2438 30.5589 42.622C30.5589 42.0003 30.0824 41.4964 29.4943 41.4964L29.4948 41.4964ZM47.4254 3.22036C48.1762 3.24159 48.9096 3.46672 49.5546 3.87339L27.3662 23.1466L5.09256 3.87339C5.73766 3.4667 6.47094 3.24158 7.22173 3.22036H47.4254Z" fill="black"/>
<path d="M60.0527 27.8077L54.1544 21.5713V21.5707C53.9611 21.3534 53.6916 21.23 53.409 21.23C53.1268 21.23 52.8568 21.3534 52.664 21.5707L33.0089 42.3526C32.8023 42.556 32.6861 42.842 32.6898 43.1403V49.3773C32.6898 49.6756 32.8018 49.9622 33.0015 50.1733C33.2012 50.3845 33.4723 50.5029 33.7544 50.5029H39.6532C39.9353 50.5068 40.2058 50.3839 40.3982 50.1655L60.0533 29.3836V29.3831C60.2593 29.1792 60.3761 28.8937 60.3761 28.5954C60.3761 28.2965 60.2593 28.0116 60.0533 27.8072L60.0527 27.8077ZM39.206 48.2521H34.8192V43.6138L49.3847 28.2133L53.7926 32.8516L39.206 48.2521ZM55.2837 31.3658L50.8968 26.7274L53.4096 24.0706L57.7964 28.709L55.2837 31.3658Z" fill="black"/>
</svg>
