<svg width="61" height="69" viewBox="0 0 61 69" fill="none" xmlns="http://www.w3.org/2000/svg">
<path d="M2.007 68.3828H55.2429C55.5251 68.3828 55.7961 68.2638 55.9958 68.0532C56.195 67.842 56.3075 67.5554 56.3075 67.2571V39.1132C56.3059 38.7183 56.1094 38.3529 55.7887 38.1507L47.7897 33.0722V16.5977H53.1131C53.3958 16.5977 53.6663 16.4787 53.866 16.2681C54.0657 16.0569 54.1777 15.7704 54.1777 15.4721V9.84285C54.1777 8.64851 53.7292 7.50339 52.9303 6.65864C52.132 5.81457 51.0484 5.33972 49.9187 5.33972H13.718C12.5885 5.33972 11.5054 5.81455 10.7065 6.65864C9.90817 7.50327 9.45907 8.64845 9.45907 9.84285V33.0716L1.45799 38.1478C1.13782 38.3512 0.941812 38.7171 0.941284 39.1126V67.2565C0.941284 67.5548 1.05382 67.8414 1.25353 68.0525C1.45325 68.2631 1.72376 68.3821 2.00641 68.3821L2.007 68.3828ZM14.3907 48.2816L3.07159 63.9324V41.1012L14.3907 48.2816ZM54.1784 41.101V63.9308L42.8592 48.2829L54.1784 41.101ZM41.0218 49.4474L53.0885 66.1307H4.16309L16.2292 49.4474L28.0777 56.9642C28.4148 57.1787 28.837 57.1787 29.174 56.9642L41.0218 49.4474ZM53.1735 39.1134L47.7903 42.5288V35.6973L53.1735 39.1134ZM52.0493 9.84252V14.3456H47.7904V9.84252C47.7904 9.0381 48.1961 8.29518 48.855 7.8929C49.5138 7.49062 50.3259 7.49069 50.9847 7.8929C51.6435 8.29511 52.0493 9.03808 52.0493 9.84252ZM13.7197 7.59129H46.2536C45.8706 8.27281 45.6661 9.04983 45.6614 9.84252V43.8784L28.6261 54.6855L11.5909 43.8784L11.5914 9.84252C11.5914 9.24535 11.8154 8.67276 12.2149 8.25042C12.6143 7.82866 13.1558 7.59124 13.7207 7.59124L13.7197 7.59129ZM9.46078 42.5281L4.07754 39.1126L9.46078 35.6966V42.5281Z" fill="black"/>
<path d="M7.33057 8.71699C7.33216 7.22485 7.89379 5.7942 8.89181 4.73909C9.88984 3.68385 11.2429 3.09006 12.654 3.08835H26.4959V0.836548H12.654C10.6781 0.839341 8.78347 1.67001 7.38657 3.14755C5.98913 4.62511 5.20344 6.62779 5.20087 8.71699V13.22H7.33003L7.33057 8.71699Z" fill="black"/>
<path d="M28.625 0.83728H30.7542V3.08851H28.625V0.83728Z" fill="black"/>
<path d="M58.4363 43.6166H60.5654V59.3775H58.4363V43.6166Z" fill="black"/>
<path d="M58.4363 61.6284H60.5654V63.8796H58.4363V61.6284Z" fill="black"/>
<path d="M21.1712 30.1067H25.43V27.8549H23.7415L25.43 26.0696L27.8715 28.651C28.2873 29.0907 28.9609 29.0907 29.3767 28.651L34.8825 22.8296C35.7041 21.9671 36.1368 20.7739 36.0713 19.5522C36.0058 18.3299 35.4478 17.1964 34.5397 16.4379L35.4532 15.472H38.2068V13.2202H36.0771V10.969H33.9479V13.8799L32.402 15.5145C32.2678 15.5011 32.1378 15.4715 32.0004 15.4715V15.472C30.9184 15.4687 29.8807 15.9234 29.1183 16.7351L28.6243 17.2574L28.1303 16.7351C27.1006 15.6463 25.5996 15.2212 24.1932 15.6195C22.7863 16.0178 21.6879 17.1797 21.3107 18.6669C20.934 20.1544 21.336 21.741 22.3658 22.8297L23.9243 24.4776L22.2358 26.2634V24.4776H20.1066V28.9806C20.1066 29.2794 20.2186 29.5655 20.4183 29.7766C20.6181 29.9878 20.8885 30.1067 21.1712 30.1067ZM23.8715 21.2379C23.4932 20.8547 23.2766 20.3268 23.2713 19.7733C23.2655 19.2191 23.471 18.6867 23.8414 18.2951C24.2117 17.9035 24.7158 17.6862 25.2394 17.6918C25.7629 17.698 26.2622 17.9264 26.6246 18.3264L27.8715 19.6448C28.2873 20.0844 28.9609 20.0844 29.3768 19.6448L30.6236 18.3264C30.9861 17.9264 31.4853 17.698 32.0089 17.6918C32.533 17.6862 33.0365 17.9035 33.4069 18.2951C33.7773 18.6867 33.9828 19.2191 33.9775 19.7733C33.9717 20.3269 33.7551 20.8547 33.3773 21.2379L28.6244 26.2634L26.9353 24.4775L28.3122 23.0217L26.8064 21.4296L25.4301 22.886L23.8715 21.2379Z" fill="black"/>
<path d="M14.7831 33.483H16.9122V35.7343H14.7831V33.483Z" fill="black"/>
<path d="M19.0422 33.483H42.4655V35.7343H19.0422V33.483Z" fill="black"/>
<path d="M14.7831 37.9865H42.4655V40.2377H14.7831V37.9865Z" fill="black"/>
<path d="M20.1067 42.4897H37.1419V44.741H20.1067V42.4897Z" fill="black"/>
</svg>
