<svg width="35" height="34" viewBox="0 0 35 34" fill="none" xmlns="http://www.w3.org/2000/svg">
<path d="M0.556152 25.0268V8.86537C0.556152 3.98936 4.61043 0 9.5658 0H25.9903C30.9456 0 34.9999 3.98936 34.9999 8.86537V25.0268C34.9999 29.9028 30.9456 33.8922 25.9903 33.8922H9.5658C4.61043 33.8922 0.556152 29.9028 0.556152 25.0268Z" fill="black"/>
<path d="M26.7065 14.9929C26.531 15.0103 26.3531 15.0184 26.1764 15.0196C24.2353 15.0196 22.4249 14.0564 21.3612 12.4593V21.1786C21.3612 24.738 18.4283 27.624 14.811 27.624C11.1937 27.624 8.26074 24.7391 8.26074 21.1786C8.26074 17.6193 11.1937 14.7333 14.811 14.7333C14.9476 14.7333 15.0819 14.7449 15.2162 14.7542V17.9299C15.0819 17.9136 14.95 17.8893 14.811 17.8893C12.9652 17.8893 11.4682 19.3624 11.4682 21.1786C11.4682 22.9948 12.9652 24.4679 14.811 24.4679C16.6579 24.4679 18.2881 23.0365 18.2881 21.2192L18.3199 6.40918H21.4072C21.6981 9.13405 23.9314 11.262 26.7077 11.4614V14.9906" fill="white"/>
</svg>
