<svg width="35" height="34" viewBox="0 0 35 34" fill="none" xmlns="http://www.w3.org/2000/svg">
<path d="M0 25.0268V8.86538C0 3.98936 4.05431 0 9.00968 0H25.4341C30.3895 0 34.4438 3.98936 34.4438 8.86538V25.0268C34.4438 29.9028 30.3895 33.8922 25.4341 33.8922H9.00968C4.05431 33.8933 0 29.9028 0 25.0268Z" fill="black"/>
<path d="M7.9165 26.5362L9.35234 21.2638C8.5396 19.8208 8.11202 18.2028 8.11202 16.5616C8.11202 11.1942 12.5503 6.82812 18.0039 6.82812C23.4587 6.82812 27.8958 11.1953 27.8958 16.5616C27.8958 21.9291 23.4575 26.2951 18.0039 26.2951C16.3667 26.2951 14.7494 25.8883 13.3018 25.1152L7.9165 26.5362ZM13.5703 23.1414L13.9096 23.3407C15.1546 24.0709 16.5704 24.4569 18.0051 24.4569C22.4293 24.4569 26.0277 20.9161 26.0277 16.5628C26.0277 12.2095 22.4293 8.66866 18.0051 8.66866C13.5821 8.66866 9.98252 12.2095 9.98252 16.5628C9.98252 18 10.3877 19.4151 11.1557 20.6553L11.3642 20.9914L10.562 23.9342L13.5703 23.1414Z" fill="white"/>
<path fill-rule="evenodd" clip-rule="evenodd" d="M21.6849 17.9161C21.2774 17.6761 20.7473 17.4084 20.2679 17.602C19.9004 17.7503 19.6649 18.3171 19.4269 18.6068C19.3044 18.7552 19.1584 18.7784 18.9711 18.7042C17.5894 18.1629 16.5305 17.2554 15.7684 16.0048C15.6388 15.8101 15.6624 15.6571 15.8179 15.4775C16.0488 15.2109 16.3373 14.9072 16.3998 14.5479C16.4622 14.1886 16.2902 13.7679 16.1394 13.448C15.9463 13.0389 15.7307 12.4559 15.3137 12.2241C14.9309 12.0108 14.4268 12.1302 14.0852 12.4037C13.4963 12.8755 13.2124 13.6149 13.2206 14.3474C13.223 14.556 13.2489 14.7635 13.2984 14.964C13.4174 15.4473 13.6447 15.8982 13.8991 16.327C14.0923 16.6504 14.3008 16.9645 14.5269 17.2658C15.2655 18.2533 16.1854 19.1122 17.249 19.7531C17.7814 20.0742 18.3539 20.3546 18.9463 20.547C19.6118 20.7638 20.2043 20.9886 20.9228 20.8542C21.6743 20.7139 22.4164 20.2561 22.7144 19.5422C22.8027 19.3312 22.8475 19.0959 22.7981 18.8734C22.6979 18.4133 22.0642 18.1386 21.6849 17.9161Z" fill="white"/>
</svg>
