<svg width="91" height="61" viewBox="0 0 91 61" fill="none" xmlns="http://www.w3.org/2000/svg">
<path d="M21.1818 15.9752C21.4121 15.8582 21.6431 15.7411 21.8734 15.624C22.1977 15.8089 22.4719 16.0492 22.6914 16.3526C22.9371 16.8663 22.9933 17.3947 22.8185 17.9408C22.1861 18.9528 21.174 19.4604 20.1219 19.8763C18.1656 20.6504 17.3908 21.9566 18.1402 24.0115C18.1456 25.6328 16.6707 25.7229 15.7195 26.3614C13.1401 26.7727 12.5817 30.0738 9.95533 30.4134C9.67266 30.6006 9.36766 30.7438 9.0511 30.8632C8.05908 31.0696 7.06554 31.2191 6.08199 30.8108C5.81088 30.5482 5.78932 30.2648 6.01576 29.9621L5.98031 29.9991C6.40315 29.1426 7.08324 28.4849 7.69709 27.7755C8.85702 26.9683 9.65571 25.8138 10.3427 24.6439C11.639 22.4349 13.5961 20.8498 15.2967 19.0229C15.9113 18.3629 16.777 18.1041 17.618 17.8414C18.5492 16.7323 20.3269 17.2353 21.1818 15.9752Z" fill="#989269"/>
<path d="M63.4566 17.4729C63.8964 17.3605 64.256 17.4821 64.5356 17.8411C64.4702 18.1823 64.3153 18.4757 64.075 18.7253C62.7742 19.5155 61.9246 20.7894 60.8209 21.7929C59.3083 22.4576 58.937 21.0004 58.1275 20.3596C57.8688 20.2364 57.6107 20.1077 57.345 20.0007C56.9538 19.8852 56.5609 19.7712 56.1728 19.6449C55.9286 19.554 55.7161 19.4107 55.532 19.2398C55.5351 19.2513 55.2978 19.0118 55.2978 19.0118C55.2978 19.0118 55.1322 19.3052 55.133 19.3198C54.9451 19.7042 54.6778 19.9922 54.2835 20.1601C53.9723 20.2079 53.7004 20.1278 53.4547 19.9406C53.1682 19.5609 53.0689 19.1543 53.2553 18.7253C53.3485 18.515 53.4078 18.334 53.4262 18.2054C53.4232 18.297 53.3639 18.4626 53.2368 18.7245C52.8979 19.4839 52.4088 20.013 51.5462 20.0716C51.2196 19.9691 50.9446 19.7881 50.7174 19.5332C50.4317 19.1119 50.2784 18.6436 50.2137 18.1445C50.1675 17.3435 49.9765 16.5725 49.6831 15.8231C49.5945 15.502 49.5945 15.1808 49.6715 14.8581C50.0913 14.1271 50.5657 13.4763 51.5585 13.615C53.6843 13.742 55.7484 14.1757 57.7879 14.788C59.48 15.2963 61.0813 15.9525 62.4407 17.1124C62.7749 17.2426 63.0838 17.4475 63.4566 17.4729Z" fill="#5F592A"/>
<path d="M83.8454 16.3797C82.6809 18.3345 81.1351 19.9435 79.2573 21.2043C78.0727 21.9999 77.1932 22.9704 76.6663 24.3067C76.4961 24.7395 76.0648 25.0692 75.7529 25.4466C75.4956 25.4712 75.2676 25.4004 75.0666 25.2417C74.7393 25.0684 74.395 24.9421 74.023 24.8774C73.7504 24.8527 73.4877 24.8081 73.2197 24.7611C72.6413 24.6417 72.0528 24.5493 71.7008 23.987C71.6292 23.6582 71.6901 23.3593 71.8811 23.0828C72.2423 22.7185 72.6821 22.4967 73.1627 22.3434C75.4202 21.6472 76.5147 18.9977 79.0679 18.8167C79.2134 18.5725 79.5484 18.7358 79.7171 18.524C79.392 18.3776 79.1518 18.8398 78.8167 18.6464C78.0689 18.1058 77.9257 17.4095 78.2738 16.5846C80.1123 15.0311 81.3577 12.9832 82.8272 11.1216C83.3956 11.5691 84.0718 11.0122 84.6572 11.3172C84.6572 13.0479 83.9486 14.6653 83.8454 16.3797Z" fill="#5F5A2D"/>
<path d="M51.5586 13.6143C51.0403 14.1812 50.465 14.6688 49.7271 14.9306C49.5869 14.9946 49.4468 15.0585 49.3058 15.1247C49.0131 15.2395 48.7119 15.3157 48.4008 15.355C47.5975 15.4405 46.8273 15.2818 46.0679 15.04C45.5996 14.9191 45.1267 14.8182 44.6446 14.7589C40.7027 15.2895 36.7369 15.5599 32.7957 16.0913C31.8338 16.1699 30.8048 16.4133 30.382 15.1355C32.0371 11.8005 35.741 13.0575 38.2457 11.6265C42.4156 11.6372 46.5539 11.9261 50.5874 13.0783C50.9348 13.1792 51.2367 13.4326 51.5586 13.6143Z" fill="#908D6B"/>
<path d="M79.6917 18.4038C79.2057 19.6361 78.0735 20.1729 77.0076 20.662C76.4176 20.9331 76.0402 21.1495 75.7775 21.7765C75.2068 23.1421 75.1529 23.1197 73.5902 23.0219C73.4693 23.0142 73.3484 23.0019 73.2275 22.9918C71.8542 21.1503 70.9653 23.9515 69.7215 23.3638C69.3718 23.3939 69.0275 23.3639 68.6871 23.2822C68.3613 23.149 68.0848 22.9441 67.8491 22.6845C67.662 22.3934 67.5364 22.0761 67.4671 21.7364C67.4401 20.6497 67.8915 19.777 68.6825 19.0584C69.4034 19.2001 70.1474 19.5298 70.839 19.4428C72.173 19.2756 73.47 18.8405 74.7948 18.5771C76.1888 18.3005 77.1585 17.3255 78.2722 16.583C78.5549 17.3347 78.6905 18.2012 79.684 18.3999L79.6917 18.4038Z" fill="#6E6833"/>
<path d="M38.2464 11.6287C37.6525 12.0485 37.0841 12.5121 36.4556 12.8718C36.0505 13.1036 35.5429 13.3439 35.1085 13.3C33.9193 13.1814 32.999 13.5396 32.1348 14.3544C31.7166 14.748 31.0588 14.8866 30.5089 15.1408C28.1605 18.4773 25.1321 17.3475 22.1337 16.4155C22.0467 16.1521 21.9597 15.8887 21.8734 15.6253C23.7096 14.8897 25.585 14.2381 27.3688 13.3932C28.759 12.7347 30.2647 12.8002 31.6958 12.4143C33.478 11.9337 35.3342 11.7173 37.1665 11.4354C37.5077 11.383 37.8851 11.5586 38.2464 11.6287Z" fill="#A29E83"/>
<path d="M0.746832 41.1211C0.565835 40.4996 0.769915 39.9389 1.01253 39.3797C1.20277 38.9415 1.37144 38.4932 1.55013 38.0496C2.07695 36.8804 2.68696 35.7659 3.63354 34.8694C4.62556 34.2455 5.72925 34.1855 6.85297 34.2186C7.5708 34.2679 8.26474 34.3873 8.76075 34.9849C9.42467 36.1202 8.22086 37.1299 8.54357 38.2483C8.6075 38.7574 8.55666 39.2395 8.22471 39.6585C6.38778 40.0328 4.53083 40.3532 3.05128 41.6549C2.36811 41.9922 1.70265 41.9884 1.0657 41.5378C0.959409 41.3999 0.85312 41.2605 0.746832 41.1211Z" fill="#7A723B"/>
<path d="M83.8453 16.3798C83.6635 15.6689 83.5079 14.9495 83.2838 14.2517C83.2183 14.0484 82.8293 13.9182 82.8139 13.7349C82.7777 13.3036 83.2129 13.232 83.5155 13.0802C83.6265 13.024 83.749 12.9886 83.8545 12.9239C84.7025 12.404 84.6693 12.052 83.7151 11.3719C83.3454 11.2441 83.2152 10.983 83.2899 10.6087C85.039 9.93551 84.573 8.4182 84.6231 7.09808L84.6339 7.08113C84.801 6.77767 84.9666 6.47267 85.1307 6.16767L85.1484 6.12531C85.2731 5.81723 85.4364 5.53073 85.6336 5.26347C85.6375 5.03472 85.7523 4.90455 85.9795 4.87451C87.439 4.98542 88.0898 6.0352 88.6574 7.18126L88.5974 7.35223C88.5273 7.65492 88.4156 7.94146 88.2631 8.2118L88.2269 8.32655C88.069 8.61307 87.9389 8.91189 87.8418 9.22459L87.811 9.29008C87.5722 9.58198 87.4035 9.89777 87.459 10.2929C87.5845 10.7874 87.6338 11.3003 87.3412 11.7347C86.5825 12.8607 85.7846 13.9606 85.0028 15.0704C84.8188 15.3223 84.6316 15.5718 84.4414 15.8191C84.2426 16.0055 84.044 16.1926 83.8453 16.3798Z" fill="#36341D"/>
<path d="M88.6569 7.18114C88.5244 6.97627 88.4366 6.7013 88.2494 6.57961C87.8358 6.31158 87.6225 6.66741 87.4146 6.9547C87.2713 7.15264 87.1635 7.39141 86.9809 7.54006C86.8161 7.67407 86.5712 7.70949 86.3617 7.78805C86.2886 7.5878 86.1152 7.35904 86.1622 7.19268C86.2939 6.72517 86.5304 6.28847 86.6983 5.82943C86.8639 5.37732 86.7546 5.24717 85.9797 4.87517C86.1222 4.53551 86.2177 4.1658 86.4156 3.86157C87.0957 2.81718 87.9722 1.90758 88.4228 0.70144C88.5237 0.430329 89.0166 0.304775 89.3293 0.112225L89.2962 0.09375C90.0794 1.18821 90.3029 2.38587 89.8831 3.66594C89.4957 4.84435 89.4857 6.15677 88.6569 7.18114Z" fill="#524C2B"/>
<path d="M68.6825 19.0588C68.8088 19.6411 68.8119 20.181 68.3906 20.687C68.1788 20.9404 68.0964 21.3016 67.9546 21.6143C67.595 22.0949 67.1044 22.0649 66.5937 21.9702C66.2672 21.8762 65.9621 21.7329 65.6756 21.5496C65.4022 21.3509 65.1596 21.1183 64.937 20.8641C64.4572 20.0254 63.4706 19.4416 63.613 18.2832C63.9204 18.1361 64.2276 17.9898 64.5349 17.8427C66.0492 17.8003 67.3462 18.4973 68.6825 19.0588Z" fill="#605C29"/>
<path d="M75.3824 24.6563C75.5057 24.9197 75.6289 25.1831 75.7521 25.4465C75.2723 26.4293 74.7779 27.4067 74.318 28.3995C74.117 28.8339 73.9845 29.3014 73.8213 29.7535C73.487 30.0023 73.1535 30.251 72.8192 30.499C72.4603 30.4621 72.2292 30.2649 72.1052 29.9322C72.0444 28.5866 72.5974 27.3682 72.8923 26.095C73.0834 25.4742 73.2543 24.8411 73.755 24.3752C73.9876 24.3112 74.2217 24.2542 74.4574 24.2026C74.7632 24.359 75.0713 24.5107 75.3824 24.6563Z" fill="#423C17"/>
<path d="M84.6241 7.09766C84.8135 8.11509 85.5606 8.82983 86.0281 9.69631C86.1791 9.97589 85.8595 10.4981 85.5183 10.5158C84.7758 10.5543 84.0333 10.5797 83.29 10.6098C83.6382 9.50684 83.9817 8.40238 84.3437 7.3033C84.3737 7.21473 84.5278 7.1662 84.6241 7.09766Z" fill="#524C2B"/>
<path d="M21.1818 15.9756C21.1402 17.0616 21.1371 17.0454 20.4077 17.201C19.475 17.3997 18.5477 17.6277 17.6173 17.8433C17.9924 17.5352 18.3274 17.1432 18.7533 16.9376C19.5351 16.5594 20.3692 16.2906 21.1818 15.9756Z" fill="#A19D6F"/>
<path d="M83.29 10.6074C83.4317 10.8624 83.5734 11.1181 83.7152 11.3722C83.6027 11.5317 83.491 11.6919 83.3786 11.8528C83.2384 11.705 83.089 11.5633 82.9604 11.4054C82.8957 11.326 82.8695 11.2167 82.8256 11.1204C82.8402 10.8231 82.995 10.6521 83.29 10.6074Z" fill="#524C2B"/>
<path d="M0.715982 42.9152C0.568874 42.44 0.421767 41.9647 0.274658 41.4895C0.431779 41.3655 0.588911 41.2423 0.747572 41.1206C0.904693 41.2138 1.06183 41.3078 1.21818 41.4033C1.66798 42.1126 1.84048 42.7295 0.715982 42.9152Z" fill="#7A723B"/>
<path d="M63.4566 17.4733C63.1177 17.3531 62.7788 17.2322 62.4399 17.1121C62.8451 17.0466 63.1817 17.1729 63.4566 17.4733Z" fill="#605C29"/>
<path d="M88.2625 8.21237C88.1593 7.8419 88.2748 7.55615 88.5975 7.35205C88.723 7.73176 88.6037 8.0152 88.2625 8.21237Z" fill="#524C2B"/>
<path d="M87.8413 9.22401C87.7504 8.82967 87.8829 8.53238 88.2264 8.3252C88.3835 8.74804 88.2395 9.04071 87.8413 9.22401Z" fill="#524C2B"/>
<path d="M87.4591 10.2924C87.3167 9.86643 87.4492 9.53756 87.8112 9.28955C87.9074 9.6993 87.8034 10.0382 87.4591 10.2924Z" fill="#524C2B"/>
<path d="M85.6337 5.26318C85.6615 5.65753 85.5066 5.94865 85.1485 6.12503C85.0291 5.67985 85.1886 5.39104 85.6337 5.26318Z" fill="#524C2B"/>
<path d="M85.1308 6.16748C85.1971 6.59802 85.0268 6.90072 84.634 7.08094C84.5817 6.6581 84.755 6.35695 85.1308 6.16748Z" fill="#524C2B"/>
<path d="M84.4415 15.8182C84.4253 15.4154 84.6117 15.1644 85.0038 15.0688C85.033 15.4832 84.8759 15.7543 84.4415 15.8182Z" fill="#5F5A2D"/>
<path d="M57.6154 49.9886C57.5106 50.1788 57.3504 50.2635 57.134 50.2443C56.2899 50.9582 55.4133 51.1285 54.4853 50.4122C54.1772 50.1942 54.4884 49.6828 54.2057 49.5734C53.9746 49.4841 54.047 50.0764 53.6943 50.1079C51.4692 49.93 49.6623 51.2378 47.6436 51.7847C47.3778 51.5405 47.1937 51.2448 47.089 50.8989C47.3439 48.7971 46.9881 46.6598 47.4387 44.5656C49.0461 42.5846 51.8289 42.1417 53.3631 40.006C53.7674 39.443 55.2023 39.2804 55.0421 40.2155C54.6601 42.4375 55.3833 44.8983 54.2196 46.8415C55.2093 46.5211 55.5458 45.0184 56.5948 44.259C56.9676 43.9895 57.4013 43.1222 57.0801 43.0244C53.2799 41.8622 56.4916 39.5808 56.1897 37.8833C56.6064 36.5609 57.3365 35.5565 58.8115 35.3178C60.043 35.26 61.3092 34.8641 62.4668 35.6459C63.1639 36.6171 61.6219 37.7501 62.6894 38.702C62.5931 40.2486 61.5372 41.6188 61.8838 43.2408C60.9542 45.8002 58.535 47.4192 57.6154 49.9886Z" fill="#5A562C"/>
<path d="M34.3476 59.5764C32.5538 60.3381 30.7338 60.2465 28.9015 59.742C28.6073 59.581 28.4055 59.3423 28.29 59.028C26.8605 57.8812 25.4325 56.7297 24.0846 55.4943C23.2274 54.7079 22.0228 53.9424 22.9848 52.4482C24.4205 51.2367 26.0263 50.3116 27.7454 49.5722C30.4141 48.8359 32.9312 48.6349 34.5209 51.5609C34.7781 51.7712 35.0338 51.9914 35.2919 52.2002C35.5429 52.3981 35.774 52.6253 35.995 52.8571C36.4225 53.31 36.9023 53.7059 37.4168 54.0664C37.6679 54.2736 37.8335 54.5354 37.9213 54.8481C37.9028 55.177 37.7696 55.4527 37.5416 55.6869C36.9223 56.1706 36.1214 56.3385 35.5167 56.8553C35.2657 57.0648 34.9799 57.1903 34.6541 57.2304C34.3684 57.0563 34.068 56.9223 33.7491 56.8214C32.7872 56.7521 31.8336 56.8306 30.8786 56.8776C31.8452 56.9823 32.8087 56.7274 33.7738 56.8622C34.0988 56.9631 34.413 57.0933 34.7127 57.2573C35.0924 57.9112 34.953 58.5597 34.6919 59.2082C34.5787 59.3307 34.4631 59.4539 34.3476 59.5764Z" fill="#524D22"/>
<path d="M35.5722 53.4782C35.4905 53.2387 35.4089 52.9999 35.328 52.7604C35.9272 51.5889 36.8807 51.334 38.0715 51.6937C39.2945 53.4197 40.9959 52.2004 42.4677 52.3961C42.993 52.1465 43.8218 53.3119 44.1052 52.0156C43.603 50.6131 43.4651 49.1412 45.0772 48.5736C47.1598 47.8396 46.6739 50.1825 47.5203 50.9728C47.6058 51.2161 47.6912 51.4587 47.7767 51.7021C50.1166 52.7203 51.9774 49.6927 54.345 50.9273C54.4875 51.2577 54.5207 51.5958 54.4305 51.9455C53.5772 53.1108 52.2732 53.697 51.1472 54.5118C47.3085 57.0674 42.9576 58.3159 38.5528 59.4157C38.2109 59.5012 37.8119 59.3587 37.4399 59.3225C37.5377 58.9805 37.7141 58.6871 37.9752 58.446C38.2455 58.2319 38.5405 58.0547 38.8501 57.9038C39.4409 57.5433 40.483 57.5356 40.5107 56.7323C40.5484 55.6479 39.3238 55.7773 38.6568 55.3652C38.18 55.1626 37.9559 54.6505 37.4969 54.4256L37.4992 54.4271C36.8576 54.1083 36.2207 53.7817 35.5722 53.4782Z" fill="#544F26"/>
<path d="M22.5981 53.1435C24.6469 54.8757 26.7002 56.6025 28.7274 58.3585C28.8214 58.4394 28.6812 58.7914 28.6504 59.0163C28.5449 59.2751 28.3839 59.4253 28.1682 59.4676C27.9433 59.5115 27.8217 59.5054 27.8024 59.4499C27.6014 59.5801 27.4042 59.5747 27.2109 59.433C25.7568 59.1164 24.2795 58.9339 22.813 58.6928C22.0921 58.5904 21.3581 58.5164 20.9237 57.804C18.905 56.8289 23.7357 57.6677 21.2765 56.4115C19.4704 55.4888 18.4622 53.6449 17.2283 52.0899C17.1636 51.7394 17.1898 51.3959 17.3115 51.0609C17.4832 50.6018 17.6566 50.1266 17.95 49.7407C18.56 48.9374 18.6678 47.3524 20.1682 47.7898C21.4614 48.1672 21.5738 49.3248 21.258 50.5256C20.9907 51.5399 21.7563 52.0883 22.3193 52.7207C22.4141 52.8608 22.5065 53.0025 22.5981 53.1435Z" fill="#241E08"/>
<path d="M57.6154 49.9892C57.7001 49.3862 57.784 48.7823 57.8695 48.1785C58.0497 46.9077 58.5711 45.8463 59.7326 45.1932C60.6368 44.6849 60.9341 43.672 61.608 42.9742C62.1172 41.5116 63.0422 40.3448 64.1883 39.3312C64.474 39.1363 64.7851 39 65.1225 38.9214C66.1191 38.8806 66.7577 39.3427 67.0442 40.2955C66.9695 41.2174 66.4611 41.9375 65.885 42.5907C64.8144 43.8037 63.7669 45.0515 62.5747 46.1375C61.1144 47.4684 59.517 48.6491 57.9727 49.8868C57.8826 49.9576 57.7355 49.9569 57.6154 49.9892Z" fill="#807E64"/>
<path d="M17.3631 51.6129C18.2034 52.2938 19.3425 52.5318 19.7823 53.8019C20.1466 54.8547 21.2141 55.4955 22.1107 56.1841C22.6151 56.5715 22.5343 56.9528 21.9235 57.2917C21.5962 57.4734 21.2565 57.6344 20.9222 57.8046L20.9099 57.7876C19.5674 56.4113 17.9277 55.6434 16.0307 55.4008C15.232 55.4693 14.6636 55.0896 14.2192 54.4689C12.9322 53.2958 12.7304 51.9765 13.68 50.5016C14.4841 49.8754 15.3514 50.1727 16.2109 50.3298C16.5406 50.413 16.8517 50.5455 17.1436 50.7218C17.3986 50.9722 17.4802 51.2679 17.3631 51.6129Z" fill="#0D0903"/>
<path d="M7.7665 50.235C7.01401 50.2273 6.4433 49.8776 5.99735 49.2946C5.53369 48.9018 5.67618 48.4713 5.91494 48.0346C6.36628 47.4384 7.10105 47.0941 7.39912 46.3578C7.5031 46.0698 7.6325 45.7979 7.77806 45.5291C8.50205 44.6518 9.54874 45.231 10.4083 44.936C11.1092 44.9615 11.76 45.124 12.2961 45.6107C12.511 45.8996 12.6665 46.2153 12.7667 46.5604C12.8891 47.051 12.7713 46.4279 12.8499 46.9262C13.111 48.5853 14.4003 50.5616 12.8013 51.8163C11.3711 52.9384 10.3082 50.644 8.88175 50.3821C8.51282 50.3151 8.14005 50.272 7.7665 50.235Z" fill="#5F5928"/>
<path d="M62.5708 38.644C62.2465 38.4769 61.9261 38.3013 61.5957 38.1457C61.3131 38.0132 61.1814 37.8145 61.3408 37.6112C61.7197 37.1275 62.1395 36.6754 62.5423 36.2109C62.6024 34.6513 63.988 33.6516 64.1874 32.0796C64.3615 30.7063 65.4845 30.8257 66.5096 31.3363C66.9432 32.2922 67.8112 32.6518 68.7386 32.9268C69.4148 33.3342 70.1349 33.6839 70.6517 34.3124C70.698 34.7429 70.4923 35.0395 70.1488 35.2628C70.0109 35.8335 69.1352 35.8697 69.1945 36.5822L69.186 36.6007C67.6564 36.7262 65.6786 35.5878 64.9946 38.0972C64.4747 38.6617 63.847 38.9536 63.0699 38.8774C62.9027 38.8003 62.7371 38.7218 62.5708 38.644Z" fill="#423C17"/>
<path d="M54.0254 51.1829C53.6858 51.2022 53.2629 51.0982 53.0211 51.2623C51.6878 52.1642 50.1505 52.5146 48.6563 52.9814C47.8838 53.2224 47.5588 52.7333 47.776 51.7013C48.5123 50.8718 49.251 50.0446 49.9834 49.212C50.293 48.8608 50.4725 48.8431 50.8791 49.2805C51.1988 49.6241 51.4021 50.174 51.9127 49.4662C52.0128 49.3283 52.3726 49.2097 52.4889 49.2813C53.0542 49.6302 53.6249 49.728 54.2511 49.517L54.2411 49.5124C55.0313 50.4412 56.0472 50.4774 57.1324 50.244C56.7781 51.1113 56.0048 51.4517 55.2138 51.7706C55.0567 51.7745 54.8996 51.7783 54.7425 51.7829C54.5345 51.5472 54.295 51.347 54.0254 51.1829Z" fill="#686541"/>
<path d="M64.7166 37.931C64.7005 37.5605 64.5334 37.0945 64.6959 36.8365C65.2265 35.997 65.8596 35.2183 66.502 34.4574C66.5936 34.3488 67.0288 34.378 67.1728 34.4997C67.447 34.7308 67.6789 35.0497 67.8329 35.3778C68.1194 35.9878 68.5715 36.3729 69.1854 36.5993C68.8049 38.0242 68.0062 39.2072 67.0434 40.2947C66.4288 39.982 65.8149 39.6693 65.2003 39.3559C64.5718 39.0401 64.8491 38.4154 64.7166 37.931Z" fill="#63603C"/>
<path d="M7.76648 50.235C7.86507 50.1579 7.96211 50.0801 8.06146 50.0054C9.00804 49.2892 9.39161 49.2299 9.99468 49.7151C10.6686 50.2573 11.3233 50.8257 12.0242 51.3302C12.1397 51.4134 12.4601 51.2493 12.6642 51.1538C12.7451 51.1161 12.8282 50.9389 12.8067 50.8496C12.5448 49.7682 12.2653 48.6907 11.9849 47.614C11.8509 47.0979 11.9787 46.6343 12.239 46.1914C13.1417 46.4856 13.439 47.2966 13.8257 48.033C14.1191 48.6222 14.4418 49.2021 14.5597 49.863C14.5173 50.0216 14.4734 50.1803 14.4287 50.3397C13.5176 51.6722 13.7749 53.0647 14.2193 54.4665C14.0968 54.448 13.9435 54.4711 13.8565 54.4056C11.8863 52.9299 9.62575 51.8755 7.76648 50.235Z" fill="#4B411C"/>
<path d="M6.50334 48.1309C6.33467 48.5191 6.16598 48.9072 5.99653 49.2954C5.57138 49.0543 5.09614 48.8726 4.73184 48.5607C3.69515 47.6734 2.7039 46.7322 1.69494 45.8126C1.63178 45.0201 2.05694 44.4871 2.63536 44.0342C3.53419 43.4819 4.47921 43.1431 5.54825 43.4488C5.83323 43.6044 6.04349 43.8339 6.1621 44.1397C6.13206 44.7366 5.88022 45.3166 5.99884 45.9304C6.15596 46.6675 6.73979 47.3083 6.50334 48.1309Z" fill="#847842"/>
<path d="M2.89103 44.6174C2.49284 45.0156 2.09387 45.4138 1.69568 45.8113C0.736007 45.5494 0.406361 44.8539 0.464126 43.9397C0.485692 43.5939 0.628923 43.2565 0.715955 42.9153C1.16498 42.5032 1.18965 41.9518 1.21661 41.4019C1.67719 41.4103 2.13699 41.4173 2.5968 41.425C3.5765 41.3479 4.44604 41.6807 4.70329 42.6311C5.09301 44.076 3.12594 43.6008 2.89103 44.6174Z" fill="#52441E"/>
<path d="M70.6518 34.3112C69.7291 34.5561 69.0837 34.2596 68.7587 33.3392C68.7286 33.1667 68.6986 32.9942 68.6663 32.8209C68.8226 31.0979 69.4064 29.7154 71.3704 29.4351C71.7293 29.4405 72.0613 29.5375 72.3617 29.7377C72.5142 29.9911 72.6667 30.2445 72.8185 30.4979L72.7992 30.5156C72.3016 30.6982 72.2639 31.1141 72.2731 31.5539C72.0521 32.6614 71.429 33.5318 70.6518 34.3112Z" fill="#322C11"/>
<path d="M16.0315 55.4C16.5198 55.326 17.0697 55.0726 17.4841 55.2151C18.426 55.5378 19.3472 55.9845 20.1829 56.5267C20.5457 56.7617 20.6758 57.3562 20.9107 57.7876C19.1216 57.3239 17.4541 56.613 16.0315 55.4Z" fill="#241E08"/>
<path d="M51.1472 54.5113C51.2674 54.2941 51.3367 54.013 51.5161 53.8713C52.4011 53.1758 53.3153 52.5172 54.2196 51.8456L54.4198 51.5483L54.7748 51.5969C54.9227 51.6531 55.0698 51.7109 55.2162 51.7709C54.1887 53.1727 52.8085 54.0507 51.1472 54.5113Z" fill="#686541"/>
<path d="M22.813 58.692C24.7015 58.3108 25.7298 58.4833 27.2109 59.4322C25.6412 59.805 24.1362 59.7888 22.813 58.692Z" fill="#534B2C"/>
<path d="M38.1694 58.8101C37.926 58.9803 37.6826 59.1513 37.44 59.3215C36.4511 59.9176 35.4175 59.9654 34.3477 59.5764C34.4632 59.4917 34.5517 59.3847 34.6134 59.2553C35.6716 58.093 36.7715 57.2597 38.1694 58.8101Z" fill="#474018"/>
<path d="M69.1946 36.5821C69.0675 35.8196 69.5019 35.4637 70.1496 35.2627C70.0772 35.8804 69.8177 36.3626 69.1946 36.5821Z" fill="#63603C"/>
<path d="M72.2738 31.5548C72.1814 31.0735 72.3547 30.7261 72.7991 30.5166C72.8538 30.9787 72.6651 31.3184 72.2738 31.5548Z" fill="#423C17"/>
<path d="M27.8031 59.4495C28.0858 59.3054 28.3684 59.1614 28.6511 59.0166C28.7343 59.2584 28.8182 59.5003 28.9014 59.7421C28.4647 59.9077 28.0896 59.8461 27.8031 59.4495Z" fill="#534B2C"/>
<path d="M3.63513 35.4512C3.75451 35.2371 3.8315 34.9806 3.99941 34.8166C4.90516 33.927 5.53288 32.9049 5.74623 31.6279C5.80322 31.2852 6.06586 30.9771 6.23376 30.6529C7.21192 30.1361 8.24248 30.2238 9.27917 30.3933C9.59187 30.5597 9.77129 30.84 9.92071 31.145C9.79593 30.8192 9.61575 30.5396 9.27917 30.3941C9.32461 30.1491 9.32534 29.885 9.42316 29.6631C9.70582 29.0185 9.89069 28.9199 10.5438 28.9607C11.6783 29.0316 11.6722 29.0293 11.934 28.3838C12.1674 27.8077 12.3916 27.2262 12.665 26.6686C12.9007 26.1872 13.3227 25.95 13.868 25.923C14.488 25.893 15.1065 25.8406 15.725 25.7975C16.9488 25.0612 17.6643 26.0224 18.4877 26.6247C16.9288 29.7263 14.9024 32.5229 12.8067 35.2756C11.6837 36.464 10.503 37.5785 8.95795 38.2162C8.59134 38.2755 8.23708 38.2278 7.89742 38.0768C7.07177 37.5385 6.92925 37.1788 7.43527 36.7675C7.90818 36.3832 8.46968 36.1012 8.59368 35.425C8.74541 34.7033 8.42577 34.1357 7.74953 34.1095C7.28356 34.0918 7.13568 34.7773 6.9154 35.1993C5.7963 34.9513 4.70725 35.0938 3.63513 35.4512Z" fill="#807A48"/>
<path d="M18.3653 26.4958C17.773 26.6283 17.2115 26.6729 16.6785 26.2509C16.4097 26.0383 16.0454 25.9459 15.725 25.7988C15.7912 25.2966 16.0454 24.9546 16.5722 24.9192C17.029 24.8884 17.4949 24.9223 17.6212 24.3261C18.9768 22.3275 19.7493 19.5794 23.1482 20.2957C23.7258 20.4174 24.3458 19.7989 24.2912 19.0918C24.218 18.1537 23.1312 18.3047 22.6352 17.7864C22.4681 17.3296 22.3017 16.8721 22.1346 16.4154C23.3223 15.9063 24.5569 15.8254 25.7214 16.3515C26.5016 16.7035 27.0508 16.5687 27.7594 16.1851C28.6143 15.7222 29.5878 15.4788 30.5105 15.1407C31.3146 15.8162 32.1156 15.3656 32.9174 15.1338C33.0407 17.4798 33.7631 20.0985 29.6664 19.5524C27.9812 19.3283 28.3771 21.3655 27.8272 22.3752C27.6261 22.8743 27.2634 23.2263 26.812 23.4966C26.3676 23.7369 25.8924 23.8848 25.3918 23.9418C25.0729 23.958 24.761 23.9041 24.4652 23.7901C23.816 23.3426 24.1849 24.2776 23.8491 24.2568C23.6265 24.4771 23.3762 24.6604 23.1043 24.8145C22.4134 25.1595 21.6863 25.3644 20.9115 25.3513C20.5002 25.339 20.1013 25.3952 19.7493 25.6401C19.4374 25.9089 19.1208 26.1677 18.7604 26.3664C18.6271 26.4111 18.4962 26.4534 18.3653 26.4958Z" fill="#8B865A"/>
<path d="M22.6344 17.7858C23.3614 17.6125 24.0839 17.4123 24.8179 17.2767C25.2153 17.2036 25.7768 17.792 25.8007 18.2387C25.8662 19.4587 25.3748 20.4315 24.3866 21.1092C23.9853 21.3842 23.4762 21.5182 22.9994 21.6615C22.3425 21.8586 21.7879 21.6915 21.3497 21.1223C21.2434 20.9837 20.9885 20.9598 20.8021 20.8836C20.7697 21.1177 20.7235 21.3519 20.7112 21.5868C20.705 21.7077 20.7774 21.8301 20.7813 21.9542C20.8167 22.9238 20.6888 23.2288 19.8686 23.1919C18.8404 23.1456 18.2612 23.7387 17.6204 24.3248C17.2892 23.6686 16.9649 23.0093 16.6253 22.357C16.2771 21.6877 16.3311 21.5182 17.1036 20.8712C17.3724 20.6456 17.719 20.4438 17.8599 20.1496C18.0894 19.669 18.3959 19.193 18.8881 19.2122C20.3654 19.2715 21.3374 18.1224 22.6344 17.7858Z" fill="#A19D6F"/>
<path d="M54.5354 19.7971C54.6971 19.4774 54.8589 19.1578 55.0206 18.8374C55.3633 18.9075 55.6622 19.0654 55.9233 19.2972L55.9664 19.3141C56.5009 19.5829 57.1048 19.2402 57.6401 19.5044L57.6378 19.5028C58.8 20.0451 58.4195 22.0915 60.1471 22.0784C60.4552 22.0422 60.7509 21.9567 61.0297 21.8196C61.3209 21.7334 61.6212 21.6902 61.9247 21.6848C62.5093 21.6725 63.0931 21.6186 63.6731 21.5269C63.958 21.4861 64.2438 21.4931 64.5272 21.5308C64.8307 21.2974 64.826 22.3387 65.2296 21.6956C65.312 21.5824 65.396 21.473 65.48 21.3614C65.7464 21.2343 66.0083 21.2443 66.2648 21.3891L66.2771 21.3914C66.8486 21.7503 67.0897 22.2494 66.9287 22.9218C66.5775 23.4563 66.0715 23.779 65.4823 23.9877C65.0995 24.1179 64.7036 24.1957 64.3031 24.2388C61.1653 24.5708 58.4118 26.266 55.3333 26.7936C54.4252 26.7181 53.072 26.9284 53.6943 25.3556C54.1072 24.3112 53.4556 23.4409 53.6627 22.4982C55.4411 22.0838 53.7305 20.5334 54.5354 19.7971Z" fill="#3E390E"/>
<path d="M63.6138 18.2822C63.8795 18.501 64.1129 18.799 64.4179 18.923C65.3645 19.3089 65.4492 20.0475 65.3352 20.8994C65.2243 21.0157 65.1134 21.1312 65.0025 21.2483C64.0351 21.2953 63.1355 21.7073 62.1728 21.7797C61.8508 21.7666 61.5312 21.7828 61.2123 21.8313C61.066 21.7643 60.9204 21.6965 60.774 21.6288C60.8164 21.3915 60.8341 21.1458 60.9058 20.9179C61.3294 19.5515 62.1573 18.5918 63.6138 18.2822Z" fill="#716C31"/>
<path d="M50.7406 17.9275C50.8577 18.4158 50.9755 18.9041 51.0926 19.3924C49.928 21.1277 48.346 20.9837 46.6601 20.3814C45.715 19.625 45.7019 18.7039 46.1918 17.6964C46.5353 17.2289 47.0013 16.9678 47.5728 16.897C48.6788 17.0703 49.5791 17.8998 50.7406 17.9275Z" fill="#79712E"/>
<path d="M47.947 17.1503C47.4957 17.3243 47.0443 17.4984 46.593 17.6725C46.2795 17.597 46.0061 17.446 45.7627 17.2342C45.4169 16.8823 45.1635 16.4794 45.0896 15.9803C45.1997 15.2517 45.6565 14.8374 46.3258 14.6163C47.1206 14.6471 47.9193 14.7773 48.701 14.5146C49.0292 14.6964 49.338 14.9198 49.7262 14.9652V14.9321C49.8009 15.1994 49.8764 15.4682 49.9511 15.7362C49.8948 15.8671 49.8394 15.9981 49.7847 16.1305C49.4982 16.4579 49.1431 16.6943 48.7596 16.8915C48.4977 17.0016 48.2258 17.0879 47.947 17.1503Z" fill="#5F5A18"/>
<path d="M47.947 17.1504C48.1257 16.8508 48.3044 16.5512 48.4831 16.2523C49.1147 16.4888 49.6145 16.3525 49.9449 15.7363H49.9511C51.2751 16.4711 51.282 16.4857 50.7398 17.9268C50.5395 18.07 50.3354 18.2087 50.1383 18.3558C49.6869 18.6939 49.2032 18.717 48.8127 18.3273C48.4723 17.9876 48.232 17.5463 47.947 17.1504Z" fill="#8E8945"/>
<path d="M61.0127 22.3666C60.5444 22.4628 60.0746 22.6392 59.6086 22.6269C59.2998 22.6192 58.8431 22.4182 58.7206 22.1709C58.2962 21.3129 57.9897 20.3971 57.6377 19.5029C58.2408 19.6054 58.8485 19.6862 59.4446 19.8195C59.6864 19.8734 59.7403 20.1283 59.5924 20.3902C59.2659 20.9679 59.5385 21.2952 60.0561 21.4954C60.2787 21.5817 60.5329 21.5871 60.7732 21.6287L60.767 21.6495C61.1721 21.7789 61.2538 22.0177 61.0127 22.3666Z" fill="#3C3715"/>
<path d="M46.62 20.0964C46.9651 20.0325 47.3255 19.8707 47.6529 19.9224C48.8667 20.1126 49.9727 19.7259 51.0941 19.3901C51.2004 19.5973 51.2982 19.8084 51.3868 20.0233C51.3467 20.1642 51.3075 20.3059 51.2705 20.4492C51.1149 20.7049 50.9293 20.9359 50.7183 21.15C50.4988 21.3657 50.2477 21.5352 49.9704 21.6715C49.821 21.7169 49.6723 21.7562 49.5229 21.8016C48.7342 21.9249 47.9463 21.9927 47.163 21.7524C46.8757 21.5814 46.657 21.348 46.5129 21.0453C46.4321 20.7157 46.4745 20.4007 46.62 20.0964Z" fill="#8A863C"/>
<path d="M51.3861 20.0232C51.9969 19.5026 52.4674 18.794 53.3108 18.5845L53.3123 18.5852C53.4772 19.0512 53.642 19.5172 53.8068 19.9824C54.9128 21.5359 54.299 21.9425 52.6762 21.6807C51.9653 21.3495 51.2936 20.9844 51.3807 20.027L51.3861 20.0232Z" fill="#3E390E"/>
<path d="M52.5275 21.1909C52.7631 21.2071 53.0003 21.2472 53.2345 21.2341C53.863 21.1994 53.9215 21.1124 53.8884 20.3283C53.8838 20.2128 53.8353 20.0988 53.8075 19.9833C54.0517 19.9263 54.2943 19.8639 54.5361 19.7969C54.7148 20.3453 54.932 20.8844 55.0622 21.4443C55.2132 22.0936 55.3233 22.3655 54.161 22.4186C54.0455 22.424 53.9308 22.4209 53.8152 22.4217C53.7328 22.652 53.5973 22.7906 53.4094 22.8376C53.2114 22.8869 53.1043 22.8877 53.0874 22.8399C52.6353 22.5734 52.4196 22.1668 52.3834 21.6538C52.4296 21.499 52.4782 21.345 52.5275 21.1909Z" fill="#3C3715"/>
<path d="M53.3108 18.5843C53.1082 17.751 52.5598 16.9284 53.2137 16.0673C53.2723 15.9903 53.407 15.9302 53.5026 15.9348C53.6073 15.9402 53.7829 16.0126 53.7991 16.0842C54.0009 16.9846 53.8545 17.8257 53.3123 18.5851L53.3108 18.5843Z" fill="#727138"/>
<path d="M55.924 19.2966C55.6228 19.1434 55.3217 18.9901 55.0213 18.8368C54.9982 18.4687 54.9581 18.0998 54.9628 17.7308C54.9635 17.6469 55.1045 17.5229 55.2054 17.489C55.4626 17.402 55.6506 17.5244 55.6999 17.8079C55.7854 18.3023 55.85 18.8006 55.924 19.2966Z" fill="#3C3715"/>
<path d="M57.6408 19.5045C57.0539 19.697 56.4809 19.761 55.9672 19.3135C56.5548 19.1178 57.1278 19.0431 57.6408 19.5045Z" fill="#3C3715"/>
<path d="M66.6059 31.6989C66.2409 31.645 65.8781 31.5657 65.5115 31.5441C65.0655 31.5179 64.7028 31.8622 64.8846 32.1749C65.3205 32.9259 65.2889 33.5182 64.6235 34.122C63.8972 34.7821 63.234 35.5114 62.5431 36.2108C62.0124 35.8449 61.4441 35.8503 60.8572 36.0383C60.2664 36.2277 59.7003 36.2139 59.1827 35.8257C61.7775 30.7354 65.4915 26.6549 70.2737 23.5348C70.7866 23.2899 71.3034 23.2229 71.8264 23.5032C71.8888 23.7243 71.9542 23.9445 72.0228 24.164C72.3124 24.7964 72.3054 25.4356 72.0736 26.0826C71.9373 26.3845 71.7701 26.6695 71.5868 26.9453C70.5578 28.8269 69.7206 30.8679 67.5833 31.8453C67.2398 31.9131 66.914 31.863 66.6059 31.6989Z" fill="#6E6833"/>
<path d="M71.8255 23.5043C71.3496 23.6722 70.8728 23.8401 70.3968 24.008C69.099 24.5055 69.0382 23.7546 69.1784 22.8003C70.4577 22.3628 71.7401 21.9361 73.0124 21.4794C73.3051 21.3747 73.5501 21.367 73.6163 21.6496C73.6618 21.846 73.5393 22.0871 73.4738 22.302C73.4029 22.5353 73.3105 22.7626 73.2265 22.9928C72.7598 23.1631 72.2923 23.3333 71.8255 23.5043Z" fill="#827C43"/>
<path d="M71.6878 25.8689C71.5622 25.2543 71.6307 24.6782 72.022 24.1645C72.6266 24.0097 73.2219 23.9404 73.7557 24.3748C73.9097 24.9871 73.9937 25.5909 73.5231 26.1216C72.9146 26.0153 72.2816 26.0861 71.6878 25.8689Z" fill="#39320B"/>
<path d="M79.6848 18.4C79.7064 18.2806 79.7179 18.0618 79.7526 18.058C80.0152 18.0295 79.9968 18.1635 79.6925 18.403L79.6848 18.4Z" fill="#6E6833"/>
<path d="M27.4234 22.581C27.1754 21.7485 26.8396 20.9336 27.5374 20.1179C27.8532 19.749 28.0496 19.273 28.273 18.8325C28.7189 17.9514 28.7043 17.9598 29.4406 18.3619C29.982 18.6576 30.5404 18.9249 31.1011 19.1844C31.3591 19.3038 31.8821 18.9557 31.9622 18.6361C32.0231 18.3965 32.181 18.1216 32.117 17.9206C31.7574 16.7976 32.6384 16.0567 32.9165 15.1347C33.9794 14.7774 35.0215 14.1866 36.1745 14.8636C36.2769 14.9237 36.4402 14.9753 36.5364 14.936C38.9117 13.9579 41.5405 14.6256 43.9381 13.7923C44.4595 13.6105 44.9232 13.8185 45.3537 14.1088C44.9594 15.1494 43.9281 15.4105 43.1263 15.945C42.229 16.5658 42.5679 17.6402 42.2175 18.4635C41.9325 19.1005 41.4596 19.5657 40.8897 19.9454C38.73 21.2316 36.3924 21.5836 33.9286 21.2763C31.8521 20.8358 30.0483 21.4496 28.4108 22.7112C28.0658 22.779 27.7369 22.7351 27.4234 22.581Z" fill="#807B4A"/>
<path d="M41.7693 15.3123C42.9639 14.9103 44.1585 14.509 45.353 14.1069C45.6773 14.2764 46.0023 14.4466 46.3274 14.616C46.0085 15.2306 45.6888 15.8445 45.37 16.4584C45.2683 16.6086 45.1674 16.7595 45.0665 16.9105C43.4221 17.5012 42.2491 17.1215 41.7693 15.3123Z" fill="#4D4612"/>
<path d="M49.727 14.9643C49.3858 14.8142 49.0446 14.664 48.7026 14.5138C49.1209 14.4884 49.4705 14.6208 49.727 14.9643Z" fill="#5F592A"/>
<path d="M69.1785 22.7998C69.3888 23.3998 69.7122 23.8858 70.3969 24.0075C69.8324 25.1744 69.1377 26.1209 67.6404 26.1494C67.0851 26.1602 66.9326 26.8973 67.3593 27.2639C67.5441 27.4226 67.8345 27.4796 67.9754 27.6621C68.0979 27.82 68.1765 28.1442 68.0933 28.2944C67.9986 28.4646 67.6604 28.6557 67.5018 28.6056C67.0373 28.4585 66.6191 28.1758 66.1647 27.9887C65.9729 27.9093 65.5663 27.8724 65.5462 27.9255C64.9208 29.5807 62.9414 30.3393 62.6926 32.2332C61.9733 33.2199 61.3024 34.2481 60.5091 35.1716C60.2133 35.5158 59.6334 35.6152 59.1828 35.8262C57.7618 35.9965 57.3613 37.1864 56.7983 38.2131C54.7719 38.8208 52.7686 38.4072 50.7599 38.0768C48.9191 36.7651 49.7217 35.2324 50.3894 33.7089C51.0464 33.025 52.0045 32.5975 52.7239 33.0982C54.899 34.6116 56.0781 33.0227 57.4298 31.8335C58.019 31.2166 59.3022 31.9976 59.5879 30.7483C59.7012 30.4518 59.8552 30.1899 60.0447 29.9419C61.411 28.5863 63.0977 27.4857 63.5214 25.4116C64.136 24.331 65.3383 24.2054 66.3033 23.704C66.5352 23.5469 66.7647 23.3767 66.9819 23.1972C67.3608 22.9824 67.7421 23.1895 68.1225 23.2026C68.1202 23.1988 68.4637 23.0417 68.4637 23.0417C68.7002 22.9593 68.939 22.8791 69.1785 22.7998Z" fill="#797443"/>
<path d="M67.732 23.2836C67.4608 23.3991 67.189 23.5146 66.9179 23.6309C66.2725 24.2748 65.6878 24.4643 65.2727 23.4083C65.7687 23.2058 66.2655 23.0024 66.7615 22.7998C67.092 22.2153 67.5779 22.079 68.1887 22.3077C68.2796 22.5519 68.3712 22.7968 68.4621 23.0409L68.459 23.044C68.3497 23.2558 68.2064 23.3621 68.027 23.3629C67.8483 23.3621 67.7497 23.3359 67.732 23.2836Z" fill="#605C29"/>
<path d="M68.188 22.3066C67.7128 22.4706 67.2368 22.6347 66.7608 22.7988C66.5998 22.3297 66.4381 21.8607 66.2771 21.3916C66.8363 21.4655 67.3954 21.5395 67.9546 21.6134L68.0794 21.9577L68.188 22.3066Z" fill="#49451B"/>
<path d="M2.89103 44.6173C2.98346 43.9118 3.58727 43.6407 4.04939 43.2464C4.28353 43.0461 4.28509 42.7989 4.04248 42.594C3.56958 42.1943 3.07972 41.8138 2.5968 41.4256C3.1113 40.238 4.32052 39.8305 5.24399 39.1096C5.48661 38.9201 5.94332 38.894 6.27373 38.9525C6.97462 39.078 7.65703 39.3083 8.34713 39.4963C8.45958 39.5856 8.57123 39.6749 8.68522 39.7635C8.92321 40.3073 8.9117 40.8757 8.86009 41.4495C8.83237 41.7283 8.7723 42.0025 8.70144 42.2705C8.47808 42.738 9.14198 42.9367 9.04108 43.3742C8.90475 43.6769 8.70529 43.9187 8.44881 44.1236C7.66166 44.5519 6.87448 44.8222 6.06962 44.1752C5.61289 43.9519 5.14461 43.8602 4.64552 44.0312C4.06247 44.2307 3.47639 44.4225 2.89103 44.6173Z" fill="#595418"/>
<path d="M6.91533 35.1996C6.62573 34.3531 6.74051 33.5259 7.02086 32.7018C7.12176 32.4053 7.63702 32.3444 7.94972 32.5478C8.50658 32.9113 8.71297 33.4712 8.88318 34.0589C9.02875 34.5611 8.89784 35.0139 8.59361 35.4252C8.08681 34.9593 7.50838 35.0255 6.91533 35.1996Z" fill="#908B58"/>
<path d="M7.89734 38.0775C8.14226 38.0027 8.38717 37.928 8.6321 37.8525C9.34145 38.5157 9.55092 39.1111 8.4064 39.5239L8.34788 39.4969C8.19692 39.024 8.04753 38.5504 7.89734 38.0775Z" fill="#595418"/>
<path d="M66.2648 21.3897C66.0322 21.4637 65.7996 21.5376 65.5677 21.6123C65.2081 21.476 65.1272 21.2426 65.3251 20.913L65.3344 20.8999C65.6448 21.0624 65.9544 21.2257 66.2648 21.3897Z" fill="#49451B"/>
<path d="M71.6877 25.8686C71.8864 25.7407 72.079 25.6005 72.2854 25.4865C72.8792 25.1584 72.9331 25.1739 73.3775 25.7969C73.4453 25.8917 73.4746 26.0126 73.5223 26.122C73.4345 26.705 73.3328 27.2857 73.262 27.8711C73.1734 28.6005 72.8985 29.2305 72.3617 29.7396C72.1129 29.8166 71.8633 29.8936 71.6138 29.9714C69.9024 28.8924 70.8343 27.496 71.157 26.1728C71.3273 26.058 71.5037 25.9571 71.6877 25.8686Z" fill="#292105"/>
<path d="M51.0664 37.7893C51.3052 37.7993 51.5455 37.7947 51.7828 37.8209C52.63 37.9164 53.1837 36.8327 54.1157 37.2547C54.768 37.5505 55.4289 37.8293 56.0959 38.0889C56.3131 38.1736 56.5634 38.1744 56.7975 38.2129C56.7652 39.3589 56.3685 40.4072 55.9388 41.4485C55.8995 41.544 55.9395 41.7604 56.0088 41.7966C56.2137 41.9037 56.4702 42.0415 56.6712 41.9984C57.0255 41.9237 57.3436 41.6919 57.6948 41.5871C58.0183 41.4909 58.4688 41.9045 58.3772 42.2256C58.2424 42.6985 58.0244 43.1214 58.237 43.6536C58.4557 44.2012 58.0938 44.631 57.6986 44.9429C56.9269 45.5537 55.9457 45.7863 55.2933 46.682C54.2643 48.093 53.6813 48.0099 52.3465 46.5927C52.201 46.4379 52.191 46.1552 52.1178 45.9319C52.3373 45.8887 52.566 45.7863 52.774 45.8186C53.0112 45.8556 53.2276 46.0851 53.4579 46.0936C53.6335 46.0997 53.9832 45.8132 53.9724 45.7909C53.1167 43.9801 53.9277 42.3851 54.5901 40.7692C54.7149 40.4657 54.6202 40.2539 54.3159 40.1915C54.2127 40.17 54.041 40.2008 53.9855 40.2724C53.3786 41.0511 52.9396 42.077 52.1601 42.5761C50.917 43.3725 49.4521 43.8223 48.0796 44.4161C47.9648 44.4661 47.8439 44.5023 47.7253 44.5447C46.8812 45.9172 45.6042 46.4017 44.0615 46.3362C43.8081 46.2962 43.5169 46.2245 43.433 46.025C42.7514 44.4161 44.3719 44.5185 45.0335 43.9031C43.7565 43.3709 42.9955 42.5029 43.235 41.0334C43.2951 40.6675 43.5354 40.3594 43.7804 40.0745C44.1993 39.714 44.703 39.5284 45.2237 39.3844C46.9851 38.829 48.9946 39.1972 50.5758 37.9533C50.7407 37.8971 50.9031 37.8432 51.0664 37.7893Z" fill="#666134"/>
<path d="M43.439 45.9968C44.8685 45.5124 46.2979 45.0279 47.7266 44.5435C48.3998 46.0715 48.0771 47.7205 48.2535 49.3072C48.3112 49.8286 47.7813 50.4155 47.5195 50.9723C46.8571 50.8229 46.5798 50.3153 46.2941 49.76C45.9244 49.043 45.5939 48.9105 45.2397 49.1523C44.5788 49.6044 44.3062 50.1051 44.4541 50.628C44.4864 50.7413 44.5542 50.8522 44.6297 50.9438C45.0633 51.4699 44.9308 52.0783 44.8939 52.6745C44.1337 53.4485 43.3411 52.8093 42.5609 52.7292C41.991 53.1789 41.458 53.6642 40.6154 53.4678C39.913 53.3037 39.1751 53.2875 38.475 53.1166C38.2285 53.0565 38.2462 52.7153 38.4319 52.4804C39.2413 50.5949 42.1935 50.0411 41.6351 47.3046C41.6836 46.9449 41.8092 46.6161 41.994 46.3064C42.4099 45.8936 42.8698 45.6872 43.439 45.9968Z" fill="#494216"/>
<path d="M64.5041 39.6317C63.9295 40.5013 63.3989 41.4039 62.7604 42.2234C62.4939 42.5654 61.9994 42.7287 61.6081 42.9736C60.9288 42.3297 60.6562 41.6273 61.2339 40.7608C61.6967 40.0661 62.1265 39.3506 62.5709 38.6436L62.5686 38.6489C63.0946 39.212 64.4956 38.049 64.5041 39.6317Z" fill="#686441"/>
<path d="M58.7168 39.19C58.9602 39.1476 59.2036 39.079 59.4485 39.0698C59.772 39.0583 59.9453 39.2601 59.849 39.5728C59.611 40.3484 59.212 40.5948 58.4649 40.3892C58.2631 40.3337 58.009 40.0811 57.9828 39.8908C57.9605 39.7291 58.2185 39.5134 58.3795 39.3486C58.4603 39.2647 58.602 39.2408 58.7168 39.19Z" fill="#494319"/>
<path d="M54.2527 49.5167C54.2727 49.3989 54.2827 49.1817 54.3143 49.1778C54.57 49.1509 54.5484 49.2803 54.2427 49.5121L54.2527 49.5167Z" fill="#686541"/>
<path d="M28.1058 50.3687C27.6645 50.5759 27.1377 50.6907 26.7988 51.0072C25.5942 52.1294 24.0877 52.6084 22.5989 53.143L22.6204 53.0983C21.7139 52.868 20.5001 51.9507 20.8305 51.5148C23.3891 48.1467 19.4803 44.8749 20.8513 41.6084C23.0271 39.5505 26.1287 40.4239 28.581 39.1885C29.1117 38.9212 29.885 39.1353 30.19 39.7846C30.5943 40.6449 30.4165 41.5337 29.8519 42.2693C28.5795 43.9252 26.7033 44.4605 24.7108 44.8464C26.6894 45.3994 28.6257 43.6602 30.5335 44.9365C32.4159 47.951 29.5145 48.8252 28.1058 50.3687Z" fill="#767045"/>
<path d="M28.1058 50.3692C28.7605 49.1915 29.1679 47.866 30.3047 46.9803C30.5204 46.8124 30.5366 46.2948 30.5173 45.9452C30.4973 45.5824 30.3232 45.2289 30.2162 44.8707C30.2693 44.7113 30.3225 44.5519 30.3725 44.3909C30.6513 43.948 31.0164 43.6007 31.4978 43.3788C31.8521 43.3219 32.1856 43.3858 32.5045 43.5483C33.23 44.1152 33.8415 44.9616 33.7183 45.7572C33.4094 47.7459 34.7557 48.2912 36.0712 48.9597C37.3737 50.973 34.9768 51.6123 34.5717 52.9933C34.2759 52.7899 33.8831 52.649 33.7044 52.3702C33.3786 51.8634 33.2269 51.2449 32.908 50.732C32.7332 50.4516 32.3689 50.1166 32.0824 50.1088C30.7538 50.0757 29.3959 49.7915 28.1058 50.3692Z" fill="#6D683C"/>
<path d="M34.5717 52.9923C34.3691 51.9949 34.2675 51.0806 35.5283 50.6262C36.1059 50.4182 35.8834 49.8406 35.7748 49.3831C35.8757 49.0897 36.0836 48.9202 36.3794 48.8524C36.8091 48.7862 37.2089 48.656 37.49 48.274C37.7303 48.0483 37.9875 47.8643 38.2725 47.7041C39.5611 47.1796 40.8219 46.454 42.2622 47.2081C42.3361 47.4491 42.4062 47.6917 42.4855 47.9313C42.8506 49.0265 42.5109 49.9099 41.6629 50.6301C41.3795 50.8711 41.0899 51.1199 40.7664 51.2963C40.0001 51.713 39.2122 52.0888 38.4327 52.4809C37.892 52.095 37.3136 52.088 36.7082 52.2991C36.2507 52.4585 35.7878 52.6064 35.328 52.7597C35.0762 52.8375 34.8236 52.9153 34.5717 52.9923Z" fill="#5B5527"/>
<path d="M38.4605 54.8964C39.6597 54.5005 40.6432 54.9811 41.569 55.672C42.3654 56.2658 42.2815 57.4596 41.398 57.7947C40.5893 58.1012 39.7513 58.3284 38.9257 58.5903C39.2607 57.7723 39.0543 57.3872 38.3434 57.4242C37.232 57.482 36.1176 57.4958 35.1294 56.8435C35.1047 56.731 35.0531 56.6178 35.0585 56.5069C35.1001 55.7082 35.1232 55.7013 35.7317 55.5834C36.4048 55.4533 37.0718 55.293 37.7411 55.1452C37.832 54.8918 37.9691 54.7709 38.1517 54.7809C38.3357 54.7917 38.4382 54.8302 38.4605 54.8964Z" fill="#474018"/>
<path d="M35.1301 56.8424C35.8348 56.619 36.5365 56.264 37.2921 56.5282C38.0268 56.7854 38.6061 56.9518 39.1968 56.1277C39.481 55.731 40.0132 56.4011 40.4422 56.5574C40.6301 56.6252 40.7634 56.8624 40.8936 57.0419C40.9074 57.0619 40.7549 57.246 40.6509 57.2991C40.3213 57.4686 39.9415 57.5641 39.6496 57.7805C39.3647 57.9915 39.1636 58.3166 38.9257 58.59C38.6738 58.6632 38.4227 58.7371 38.1701 58.811C37.6934 58.7756 37.2043 58.6562 36.7437 58.7263C36.022 58.8365 35.3196 59.0745 34.611 59.257C34.1543 58.7618 34.2151 58.2781 34.6403 57.8005C34.6449 57.4031 34.9083 57.1382 35.124 56.8486L35.1301 56.8424Z" fill="#3C3111"/>
<path d="M34.4123 57.094C32.8318 57.6601 31.2244 57.5577 29.6139 57.2665C29.5246 57.2504 29.3844 57.0578 29.4036 56.9839C29.4568 56.7821 29.5616 56.4509 29.684 56.4332C30.7923 56.2753 31.9076 56.1675 33.0221 56.0566C33.7899 55.9803 34.1181 56.5179 34.4154 57.0886L34.4123 57.094Z" fill="#625F35"/>
<path d="M27.6792 53.0145C27.4296 52.5878 27.6029 51.9717 28.0273 51.8199C28.1151 51.7884 28.2499 51.803 28.3292 51.8515C28.7436 52.1034 28.8468 52.6941 28.558 53.0769C28.3546 53.3472 27.8532 53.3118 27.6792 53.0145Z" fill="#433B12"/>
<path d="M35.5723 53.4783C36.5142 53.1849 37.1535 53.5061 37.4985 54.4265C36.5589 54.7161 35.9135 54.4072 35.5723 53.4783Z" fill="#5B5527"/>
<path d="M38.4605 54.8959C38.221 54.9791 37.9814 55.0622 37.7419 55.1447C37.6602 54.9051 37.5786 54.6648 37.4969 54.4253C37.8181 54.5816 38.1393 54.7388 38.4605 54.8959Z" fill="#5B5527"/>
<path d="M35.1239 56.8481C34.963 57.1655 34.802 57.4828 34.6402 57.8001C34.5655 57.5644 34.4893 57.3287 34.4115 57.0931L34.4146 57.0869C34.6502 57.0045 34.8867 56.9244 35.1239 56.8481Z" fill="#474018"/>
<path d="M42.5619 52.7299C43.3321 52.3856 44.1161 52.6506 44.8948 52.6752C45.0989 52.783 45.3624 52.847 45.491 53.0133C45.605 53.1604 45.6558 53.4685 45.5757 53.6241C45.4871 53.7966 45.2098 53.993 45.0312 53.9784C44.0507 53.8975 43.2389 53.4362 42.5619 52.7299Z" fill="#5F5A33"/>
<path d="M54.7741 51.5972C54.6062 51.7181 54.4214 51.8013 54.2196 51.8467C54.1595 51.6241 54.0948 51.4031 54.0255 51.1836C54.2751 51.3215 54.5246 51.4593 54.7741 51.5972Z" fill="#5A562C"/>
<path d="M21.0939 41.6053C21.2565 42.4587 21.496 43.3059 21.5638 44.167C21.6546 45.3292 21.982 46.3082 22.7915 47.207C23.4669 47.9564 23.3183 48.8575 22.6367 49.5784C22.297 49.9374 21.8726 50.2162 21.5368 50.5774C21.2534 50.8816 21.278 51.3106 21.479 51.6256C21.8118 52.1463 22.2354 52.61 22.6205 53.0975C22.1299 53.2223 21.6 53.3016 21.2041 52.9596C20.7481 52.5661 20.3561 52.0839 20.001 51.5941C19.8824 51.43 19.8832 51.0873 19.9694 50.887C20.162 50.4411 20.4762 50.0475 20.6734 49.6031C20.7558 49.4183 20.7258 49.1294 20.638 48.9384C20.5394 48.7251 20.3276 48.5572 20.1458 48.39C19.8516 48.1189 19.6837 48.2059 19.4057 48.7382C18.9559 49.6 18.5007 50.4588 18.0478 51.3191C17.7043 51.266 17.3754 51.1643 17.0604 51.0156V51.0226C16.1754 50.4996 16.2432 49.7325 16.5135 48.9153C16.5875 48.7851 16.6668 48.6519 16.7408 48.5186C16.9433 48.2991 17.1729 48.1043 17.407 47.931C17.7667 47.2016 17.1498 46.855 16.8032 46.4052C16.3272 45.9 16.0314 45.3138 15.9729 44.6176C15.9698 44.2764 16.0314 43.946 16.1454 43.624C16.5097 42.8415 16.817 42.0235 17.4856 41.4228C18.2396 40.8459 19.0845 40.5409 20.0411 40.5686C20.6226 40.6803 21.124 40.8744 21.0939 41.6053Z" fill="#605B2B"/>
<path d="M17.0612 51.0166C17.39 51.1183 17.7197 51.2199 18.0486 51.3208C17.8306 51.4425 17.6019 51.5403 17.3631 51.6135C17.246 51.4225 17.1451 51.2238 17.0612 51.0166Z" fill="#4B411C"/>
<path d="M64.5041 39.6323C63.8587 39.3049 63.214 38.9776 62.5686 38.6502C63.2849 38.4107 64.0004 38.1712 64.7159 37.9316C65.1295 37.9971 65.3382 38.2135 65.2705 38.6541C65.235 38.8867 65.2227 39.1224 65.2004 39.3565C64.9724 39.459 64.7406 39.5506 64.5041 39.6323Z" fill="#5A562C"/>
<path d="M17.327 41.9989C17.5611 42.9485 17.2915 43.6486 16.3303 44.0037L16.318 44.0245C16.5745 44.7431 16.831 45.4624 17.0875 46.181C17.813 46.7348 18.051 47.4442 17.7722 48.3199C17.5403 48.4085 17.3069 48.4932 17.0728 48.5741C16.8502 48.447 16.6792 48.2768 16.5668 48.0603C16.3596 47.6606 16.2441 47.2239 16.0731 46.8095C16.1771 47.1253 16.2749 47.4426 16.3935 47.7523C16.5275 48.1019 16.7208 48.4023 17.079 48.5641C17.0004 49.3836 16.7917 50.2015 17.062 51.0241C16.0438 51.3406 15.1897 51.0241 14.4303 50.3417L14.4672 50.1422C14.7152 49.2518 13.4945 49.0262 13.5884 48.2028C13.6993 47.2462 13.7648 46.2912 13.6162 45.3408C13.4675 44.4296 12.5671 44.2586 12.0249 43.731C11.8593 43.1588 12.0896 42.7198 12.4824 42.33C12.9076 41.9711 13.3889 41.7162 13.9042 41.5144C14.6089 41.2448 15.3306 41.0538 16.0931 41.0623C16.6869 41.1308 17.1845 41.3326 17.327 41.9989Z" fill="#4B411C"/>
<path d="M6.06969 44.1744C7.00933 43.8917 7.94898 43.6083 8.8894 43.3256C8.96565 43.1069 9.09276 42.969 9.27145 42.9112C9.46092 42.8504 9.56332 42.8419 9.5795 42.8843C9.87526 42.9952 10.1379 43.1577 10.3759 43.3657C10.7248 43.693 11.0167 44.0596 11.1615 44.5271C11.1384 45.037 11.0282 45.4575 10.3597 45.2842C9.83366 45.6516 9.36308 46.3155 8.62446 45.6016C8.60751 45.5854 8.32794 45.8403 8.17082 45.9689C8.05914 46.1176 7.94746 46.267 7.83578 46.4157C7.64939 46.4257 7.46376 46.4349 7.2766 46.4465C6.31462 46.0798 5.6199 45.5492 6.005 44.3608L6.06969 44.1744Z" fill="#847E44"/>
<path d="M14.1753 44.7534C14.2893 45.0946 14.3871 45.4412 14.5203 45.7747C14.8577 46.618 14.843 47.3952 14.1961 48.1068C14.0413 48.277 13.9727 48.5258 13.8649 48.7384C13.8279 49.0588 13.7193 49.2044 13.5399 49.1774C13.3543 49.1497 13.2457 49.0927 13.2164 49.0057C12.8914 48.0683 12.5656 47.131 12.2405 46.1937C12.209 45.9672 12.1612 45.7446 12.0965 45.5259C12.068 45.3834 12.0387 45.2402 12.0079 45.0977C12.0572 44.805 12.1727 44.5393 12.3414 44.2959C12.5894 44.1364 12.8551 44.0148 13.1378 43.9293C13.7062 43.9223 14.3833 43.7822 14.1753 44.7534Z" fill="#2E2A0B"/>
<path d="M6.50332 48.1302C5.68536 47.4223 5.05839 46.5928 4.8335 45.5068C5.95183 44.6758 6.37311 46.4103 7.32739 46.1846L7.48529 46.2401C7.83805 46.3356 8.11532 46.5736 8.43187 46.7384C8.19003 47.7581 7.3359 47.9284 6.50332 48.1302Z" fill="#847E44"/>
<path d="M10.3596 45.2836C10.5113 44.9532 10.6631 44.622 10.8148 44.2908C10.6939 43.8595 10.6076 43.4235 10.6484 42.9684C10.6893 42.6603 10.7825 42.3699 10.9258 42.0934C11.3139 41.5758 11.7275 41.1106 12.4769 41.4041C12.842 41.7691 12.9768 42.1951 12.8158 42.698C12.6287 43.0523 12.4422 43.4058 12.2551 43.7601C12.6641 43.9072 12.7657 44.1722 12.5601 44.555L12.5401 44.5403C12.3205 44.8338 12.1311 45.1426 12.0618 45.51L12.0964 45.5247C11.488 45.651 10.8849 45.7496 10.3596 45.2836Z" fill="#605B2B"/>
<path d="M8.43193 46.7375C8.02604 46.7429 7.7064 46.5842 7.48535 46.2384C7.70794 46.1313 7.93668 46.0412 8.17159 45.9673C8.25786 46.2245 8.3449 46.481 8.43193 46.7375Z" fill="#5B5523"/>
<path d="M66.606 31.699C66.8324 31.592 67.0681 31.5103 67.3122 31.4541C68.4175 31.6112 69.1538 32.0495 68.7563 33.3511L68.7595 33.3396C68.2681 33.2695 67.7713 33.2217 67.2853 33.1239C66.6553 32.9968 66.6576 32.9791 66.6013 32.0726C66.5929 31.9486 66.6036 31.8238 66.606 31.699Z" fill="#2B2508"/>
<path d="M13.2156 49.0058C13.4459 48.9511 13.6631 48.8625 13.8656 48.7393C14.8977 49.2337 14.8977 49.2337 14.4672 50.1433C14.0497 49.7629 13.633 49.3839 13.2156 49.0058Z" fill="#5E602F"/>
<path d="M7.32739 46.1837C6.75667 46.4147 6.2422 46.3763 5.74002 45.9642C5.48509 45.7547 5.1385 45.6553 4.8335 45.5067C4.9367 44.8304 5.41656 44.5386 6.00577 44.3599C6.44632 44.9676 6.88683 45.576 7.32739 46.1837Z" fill="#9B975B"/>
<path d="M68.7557 33.3512C68.5269 32.5263 67.8661 32.0311 67.3115 31.4542C67.7729 31.036 68.1957 30.56 68.7063 30.2134C69.2593 29.8383 69.5859 29.3893 69.7361 28.7377C69.9618 27.7565 70.3022 26.8153 71.1571 26.1714C71.1949 26.6366 71.3166 27.1141 71.2503 27.5639C71.124 28.4181 71.3289 29.1937 71.6146 29.97C70.4516 30.2504 69.6945 30.8681 69.5174 32.1528C69.4581 32.5787 69.0206 32.953 68.7557 33.3512Z" fill="#423C17"/>
<path d="M12.373 34.9086C12.4608 34.2855 12.6896 33.7271 13.1194 33.2573C14.2847 31.9803 15.2698 30.6016 15.7635 28.9057C15.9437 28.2857 16.4944 27.9398 17.0851 27.7088C17.6782 27.477 18.1727 27.1481 18.3652 26.4957L18.3644 26.4973C18.4792 26.2546 18.6417 26.1183 18.852 26.0867C19.0676 26.0544 19.1847 26.0652 19.2017 26.116C19.7678 27.909 22.4149 27.2621 22.8478 29.2184C21.9551 31.9826 18.6548 31.2224 17.1737 33.1117C17.0212 33.5638 16.9419 34.0329 16.8379 34.4966C16.7 34.9756 16.4528 35.3623 15.9537 35.5317C15.6395 35.497 15.3383 35.4123 15.0518 35.2829C14.2115 34.7923 13.2103 35.4208 12.373 34.9086Z" fill="#5D5823"/>
<path d="M12.3729 34.9083C12.7896 34.6657 13.224 34.4485 13.6199 34.1751C14.6836 33.4403 14.6874 33.4287 15.5339 34.6711C15.3436 35.0993 15.0656 35.4513 14.6605 35.6924C14.0405 36.0367 13.3627 36.28 12.7958 36.7244C12.5948 36.9131 12.4084 37.1119 12.2651 37.3421C12.8535 40.6363 11.5773 42.1397 8.41024 41.9171C8.07675 41.12 8.33784 40.3213 8.40639 39.5234C8.84617 39.0158 8.80075 38.442 8.63208 37.852C9.7196 36.6682 11.0336 35.7717 12.3729 34.9083Z" fill="#494110"/>
<path d="M9.27912 30.3951C10.3851 30.7902 10.6847 31.6166 10.486 32.6911C10.4698 32.7796 10.3127 32.8782 10.2049 32.9029C10.1132 32.9237 9.92146 32.8659 9.90528 32.8074C9.6827 32.0064 9.48396 31.1992 9.27832 30.3936L9.27912 30.3951Z" fill="#716A37"/>
<path d="M27.4235 22.5815C27.673 22.5068 27.9233 22.4321 28.1729 22.3581C28.6581 22.4883 28.7829 22.858 28.7998 23.2955C28.8907 23.3625 28.3701 23.5712 28.8599 23.5535C28.682 23.4218 28.6943 23.2539 28.8977 23.0406C29.9759 21.7874 31.5186 21.9784 32.9212 21.7212C33.2747 21.7543 33.592 21.8775 33.8778 22.0863C34.3846 23.6698 33.3302 24.7573 32.6562 25.9681C30.7939 27.7257 27.948 25.8202 25.88 27.9683C25.1406 28.7362 24.1586 26.0667 23.1542 25.0885C23.0064 24.7512 23.0118 24.4146 23.165 24.0803C23.3938 23.9925 23.6225 23.9039 23.8513 23.8161C23.9584 23.6013 24.1008 23.4942 24.2787 23.4942C24.4567 23.4942 24.5545 23.5212 24.573 23.5759C25.1999 23.8477 25.6867 23.7006 26.0179 23.0906C26.4861 22.9204 26.9552 22.751 27.4235 22.5815Z" fill="#716D3E"/>
<path d="M23.1659 24.0791C23.2321 24.3125 23.3022 24.5435 23.3769 24.7738C22.6421 26.0092 21.6656 26.3635 20.3809 25.5956C20.347 25.4 20.3131 25.2044 20.2792 25.008C21.2412 24.6991 22.2031 24.3887 23.1659 24.0791Z" fill="#807A48"/>
<path d="M19.0738 26.325C18.8373 26.3827 18.6008 26.4405 18.3644 26.4975C18.4676 25.8159 18.9582 25.5047 19.5335 25.2744C19.6291 25.4246 19.7246 25.5756 19.8201 25.7258C19.7045 26.0924 19.4627 26.3003 19.0738 26.325Z" fill="#807A48"/>
<path d="M26.018 23.0898C25.5289 24.0434 25.5289 24.0434 24.5739 23.5751C25.056 23.4133 25.5366 23.2516 26.018 23.0898Z" fill="#807A48"/>
<path d="M24.5738 23.5747C24.3327 23.6548 24.0924 23.7349 23.8513 23.815C24.0654 23.2466 24.0654 23.2466 24.5738 23.5747Z" fill="#807A48"/>
<path d="M19.5328 25.2737C19.7547 24.716 19.7547 24.716 20.2792 25.0087L20.2653 25.0534C20.1867 25.3098 20.0589 25.4331 19.8817 25.4215C19.7031 25.41 19.6021 25.3715 19.5798 25.3037L19.5328 25.2737Z" fill="#807A48"/>
<path d="M53.1027 22.664C53.3377 22.5762 53.5749 22.4946 53.8144 22.4214C54.0694 23.1739 54.6424 23.6314 55.2593 24.0842C55.7653 24.4555 55.6629 24.8052 55.0151 25.1641C54.6909 25.3435 54.2935 25.4414 54.0439 25.6909C53.8383 25.8973 54.01 26.1707 54.3166 26.2678C54.6909 26.5651 54.7548 26.9194 54.5114 27.3299C53.1574 28.7517 51.4222 29.213 49.5421 29.3001C49.1416 29.2546 48.8204 29.0636 48.5832 28.737C48.5169 28.1363 48.8058 27.7019 49.2456 27.343C49.6361 27.0619 50.0712 26.8531 50.5149 26.6644C50.7783 26.5104 51.0393 26.3494 51.2789 26.1569C51.5615 25.7695 51.6694 25.3266 51.7426 24.8722C51.8142 24.4185 51.9621 23.9903 52.1685 23.5821C52.3872 23.1839 52.6722 22.8489 53.1027 22.664Z" fill="#545019"/>
<path d="M54.4954 26.7692C54.4399 26.6006 54.3806 26.4334 54.3159 26.2678C57.0201 25.3282 59.7243 24.3862 62.4292 23.4489C63.147 23.2001 63.8695 23.0438 64.5927 23.4373C64.4617 23.8779 64.2099 24.2337 63.8395 24.5048C61.5365 25.9205 58.9571 26.5936 56.3816 27.2837C55.6868 27.3538 55.0253 27.2999 54.4954 26.7692Z" fill="#49451B"/>
<path d="M63.8879 23.8835C64.1228 23.7349 64.3577 23.5854 64.5934 23.4368C64.8237 23.5092 65.0493 23.4992 65.2727 23.4067C65.7841 23.7595 66.3472 23.7256 66.9186 23.6293C66.8894 24.1723 66.6036 24.5105 66.103 24.7038C65.3074 25.0111 64.5187 25.3361 63.7261 25.6534C63.6068 25.5256 63.4882 25.3977 63.3688 25.2706C63.2101 24.6845 63.5344 24.2786 63.8879 23.8835Z" fill="#BFBBAF"/>
<path d="M65.3244 20.9127C65.4045 21.146 65.4854 21.3786 65.567 21.612L65.5608 21.622C65.4592 21.8315 65.3205 21.9401 65.1441 21.947C64.967 21.9547 64.87 21.9332 64.8523 21.8823C64.6135 21.9401 64.3747 21.9994 64.1367 22.0603C63.3226 21.6528 62.5462 22.5362 61.7329 22.1288L61.7299 22.1211C61.3971 21.9686 61.3155 21.7298 61.4841 21.4048C62.7211 20.9049 63.9781 20.5622 65.3244 20.9127Z" fill="#605C29"/>
<path d="M61.7328 22.1298C62.5276 21.8818 63.3171 21.4358 64.1366 22.0612C63.3433 22.3524 62.5546 22.7983 61.7328 22.1298Z" fill="#49451B"/>
<path d="M64.8529 21.8829C65.0855 21.7874 65.322 21.7003 65.5607 21.6226C65.5638 21.9376 65.4259 22.1109 65.1564 22.0793C65.0493 22.0662 64.9538 21.9514 64.8529 21.8829Z" fill="#49451B"/>
<path d="M61.4849 21.4058C61.5681 21.6438 61.6497 21.8825 61.7306 22.122C61.491 22.2037 61.2523 22.2853 61.0127 22.3662C60.9311 22.1267 60.8495 21.8879 60.7678 21.6492C61.0066 21.5675 61.2454 21.4859 61.4849 21.4058Z" fill="#49451B"/>
<path d="M46.62 20.0966L46.7386 20.4432L46.8534 20.7913C45.2167 21.684 44.5189 20.4586 43.7379 19.4134C43.3443 18.044 43.9851 17.3038 45.246 16.9434C45.6033 16.8155 45.9538 16.8271 46.2957 16.9996C46.3912 17.2253 46.4906 17.4486 46.5938 17.6712C46.5237 18.4815 46.288 19.2925 46.62 20.0966Z" fill="#858139"/>
<path d="M49.9457 15.7354C49.4667 16.6349 49.4667 16.635 48.4839 16.2514C48.9707 16.0796 49.4582 15.9071 49.9457 15.7354Z" fill="#5F592A"/>
<path d="M46.2958 17.0012C46.0663 17.0574 45.8367 17.1175 45.6087 17.1799C45.2098 17.0513 45.1497 16.8133 45.3823 16.4798L45.3692 16.459C45.7713 16.4798 46.094 16.6361 46.2958 17.0012Z" fill="#79712E"/>
<path d="M47.1121 21.479C48.0988 21.0623 49.1162 21.0192 50.1552 21.231C51.319 21.2564 51.8735 21.8787 51.9043 23.014C51.6216 23.7634 51.0163 24.0768 50.2807 24.2078C49.1878 24.2902 48.6248 23.3837 47.8369 22.8923C47.5812 22.7336 47.3524 22.5395 47.1445 22.3223C46.9966 22.0474 46.9866 21.7655 47.1121 21.479Z" fill="#79712E"/>
<path d="M47.1121 21.4789C47.1891 21.7254 47.267 21.9726 47.344 22.2191C47.1183 22.4702 46.8372 22.6011 46.4998 22.6165C45.6488 22.5387 44.9194 22.196 44.3024 21.6052C43.8611 21.0653 43.6308 20.4615 43.7471 19.7537C43.8295 19.6089 43.9135 19.4648 43.9974 19.3208C44.3987 19.5804 44.7815 19.8753 45.2051 20.0902C45.7365 20.359 46.3019 20.5608 46.8533 20.7919C46.9288 21.0245 47.0159 21.254 47.1121 21.4789Z" fill="#67611F"/>
<path d="M51.6517 23.1397C51.4145 22.2994 50.7067 21.8273 50.156 21.2312L50.1876 21.2119C50.377 20.9162 50.538 20.6058 50.6705 20.28C50.9023 20.1814 51.1396 20.0974 51.3822 20.0273C51.765 20.4155 52.147 20.8037 52.529 21.1911L52.5652 21.2196C52.2671 21.8134 52.7531 22.4435 52.4812 23.0381C52.2278 23.263 51.9521 23.3061 51.6517 23.1397Z" fill="#5F592A"/>
<path d="M50.6697 20.2808C50.5087 20.5919 50.3485 20.9023 50.1875 21.2127C50.3477 20.9015 50.5087 20.5912 50.6697 20.2808Z" fill="#79712E"/>
<path d="M52.3488 22.8831C52.1894 22.2985 52.0977 21.7232 52.5645 21.2202C52.7439 21.7016 52.9234 22.183 53.1029 22.6643C52.9458 22.9878 52.7878 23.3105 52.6307 23.634C52.2911 23.4754 52.1971 23.225 52.3488 22.8831Z" fill="#3E390E"/>
<path d="M33.6875 22.0759C33.4418 22.1544 33.1961 22.2322 32.9504 22.3108C32.1178 21.0985 33.6082 21.0399 33.9055 20.3891C35.0277 20.4207 36.1506 20.4384 37.272 20.4908C37.8181 20.5162 38.2509 20.3106 38.6122 19.9432C39.2491 19.2939 40.0124 19.5827 40.7441 19.6197C40.9097 19.6744 41.0753 19.7283 41.2424 19.7814C41.5128 20.0086 41.7369 20.2736 41.9155 20.5786C42.4139 24.1631 41.4396 25.1259 37.7326 24.7184C36.8792 23.0833 34.8151 23.2959 33.6875 22.0759Z" fill="#6F6B37"/>
<path d="M33.9055 20.3896C33.5874 21.0304 33.2693 21.6713 32.9504 22.3113C32.0454 22.6017 31.1775 23.0422 30.187 22.9806C29.5146 22.939 29.1187 23.4327 28.6496 23.7839L28.6542 23.7862C28.494 23.3102 28.3331 22.8335 28.1721 22.3575C28.5395 21.8584 28.8738 21.3293 29.2881 20.8726C29.5223 20.6146 29.8843 20.3219 30.1962 20.3134C31.4316 20.2818 32.6693 20.355 33.9055 20.3896Z" fill="#676330"/>
<path d="M45.3824 16.4798L45.5033 16.8272L45.6087 17.1799C44.6106 17.5473 44.0368 18.2344 43.9967 19.3227L43.9559 19.3873C43.855 19.6107 43.7079 19.7447 43.5138 19.7917C43.312 19.8402 43.2034 19.841 43.1865 19.7971C42.7205 19.593 42.377 19.2556 42.1236 18.8205C42.0643 18.6687 42.0058 18.5162 41.948 18.363C41.8209 17.9062 41.7046 17.4472 41.5644 16.9943C41.3811 16.3997 41.3796 15.8344 41.7693 15.313C42.7983 16.2457 43.8989 16.9558 45.3824 16.4798Z" fill="#67611F"/>
<path d="M40.7449 19.6188C40.9151 18.978 41.4019 18.6414 41.9487 18.3618L42.1043 18.482C42.4647 19.6311 41.8625 19.7952 40.9344 19.625L40.7449 19.6188Z" fill="#67611F"/>
<path d="M59.8774 30.7614C59.9852 31.2274 60.1239 31.6887 60.1886 32.1609C60.2302 32.4635 59.9899 32.6006 59.7034 32.425C59.1504 32.0854 58.5843 32.0176 57.9743 32.1986C57.0585 31.9745 56.7643 32.948 56.0996 33.1737C54.9743 33.5549 53.7088 33.5095 53.0557 32.5282C52.2378 31.3005 53.3006 30.3601 54.2534 29.8194C55.6952 29.0023 56.7419 27.7692 57.9896 26.744C58.327 26.5545 58.6759 26.399 59.0386 26.2665C60.5606 25.8668 61.9516 24.8717 63.6429 25.286L63.7253 25.6542C64.2183 26.687 64.1135 27.6136 63.1746 28.3337C62.0879 29.1678 60.9726 29.9642 59.8689 30.7776L59.8774 30.7614Z" fill="#928E64"/>
<path d="M57.9388 27.5747C57.442 28.2818 56.9814 29.0196 56.4292 29.6805C56.2228 29.9285 55.8099 30.111 55.4803 30.1295C54.4544 30.1857 54.0185 30.9767 53.4547 31.6168C53.2174 31.8856 53.44 32.3046 53.8521 32.37C53.9699 32.3885 54.0986 32.3461 54.2218 32.3261C54.8403 32.2268 55.3186 33.0871 55.9471 32.6365C56.3375 32.3569 56.5778 31.8748 56.9522 31.5636C57.3219 31.2555 57.603 31.5351 57.8071 31.8648C57.8725 31.9703 57.918 32.0873 57.9727 32.199C57.5545 32.6596 57.1347 33.1194 56.7188 33.5831C56.2498 34.1068 56.2698 35.2113 55.3278 35.1204C54.63 35.0526 53.8675 34.696 53.3206 34.2424C52.4041 33.4822 51.523 33.5376 50.5464 33.9543C49.9564 33.6663 49.8363 33.1818 49.9703 32.5918C50.1228 32.323 50.0388 32.1559 49.7215 32.085C47.9778 31.589 48.245 30.6371 49.3064 29.7729C50.0496 29.1675 50.9839 28.7778 51.8457 28.3087C53.8429 27.7565 55.7791 26.7398 57.9388 27.5747Z" fill="#807B4E"/>
<path d="M50.7705 32.2716C50.2953 32.7791 50.3538 33.3576 50.5479 33.9537C50.7074 34.5206 50.8329 35.1105 50.5464 35.6512C50.075 36.5423 50.4247 37.1901 51.0655 37.7885L51.0586 37.7924C50.0242 38.9446 49.0953 38.4994 48.1957 37.6052C48.3382 34.3996 46.1586 33.8204 43.6577 33.6009C43.298 33.1072 43.1964 32.565 43.3396 31.9704C44.0582 30.2714 45.6302 29.8092 47.1776 29.3071C47.575 29.2 47.9793 29.1653 48.3883 29.1915C49.3703 29.5158 50.2861 28.3266 51.2873 29.0606C50.9693 29.8424 50.1975 30.0126 49.5528 30.3615C49.1562 30.5764 48.9267 31.0762 49.1393 31.2333C49.3025 31.3543 49.5606 31.4151 49.767 31.3966C50.4263 31.3381 50.5772 31.8195 50.7728 32.2685L50.7705 32.2716Z" fill="#847F52"/>
<path d="M67.7319 23.2828C67.9738 23.2027 68.2157 23.1226 68.4583 23.0425C68.2449 23.6032 68.2449 23.6032 67.7319 23.2828Z" fill="#6E6833"/>
<path d="M12.1943 36.6116C12.4261 35.598 13.3111 35.4439 14.0998 35.1636C16.3418 37.0644 16.1862 39.0885 14.4132 41.202C13.7824 41.6286 13.1054 41.7611 12.3714 41.5224C11.9347 41.8967 11.4988 42.2702 11.0621 42.6445C10.6924 43.2122 10.1833 43.3824 9.54326 43.176C9.33145 43.2538 9.11349 43.3038 8.88936 43.3269C8.80387 43.0974 8.71918 42.8671 8.63523 42.6376C8.33408 42.4682 8.25781 42.2279 8.40723 41.9167L8.41029 41.9183C9.27291 42.0677 9.82438 41.8751 9.9584 40.8515C10.0662 40.0289 10.6585 39.9843 11.3525 40.2908C11.4765 40.3455 11.85 40.1275 11.9224 39.9565C12.3183 39.0207 12.1858 38.7312 11.0829 37.8216C10.7248 37.5258 10.7378 37.2223 11.1476 37.0221C11.4849 36.8572 11.8469 36.7425 12.1982 36.6046L12.1943 36.6116Z" fill="#352E0D"/>
<path d="M8.40729 41.9155C8.48816 42.1543 8.56443 42.3946 8.63529 42.6364C8.06919 42.4177 8.06917 42.4177 8.40729 41.9155Z" fill="#494110"/>
<path d="M43.4391 45.9966C42.987 46.183 42.5349 46.3701 42.0828 46.5573C41.9079 46.5565 41.7339 46.5557 41.559 46.5565C40.9328 46.3909 40.3991 46.0412 39.9432 45.6099C38.9958 44.7134 37.098 44.4677 37.4161 42.6855C37.6988 41.1035 39.7275 42.0262 40.4954 40.9479C41.2779 39.9428 42.1051 39.0093 43.5261 39.0039C44.1115 39.094 44.5875 39.2997 44.5867 40.0075C44.428 40.1893 44.2309 40.3502 44.1176 40.5574C43.6324 41.447 43.6594 41.9561 44.274 42.5022C44.7223 42.9003 45.2344 43.2246 45.7143 43.5881C46.074 43.8608 46.0616 44.1974 45.6804 44.3722C45.1305 44.6248 44.5366 44.8035 44.0314 45.1247C43.758 45.2957 43.6317 45.6977 43.4391 45.9966Z" fill="#797443"/>
<path d="M48.4077 37.0918C49.1371 37.9082 50.0244 38.127 51.058 37.7919C50.9316 38.4242 50.4495 38.8055 50.0529 39.2561C49.3242 40.0833 48.457 40.3474 47.4604 39.8707C46.6016 39.4594 46.1102 40.0294 45.5425 40.453C43.939 38.2302 46.0378 37.8166 47.2432 36.9647C47.6467 36.8638 48.0357 36.907 48.4077 37.0918Z" fill="#797443"/>
<path d="M47.6876 37.311C47.227 37.7307 46.8157 38.2306 46.2942 38.551C45.524 39.0247 45.3384 39.6393 45.5425 40.4526C45.2229 40.304 44.9041 40.1553 44.5844 40.0067C44.2579 39.8365 43.9305 39.6655 43.6039 39.4945C42.2884 38.5279 42.5596 37.1007 42.5126 35.7636C42.6574 34.9742 43.0193 34.3788 43.892 34.2563C44.8609 35.6412 46.4629 36.2412 47.6876 37.311Z" fill="#847F52"/>
<path d="M42.2622 47.2097C40.5817 47.7766 38.9003 48.3435 37.2197 48.9103C37.5424 45.6562 39.9069 46.3479 41.968 46.4534L42.082 46.5574C42.1459 46.7738 42.206 46.9918 42.2622 47.2097Z" fill="#6D683C"/>
<path d="M43.121 35.6769C43.4037 36.4587 43.5931 37.2435 43.4953 38.0961C43.443 38.5521 43.5631 39.0281 43.6047 39.4941C42.3839 39.8838 41.3457 40.4506 41.2471 41.9287C39.1129 41.0999 37.4061 41.3941 36.3371 43.6662C35.8249 44.7553 35.0161 45.2867 34.162 43.9905C33.3217 42.7143 32.4275 42.9561 31.4155 43.6578L31.4293 43.6778C31.1752 44.2246 30.4612 44.3047 30.224 44.8685L30.2171 44.8701C28.6482 45.2698 27.0662 45.6102 25.6005 46.355C25.344 46.4852 24.7139 46.3619 24.5745 46.1486C24.1709 45.5301 23.8937 44.8192 23.6442 44.1168C23.5594 43.8788 23.8244 43.7255 24.1017 43.7648C25.8053 44.0074 27.2564 43.2634 28.6558 42.4855C29.4661 42.0357 29.8851 41.2178 29.6456 40.2358C29.6024 40.0578 29.3113 39.8083 29.1419 39.8137C28.0936 39.8476 27.2086 40.3043 26.44 41.0021C26.0371 41.3679 25.525 41.5582 25.0521 41.3217C24.0246 40.8072 23.142 41.0653 22.2108 41.569C21.9181 41.7276 21.4706 41.6013 21.094 41.6052C20.7774 41.4373 20.4609 41.2694 20.1451 41.1015C20.0927 40.2812 19.616 39.635 19.2617 38.9226C19.4188 38.5752 19.6368 38.291 19.9202 38.0422C24.6169 36.1961 28.7198 32.8873 33.9564 32.4082C34.514 32.8896 34.4177 33.4588 34.1797 34.0441C33.9864 34.3745 33.7276 34.6541 33.4188 34.8813C32.0432 35.737 30.2786 35.4705 29.0109 36.3794C28.4448 36.5727 29.1857 36.9401 28.8823 36.5349C28.8253 36.4587 28.9154 36.3424 29.1672 36.3139C30.1046 36.2076 30.9511 35.241 31.9824 36.0051C32.8011 36.6243 32.0347 38.7061 34.2106 38.1655C36.1622 37.6802 36.8778 36.5527 36.8585 34.7103C37.0172 34.4053 37.2652 34.2074 37.5948 34.1134C38.4567 34.2128 38.8787 34.9907 39.5542 35.3719C40.1226 35.6276 40.7072 35.5791 41.2979 35.459C41.6083 35.3881 41.9187 35.3604 42.2345 35.3573C42.5526 35.4028 42.8468 35.5129 43.121 35.6769Z" fill="#8E895F"/>
<path d="M31.4154 43.6578C31.3815 43.4114 31.3076 43.1626 31.323 42.9192C31.3492 42.5133 31.6026 42.186 32.0062 42.2522C32.5731 42.3447 33.1476 42.823 33.5789 42.0173C33.6097 41.9596 33.9055 41.9519 33.927 41.995C34.1997 42.5518 34.4177 43.1372 34.7119 43.6809C34.802 43.8465 35.0816 43.9097 35.2741 44.0206C35.3134 43.902 35.3797 43.7849 35.3866 43.6648C35.422 43.0263 35.5168 42.4502 36.1868 42.1151C37.2667 41.5745 38.6746 41.5205 39.2245 40.1434C39.2283 40.1334 39.6835 40.2127 39.7952 40.3544C40.0224 40.6433 40.1064 41.0515 40.3482 41.3203C40.5832 41.5822 40.9421 41.7316 41.2471 41.9303C41.1146 42.4764 40.7795 42.8237 40.2073 42.749C39.7182 42.6851 39.2492 42.4818 38.7639 42.3716C38.3434 42.2761 37.8528 42.6065 37.9414 42.9077C38.0076 43.1333 38.0931 43.379 38.2448 43.5485C38.8471 44.2209 39.9431 43.9498 40.5161 44.7469C40.9505 45.3515 41.4812 45.8868 41.9687 46.4529C40.8104 46.8642 39.6512 47.2732 38.4936 47.6876C37.8882 47.904 37.4284 48.2767 37.2204 48.9098L37.2189 48.9106C37.1149 49.1271 36.974 49.2341 36.7976 49.2333C36.6212 49.2318 36.5234 49.2041 36.5049 49.1502C36.2616 49.2287 36.0189 49.3065 35.7755 49.3843C35.0554 48.7782 34.0965 48.9746 33.297 48.6457C32.9258 48.4924 32.7487 48.2521 32.9674 47.8C33.1222 47.4804 33.2685 47.0583 33.1869 46.7425C32.9697 45.9022 32.6785 45.0696 32.3065 44.2863C32.1694 43.9998 31.7212 43.8627 31.4154 43.6578Z" fill="#7E794D"/>
<path d="M30.224 44.8695C30.3434 44.1871 30.8471 43.8928 31.4294 43.6787C31.3192 44.3711 30.8186 44.6684 30.224 44.8695Z" fill="#767045"/>
<path d="M36.5042 49.1494C36.7398 49.0631 36.9778 48.9838 37.2181 48.9106C37.014 49.4798 37.014 49.4798 36.5042 49.1494Z" fill="#6D683C"/>
<path d="M19.6437 39.6592C19.7523 39.6345 19.8601 39.5922 19.9703 39.5875C20.732 39.5544 20.8005 39.6322 20.5417 40.1983C20.4046 40.4971 20.2768 40.8006 20.1451 41.1017C19.2054 41.4013 18.2658 41.7002 17.3269 41.999C16.9957 41.8365 16.6646 41.6748 16.3334 41.5138C15.9529 41.1988 15.9105 40.8437 16.2047 40.4463C17.1752 39.4204 18.3228 39.1616 19.6437 39.6592Z" fill="#767045"/>
<path d="M17.7721 48.3193C17.5433 47.6061 17.3154 46.8937 17.0874 46.1805C18.2027 46.0834 18.2196 46.0873 18.2989 46.8444C18.3482 47.3142 18.4383 47.7971 18.3744 48.2546C18.3389 48.5119 18.0039 48.5142 17.7721 48.3193Z" fill="#767935"/>
<path d="M19.6437 39.6587C18.4507 40.1015 17.2577 40.5444 16.0646 40.9873C15.5802 41.7297 14.5095 41.5649 14.0243 42.3059C13.6207 42.4376 13.2172 42.5685 12.8143 42.6994C12.6672 42.3058 12.5193 41.913 12.3715 41.521C13.0385 41.1829 13.7055 40.844 14.3717 40.5051C15.4569 39.9005 16.3442 38.9401 17.6265 38.6851C18.2751 38.5858 18.8966 38.6204 19.4319 39.0625C19.5066 39.2605 19.5767 39.4584 19.6437 39.6587Z" fill="#929080"/>
<path d="M17.0782 48.5636C15.9237 48.1962 15.7773 47.1757 15.5663 46.2052C15.5463 46.1121 15.6534 45.9911 15.7019 45.8833C15.8682 45.9611 16.1355 45.9988 16.1848 46.1228C16.5067 46.9285 16.7817 47.7533 17.0721 48.5721L17.0782 48.5636Z" fill="#605B2B"/>
<path d="M12.5594 44.5562C12.4577 44.292 12.3561 44.0271 12.2544 43.7621C12.6148 43.6697 12.9714 43.5557 13.3365 43.4894C14.3123 43.3108 14.5326 43.6419 14.176 44.7541C13.6847 44.2935 13.1317 44.3428 12.5594 44.5562Z" fill="#5F5928"/>
<path d="M14.0243 42.3062C14.4279 41.4389 15.2274 41.184 16.0646 40.9868C16.1485 41.1663 16.2371 41.3426 16.3326 41.5144C15.5632 41.7778 14.7937 42.042 14.0243 42.3062Z" fill="#605B2B"/>
<path d="M16.318 44.0236C16.1008 43.9382 15.8713 43.8735 15.6718 43.7579C15.5886 43.7094 15.5092 43.5384 15.5308 43.4475C15.6132 43.0986 15.8135 43.0632 16.0199 43.3644C16.1524 43.5577 16.2286 43.7895 16.3295 44.0036L16.318 44.0236Z" fill="#605B2B"/>
<path d="M11.2508 43.3047C11.1053 43.6336 10.9597 43.9633 10.8141 44.2921C10.5091 44.115 10.2041 43.9379 9.89832 43.7607C10.2241 43.2362 10.6701 43.0714 11.2508 43.3047Z" fill="#5F5928"/>
<path d="M11.2508 43.3046C10.7995 43.4571 10.3489 43.6096 9.89833 43.7613C9.75892 43.578 9.64111 43.3832 9.54407 43.1752C10.0493 42.9988 10.5553 42.8217 11.0621 42.6445C11.1152 42.8671 11.1784 43.0866 11.2508 43.3046Z" fill="#494110"/>
<path d="M12.0603 45.5102C12.0518 45.1043 12.2105 44.7808 12.5386 44.5405C12.3791 44.864 12.2197 45.1875 12.0603 45.5102Z" fill="#5F5928"/>
<path d="M19.5797 25.3048C19.8054 25.2124 20.0334 25.1292 20.2652 25.0537C20.8059 25.4481 21.3843 25.4458 21.9912 25.2324C22.4495 25.0707 22.9147 24.9266 23.3768 24.7749C24.365 25.0968 25.0243 25.7792 25.4433 26.7043C25.5819 27.01 25.4356 27.6154 25.9169 27.5438C26.5316 27.4529 26.349 26.809 26.4253 26.3561C26.4615 26.1374 26.6078 25.9248 26.7472 25.7415C26.7996 25.6722 26.9736 25.6891 27.093 25.6791C28.0673 25.5975 29.0385 25.4519 29.9859 25.8886C30.84 26.283 31.668 25.9549 32.4875 25.6961C32.8056 25.1562 33.2677 25.3387 33.7183 25.4419C34.3106 25.6059 34.9198 25.6961 35.5229 25.8162C35.8202 25.9063 36.0567 26.0835 36.2461 26.3184C36.8923 26.9838 37.7495 26.3092 38.4458 26.6534C39.1074 27.4491 39.558 28.3017 39.179 29.3799C38.7269 29.946 38.1131 30.2595 37.4522 30.506C35.5984 31.1915 33.7791 30.8888 32.0315 30.174C30.4372 29.5224 28.9361 29.3838 27.4704 30.429C27.0768 30.7524 26.6579 31.0359 26.1865 31.2346C24.4836 31.3309 23.5085 30.1463 22.4549 29.1004C21.7047 28.3086 20.8998 27.9859 19.8639 28.6444C19.5058 28.8724 19.2077 28.5928 19.1815 28.1268C19.1484 27.5253 19.1091 26.9238 19.0721 26.323C19.2424 25.9849 19.411 25.6445 19.5797 25.3048Z" fill="#676330"/>
<path d="M15.7788 35.3395C15.9467 35.0384 16.1146 34.7372 16.2833 34.4361C16.626 33.5997 17.2075 32.9519 17.8984 32.3904C18.7202 31.8097 19.4457 30.7491 20.611 31.8336C20.8891 32.2541 21.1309 32.7232 20.9792 33.2153C20.6426 34.309 20.752 35.2833 21.3751 35.9033C21.4459 36.2607 21.4475 36.6173 21.3774 36.9754C21.1948 37.5192 20.8144 37.8974 20.3445 38.2001C19.6521 38.4357 18.9875 38.8047 18.2111 38.6306C16.9295 37.882 15.3536 37.349 15.7788 35.3395Z" fill="#352E0D"/>
<path d="M20.3353 32.1914C19.8262 31.7924 19.3402 31.7778 18.875 32.2692C18.6462 32.511 18.4036 32.7413 18.1672 32.9762C18.0355 33.0132 17.9038 33.0502 17.7721 33.0887C17.5087 33.1688 17.2406 33.2296 16.9695 33.2782C16.5459 33.3059 16.1523 33.2035 15.7842 32.9955C15.9821 32.6905 16.1099 32.2507 16.3911 32.1028C17.5864 31.4736 18.8134 30.8975 20.0595 30.3753C20.4993 30.1912 21.0362 30.2551 21.5122 30.1388C22.0351 30.0118 22.3108 29.6028 22.4541 29.1006C23.4561 29.1892 24.2803 29.6775 25.0767 30.2451C25.4618 30.5193 25.8831 30.7411 26.2882 30.9868C26.3806 31.1324 26.4738 31.278 26.567 31.4243C26.2304 32.7075 25.29 32.8291 24.251 32.5172C22.9586 32.1283 21.6439 32.2561 20.3353 32.1914Z" fill="#585223"/>
<path d="M15.7788 35.3392C16.0137 36.0362 16.4396 36.5754 17.0966 36.9189C17.7536 37.2624 18.1856 37.7954 18.4367 38.4847C18.4367 38.4847 18.2627 38.7943 18.265 38.7959C18.2673 38.7974 17.9708 38.9923 17.9723 38.9923C17.9739 38.9923 17.9145 39.3404 17.9145 39.3404C16.7338 39.7294 15.5524 40.1183 14.3716 40.5065C14.7629 39.7448 15.262 39.0285 14.4448 38.1766C14.0874 37.8046 14.1675 37.2301 14.4948 36.7772C14.9993 36.0786 14.4833 35.6388 14.0997 35.1628C14.578 34.9988 15.0556 34.834 15.5338 34.6699C15.624 34.8902 15.7056 35.1128 15.7788 35.3392Z" fill="#423D10"/>
<path d="M15.7849 32.9959C16.254 32.8311 16.7238 32.6663 17.1928 32.5015C17.4978 32.657 17.8083 32.7988 18.1264 32.9258L18.1672 32.9759C17.9423 33.9833 17.0419 34.1181 16.2825 34.4354C16.1169 33.9556 15.9513 33.4758 15.7849 32.9959Z" fill="#4D4414"/>
<path d="M33.4689 26.1293C33.1423 25.9845 32.815 25.8405 32.4877 25.6957C32.349 25.0903 32.3244 24.5096 32.7857 24.0036C33.2848 23.4567 33.6168 22.8251 33.6868 22.075C34.2999 21.9194 34.8738 21.9433 35.4245 22.3222C35.8558 22.6187 36.3009 22.5063 36.7962 22.3507C37.5055 22.1281 37.9461 22.5063 37.916 23.2102C37.896 23.6947 37.7982 24.1753 37.7351 24.6582C37.7535 24.7845 37.7728 24.9108 37.7936 25.0379C37.7474 25.2936 37.6565 25.5332 37.5263 25.7581C37.4401 25.8543 37.3507 25.9475 37.2637 26.0446C37.0534 26.1994 36.8193 26.3064 36.5666 26.3711C36.3001 26.3842 36.0684 26.2987 35.8712 26.117L35.8635 26.1201C35.0648 25.6595 34.2699 26.5914 33.4689 26.1293Z" fill="#817E4D"/>
<path d="M28.6504 23.7837C28.6304 23.9023 28.6211 24.1203 28.5888 24.1234C28.3315 24.1519 28.3516 24.0217 28.655 23.786L28.6504 23.7837Z" fill="#676330"/>
<path d="M52.3488 22.8831C52.4427 23.1334 52.5367 23.3829 52.6306 23.6332C52.4758 23.9521 52.3202 24.2702 52.1654 24.5883C51.6841 25.9131 50.5919 26.5585 49.392 27.0876C48.5887 27.3841 47.8346 27.8362 46.9442 27.8501C46.4128 27.8578 45.9145 27.7215 45.4377 27.502C44.4434 26.9867 43.2072 27.5836 42.2699 26.8442C41.6091 26.322 40.7449 25.8514 40.778 24.8948C40.8265 23.4823 42.0666 23.7272 42.9608 23.5246C44.1546 23.6802 45.1643 23.1688 46.1656 22.6258C46.3196 22.5711 46.4737 22.518 46.6285 22.4648C46.8703 22.3917 47.1083 22.31 47.3448 22.2207L47.3394 22.233C48.2505 22.5295 48.6965 23.4553 49.5314 23.8558C50.2384 23.6178 50.9455 23.3798 51.6525 23.1419C51.8874 23.0633 52.12 22.9778 52.3488 22.8831Z" fill="#4B4510"/>
<path d="M33.6752 34.0527C33.8546 33.7423 34.0341 33.4319 34.2135 33.1208C37.6663 29.7781 42.3407 29.4384 46.6022 28.0844C47.0489 27.9797 47.4995 27.9604 47.9539 28.0251C48.1503 28.1383 48.3475 28.2523 48.5439 28.3663C48.6363 28.5435 48.7657 28.6882 48.9313 28.7992C48.9598 29.2798 48.5231 29.5147 48.3552 29.8921C48.0903 29.9483 47.8245 30.0045 47.5596 30.0607C43.6108 30.6376 40.503 33.5274 36.5141 34.055C35.5375 34.1844 34.6279 34.635 33.6752 34.0527Z" fill="#B5B5A2"/>
<path d="M48.3552 29.8919C48.547 29.5276 48.7388 29.1633 48.9313 28.799C50.7937 28.1412 52.7615 27.7754 54.496 26.768C55.0298 26.6948 55.5635 26.6216 56.0973 26.5477C56.8775 27.1022 58.0944 25.3916 58.6636 27.0429C58.4217 27.2193 58.1799 27.3965 57.9388 27.5736C56.8706 27.74 55.8739 28.2352 54.7394 28.1258C53.4948 28.0057 52.3634 28.4694 51.2874 29.0586C50.3092 29.3374 49.3326 29.6146 48.3552 29.8919Z" fill="#B8B7A9"/>
<path d="M49.5184 26.3013C49.8927 26.0232 50.2308 25.6142 50.6498 25.5002C51.2059 25.3485 51.3653 24.9881 51.5678 24.5598C51.601 24.4905 51.9576 24.5745 52.1648 24.5876C52.3804 25.3886 52.8541 26.1865 52.1902 26.996C51.9661 26.8619 51.7812 26.8519 51.6356 26.9667C51.4893 27.0815 51.4261 27.17 51.4469 27.2316C50.9594 27.3849 50.4726 27.5382 49.9851 27.6907C49.4244 27.3649 49.2688 26.9012 49.5184 26.3013Z" fill="#3E390E"/>
<path d="M49.5183 26.3018C49.6747 26.7654 49.831 27.2283 49.9866 27.6912C49.5052 27.9161 49.0238 28.141 48.5432 28.3659L48.5548 28.3312C48.2182 28 47.8262 28.0501 47.4234 28.1656C47.1407 28.2095 46.8773 28.1603 46.6354 28.0047C46.4683 27.7497 46.4706 27.5033 46.6686 27.2653C47.6182 26.9449 48.5687 26.6237 49.5183 26.3018Z" fill="#252004"/>
<path d="M51.4476 27.2322C51.6725 26.6677 51.6725 26.6677 52.1901 26.9965C51.9429 27.0751 51.6956 27.1537 51.4476 27.2322Z" fill="#3C3715"/>
<path d="M58.6629 27.0434C58.2324 26.9603 57.801 26.8101 57.3705 26.8108C56.9145 26.8124 56.4801 26.8416 56.0966 26.5482C57.7201 25.8727 59.3553 25.2242 60.9619 24.5118C61.9039 24.0943 62.8751 23.9187 63.8879 23.8833C63.8063 24.3508 63.7247 24.8183 63.643 25.2858C62.1396 26.3148 60.4128 26.7122 58.6629 27.0434Z" fill="#E3E4DF"/>
<path d="M49.5305 23.8546C48.4106 23.8392 47.712 23.2554 47.3385 22.2318C48.292 21.9337 48.939 22.2426 49.2679 23.1976C49.3456 23.4202 49.4427 23.6359 49.5305 23.8546Z" fill="#5F5D1F"/>
<path d="M43.3289 24.3186C42.8483 24.3263 42.3623 24.2924 41.8917 24.3641C41.7091 24.3918 41.5405 24.6436 41.4111 24.8262C41.3641 24.8924 41.4172 25.0811 41.4843 25.1681C41.8462 25.6333 42.5056 25.7281 42.799 26.3335C43.0778 26.9096 43.6031 26.6831 44.0413 26.4513C44.2539 26.3388 44.4303 26.144 44.6513 26.0647C45.2829 25.8382 45.4593 26.325 45.6572 26.7586C44.1823 29.4867 41.8778 29.7824 39.1929 28.9629C38.5198 28.3984 38.3341 27.6721 38.4843 26.8341C38.0923 26.6593 37.6371 26.6677 37.2713 26.4166C37.1057 26.1548 37.1002 25.8944 37.2789 25.6364L37.2743 25.6233C37.4669 25.3253 37.6525 25.0241 37.7426 24.676L37.7388 24.659C37.9852 24.6113 38.2317 24.5227 38.4781 24.5235C39.2514 24.5243 39.9662 24.4958 40.4175 23.6817C40.5793 23.3898 40.9821 23.2211 41.2917 23.0231C41.6506 22.7944 41.7669 22.4763 41.6668 22.0866C41.5104 21.4781 41.3263 20.8758 41.1538 20.2712C41.7638 19.7898 42.5571 19.8977 43.2318 19.625C43.4737 19.5457 43.7163 19.4656 43.9582 19.3862C44.1946 20.0856 44.4318 20.7849 44.669 21.4835C44.6213 21.7469 44.4765 21.9372 44.2439 22.0573C43.9605 22.2714 43.7432 22.5356 43.6685 22.8999C43.6608 23.1471 43.6354 23.3874 43.6093 23.6308C43.5731 23.8865 43.4791 24.1145 43.3289 24.3186Z" fill="#5A531D"/>
<path d="M43.9905 21.7468C44.2208 21.6713 44.4465 21.5842 44.6675 21.4849C45.4562 21.5395 46.1101 21.8654 46.6277 22.4638L46.5776 22.4777C45.6795 23.4905 44.696 23.8224 43.5492 22.8581C43.2173 22.2974 43.0293 21.7945 43.9905 21.7468Z" fill="#767234"/>
<path d="M43.2303 19.6252C42.7282 20.5317 42.7281 20.5363 41.8755 20.4193C41.6321 20.3861 41.3926 20.3222 41.1523 20.2722C41.0414 20.0688 40.9675 19.854 40.9336 19.6252C41.4666 19.3895 41.9279 19.0814 42.1035 18.4814C42.7844 18.5623 43.0039 19.0968 43.2303 19.6252Z" fill="#3C2E09"/>
<path d="M59.8775 30.7614C59.7581 30.7436 59.5386 30.7367 59.5355 30.7059C59.507 30.4471 59.6357 30.4687 59.8698 30.7768L59.8775 30.7614Z" fill="#797443"/>
<path d="M50.7722 32.269C50.8908 32.2906 51.108 32.3006 51.1118 32.3345C51.1411 32.5933 51.0094 32.5748 50.7706 32.2721L50.7722 32.269Z" fill="#847F52"/>
<path d="M47.6875 37.3106C47.351 37.2336 46.992 37.0456 46.6847 37.1096C46.3559 37.1773 46.0886 37.5062 45.7705 37.6772C45.2421 37.9606 44.837 37.7712 44.5551 37.299C44.0067 36.381 44.2316 35.4128 44.267 34.4524C43.9628 34.2845 43.9143 34.0511 44.0884 33.76C44.562 33.3856 44.9595 32.8581 45.6788 32.9797C46.5299 33.1238 47.3833 33.2516 48.232 33.4095C48.5725 33.4727 49.0808 34.2259 49.0053 34.581C48.8267 35.4221 48.6087 36.2554 48.4069 37.0926C48.1689 37.1666 47.9286 37.2397 47.6875 37.3106Z" fill="#8F8A59"/>
<path d="M33.6752 34.0529C37.229 32.8552 40.7811 31.6545 44.3371 30.4637C45.0465 30.2265 45.7589 29.9762 46.4899 29.8407C46.8218 29.779 47.2023 29.9801 47.5604 30.0617C46.7987 30.396 46.0501 30.7633 45.2729 31.056C44.5774 31.3179 44.0545 31.7762 43.5785 32.3145C43.4968 32.6141 43.3035 32.7936 43.0008 32.856C42.6211 32.9299 42.1413 32.7759 41.9564 33.3227C41.7423 33.5623 41.5012 33.751 41.2301 33.915C40.1472 34.4303 39.0574 34.8585 37.8566 34.3086C37.6125 34.3933 37.3676 34.478 37.1234 34.5627C36.8531 35.0618 36.4164 35.3191 35.8742 35.4277C34.9884 35.5147 34.1043 35.5594 33.2516 35.2159C32.9605 34.9625 32.8781 34.6575 33.0344 34.2978C33.2385 34.19 33.4519 34.1083 33.6752 34.0529Z" fill="#B8B7A9"/>
<path d="M42.9122 32.4993C43.1224 32.3961 43.3443 32.3345 43.5776 32.3145C43.7478 32.7966 43.9181 33.278 44.089 33.7601C44.1522 33.9904 44.2115 34.2215 44.2677 34.4525C43.7086 34.6959 43.2218 35.0063 43.1201 35.6772C42.8821 35.7542 42.6442 35.832 42.4077 35.9121C42.1813 35.7804 41.9972 35.7734 41.8562 35.8913C41.7145 36.0091 41.6544 36.0992 41.676 36.1616C40.8796 36.4196 40.0863 36.8633 39.2783 36.1916C37.443 33.4674 40.6609 34.5141 41.2147 33.5861C41.465 33.2202 41.9102 33.7478 42.1713 33.392C42.1689 33.3912 41.9317 33.1078 41.9317 33.1078L42.0989 32.7781L42.0996 32.7874C42.3006 32.4955 42.5756 32.4092 42.9122 32.4993Z" fill="#787241"/>
<path d="M12.1943 36.6114C12.3137 36.6307 12.5324 36.6392 12.5363 36.6715C12.5648 36.9318 12.4347 36.911 12.1974 36.6045L12.1943 36.6114Z" fill="#494110"/>
<path d="M46.9381 27.9241C47.1599 27.8563 47.3848 27.8032 47.6128 27.7646C47.9448 27.9287 48.0179 28.1813 47.8677 28.5094C43.3159 30.046 38.764 31.5833 34.2128 33.1199C33.8585 33.0598 33.381 32.821 33.1707 32.9674C31.8052 33.9186 30.2825 34.4823 28.719 34.9737C27.6353 35.3142 26.614 35.7586 25.6597 36.4055C24.9411 36.8923 24.1078 37.2243 23.2991 37.5601C22.0221 38.09 20.722 38.5644 19.4319 39.0635C18.9266 39.1567 18.4206 39.2491 17.9146 39.3408C17.8668 39.1444 17.8129 38.9503 17.7544 38.757L17.7714 38.7308C17.9963 38.6576 18.218 38.5752 18.4368 38.4843C19.1585 38.2394 19.8802 37.9937 20.6018 37.7488C20.7613 37.4299 20.9184 37.1103 21.0817 36.7937L21.0863 36.7945C21.466 35.9442 22.1299 35.576 23.0418 35.6353C23.3476 35.519 23.6218 35.9634 23.943 35.6939C23.7312 35.5752 23.4554 35.8317 23.2598 35.5753C22.0521 33.706 23.8035 33.4071 24.7909 32.7656C25.6982 32.1763 27.442 32.4297 26.9237 30.505C26.8698 30.3456 26.8158 30.1854 26.7627 30.026C26.8797 29.8088 26.9622 29.436 27.1208 29.3998C28.099 29.178 28.987 28.7867 29.8543 28.2876C30.1955 28.0912 30.5713 28.3015 30.7546 28.7105C30.8047 28.8229 30.9025 29.0024 30.978 29.0024C32.5138 29.0008 33.7499 30.1892 35.2888 30.1037C35.9088 30.0691 36.5196 29.8658 37.135 29.7394C40.5254 29.8018 43.5638 27.9549 46.9381 27.9241Z" fill="#585223"/>
<path d="M35.7324 34.9513C36.1961 34.8211 36.6597 34.6909 37.1234 34.5615C37.3113 35.1523 37.5362 35.733 37.6787 36.3345C37.9152 37.3296 37.6318 37.7509 36.4949 38.2C36.2677 38.2893 35.9973 38.2947 35.7948 38.4172C35.1755 38.7922 34.7104 39.5455 33.8855 39.4061C33.1915 39.2883 32.5715 38.8169 31.8021 38.9378C31.7366 38.9486 31.494 38.5365 31.5279 38.3571C31.6642 37.6331 31.8768 36.923 32.0609 36.2075C32.134 36.0734 32.208 35.9394 32.2804 35.8046C32.5137 35.599 32.7841 35.4665 33.0845 35.3941C33.3871 35.361 33.6837 35.2986 33.9733 35.2039C34.5463 35.0306 35.1031 34.7371 35.7324 34.9513Z" fill="#847F52"/>
<path d="M33.4342 35.7264C33.2301 35.7741 33.0359 35.8465 32.8503 35.9436C32.6162 35.8327 32.4213 35.8365 32.2673 35.9544C32.114 36.0722 32.047 36.16 32.0663 36.2178L32.0609 36.2078C31.5787 36.2517 30.978 36.1292 30.6391 36.3726C29.7287 37.0265 28.759 36.78 27.7978 36.7877C27.7092 36.7885 27.5845 36.7099 27.5375 36.6314C27.3788 36.3641 27.5098 36.2517 27.8309 36.1407C29.5708 35.5423 31.3007 34.9146 33.0344 34.2969C33.1268 34.5518 33.2185 34.8068 33.3109 35.0609C33.7453 35.2103 33.7669 35.4352 33.4342 35.7264Z" fill="#B5B5A2"/>
<path d="M42.3885 33.5224C41.5597 33.7227 41.0467 34.509 40.1271 34.6238C39.1959 34.7401 39.2052 34.8549 39.2776 36.1904C38.2794 35.9586 38.1277 35.0875 37.8566 34.3072C39.2707 33.7974 40.6848 33.2875 42.0989 32.7769C42.1944 33.0272 42.2899 33.2767 42.3862 33.527L42.3885 33.5224Z" fill="#847F52"/>
<path d="M41.676 36.1615C41.8963 35.607 41.8963 35.607 42.4085 35.912C42.1643 35.9951 41.9202 36.0783 41.676 36.1615Z" fill="#847F52"/>
<path d="M46.938 27.9241C46.1262 28.216 45.2782 28.4332 44.5111 28.8137C42.7227 29.7017 40.6601 29.3867 38.8431 30.1893C38.3317 30.4149 37.6247 30.1962 37.1326 29.7387C37.8196 29.4799 38.5058 29.2219 39.1913 28.9631C39.5425 28.856 39.8883 28.7097 40.248 28.6488C41.2054 28.4863 42.2436 28.5364 43.1101 28.1713C43.985 27.8024 44.6867 27.026 45.6548 26.7588C45.9921 26.9275 46.3295 27.0961 46.6669 27.2656C46.7423 27.492 46.8325 27.7115 46.938 27.9241Z" fill="#473F18"/>
<path d="M37.5433 26.3605C37.8567 26.5184 38.1702 26.6763 38.4829 26.8342C37.4701 27.036 36.7407 27.7315 35.9297 28.2868C35.8488 28.3422 35.654 28.3237 35.5731 28.2606C35.4922 28.1974 35.4375 28.0257 35.4599 27.9194C35.5831 27.3163 35.7325 26.7187 35.8735 26.1187C36.1115 26.0447 36.3487 25.97 36.5859 25.8945C36.9133 26.0332 37.2598 26.1318 37.5433 26.3605Z" fill="#6F6B37"/>
<path d="M33.4689 26.1294C34.2668 25.9169 35.064 25.4517 35.8657 26.1218C35.0678 26.3721 34.2707 26.828 33.4689 26.1294Z" fill="#6F6B37"/>
<path d="M26.2905 30.9875C26.4476 30.6679 26.6055 30.3475 26.7626 30.0278L26.8104 30.0694C27.2517 30.6933 26.9945 30.9575 26.3267 31.0098L26.2905 30.9875Z" fill="#585223"/>
<path d="M26.326 31.0088C26.4869 30.6953 26.6479 30.3811 26.8096 30.0684C27.8209 30.3734 28.045 31.1767 28.0265 32.0847C28.0227 32.2711 27.7709 32.4652 27.606 32.6285C27.5275 32.7071 27.378 32.7718 27.2733 32.7564C26.0687 32.5807 25.1229 33.0367 24.3181 33.9001C24.1571 34.0734 23.899 34.1527 23.7019 34.2975C23.2536 34.6279 23.2567 34.7042 23.715 35.5214C23.7743 35.6277 23.8621 35.7178 23.9368 35.8156L23.943 35.8033C22.991 36.1345 22.0382 36.4649 21.0863 36.7961C20.9515 36.4425 20.8367 36.0798 20.6765 35.7378C20.4917 35.3458 20.2336 35.248 19.8586 35.5668C19.713 35.6908 19.3379 35.8017 19.2986 35.7478C19.16 35.5607 19.066 35.3003 19.0583 35.0647C19.0391 34.4801 19.5027 34.1997 19.9032 33.9024C20.5178 33.4457 20.437 32.8249 20.3361 32.1926C20.4508 32.1502 20.5748 32.124 20.6788 32.064C21.3997 31.6465 22.0929 31.0704 22.9794 31.6996C23.6087 31.457 24.1101 31.7828 24.6816 31.9885C25.5065 32.2842 26.0656 31.8244 26.326 31.0088Z" fill="#433D0F"/>
<path d="M21.0809 36.7939C20.9207 37.112 20.7613 37.4309 20.6011 37.749C20.7613 37.4309 20.9215 37.1128 21.0809 36.7939Z" fill="#423D10"/>
<path d="M18.1265 32.9261C17.8153 32.7844 17.5042 32.6427 17.193 32.501C17.5042 32.6435 17.8153 32.7844 18.1265 32.9261Z" fill="#5D5823"/>
<path d="M17.7544 38.7572C17.5172 38.8019 17.2807 38.8643 17.0412 38.8836C16.9302 38.8928 16.7215 38.8312 16.7131 38.778C16.6646 38.4676 16.8402 38.2959 17.1482 38.3829C17.3708 38.4461 17.5649 38.6117 17.7714 38.7318L17.7544 38.7572Z" fill="#352E0D"/>
<path d="M37.5432 26.3607C37.2243 26.2051 36.9047 26.0495 36.5858 25.8947C36.8146 25.8038 37.0449 25.7176 37.2775 25.6367C37.366 25.8778 37.4546 26.1189 37.5432 26.3607Z" fill="#676330"/>
<path d="M43.5107 22.7248C44.5559 22.9166 45.5872 22.9451 46.5777 22.4775C46.5014 23.1214 46.0154 23.4981 45.6288 23.9402C45.1967 24.4339 44.6707 24.6002 44.0314 24.4369C43.8019 24.3784 43.5623 24.3584 43.3282 24.3191C43.2304 24.1019 43.1464 23.8801 43.0756 23.6529C43.1788 23.4295 43.2288 23.1954 43.2258 22.9489L43.5107 22.7248Z" fill="#6F6B37"/>
<path d="M47.8685 28.5102C47.7837 28.2614 47.6982 28.0134 47.6135 27.7646C48.0325 27.7793 48.3514 27.9587 48.5547 28.3307C48.3537 28.4986 48.1249 28.5579 47.8685 28.5102Z" fill="#473F18"/>
<path d="M43.9906 21.7467C43.8304 22.0733 43.6701 22.3991 43.5107 22.7257H43.5115C43.4106 22.9375 43.2735 23.0438 43.0994 23.0445C42.9253 23.0453 42.8298 23.0191 42.8121 22.9667C42.7813 22.8458 42.7428 22.7264 42.7205 22.6047C42.6511 22.2304 42.6527 21.8469 42.9862 21.6089C43.3336 21.3593 43.6825 21.5049 43.9906 21.7467Z" fill="#6F6B37"/>
<path d="M42.8121 22.9654C43.0447 22.8845 43.2781 22.8044 43.5115 22.7251C43.3659 23.0347 43.2203 23.3451 43.0748 23.6547C42.9662 23.4321 42.8784 23.2026 42.8121 22.9654Z" fill="#767234"/>
<path d="M33.4342 35.7266C33.4064 35.5025 33.3656 35.2807 33.3109 35.062C34.1088 34.8278 34.8991 34.4219 35.7324 34.9526C34.9661 35.2106 34.2005 35.4686 33.4342 35.7266Z" fill="#8E895F"/>
<path d="M42.9122 32.499C42.6411 32.5953 42.37 32.6916 42.0989 32.7871C42.2082 32.2349 42.497 32.1871 42.9122 32.499Z" fill="#847F52"/>
<path d="M42.3855 33.5286C42.5041 33.5487 42.7213 33.5579 42.7252 33.5918C42.7545 33.849 42.6243 33.8282 42.3886 33.524L42.3855 33.5286Z" fill="#847F52"/>
<path d="M23.936 35.8151C24.0539 35.8328 24.2695 35.8397 24.2734 35.8705C24.3019 36.1239 24.1748 36.1039 23.9422 35.8027L23.936 35.8151Z" fill="#433D0F"/>
<path d="M32.0663 36.2187C32.3027 35.6726 32.3027 35.6727 32.8496 35.9445C32.5892 36.0354 32.3282 36.1271 32.0663 36.2187Z" fill="#8E895F"/>
</svg>
