<svg width="129" height="93" viewBox="0 0 129 93" fill="none" xmlns="http://www.w3.org/2000/svg">
<path d="M78.418 29.976C78.4981 29.8782 78.5573 29.7372 78.6598 29.6887C82.8789 27.6908 87.3014 26.2713 91.8102 25.1075C92.1668 25.0151 92.5627 25.0775 92.9409 25.0682C94.8825 25.4764 96.8804 25.2716 98.8352 25.6243C99.878 25.813 100.624 26.0841 101.189 27.1347C103.322 31.0989 104.031 31.0727 106.814 27.1524C107.043 26.8751 107.328 26.671 107.655 26.5208C108.162 26.3475 108.684 26.3021 109.214 26.3545C109.553 26.4038 109.881 26.5023 110.193 26.6433C110.558 26.5131 110.536 27.68 111.099 26.9059C111.383 26.7218 111.69 26.6079 112.026 26.567C113.788 27.9804 116.732 28.1583 116.91 31.2337C115.37 32.0401 113.573 32.2581 112.843 34.4246C112.361 35.8526 110.325 35.6554 108.952 36.1129C107.151 36.5158 105.273 36.0544 103.489 36.6297C102.393 36.8893 101.31 37.2012 100.204 37.423C98.8699 37.5825 97.5428 37.6287 96.255 37.1511C95.92 36.9817 95.6681 36.7221 95.4879 36.3948C95.5334 34.6773 99.4537 33.4711 96.1241 31.2545C95.3886 30.7646 95.6358 30.8748 95.2884 31.5487C93.9013 34.239 91.9727 33.6822 90.1312 32.0147C88.9851 30.9772 87.8899 29.9968 86.1931 30.3542C85.2065 30.4812 84.2653 30.7431 83.4127 31.2915C81.4757 31.8761 79.7158 31.7967 78.418 29.976Z" fill="#CFCBB2"/>
<path d="M33.3943 11.1627C33.6215 10.8661 33.7871 10.4525 34.0875 10.2923C35.4346 9.57374 36.596 8.62796 37.7236 7.6136C38.1818 7.20154 38.7603 6.90348 39.3194 6.62466C42.8138 4.87939 46.3791 3.27194 50.0907 2.06734C52.7048 1.21858 55.3704 0.408349 58.1932 0.520028C58.6915 0.540054 59.1983 0.470724 59.6936 0.392163C60.4345 0.275092 61.1716 -0.018351 61.9048 0.000904066C63.1441 0.0324823 64.4041 0.143411 65.6072 0.425305C66.4721 0.627868 67.3193 0.81041 68.2027 0.834286C69.2148 0.862013 70.1845 1.05298 71.1626 1.35336C72.1131 1.6445 73.139 1.69304 74.1349 1.82783C74.6632 1.89869 75.0752 2.14822 75.4195 2.5364C75.1222 3.40981 74.493 4.04984 73.8969 4.71684C73.2461 5.333 72.519 5.85446 71.5885 5.80054C62.7759 5.29144 54.353 7.65442 45.8269 9.28032C42.6051 9.40201 39.3972 9.42664 36.5128 11.2928C35.6294 11.8636 34.3948 12.1039 33.3943 11.1627Z" fill="#D9D6C1"/>
<path d="M33.3943 11.1624C35.249 10.9259 37.0212 10.4962 38.4268 9.1306C39.0915 8.48517 39.9349 8.35425 40.8307 8.38197C42.683 8.43897 44.536 8.47053 46.3891 8.51289C46.6025 10.1357 45.4195 9.50183 44.6855 9.6343C47.9188 9.44637 51.0712 8.67004 54.2437 8.08854C55.7532 7.81204 57.1011 7.49395 58.6346 8.11858C60.4053 8.83949 62.0551 8.24412 63.557 7.07572C65.7212 5.39206 67.8301 4.85134 69.5846 7.69108C70.0791 8.49132 71.0795 8.57993 71.7896 9.06746C72.8864 9.81995 73.7652 10.7542 72.5098 12.1282C70.3563 13.3821 67.9795 13.1818 65.6381 13.2088C59.4988 13.7464 53.3927 14.8686 47.4213 14.3618C47.9342 14.1592 48.4325 14.4165 48.6459 15.1782C48.498 15.5764 48.2299 15.8552 47.8417 16.0255C45.1722 16.6393 42.5258 16.4791 39.8948 15.8167C38.3236 14.4127 37.0651 12.2545 34.3709 13.4984C33.1532 13.614 31.944 13.6964 31.0698 12.5842C31.3479 12.3624 31.6252 12.1398 31.9032 11.918C32.2975 11.4566 33.0416 11.6931 33.4036 11.1662L33.3943 11.1624Z" fill="#C0BCA3"/>
<path d="M109.335 35.4238C109.623 35.2105 109.881 34.9039 110.203 34.8061C110.662 34.6675 111.174 34.7168 111.651 34.6236C112.48 34.4618 112.69 33.9281 112.284 33.0732C111.972 32.4146 112.027 32.0688 112.445 31.8254C113.192 31.391 113.949 31.0144 114.847 31.0452C115.579 31.0706 116.313 31.0768 117.046 31.0922C117.184 31.2 117.321 31.3071 117.462 31.4111C118.674 33.6115 120.569 34.4518 122.999 34.1091C124.238 33.935 125.479 33.5823 126.071 35.1828C124.833 36.2148 123.624 37.2862 122.348 38.2682C120.869 39.4065 119.317 40.4486 117.821 41.5647C115.722 43.1312 113.44 44.4082 111.188 45.7237C109.802 46.534 108.381 47.3666 106.702 47.4736C102.944 42.9572 104.967 38.7172 111.931 36.5776C111.042 36.5036 110.143 36.9496 109.333 36.3665C109.078 36.0515 109.093 35.7365 109.335 35.4238Z" fill="#DDDAC0"/>
<path d="M62.3222 62.0649C62.7566 62.5525 62.9422 63.1393 62.9276 63.7755C62.8421 67.4994 62.8683 71.2326 62.6072 74.945C62.4162 77.6615 61.666 80.2979 60.2927 82.7048C58.2979 84.6341 56.6697 83.7315 55.137 82.0432C54.8459 81.8406 54.6526 81.5695 54.5579 81.2283C53.7569 79.3698 53.5127 77.3627 52.9967 75.4264C52.9428 74.888 53.0459 74.3851 53.3278 73.9222C54.2135 73.1165 54.8181 72.2069 54.1149 70.9993C53.1738 69.3841 53.6005 67.6142 53.4465 65.9105C53.4288 65.574 53.4626 65.2405 53.5319 64.9108C53.7553 64.2831 54.0896 63.7309 54.651 63.3466C54.9437 63.2295 55.2418 63.2248 55.536 63.3458C55.972 63.7239 56.2816 64.2384 56.7845 64.5481C57.3521 64.8007 57.9406 64.7352 58.5336 64.6682C60.4537 64.4033 61.7207 64.9678 61.7407 67.2037C61.8601 65.4561 60.5477 63.5715 62.3222 62.0649Z" fill="#C4BF9E"/>
<path d="M21.0887 17.6835C19.2872 17.149 17.6151 16.2902 15.9538 15.4522C14.0568 14.4956 12.1583 13.5706 10.1642 12.8343C7.93297 12.0102 5.74714 11.0882 3.90019 9.53013C3.47196 9.10498 2.80575 9.20358 2.35518 8.82772L2.3313 8.83002C2.32899 7.39899 3.14076 7.62079 4.02726 7.99434C4.25524 7.99125 4.47707 8.02748 4.69272 8.10142C5.32121 8.81617 6.35789 8.26085 7.02566 8.8539C9.08287 9.33682 11.1701 9.72193 13.1919 10.3235C17.3826 11.5696 21.6756 12.3052 25.971 13.0292C26.6804 13.1486 27.456 12.9899 28.1815 12.8566C28.9178 12.7226 29.6326 12.4846 30.3866 12.7188C30.5961 13.7139 29.7836 14.159 29.286 14.7775C29.025 14.9901 28.7276 15.1287 28.3979 15.198C26.0427 14.7952 25.9881 16.0276 26.5981 17.7374C24.7349 20.3676 22.9218 18.0732 21.0887 17.6835Z" fill="#ADA88E"/>
<path d="M62.3222 62.0648C62.2475 63.9349 62.1736 65.8041 62.0974 67.6742C62.0835 68.0192 61.9464 68.1625 61.7146 68.0662C61.6183 68.0262 61.4919 67.9399 61.4727 67.8536C61.3641 67.37 61.3318 66.8639 61.1824 66.3948C60.932 65.6062 60.2173 65.2257 59.4371 65.3975C58.8325 65.5307 58.2294 65.6694 57.6255 65.8057C55.1732 63.9241 55.7425 60.0384 52.7726 58.5011C51.893 57.6161 50.5297 56.4023 52.258 55.5443C55.2502 54.0586 55.288 51.1888 56.2169 48.6972C56.9971 47.7098 58.0253 48.5501 58.9133 48.3383C59.873 49.2687 60.0533 50.5626 60.4145 51.7433C61.4443 55.1045 62.3161 58.508 62.3222 62.0648Z" fill="#A09B82"/>
<path d="M84.9531 15.0378C84.6127 15.3928 84.3377 15.8835 83.9226 16.0814C80.6615 17.6326 77.3759 19.1322 74.0894 20.6302C73.8761 20.728 73.5988 20.6857 73.3516 20.7088C72.1454 20.4947 70.9893 19.8962 69.7262 20.1265C67.411 20.5485 69.5968 21.4559 69.5298 22.1244C69.4436 22.2114 69.3735 22.3377 69.2695 22.3808C66.6608 23.4522 63.9983 24.2786 61.1246 24.1038C61.2124 18.9989 61.2286 19.0528 65.8544 17.7004C67.9941 17.075 70.1575 16.4595 72.1046 15.2827C73.33 14.5417 74.681 14.4124 76.0627 14.8468C77.6871 16.5836 79.239 16.411 80.8017 14.7181C81.4672 13.9965 82.1134 13.1639 83.2648 13.187C84.1013 13.5528 84.6643 14.1705 84.9531 15.0378Z" fill="#C2BDA2"/>
<path d="M109.287 36.1123C110.812 36.0391 112.177 35.3197 113.651 35.0471C113.742 35.0301 113.879 35.1164 113.951 35.195C114.016 35.2658 114.077 35.4291 114.04 35.4876C113.705 36.0145 113.382 36.5567 112.984 37.0335C112.757 37.3046 112.423 37.5533 112.09 37.6542C111.374 37.8706 110.63 38.0062 109.89 38.1371C108.302 38.419 107.035 38.999 106.719 40.8383C106.574 41.6778 105.456 42.1399 105.569 43.1311C105.653 43.8721 105.842 44.6053 106.033 45.3293C106.224 46.0525 106.475 46.7596 106.701 47.4735C106.187 47.6946 105.674 47.9148 105.16 48.1359C104.291 45.9393 103.335 44.9349 101.645 47.6129C100.667 49.1618 99.0753 49.8896 97.2053 49.8827C96.4821 49.1325 96.0362 48.1559 95.2544 47.4427C95.1242 47.1231 95.1288 46.8042 95.2443 46.4823C96.164 44.5383 99.3149 45.1983 99.7007 42.6428C99.6499 42.3239 99.6476 42.0089 99.6715 41.6924C99.7462 41.3797 99.9087 41.1194 100.15 40.9091C100.535 40.6703 100.959 40.5039 101.356 40.2921C101.904 39.9286 101.933 39.2739 102.207 38.754C102.852 37.7166 103.848 37.1097 104.879 36.5421C105.18 36.3765 105.498 36.2509 105.829 36.1585C106.978 36.056 108.123 35.339 109.287 36.1123Z" fill="#C9C4A3"/>
<path d="M76.8876 3.39502C79.065 3.91182 81.1292 4.75137 83.1756 5.63017C84.2069 6.07304 85.2251 6.6091 86.3657 6.55673C87.9932 6.48125 89.1777 7.35235 90.3862 8.22114C91.3766 10.2414 90.179 11.1387 88.547 11.8134C87.9901 11.9666 87.4294 11.9913 86.8671 11.8503C86.1924 11.6601 85.5939 11.315 85.044 10.8976C84.6166 10.4924 84.1637 10.2075 83.5799 10.6773C83.3026 10.8452 83.0161 10.9638 82.7095 11.0547C80.4682 11.1925 78.4172 12.2932 76.1613 12.3178C75.8201 12.2554 75.5058 12.123 75.2201 11.9266C75.8532 10.0927 75.8602 8.23344 75.4266 6.35492C76.1174 5.46996 76.3446 4.35469 76.8876 3.39502Z" fill="#C1BCA3"/>
<path d="M76.5425 15.4976C76.0465 15.4822 75.549 15.4884 75.0545 15.4484C73.8869 15.3544 72.8425 15.5785 71.9976 16.4689C71.2828 17.2213 70.4033 17.5679 69.3458 17.6242C68.752 17.6565 68.1473 17.9253 67.5943 18.1864C66.4513 18.7263 65.2676 18.9443 64.006 18.9974C62.7313 19.0514 62.0304 19.9179 61.9912 21.211C61.9873 21.335 61.948 21.4829 61.9996 21.5799C62.6204 22.7437 61.8602 23.4184 61.1239 24.1046C60.6248 24.1285 60.1257 24.1532 59.6266 24.1778C59.3686 23.9152 59.2562 23.6009 59.2839 23.2351C60.2898 21.124 60.4491 18.9559 59.6997 16.7284C59.5965 15.8342 59.324 14.9293 59.8408 14.0682C60.4608 13.5552 61.2009 13.5667 61.9427 13.5883C62.3046 13.606 62.6627 13.6615 63.0155 13.7462C65.2237 15.6132 67.2979 15.4207 69.2519 13.3342C70.143 13.0346 70.9879 12.6079 71.9129 12.4015C73.5788 12.1881 75.2232 12.242 76.8422 12.7295C77.885 13.7762 78.6259 14.7921 76.5425 15.4976Z" fill="#B6B197"/>
<path d="M58.4428 86.2603C57.4985 88.0294 56.5958 89.8224 55.5837 91.5523C55.2872 92.0591 54.7035 92.4157 54.2013 92.7708C54.0542 92.8748 53.6113 92.8285 53.5158 92.6976C52.3443 91.091 50.7354 89.7223 50.3226 87.6813C50.0938 86.5514 49.2035 86.0731 48.5896 85.3168C50.5436 83.8434 52.5954 82.5371 54.8859 81.6406L54.8852 81.6367C55.546 83.5815 57.1142 84.8292 58.4428 86.2603Z" fill="#CCC8AA"/>
<path d="M39.4057 63.8397C38.7695 63.1388 38.7256 62.307 38.8735 61.4328C39.492 60.8628 40.1882 60.8259 40.9353 61.1293C41.9066 61.7956 42.2069 62.8346 42.4695 63.8944C42.5504 64.2271 42.6066 64.5675 42.6582 64.9072C42.7314 65.2384 42.7823 65.5749 42.83 65.9115C42.8577 66.0779 42.8739 66.2474 42.9024 66.4137C42.974 67.6091 43.678 68.6249 43.8729 69.7849C43.9522 70.1068 44.0207 70.4319 44.1016 70.75C47.7092 72.7317 49.168 75.7855 48.6481 79.8291C47.74 81.2855 46.5185 81.3002 45.1391 80.5839C44.6708 79.4155 44.3104 78.1885 43.715 77.0887C41.9597 73.8454 41.0416 70.3279 40.1589 66.7919C40.7774 65.8068 39.9448 64.9557 39.9025 64.0315C39.8863 63.6664 39.8786 63.3029 39.9379 62.9401C39.8054 63.2659 39.7707 63.6502 39.4057 63.8397Z" fill="#BBB690"/>
<path d="M40.7404 20.629C40.5317 20.5073 40.3061 20.4495 40.0642 20.4557C39.7777 20.2655 39.6506 19.9982 39.6783 19.6547C39.7984 19.0124 40.0203 18.4054 40.3215 17.8278C40.4963 17.5505 40.7404 17.3541 41.0439 17.2348C41.3558 17.2201 41.6547 17.281 41.9304 17.4181C42.5466 17.7831 43.0534 17.2617 43.6233 17.1893C46.0502 19.1117 46.9853 16.5053 48.4764 15.5957L48.4309 15.2661C48.7921 15.1413 49.1271 15.1914 49.4375 15.414C49.7718 15.8553 49.9243 16.3652 49.9913 16.9043C49.6917 19.7972 51.5941 18.6781 52.962 18.5302C52.7379 20.5142 54.7227 21.4115 55.191 23.059C54.363 23.8793 53.4611 23.5327 52.5615 23.23C49.8935 23.4226 47.4458 22.3943 44.9111 21.8483C44.0646 21.6657 43.2266 21.4408 42.3848 21.2352C41.8788 20.9209 41.2418 20.9602 40.7404 20.629Z" fill="#9B9574"/>
<path d="M41.0601 61.5021C40.3314 61.479 39.6028 61.4559 38.8742 61.4328C38.8704 60.4246 38.8673 59.4172 38.8634 58.409C39.6875 57.1867 40.1735 55.5454 42.1529 55.7572C42.4772 55.8235 42.7799 55.9482 43.0502 56.1223C43.4392 56.2586 44.003 56.9379 43.9729 55.7942C43.8751 55.4976 43.8243 55.2081 43.8058 54.9046C43.8374 54.3917 44.0276 53.9626 44.4174 53.6245C45.3231 53.13 46.1426 52.4068 47.2864 52.547C48.8398 54.7336 49.312 57.226 49.359 59.8408C49.0655 61.2372 47.7801 61.1802 46.8073 61.5923C45.6181 61.9288 44.4336 62.4441 43.2089 61.7209C43.0626 61.6338 41.1301 61.4328 41.0601 61.5021Z" fill="#A7A288"/>
<path d="M107.314 27.0214C107.415 28.5672 106.719 29.6893 105.425 30.4495C104.887 30.7661 104.299 31.0133 103.709 31.2243C103.064 31.4546 102.479 31.279 102.005 30.7745C101.919 30.6829 101.863 30.5589 101.767 30.4834C100.812 29.7325 100.36 28.7982 100.421 27.5412C100.461 26.7079 100.303 26.6702 99.2497 26.6363C98.8754 26.6247 98.4563 26.7325 98.1359 26.5985C97.3026 26.2504 96.4684 26.2827 95.5942 26.2296C94.6769 26.1741 93.5471 26.0755 92.9409 25.0689C93.2898 24.9341 93.631 24.7115 93.9891 24.6792C97.6915 24.3464 101.361 23.49 105.116 23.9436C105.747 24.0199 106.332 24.1924 106.828 24.6075C106.191 25.5749 105.151 25.4324 104.211 25.5425C103.223 25.6588 102.575 26.0155 102.903 27.1708C103.034 27.4334 103.123 27.7061 103.186 27.9641C104.546 27.5582 105.66 26.0771 107.314 27.0214Z" fill="#C5C1A6"/>
<path d="M83.7037 30.1298C84.0457 29.5829 84.4909 29.4028 85.0878 29.7309C85.3781 29.8903 85.6755 30.0374 85.9697 30.1907C86.1222 30.3008 86.2747 30.4117 86.4295 30.5195C87.8775 33.0658 87.1319 34.7649 84.4285 35.7091C82.7387 34.2727 80.9557 36.5048 79.2497 35.5882C79.0356 35.3379 78.8445 35.0783 78.8984 34.7186C78.6889 35.1777 79.2258 35.5397 79.0586 36.0034C78.9231 36.2337 78.7837 36.4563 78.5743 36.5864C77.0369 37.5422 75.2246 38.4349 73.6865 37.2788C72.1138 36.0973 73.219 34.2796 73.6295 32.7408C74.2441 31.9459 75.012 31.4253 76.0502 31.3906C78.0381 31.2959 80.0153 31.4846 81.9955 31.6024C83.0114 31.6625 84.0534 31.6856 83.7037 30.1298Z" fill="#C2BDA0"/>
<path d="M45.1392 80.5829C46.0549 80.4519 46.9714 80.3272 47.8841 80.1801C47.9727 80.1654 48.0381 80.0099 48.1144 79.9198C51.1274 81.2761 51.1275 81.2761 52.0109 76.6911C52.3059 76.0179 52.5454 75.2677 53.5436 75.5196C53.7839 75.7915 54.0127 76.0749 54.2684 76.3322C54.5595 76.6264 54.6111 76.9321 54.3862 77.281C54.1906 77.5837 53.8254 77.9126 54.0634 78.2538C54.2429 78.5111 54.6703 78.5919 54.9815 78.7629C55.4829 79.0386 55.7417 79.5069 55.5908 79.9583C55.3982 80.5336 55.1248 81.0812 54.8868 81.6412C54.3076 81.9546 54.0357 82.5184 53.7485 83.0622C53.2586 83.9918 52.6371 84.5902 51.4579 84.6426C50.4944 84.6857 49.5462 85.0793 48.5904 85.3173C46.9784 84.075 45.7099 82.5831 45.1392 80.5829Z" fill="#BFBA98"/>
<path d="M117.045 31.0924C116.529 30.5579 116.032 30.0049 115.492 29.4958C115.104 29.1307 114.856 29.562 114.548 29.7199C113.954 30.0257 113.569 29.8663 113.413 29.3009C113.38 29.1808 113.378 29.0529 113.348 28.932C112.965 27.3708 112.964 27.3708 111.091 27.1228C110.672 26.6106 110.649 26.11 111.134 25.624C112.018 25.6117 112.831 25.8497 113.644 26.1978C117.175 27.7112 120.6 29.4296 123.875 31.4398C124.143 31.6162 124.376 31.8295 124.576 32.0798L124.586 32.0945C125.039 32.6367 125.166 33.2744 124.508 33.6395C122.746 34.6184 118.2 33.021 117.047 31.0917L117.045 31.0924Z" fill="#C3BEA9"/>
<path d="M38.1818 51.785C37.5156 50.89 37.6065 49.8441 37.7898 48.8775C38.3975 45.675 39.1215 42.4948 39.7692 39.2993C40.2683 36.8393 40.7189 34.3692 41.1918 31.9038C42.0691 30.5483 42.9301 30.8933 43.7881 31.9269C43.9537 32.255 44.0554 32.6039 44.1108 32.9675C44.174 33.703 44.0161 34.3977 43.7204 35.0663C41.9789 39.3632 42.0152 44.0275 40.9708 48.4685C40.8021 48.7612 40.588 49.02 40.3369 49.2441C39.2802 49.8002 39.2586 51.2428 38.1818 51.785Z" fill="#A49F81"/>
<path d="M96.7741 49.4424C98.8745 49.196 100.534 48.2771 101.536 46.3385C101.707 46.0081 101.933 45.7062 102.105 45.3758C102.383 44.8413 102.804 44.7789 103.348 44.8828C103.704 44.9514 104.085 44.8875 104.454 44.9021C104.857 44.9183 105.182 45.1131 105.193 45.529C105.216 46.397 105.175 47.2674 105.159 48.1362C101.766 50.1872 98.0873 51.0868 94.1315 50.8681C93.138 50.8134 92.1367 50.8211 91.154 50.6886C90.6949 50.6263 90.272 50.2974 89.833 50.0894C90.708 49.0204 92.0404 49.0388 93.2088 48.6576C94.4997 48.4512 95.7521 48.4296 96.7741 49.4424Z" fill="#BEB998"/>
<path d="M78.9986 35.2943C79.8697 35.3204 80.7286 35.3289 81.3578 34.5548C81.5088 34.37 81.7151 34.1913 81.9339 34.1081C82.5231 33.884 83.1301 33.847 83.7046 34.1736C84.1983 34.4547 84.2106 34.9769 84.3084 35.4521C84.5418 35.7556 84.5733 36.0852 84.4339 36.4364C84.2291 36.7307 83.9711 36.9686 83.6668 37.1527C83.5005 37.1951 83.3295 37.2367 83.1623 37.2821C81.4879 37.0657 79.8513 37.1158 78.354 38.0431C77.1348 38.5907 75.8801 39.0344 74.5677 39.3078C74.2373 39.3771 73.9022 39.4094 73.5656 39.4241C72.2856 39.3571 70.7429 39.9578 70.1398 38.1147C70.1159 36.7784 70.4818 35.4837 70.5835 34.1597C71.3929 33.244 72.5767 33.1315 73.6303 32.7402C74.0347 33.0445 74.3928 33.3895 74.2403 33.9549C74.1448 34.3076 73.9276 34.6288 73.8422 34.9823C73.5056 36.3802 73.6404 37.1296 75.3656 36.8054C76.7158 36.552 78.039 36.4172 78.9971 35.2958L78.9986 35.2943Z" fill="#B0AA8C"/>
<path d="M43.4262 32.6436C43.4393 32.4064 43.4308 32.1699 43.3999 31.9343C42.994 31.2811 42.7453 30.5926 42.9132 29.8077C43.0357 29.4434 43.2537 29.1477 43.554 28.9097C44.3142 29.3394 45.1029 29.7253 45.8292 30.2059C49.5115 32.6413 53.5767 34.1994 57.7673 35.4772C58.0084 36.259 57.9768 37.0446 57.8019 37.834C57.4915 38.0196 57.2059 37.9788 56.9401 37.7431C56.7337 37.6445 56.5165 37.5983 56.2877 37.6053C55.8087 37.234 55.1186 37.3164 54.6788 36.8605C53.5358 36.0225 51.9846 36.7041 50.8478 35.8415C49.2027 35.1183 47.5367 34.4328 45.9586 33.5686C45.3948 33.3168 44.804 33.1627 44.1863 33.1073C43.879 33.0426 43.6287 32.8816 43.4262 32.6436Z" fill="#BEB9A4"/>
<path d="M111.135 25.6245C111.121 26.1244 111.107 26.6235 111.092 27.1234V27.1249C110.919 27.2905 110.749 27.3429 110.582 27.282C110.414 27.2212 110.33 27.1627 110.333 27.1057C110.081 27.0941 109.83 27.081 109.579 27.0664C109.085 26.5919 108.579 26.5765 108.062 27.0286C107.813 27.0255 107.564 27.0233 107.314 27.0209C106.747 27.2405 106.196 27.5624 105.608 27.6594C104.37 27.8643 103.631 28.5167 103.352 29.7305C103.331 29.8199 103.168 29.8761 103.071 29.9485C102.954 29.789 102.747 29.635 102.737 29.4694C102.701 28.8617 102.73 28.2502 102.735 27.6402C102.25 27.577 101.737 27.5162 101.721 26.8746C101.712 26.5134 101.828 26.1506 101.849 25.7863C101.91 24.728 102.015 24.6179 102.779 24.6187C104.127 24.621 105.476 24.6125 106.825 24.6079C108.324 24.6872 109.836 24.7049 111.135 25.6245Z" fill="#BEBAA2"/>
<path d="M81.4132 48.3448C80.1608 48.1846 79.0687 47.483 77.7863 47.3543C76.6587 47.2411 75.6121 46.739 74.7163 45.9957C74.8195 45.6653 75.0175 45.405 75.2932 45.2009C76.9838 43.8684 78.8307 43.4625 80.8794 44.2535C82.4244 43.9208 84.7335 42.1408 84.0804 45.9649C83.8686 47.2049 85.5977 47.54 85.5554 48.7615C85.124 49.695 84.447 49.5132 83.7338 49.1628C83.2748 49.0719 82.8158 48.981 82.3567 48.8901C82.0479 48.6991 81.7944 48.4111 81.4132 48.3448Z" fill="#A6A288"/>
<path d="M117.047 31.0923C117.688 31.8232 118.376 32.4394 119.451 32.3993C120.16 32.3731 120.895 32.3215 121.574 32.4756C122.268 32.6327 122.895 33.0655 123.578 33.3043C123.974 33.4429 124.26 33.1495 124.414 32.7975C124.508 32.5796 124.531 32.33 124.586 32.0951C125.452 32.5287 126.364 32.7737 127.325 32.92C128.207 33.054 128.274 33.4946 127.584 34.4434C127.331 34.6722 127.065 34.8825 126.784 35.0758C126.548 35.122 126.309 35.1574 126.069 35.1829C125.849 35.0727 125.623 34.9734 125.41 34.8501C124.97 34.5967 124.521 34.4335 124.018 34.6568C123.374 34.9426 122.888 35.5364 122.006 35.3007C120.467 34.8894 118.841 34.7261 117.648 33.513C117.404 33.2643 117.214 32.9015 117.141 32.5603C117.04 32.0858 117.072 31.5829 117.047 31.0923Z" fill="#CDC9B4"/>
<path d="M76.8874 3.39494C77.5174 4.64421 77.1254 5.61005 76.0564 6.38718C74.7393 7.6195 74.0962 9.96788 71.4544 8.96508C70.5664 8.62773 69.8177 8.28191 69.6737 7.31839C69.505 6.19081 70.2644 5.66707 71.2349 5.74795C72.6336 5.86502 73.2343 4.99776 73.8358 4.02731C73.8936 3.03067 74.5136 2.63094 75.4194 2.53467C75.9092 2.82195 76.3983 3.10842 76.8874 3.39494Z" fill="#A9A489"/>
<path d="M69.6 43.3887C68.8113 42.9104 68.0234 42.4322 67.2355 41.9539C67.3957 41.6412 67.6414 41.4247 67.9702 41.303C69.8757 41.1397 71.9152 42.1657 73.6743 40.6607C76.4309 39.3629 78.9548 39.5439 81.1438 41.8429C81.5004 42.5839 81.21 43.1608 80.6786 43.676C80.2234 43.9618 79.7821 43.9587 79.3654 43.6021C79.0512 42.8065 78.609 43.0514 78.1431 43.4681C76.7721 43.445 76.377 44.9769 75.2294 45.2919C74.9206 45.2249 74.6895 45.0516 74.5586 44.7697C74.3021 43.3002 73.7815 45.3081 73.4472 44.7035C72.1456 44.3076 70.8538 43.9025 69.6 43.3887Z" fill="#A5A188"/>
<path d="M21.0887 17.683C21.9876 17.6399 22.8156 17.8586 23.6413 18.2252C24.9206 18.7921 25.814 18.2422 26.4224 17.083C26.9439 16.6486 27.443 16.6571 27.9182 17.1577L27.9097 17.1454C28.1623 17.3811 28.4272 17.6037 28.7029 17.8124C28.9086 17.8964 29.1212 17.9533 29.3407 17.9818C29.6642 18.1605 29.9115 18.434 30.188 18.6712L30.2003 18.6789C30.5677 19.1826 31.2608 19.064 31.6852 19.4576L31.7137 19.4706C31.9448 19.781 31.9433 20.0984 31.7407 20.4219C31.0198 21.0742 30.1163 21.0249 29.2375 21.0727C28.1115 20.9864 27.0201 20.8316 25.9804 20.2986C24.8705 19.7302 23.6844 19.3135 22.5383 18.8137C21.9653 18.561 21.4138 18.2637 21.0887 17.683Z" fill="#C1BDA5"/>
<path d="M28.7838 14.1051C29.028 13.8556 29.2574 13.5891 29.5201 13.3619C29.792 13.127 30.0978 12.9298 30.3881 12.7165C30.6154 12.671 30.8425 12.6263 31.0697 12.584C32.3012 12.5994 33.5328 12.6155 34.7643 12.6309C36.3302 13.3087 39.2416 12.4161 38.4791 15.8188C38.2812 16.1138 38.0409 16.3688 37.7659 16.5929C36.8301 17.2445 35.8157 17.4308 34.7151 17.1097C33.408 16.4642 32.6517 14.6173 30.7408 15.2974C30.4027 15.3421 30.0669 15.3182 29.7373 15.235C29.6009 15.1388 29.4631 15.0409 29.326 14.9447C29.1789 14.6443 28.9979 14.3631 28.7838 14.1051Z" fill="#635F43"/>
<path d="M38.1818 51.785C38.2596 51.1604 38.342 50.5357 38.4136 49.9103C38.5191 48.9892 39.1022 48.6395 39.954 48.6025C40.2236 50.9101 40.3923 53.2307 42.7368 54.6248C43.2875 54.9521 43.1843 55.7046 42.7214 56.2476C41.9358 56.2029 41.2703 56.5626 40.5925 56.8822C40.2159 57.0601 40.1019 57.3882 40.0218 57.7641C39.8855 58.4041 39.3548 58.3841 38.8619 58.4095C38.4221 57.4953 38.2365 56.5233 38.2203 55.5166C38.2011 54.272 38.1941 53.0289 38.1818 51.785Z" fill="#99947B"/>
<path d="M52.5615 23.2304C53.0221 23.1973 53.4826 23.1626 53.9432 23.131C54.4385 23.0972 54.7966 22.8299 55.097 22.461C54.8714 21.8317 55.2441 21.5614 55.7425 21.3704C56.4564 21.3603 57.2328 21.472 56.9841 20.2805C56.783 19.3201 56.7276 18.3404 57.6503 17.6287C57.9992 17.4886 58.355 17.4238 58.7301 17.4354C62.3069 18.9296 59.2608 21.4713 59.6882 23.4645C59.6543 23.701 59.6343 23.939 59.6282 24.1778C59.146 24.2586 58.6592 24.3195 58.1824 24.4227C57.326 24.6075 56.5127 24.5867 55.6724 24.2502C54.6611 23.8458 53.6005 23.5655 52.5615 23.2304Z" fill="#A19D76"/>
<path d="M58.9133 48.3372C58.5729 49.5965 58.5344 49.6142 57.5555 48.918C57.3514 48.7724 57.1581 48.6122 56.9509 48.4712C56.8484 48.4011 56.726 48.3603 56.6128 48.3064C56.4965 48.2232 56.3802 48.1401 56.2608 48.0592C55.8849 47.6148 55.6192 47.1026 55.3566 46.5873C55.0863 46.0613 54.8244 45.5314 54.5317 45.0169C53.9741 43.8677 52.9282 43.1422 52.1102 42.2187C51.6366 41.4424 51.5942 40.6745 52.1556 39.9205C52.416 39.711 52.7156 39.6116 53.0499 39.6224C53.3163 39.798 53.5782 39.9844 53.8324 40.1785C54.1227 40.3248 54.3438 40.5435 54.4955 40.8316C55.7948 43.0205 57.4592 44.9861 58.4898 47.3398C58.6338 47.6702 58.7716 48.0045 58.9133 48.3372Z" fill="#9F9575"/>
<path d="M58.4427 86.2608C58.08 86.1807 57.6787 86.1745 57.3606 86.0089C55.4975 85.0377 54.638 84.7989 54.8744 82.01C54.8852 81.886 54.8821 81.7612 54.8852 81.6372C55.3611 81.571 55.8371 81.4986 56.3139 81.4393C56.7945 81.38 56.9131 81.4655 56.9332 82.047C56.9455 82.3951 56.8015 82.8141 57.1496 83.0051C57.4438 83.1661 57.8359 83.1707 58.1878 83.1992C58.8649 83.2547 59.1683 82.583 59.709 82.3928C59.8492 82.3435 60.094 82.5923 60.292 82.704C60.399 84.2675 59.3978 85.2518 58.4427 86.2608Z" fill="#BFBA98"/>
<path d="M57.7535 37.5818C57.155 36.8756 57.1959 36.1739 57.7681 35.4761C60.0371 35.4291 62.2214 36.0646 64.455 36.3072C65.1983 36.442 65.943 36.5752 66.2688 37.4039C66.258 37.8006 66.0917 38.1148 65.7728 38.3505C64.17 39.1168 62.4317 38.684 60.7673 38.9128C59.726 38.5508 58.6261 38.3243 57.7535 37.5818Z" fill="#949177"/>
<path d="M83.7038 30.1293C84.4047 30.6731 84.5387 31.3586 84.0681 32.0834C83.8887 32.3591 83.4442 32.7149 83.2062 32.661C81.2445 32.2104 79.2412 32.3591 77.2657 32.1642C76.7358 32.1118 76.3553 31.8053 76.0503 31.3902C76.6765 30.6469 77.5745 30.3573 78.4171 29.9761C79.2512 30.231 80.0715 30.5614 80.9234 30.7208C81.9015 30.9042 82.9344 31.0543 83.7038 30.1293Z" fill="#ABA786"/>
<path d="M38.2557 28.0195C36.5681 26.952 35.2557 25.4578 33.8154 24.1092C33.884 22.9763 32.0108 22.3362 33.0182 20.9629C33.3456 20.7565 33.6345 20.812 33.8909 21.09C34.2599 21.5614 35.0177 21.3996 35.325 21.9703L35.3173 21.9511C35.6523 22.1236 35.8865 22.4009 36.0913 22.7066L36.0821 22.6966C36.3717 22.9077 36.5958 23.1927 36.8777 23.4114L36.8924 23.4214C37.2405 23.9328 37.9745 23.7888 38.338 24.274L38.3303 24.2648C38.6045 24.492 38.8117 24.7893 39.0998 25.0026C39.1544 25.2175 39.1722 25.4347 39.1514 25.6558C39.1675 26.5631 39.0906 27.4357 38.2557 28.0195Z" fill="#B6B298"/>
<path d="M60.6686 38.569C60.7895 38.5567 60.9181 38.566 61.0313 38.5274C62.6634 37.9737 64.3401 37.7996 66.0538 37.9259C66.251 37.7634 66.4566 37.6972 66.6708 37.7265C66.8903 37.7565 66.9996 37.7958 66.9996 37.8412C68.158 38.998 67.9685 40.3374 67.5218 41.7122L67.2368 41.9525C66.0284 41.3572 64.8092 40.7818 63.6154 40.1603C62.7343 39.7012 61.8339 39.3346 60.8365 39.2437C60.3913 39.1151 60.3359 38.8902 60.6686 38.569Z" fill="#A9A88D"/>
<path d="M69.5298 22.1257C69.1917 21.9832 68.8582 21.8276 68.5139 21.702C68.0926 21.5495 67.4279 21.7359 67.3671 21.0782C67.3247 20.6199 67.4726 20.1254 67.6212 19.6756C67.6844 19.4831 67.9463 19.2705 68.152 19.2251C69.3643 18.957 70.5911 19.041 71.7942 19.2705C72.5674 19.4176 73.0343 20.0091 73.3516 20.7093L73.3492 20.7116C72.7354 21.3786 71.6294 20.653 71.0849 21.5141C70.679 22.004 70.1283 22.1249 69.5298 22.1257Z" fill="#B5B195"/>
<path d="M88.0224 11.2868C88.6301 11.2368 89.1839 11.0981 89.5421 10.5289C89.9895 9.81804 90.3946 9.0979 90.3862 8.22218C91.2288 7.47278 92.2346 7.65839 93.2189 7.72924C93.5548 7.75312 93.7304 8.27534 93.5017 8.60268C92.9356 9.40985 92.4573 10.2732 91.54 10.7954C90.3569 11.4694 89.2263 12.2349 88.0733 12.9612C87.5996 12.4175 87.5657 11.8591 88.0224 11.2868Z" fill="#C1BBA2"/>
<path d="M38.2559 28.0197C38.2851 27.1301 38.2342 26.2098 39.1523 25.6567L39.1223 25.6937C39.3796 26.3114 40.1913 26.0857 40.5117 26.6079C41.6139 27.2588 42.6838 27.9527 43.5541 28.9093C43.5294 29.1843 43.5048 29.4592 43.4801 29.735C42.7207 30.3619 41.8296 30.7894 41.0247 31.3485C40.8121 31.0597 40.5996 30.7709 40.387 30.4821C40.0196 29.3699 39.1894 28.6582 38.2636 28.0297L38.2559 28.0197Z" fill="#A9A287"/>
<path d="M66.7631 38.0019C66.5259 37.978 66.2895 37.9534 66.053 37.9265C66.0453 37.6808 66.0446 37.4358 66.0508 37.1901C66.0839 36.5825 68.061 36.8882 66.7701 35.6582C67.1783 35.1868 67.7243 34.9974 68.3159 34.8996C68.8126 34.5784 69.4604 34.717 69.9457 34.3627C70.1452 34.2557 70.3577 34.1879 70.5826 34.1602C71.2419 34.6338 71.4822 35.3247 71.3066 36.0587C71.1425 36.7426 70.7751 37.3781 70.4971 38.035C69.2424 39.1911 68.0016 38.7575 66.7631 38.0019Z" fill="#777258"/>
<path d="M88.0224 11.2866C88.0394 11.8442 88.0563 12.4018 88.074 12.9602C87.6728 13.6056 87.0712 13.9846 86.3749 14.2357C86.0237 14.7417 85.2551 14.4929 84.9247 15.0382L84.9532 15.039C84.0012 14.9204 83.4166 14.4559 83.4367 13.4239C83.6893 12.4403 84.6042 12.0545 85.2397 11.4129C85.6178 11.1449 86.0006 10.8861 86.4782 11.2019C86.9927 11.2296 87.5079 11.2581 88.0224 11.2866Z" fill="#B3AE93"/>
<path d="M33.1309 21.0899C33.1086 21.9101 33.6763 22.3738 34.1569 22.9276C34.5396 23.3689 34.2824 23.8149 33.8157 24.1098L33.8111 24.1083C33.5631 23.7794 33.2627 23.5222 32.8599 23.4028C32.6542 23.4151 32.4686 23.3612 32.3022 23.2403C32.0211 22.9661 31.7353 22.7012 31.3333 22.6149C30.3775 22.4508 29.7752 21.807 29.2399 21.0722C29.8568 20.1048 30.8789 20.2473 31.8086 20.1371C32.3061 19.8814 32.7528 19.8791 33.094 20.3967L33.0616 20.379C33.4051 20.5839 33.4282 20.8203 33.1309 21.0899Z" fill="#B0AC93"/>
<path d="M83.7339 49.1619C84.3886 49.0902 85.0586 49.0533 85.4399 48.3832C85.5546 48.2546 85.6702 48.1259 85.7834 47.9942C88.1117 46.5409 90.0326 48.6728 92.1938 48.7205C92.5165 48.8707 92.7807 49.0902 92.9802 49.386C92.6413 49.7757 92.2338 50.023 91.6985 50.0322C91.0769 50.0422 90.4554 50.0707 89.8338 50.0908C88.2295 50.1678 86.6252 50.1878 85.0601 49.7696C84.5965 49.6456 84.1744 49.3683 83.7339 49.1619Z" fill="#ACA78D"/>
<path d="M69.5999 43.3892C70.816 43.3846 72.0207 43.3984 73.1351 44.0238C73.4363 44.1932 73.8383 44.1825 74.1942 44.2541C74.3682 43.9999 74.5369 43.9183 74.7002 44.01C74.8635 44.1016 74.9436 44.1902 74.9412 44.278C74.9351 44.5329 74.9281 44.7886 74.922 45.0436C75.2716 45.2585 75.284 45.4903 74.9574 45.7398L74.7164 45.9955C72.7154 45.7067 71.0548 44.7501 69.5999 43.3892Z" fill="#A6A288"/>
<path d="M27.9181 17.1572C27.4198 17.1326 26.9207 17.1071 26.4224 17.0825C26.045 16.7567 25.6314 16.464 25.3009 16.0967C24.9852 15.7462 25.3349 14.9753 25.8039 14.9468C26.8006 14.8867 27.7988 14.8559 28.7962 14.8135C28.9787 14.6571 29.1459 14.6194 29.2976 14.6995C29.4431 14.7765 29.5147 14.8458 29.5124 14.9082L29.4585 14.9606C29.5548 15.1016 29.6511 15.2417 29.7474 15.3827C29.6318 15.5082 29.5163 15.633 29.4 15.7578C28.7977 15.7108 28.1954 15.6576 27.5924 15.6222C27.4784 15.6153 27.2673 15.6638 27.2596 15.7123C27.2296 15.901 27.2003 16.1344 27.2858 16.2885C27.4568 16.6004 27.7025 16.87 27.9181 17.1572Z" fill="#ADA88E"/>
<path d="M66.7708 35.6589C67.5002 35.7914 68.309 35.6358 68.9221 36.1834C69.0846 36.3282 69.2278 36.6217 69.1962 36.8173C69.1708 36.9759 68.8743 37.2001 68.6917 37.2062C67.8129 37.2363 66.9311 37.2024 66.0507 37.1908C65.3783 37.1492 64.7853 36.9659 64.4541 36.3074L64.4872 36.3043C64.9909 36.0193 65.6186 36.1102 66.1046 35.7729C66.3095 35.6327 66.5313 35.5942 66.7708 35.6589Z" fill="#686447"/>
<path d="M4.02805 7.99385C3.37877 8.10091 2.71333 8.17487 2.33285 8.82954C1.58498 8.81567 0.816291 8.83955 0.234019 8.26806C0.0815193 8.11864 -0.0340049 7.81287 0.00912641 7.61801C0.0460961 7.44934 0.334911 7.21521 0.508977 7.21829C1.37776 7.23293 2.25271 7.26604 3.10841 7.40083C3.43805 7.45166 3.72305 7.78744 4.02805 7.99385Z" fill="#C3BFAD"/>
<path d="M41.0247 31.3475C41.6231 29.7339 41.6231 29.7339 43.4808 29.7339C43.4538 30.4679 43.4277 31.2011 43.4007 31.9336C42.6705 31.4746 41.9343 31.4714 41.1926 31.9028C41.0855 31.7333 41.03 31.5485 41.0247 31.3475Z" fill="#8E8763"/>
<path d="M39.4056 63.8398C39.4749 63.6003 39.525 63.3531 39.622 63.1251C39.6605 63.035 39.7969 62.9572 39.9009 62.9357C39.9702 62.9218 40.1127 63.0019 40.1358 63.0689C40.3753 63.7744 40.6264 64.4776 40.8166 65.197C40.9938 65.8693 40.7511 66.4139 40.1588 66.7913C39.6944 65.8616 39.3447 64.9035 39.4056 63.8398Z" fill="#A7A288"/>
<path d="M38.2643 28.0288C40.1274 28.5456 40.172 28.598 40.3877 30.4811C39.4912 29.8265 38.7025 29.0794 38.2643 28.0288Z" fill="#B6B298"/>
<path d="M36.13 19.0037C35.3229 18.8712 34.4726 18.8566 33.8595 18.185C33.9727 18.0448 34.086 17.9047 34.1992 17.7629C35.1512 17.404 35.9737 17.4148 36.4042 18.5385C36.3133 18.6933 36.2217 18.8481 36.13 19.0037Z" fill="#7B785D"/>
<path d="M33.8602 18.1844C33.0653 18.0296 32.2066 18.0481 31.6089 17.3557C31.7059 17.2201 31.8022 17.0845 31.8985 16.9474C32.1996 16.7926 32.5185 16.7049 32.8581 16.6895C33.5644 16.7927 34.1845 16.9867 34.1074 17.8994L33.8602 18.1844Z" fill="#7B785D"/>
<path d="M7.02634 8.85316C6.14908 8.91169 5.26331 8.99565 4.69336 8.10068C5.57524 8.02905 6.42789 8.04599 7.02634 8.85316Z" fill="#C3BFAD"/>
<path d="M39.9109 19.8299C39.9517 20.0409 40.0026 20.2496 40.0643 20.456C39.1685 20.5338 38.2989 20.5153 37.6227 19.7883C37.7428 19.6519 37.8637 19.5164 37.9839 19.3793C38.7287 19.0897 39.4026 19.1074 39.9109 19.8299Z" fill="#7B785D"/>
<path d="M2.35596 8.82759C3.00216 8.77291 3.559 8.91616 3.90097 9.53001C3.25631 9.58161 2.69485 9.44915 2.35596 8.82759Z" fill="#C3BFAD"/>
<path d="M69.9465 34.3626C69.5506 34.9887 68.9714 35.0588 68.3168 34.9002C68.7489 34.3841 69.2964 34.2178 69.9465 34.3626Z" fill="#B0AA8C"/>
<path d="M66.1054 35.7729C65.718 36.4122 65.1589 36.5277 64.488 36.3043C64.897 35.7313 65.4639 35.6389 66.1054 35.7729Z" fill="#949177"/>
<path d="M40.5117 26.6078C39.8802 26.56 39.3303 26.3875 39.1223 25.6943C39.7331 25.7737 40.219 26.044 40.5117 26.6078Z" fill="#B6B298"/>
<path d="M37.6228 19.7891C37.049 19.672 36.5152 19.4795 36.1309 19.0027L36.3019 18.7947C37.1206 18.3611 37.6605 18.5652 37.8877 19.4871C37.8007 19.5888 37.7121 19.6897 37.6228 19.7891Z" fill="#7B785D"/>
<path d="M33.4028 11.1672C33.0986 11.8087 32.5325 11.9281 31.9025 11.9189C32.2352 11.3335 32.7713 11.1541 33.4028 11.1672Z" fill="#D9D6C1"/>
<path d="M31.6089 17.3557C31.0343 17.2186 30.489 17.0299 30.1332 16.5108C30.2603 16.3929 30.3874 16.2759 30.5137 16.158C31.2793 16.0702 31.9231 16.1318 31.7699 17.177L31.6089 17.3557Z" fill="#7B785D"/>
<path d="M124.576 32.0807C124.342 31.8666 124.109 31.6525 123.875 31.4399C124.11 31.6541 124.343 31.8674 124.576 32.0807Z" fill="#CDC9B4"/>
<path d="M81.4132 48.3452C81.8222 48.3645 82.1427 48.5362 82.3568 48.8905C82.0425 48.708 81.7282 48.5262 81.4132 48.3452Z" fill="#ACA78D"/>
<path d="M30.1333 16.51C29.8891 16.2589 29.6457 16.0071 29.4008 15.7567L29.5132 15.6335C29.6896 15.5495 29.866 15.4656 30.0423 15.3809C30.1771 15.5218 30.3119 15.6635 30.4467 15.8045C30.3959 15.9932 30.3458 16.1819 30.295 16.3698L30.1333 16.51Z" fill="#7B785D"/>
<path d="M31.3333 22.6143C31.77 22.6466 32.0973 22.8492 32.3022 23.2397C31.9787 23.0309 31.656 22.8222 31.3333 22.6143Z" fill="#B6B298"/>
<path d="M32.8597 23.4019C33.3088 23.4596 33.6238 23.6969 33.8109 24.1074C33.3781 24.0288 33.0731 23.7769 32.8597 23.4019Z" fill="#B6B298"/>
<path d="M85.9697 30.1895C86.0482 29.6866 86.1615 29.1582 86.8038 29.1914C87.2975 29.2175 87.7773 29.4486 88.2726 29.4956C89.2292 29.5864 89.9231 30.027 90.3891 30.8596C90.5724 31.1877 90.7449 31.5304 90.9829 31.8162C91.6107 32.571 92.4571 32.7096 93.3752 32.5648C94.542 32.3808 94.9195 31.4758 94.2748 30.4245C94.1462 30.215 93.9721 30.0224 93.8966 29.7959C93.7618 29.3939 93.9436 29.065 94.2578 28.8132C94.5597 28.5721 95.0673 28.5944 95.2668 28.8393C95.3461 28.9364 95.4686 29.0142 95.511 29.1243C96.0455 30.5115 97.1584 31.2786 98.4177 31.921C98.9999 32.2183 99.0339 32.3076 98.5271 33.037C98.2252 33.4714 98.0172 33.8973 97.9772 34.3994C97.9048 35.309 97.3263 35.6557 96.5353 35.8867C96.2041 35.983 95.9423 36.3149 95.6488 36.5391C97.1807 36.5907 98.7119 36.6431 100.244 36.6947C100.314 36.8425 100.384 36.9896 100.455 37.1383C100.389 37.2885 100.324 37.4394 100.259 37.5904C99.9973 37.796 99.707 37.9462 99.3881 38.0425C98.9067 38.1711 98.4153 38.2589 97.9286 38.3706C97.4295 38.5216 96.9304 38.6671 96.4152 38.7627C95.484 38.9067 94.5713 38.8088 93.6671 38.577C90.9036 37.3439 87.9807 39.5067 85.225 38.1896C84.2214 37.2338 84.6496 36.5044 85.5276 35.7219C87.4077 34.0444 87.5586 32.172 85.9704 30.1888L85.9697 30.1895Z" fill="#D5D2BB"/>
<path d="M109.288 36.1124C108.449 36.1378 107.627 36.201 106.827 36.5306C106.402 36.7055 105.896 36.6847 105.427 36.7517C104.578 36.7663 103.718 36.8102 103.193 35.9376C103.658 35.4677 104.237 35.296 104.878 35.3099C106.364 35.3422 107.85 35.3846 109.336 35.4231C109.326 35.6542 109.31 35.8836 109.288 36.1124Z" fill="#E4E3D6"/>
<path d="M103.192 35.9372C103.981 36.0889 104.904 35.8732 105.427 36.752L105.5 36.8306C103.745 37.0486 102.16 39.0134 100.221 37.3459L100.224 37.0193L100.241 36.6935C101.156 36.1713 102.127 35.8694 103.192 35.9372Z" fill="#F6F4EC"/>
<path d="M108.061 27.0289C108.839 26.311 108.839 26.311 109.578 27.0666C109.073 27.0543 108.567 27.042 108.061 27.0289Z" fill="#C3BEA9"/>
<path d="M110.333 27.106C110.586 27.1121 110.84 27.1183 111.092 27.1244C110.702 27.5812 110.702 27.5812 110.333 27.106Z" fill="#C3BEA9"/>
<path d="M73.8361 4.02832C73.8029 4.39879 73.8076 4.77696 73.7291 5.13741C73.6189 5.64189 73.3486 6.06244 72.7917 6.14948C72.3042 6.22573 71.8059 6.22646 71.3145 6.28345C70.7083 6.35354 70.1992 6.74866 70.2555 7.10372C70.3379 7.62207 70.6221 8.03336 71.0927 8.25056C71.7027 8.53168 73.7783 8.31373 74.2636 7.91092C74.4338 7.76997 74.5038 7.48959 74.5816 7.26007C74.8258 6.53916 75.4189 6.4306 76.0574 6.38824C75.9649 6.60929 75.827 6.82336 75.7932 7.05366C75.7639 7.25622 75.7778 7.54507 75.9002 7.67446C76.2083 7.99795 76.9724 7.86163 76.9816 8.38999C76.9886 8.7982 76.3454 9.23798 76.3855 9.62154C76.4987 10.6929 75.5791 10.9724 75.1185 11.5963C74.3621 12.2826 73.6112 12.2549 72.8664 11.5771C72.7016 11.2397 72.5484 10.8954 72.3689 10.5658C72.1348 10.1368 71.9499 9.72318 71.316 9.65464C70.5835 9.57531 69.8634 9.32113 69.161 9.07543C68.9985 9.01844 68.8359 8.68649 68.8375 8.48161C68.8421 7.78381 68.4824 7.30785 68.0095 6.87577C67.5243 6.43291 67.0168 6.18411 66.3159 6.42519C64.965 6.89039 63.9445 7.80233 62.9532 8.76893C62.4726 9.23799 61.9458 9.39588 61.2534 9.26418C60.7959 9.17714 60.2621 9.27107 59.8092 9.42434C58.8157 9.76015 58.1856 9.372 57.5286 8.64647C56.9279 7.98256 56.455 8.04108 55.5924 8.73349C55.1857 9.06005 54.8153 9.40741 54.2807 9.26107C53.1231 8.94452 52.0063 9.36813 50.9611 9.61999C49.4731 9.97967 48.0174 10.1884 46.5109 10.0644C45.3348 9.96732 44.2735 10.1892 43.3377 10.9363C43.2545 11.0025 43.0889 11.0371 42.9942 11.0009C42.7731 10.9178 42.5182 10.8269 42.3765 10.6567C42.1623 10.3994 42.3587 9.86567 42.6029 9.68082C43.2621 9.18173 44.0208 9.24951 44.7672 9.25567C45.4311 9.26106 45.9972 9.087 46.3884 8.5132C47.0593 7.83003 48.0898 8.40847 48.81 7.80848C49.1412 7.53275 52.8304 6.55381 53.2787 6.58154C55.4245 6.71401 57.4917 6.17872 59.5358 5.70735C60.7666 5.42392 61.9588 5.20672 63.2119 5.23214C63.7072 5.24215 64.2109 5.21752 64.6992 5.13896C65.6396 4.98877 66.2812 3.97593 67.4765 4.38799C68.3908 4.703 69.4413 4.6206 70.4287 4.73073C70.6737 4.75769 70.9248 4.81699 71.1497 4.91558C71.8082 5.2044 72.3396 4.98492 72.8672 4.58364C73.1614 4.36028 73.511 4.21086 73.8361 4.02832Z" fill="#B3AF95"/>
<path d="M49.2343 15.4662C48.967 15.4007 48.6998 15.3345 48.4317 15.2683C47.9203 14.5805 47.0831 14.7168 46.4037 14.4526C46.3236 14.4211 46.2643 14.2562 46.2566 14.1484C46.252 14.0875 46.3691 13.959 46.433 13.9582C49.6671 13.9258 52.848 13.1071 56.1006 13.3081C56.5835 13.3382 57.0779 13.1479 57.5686 13.0724C58.3041 12.96 59.0474 12.7397 59.7775 12.7752C61.6622 12.8668 63.4945 12.5919 65.3222 12.2075C65.9799 12.8861 67.1453 12.1829 67.7199 13.0902C67.7453 13.4737 67.6059 13.788 67.3263 14.0468C66.0978 14.7076 64.8601 14.5944 63.6201 14.0884C63.0894 13.942 62.5703 13.9035 62.0966 14.2647C61.3549 14.2685 60.6132 14.2724 59.8723 14.2771C56.4672 15.9338 52.989 16.9334 49.2343 15.4662Z" fill="#DCDBD2"/>
<path d="M48.4764 15.5955C48.4148 16.0753 48.4147 16.5752 48.2707 17.0296C48.1675 17.3546 47.9218 17.6796 47.653 17.8976C46.9036 18.5061 45.7853 18.429 45.0998 19.2031C45.0906 19.2139 44.6739 18.989 44.6416 18.8342C44.4652 17.9831 43.916 17.6226 43.1135 17.5371C42.599 17.6095 42.0868 17.588 41.5769 17.4925C41.3359 17.4963 41.094 17.501 40.8529 17.5063C39.9394 16.9302 38.8065 16.4781 39.4573 15.0225C40.9615 15.1095 42.4657 15.1903 43.9699 15.2859C45.4726 15.3821 46.9745 15.4923 48.4764 15.5955Z" fill="#878160"/>
<path d="M39.4581 15.0233C39.6614 15.323 39.807 15.7004 40.0804 15.906C40.6365 16.3227 40.8043 16.8734 40.8529 17.5072L40.8344 17.4926C40.2137 17.9039 40.5495 19.4751 39.2093 18.956C37.8106 18.4145 37.7351 17.153 37.8367 15.8737C37.9669 15.5409 38.1464 15.2182 38.2141 14.8732C38.2904 14.4857 38.0517 14.1453 37.7051 14.0529C36.1216 13.6285 35.4599 13.332 34.7644 12.6334C35.7318 11.7708 36.7508 11.8732 37.8499 12.3908C38.9921 12.9276 39.5682 13.751 39.4581 15.0233Z" fill="#726D52"/>
<path d="M67.5481 12.9818C66.7547 12.8701 65.8529 13.068 65.3214 12.2062C67.8662 12.351 70.367 11.9767 72.8656 11.5762C73.6165 11.5823 74.3667 11.5893 75.1176 11.5954C75.3833 11.6478 75.6482 11.7002 75.9139 11.7534C76.2305 12.0206 76.6534 12.1523 76.8891 12.5228C76.9523 12.8231 76.8551 13.048 76.5755 13.1867C74.8133 13.1651 73.0519 13.1428 71.2897 13.1212C70.0289 13.4778 68.7704 13.7204 67.5481 12.9818Z" fill="#EBEAE0"/>
<path d="M53.5435 75.5191C52.925 75.8388 52.781 76.4072 52.7479 77.0349C52.2288 77.3183 51.819 77.0287 51.3962 76.79C50.3379 76.3394 49.0608 76.1707 48.7274 74.7689C48.6781 74.4378 48.7081 74.1112 48.8183 73.7954C49.3066 73.0214 49.942 72.3282 50.1877 71.417C50.2231 71.1405 50.2462 70.8617 50.2254 70.5837C50.1523 70.3157 50.0822 70.0476 49.9897 69.7858C49.8226 69.3999 49.6571 69.0156 49.4868 68.6328C49.302 68.2546 49.1363 67.8687 48.9769 67.4806C48.8652 67.2272 48.782 66.963 48.715 66.6949C48.6457 66.4338 48.5933 66.1674 48.5394 65.9024C48.4539 65.6498 48.3716 65.3956 48.2715 65.1461C48.1328 64.9096 47.9995 64.6732 47.8486 64.4444C47.5736 64.1101 47.2756 63.8005 46.9806 63.4809C46.7849 63.2321 46.6517 62.9579 46.5662 62.6552C46.4623 61.9805 46.5862 61.3844 47.1485 60.9385C47.321 60.5988 47.5743 60.4494 47.9618 60.5672C48.3707 60.6912 48.5741 60.4355 48.7358 60.1197C49.6901 60.0281 49.9698 60.7482 50.3009 61.4106C50.6968 62.4265 50.9332 63.4871 51.1373 64.5546C51.5686 66.9607 52.9357 69.1095 53.0952 71.5904C53.1768 72.4114 53.5904 73.1692 53.5797 74.0103C53.5673 74.5132 53.5558 75.0162 53.5435 75.5191Z" fill="#B6AF8B"/>
<path d="M53.3039 58.0645C54.0433 58.5004 54.8051 58.9032 55.5144 59.3846C55.938 59.6719 56.1313 60.164 56.0435 60.6785C55.9611 61.1614 55.7378 61.6806 56.0828 62.0872C57.0002 63.1701 56.9347 64.6412 57.6264 65.8042C56.9963 65.7665 56.4456 65.587 56.1337 64.9762C55.687 64.5611 55.8803 63.8502 55.4243 63.4397L55.4205 63.4351C53.8608 62.8228 54.524 64.5734 53.8554 64.9085L53.8538 64.9077C53.3293 65.9429 52.5568 66.3041 51.4624 65.7903C50.9833 65.1495 50.8724 64.434 51.0411 63.6646C52.1194 61.9332 51.2151 59.3915 53.3039 58.0645Z" fill="#A5A289"/>
<path d="M51.6604 65.5531C52.4884 65.6671 53.1392 65.1819 53.8524 64.9077C54.0781 65.5994 54.3522 66.2794 54.5163 66.9857C54.7127 67.8314 53.9064 68.6316 54.2853 69.4804C54.6319 70.2567 55.1017 70.9776 55.5029 71.7309C55.6169 71.945 55.6863 72.1838 55.7664 72.4148C56.0074 73.1088 55.5145 73.842 54.6781 73.9784C54.32 74.0369 53.9456 74.0022 53.579 74.01C52.8627 73.668 52.3575 73.1465 52.1718 72.354C53.7284 69.9579 50.7885 67.8991 51.6604 65.5531Z" fill="#BFBA98"/>
<path d="M53.8547 64.9085C53.8855 64.5388 53.8879 64.1637 53.9526 63.8002C54.1251 62.8351 54.5318 62.7396 55.4199 63.4351C54.8984 63.9265 54.3762 64.4179 53.8547 64.9085Z" fill="#BFBA98"/>
<path d="M57.9884 79.4473C58.161 79.6021 58.3512 79.7422 58.4968 79.9194C58.5576 79.9933 58.5761 80.1813 58.5245 80.256C58.322 80.5479 58.1279 80.5063 58.0478 80.152C57.9962 79.9248 58.0046 79.6845 57.9861 79.4503L57.9884 79.4473Z" fill="#BFBA98"/>
<path d="M55.4244 63.4399C56.0259 63.7835 56.133 64.3557 56.1338 64.9765C55.5292 64.6345 55.4144 64.0661 55.4244 63.4399Z" fill="#BFBA98"/>
<path d="M57.986 79.4503C57.8828 79.3887 57.6826 79.3039 57.6911 79.27C57.7527 79.0174 57.8698 79.0806 57.9876 79.4472L57.986 79.4503Z" fill="#BFBA98"/>
<path d="M29.5117 14.9085C29.2644 14.9424 29.0256 14.9108 28.7953 14.8138L28.7677 14.4603L28.783 14.106C29.1635 14.2492 29.42 14.5041 29.5117 14.9085Z" fill="#7B785D"/>
<path d="M53.304 58.0647C53.1207 58.6578 52.9744 59.2655 52.7449 59.8408C52.4984 60.4585 52.5131 61.0485 52.6964 61.67C52.9821 62.6389 52.3074 63.0009 51.605 63.3336C51.2415 63.5947 50.9164 63.5539 50.6284 63.2104C50.3426 62.2916 50.0083 61.3881 49.7788 60.4515C48.9632 54.5811 45.8238 49.1943 46.1643 43.0828C46.2605 42.4689 46.507 41.8828 46.497 41.2435C46.4739 39.7231 45.5296 37.317 47.8202 37.2947C49.9098 37.2747 52.3313 38.4245 51.8577 41.56C51.7714 42.6645 51.0011 43.4979 50.693 44.5145C49.8373 46.8066 49.7981 48.8708 52.2535 50.2487C52.8642 51.052 53.2424 51.2238 53.4296 49.9521C53.6182 48.6728 53.5274 47.067 55.5685 47.164C56.0968 47.3797 56.3032 47.8911 56.6136 48.307L56.6128 48.3086C56.5597 49.6564 56.6714 51.0228 56.1461 52.3152C56.4041 53.4235 56.2354 54.2691 54.9014 54.4848C54.7012 54.5171 54.4162 54.7629 54.3792 54.9508C54.1536 56.0907 53.2886 56.026 52.4453 56.0768C52.0971 56.0976 52.0163 56.6722 52.3074 56.9988C52.6317 57.3608 52.9713 57.7096 53.304 58.0647Z" fill="#B4B092"/>
<path d="M55.3403 57.2981C55.3604 57.1772 55.3364 57.0092 55.4073 56.9422C55.8794 56.4978 56.0466 55.9156 56.1952 55.3202C57.0948 54.919 57.0571 53.8568 57.6633 53.2623C57.7564 53.1706 58.2632 53.29 58.2748 53.3616C58.3595 53.8722 58.4982 54.302 58.9911 54.5824C60.0694 55.1962 60.3628 56.3007 60.6339 57.3897C60.6785 57.5699 60.5099 57.8996 60.3404 58.0205C59.5102 58.6128 58.6668 59.0896 57.5931 58.4657C56.9608 58.0983 56.2337 57.8942 55.5583 57.5977C55.4612 57.5538 55.412 57.4005 55.3403 57.2981Z" fill="#87836E"/>
<path d="M76.5772 13.1869C76.6242 12.9674 76.6719 12.7472 76.7196 12.5277C78.7191 11.4186 80.9758 11.3061 83.1478 10.8647C84.1182 10.8963 84.9809 11.1867 85.6625 11.9115C85.2142 12.848 84.2153 12.9743 83.4366 13.4234C83.0361 13.7145 82.4568 13.9186 82.2674 14.3114C81.5488 15.8002 80.2595 16.4857 78.8338 17.0356C78.6004 17.1257 78.3664 17.2182 78.1253 17.2821C77.7032 17.3945 77.4113 17.2128 77.221 16.8362C76.9953 16.3894 76.7689 15.9435 76.5425 15.4968C77.5445 14.3838 77.5453 14.363 76.5772 13.1869Z" fill="#C6C3A9"/>
<path d="M92.9802 49.3864C92.7438 49.3563 92.5073 49.3333 92.2694 49.3171C92.0144 49.066 91.8288 48.7718 91.7094 48.4344C91.6501 48.0825 91.6447 47.7297 91.6894 47.3769C91.7463 47.0319 91.8396 46.6938 91.9528 46.3626C94.7941 40.4767 95.6189 40.03 100.041 41.9778C100.898 42.5409 100.77 43.4905 100.953 44.3161C101.019 44.6157 100.883 44.8153 100.592 44.8784C100.353 44.9308 100.109 45.0001 99.8681 44.9962C98.9755 44.9808 98.1429 45.0486 97.5252 45.8442C96.9768 46.5505 95.8253 46.304 95.3401 47.1536L95.337 47.1497C95.7737 47.3916 96.222 47.6149 96.6448 47.8791C97.214 48.2342 97.2071 48.248 96.9268 49.1007C96.8882 49.2185 96.8259 49.3294 96.7743 49.4426C95.5096 49.4241 94.2449 49.4049 92.9802 49.3864Z" fill="#D4D1AD"/>
<path d="M100.04 41.9784C98.4069 41.9414 96.7733 41.9083 95.1404 41.8644C94.8293 41.8559 94.6028 41.9684 94.6067 42.261C94.6098 42.4813 94.7015 42.7332 94.8339 42.9103C94.9795 43.1036 95.2321 43.2122 95.4123 43.3847C95.8021 43.7583 95.6387 44.4237 95.1289 44.5385C94.7769 44.6171 94.3979 44.6124 94.0336 44.5901C93.617 44.5647 93.2935 44.6879 93.198 45.0992C93.0301 45.8178 93.0963 46.6304 92.3038 47.0594C89.9354 45.4204 88.5452 43.5658 90.9367 40.8685C91.1808 40.5859 91.4512 40.3324 91.7323 40.0868C92.0181 39.8318 92.327 39.6131 92.6504 39.4105C95.5841 38.0758 97.8677 39.4336 100.05 41.2036C100.047 41.4616 100.044 41.7196 100.04 41.9784Z" fill="#C7C3A1"/>
<path d="M100.051 41.2037C99.3228 41.1929 98.5949 41.1928 97.9279 40.8262C97.6098 40.6514 97.2571 40.5297 96.9591 40.3272C95.4872 39.3275 94.0053 39.3906 92.5034 40.2401C92.2585 40.4997 91.9759 40.7176 91.7209 40.9664L91.7178 40.9634C90.2198 41.3723 88.8126 41.4001 87.7413 40.0106C87.7074 39.6571 87.8052 39.3459 88.0309 39.0717C88.761 38.5696 89.5974 38.3293 90.4308 38.0751C91.6462 38.0135 92.8585 37.7262 94.0808 37.9996C95.0967 38.005 96.1126 38.0104 97.1285 38.0158C97.4096 37.8086 97.6961 37.6084 97.9865 37.415C98.4417 37.4328 98.8968 37.4505 99.352 37.469C99.6578 37.7216 99.9551 37.9842 100.303 38.1767C100.539 38.2861 100.765 38.4116 100.988 38.5395C101.227 38.6227 101.474 38.6743 101.731 38.6843C101.999 38.7059 102.22 38.8207 102.395 39.0217C102.541 39.3583 102.711 39.6871 102.827 40.0337C103.028 40.6337 102.887 40.9326 102.283 41.1636C102.062 41.2483 101.804 41.2376 101.562 41.2699C101.079 40.7516 100.574 40.7793 100.052 41.209L100.051 41.2037Z" fill="#AEA986"/>
<path d="M102.394 39.0221C102.152 39.0221 101.909 39.0183 101.667 39.0106C101.483 39.1808 101.303 39.2339 101.127 39.17C100.95 39.106 100.863 39.0444 100.865 38.9851C100.625 38.9674 100.388 38.9343 100.152 38.8874C99.7171 38.416 99.707 37.9446 100.154 37.474C100.154 37.474 100.22 37.3485 100.221 37.347C100.926 37.29 101.666 37.3523 102.327 37.1513C103.379 36.8309 104.43 36.8047 105.5 36.8309C104.595 37.7459 103.449 38.3189 102.394 39.0221Z" fill="#CFCBB2"/>
<path d="M100.051 41.2082C100.839 40.495 100.839 40.495 101.561 41.269C101.058 41.249 100.554 41.229 100.051 41.2082Z" fill="#C7C3A1"/>
<path d="M83.4805 11.1048C81.3324 12.0837 79.1242 12.7792 76.7181 12.5274C76.4508 12.2693 76.1828 12.0113 75.9148 11.7533C76.9861 11.4545 78.0929 11.2457 79.1188 10.8337C80.5637 10.2537 81.9986 10.1921 83.4843 10.5271L83.6769 10.8175L83.4805 11.1048Z" fill="#EDEDE4"/>
<path d="M83.4806 11.105C83.4837 10.9117 83.4844 10.7184 83.4844 10.5259L83.526 10.2879C84.0351 9.94668 84.5249 9.96052 84.9917 10.371C85.5947 10.455 86.1902 10.5544 86.4774 11.2021C86.2056 11.4386 85.9345 11.6758 85.6626 11.9122C84.8308 11.9246 83.9674 12.0239 83.4806 11.105Z" fill="#D2D1C3"/>
<path d="M84.9915 10.3708C84.5032 10.3438 84.0142 10.3168 83.5259 10.2883C83.5952 9.81159 83.6276 9.32561 83.7493 8.86349C83.8194 8.597 84.1097 8.55002 84.3569 8.73718C84.8968 9.14616 85.0162 9.7338 84.9915 10.3708Z" fill="#ADA791"/>
<path d="M49.2343 15.4657C51.8337 15.3602 54.3861 14.8858 56.9294 14.3975C57.9237 14.2065 58.8865 14.1803 59.8731 14.2766C60.215 15.0014 60.6379 15.7022 60.5285 16.5564C60.2119 16.9222 59.7991 17.02 59.3401 16.9877C58.7825 16.9045 58.2232 16.8121 57.6533 16.8444C57.3722 16.8568 57.0973 16.8167 56.8285 16.7381C56.3794 16.2722 56.0066 16.4686 55.6554 16.8799C55.0978 17.0963 54.5163 17.1325 53.9287 17.144C53.6306 17.161 53.3325 17.154 53.0352 17.1425C52.7387 17.1486 52.4429 17.134 52.1479 17.1201C51.407 17.077 50.6869 17.2311 49.9613 17.3497C49.6486 17.3528 49.3921 17.2326 49.1919 16.9923C49.2065 16.484 49.2204 15.9748 49.2343 15.4657Z" fill="#94906A"/>
<path d="M62.9546 13.6732C64.4519 13.6793 65.9492 13.6847 67.4464 13.6908C68.001 13.2634 68.5239 13.3165 69.0199 13.7925C69.0877 14.032 69.2094 14.2716 69.2063 14.5103C69.204 14.7191 69.0846 15.0934 68.9768 15.1088C67.8685 15.2628 66.7863 15.413 65.8528 16.1493C65.6526 16.3072 65.1589 16.1416 64.8162 16.0592C63.8788 15.8343 63.6793 14.7737 62.9199 14.3386C62.6858 14.1029 62.6973 13.8819 62.9546 13.6732Z" fill="#BAB69D"/>
<path d="M59.0458 16.4911C59.5403 16.5127 60.0347 16.535 60.5292 16.5565C60.7225 17.2736 60.9691 17.9822 61.1008 18.7108C61.4258 20.52 61.0884 22.1559 59.6874 23.4637C59.1706 23.0524 58.8625 22.5325 59.0335 21.8609C59.2145 21.15 59.498 20.4638 59.6651 19.7506C59.7806 19.2592 59.6828 18.7223 59.2938 18.3873C59.0343 18.1639 58.6206 18.1201 58.2756 17.9953C57.8343 17.5309 57.8019 17.0225 58.11 16.4757C58.3218 16.2669 58.5314 16.1999 58.7378 16.2747C58.9457 16.3478 59.0481 16.4202 59.0458 16.4911Z" fill="#8F8860"/>
<path d="M69.0199 13.7917C68.4954 13.7578 67.9717 13.7247 67.4464 13.69C67.4818 13.4536 67.5157 13.2179 67.548 12.9814C68.7958 13.0277 70.0435 13.0738 71.2912 13.1208C70.7074 13.9326 69.8317 13.7547 69.0199 13.7917Z" fill="#C0BCA3"/>
<path d="M62.9545 13.6724C62.9407 13.8934 62.9291 14.1152 62.9198 14.337C62.6464 14.3132 62.3722 14.2893 62.098 14.2646C62.383 14.0667 62.6688 13.8695 62.9545 13.6724Z" fill="#C0BCA3"/>
<path d="M51.9993 76.253C52.2489 76.5133 52.4984 76.7737 52.748 77.034C52.8966 78.2732 52.1018 79.4154 52.379 80.6793C52.4191 80.8596 52.2388 81.1792 52.0671 81.3001C51.3647 81.7946 50.6284 82.2429 49.8967 82.6965C49.671 82.8367 49.0502 82.5401 48.9878 82.2582C48.9085 81.8978 48.8507 81.5312 48.8145 81.1638C48.7629 80.6401 48.5233 80.2349 48.1144 79.9184C48.0119 79.4301 47.9696 78.9187 47.7932 78.4588C47.5483 77.818 47.697 77.2666 47.8911 76.6481C48.1291 75.891 47.9765 75.7816 46.9105 75.5822C46.195 75.4481 46.155 75.321 46.6187 74.6479C47.0739 73.9871 47.0739 73.8207 46.7042 73.387C46.0926 72.6692 45.4518 72.2903 44.4128 72.5961C43.4424 72.881 43.1929 72.5714 43.0766 71.4215C43.0511 71.1727 43.0727 70.9194 43.0727 70.6675C43.4447 70.3741 43.802 70.7176 44.1671 70.6937C43.8652 70.3563 43.3984 70.2447 43.095 69.9096C42.9402 69.4683 42.9171 68.8421 42.6059 68.6172C41.4683 67.7962 41.992 66.9721 42.438 66.1071C43.7874 66.5708 45.1507 64.2633 46.4954 66.1279C45.3825 69.3481 47.918 69.8018 49.9267 70.6498C50.8178 72.0469 50.0368 72.9904 49.0448 73.8761C49.0401 74.1272 49.0348 74.3783 49.0309 74.6294C49.1057 76.8453 50.7339 76.2168 51.9993 76.253Z" fill="#C6C19D"/>
<path d="M47.1485 60.9381C47.1269 61.6898 47.1061 62.4415 47.0846 63.1933C47.3118 64.7999 46.3251 65.1804 45.072 64.974C43.9683 64.7922 42.8462 64.8284 41.7571 64.5758C41.6154 64.0097 41.4651 63.4451 41.3349 62.8767C41.231 62.4215 41.1509 61.9609 41.0608 61.5027C41.2402 61.3409 41.4467 61.2008 41.593 61.0128C41.8742 60.6524 41.7863 59.9546 42.364 59.923C42.5704 59.9122 42.803 60.4552 43.031 60.7402C43.4469 61.2601 43.9667 61.5081 44.636 61.3171C44.871 61.2501 45.092 61.1075 45.3292 61.0798C45.9315 61.0082 46.5408 60.982 47.1485 60.9381Z" fill="#C6C19D"/>
<path d="M41.7564 64.5751C42.0236 64.3371 42.2994 64.1084 42.5559 63.8596C42.8339 63.59 43.1251 63.4522 43.5071 63.6393C43.8306 63.798 44.1587 63.9482 44.4899 64.0914C45.8909 64.6976 45.8916 64.696 47.0847 63.1934C47.3273 63.2126 47.5699 63.2304 47.8132 63.2465C48.2746 63.644 48.1052 64.3525 48.5565 64.7553L48.5573 64.7569C48.746 64.9841 48.8569 65.246 48.9 65.5371C48.9339 65.8313 49.0487 66.087 49.2597 66.2973C49.2759 66.5491 49.2866 66.801 49.2928 67.0528C47.9172 68.0656 46.9838 67.4726 46.2351 66.2095C45.8831 66.0909 45.5304 65.973 45.1785 65.8544C44.3451 66.7964 43.3638 66.1402 42.4403 66.107V66.1016C42.2247 65.8159 41.9728 65.5617 41.7233 65.3068C41.7317 65.0627 41.744 64.8193 41.7564 64.5751Z" fill="#D6D2AE"/>
<path d="M43.0956 69.9102C43.9821 69.9687 44.7508 70.2991 45.3855 70.9214C45.4332 70.9684 45.4325 71.1286 45.3893 71.191C45.3277 71.2803 45.213 71.3697 45.1082 71.3866C44.3018 71.5206 43.7481 70.9214 43.0734 70.6672C43.0811 70.4154 43.0879 70.1628 43.0956 69.9102Z" fill="#CDC9A5"/>
<path d="M37.8368 15.8735C38.7041 16.3387 38.4592 17.3531 38.902 18.0339C39.2432 18.5577 39.6083 18.6493 40.0373 18.1826C40.273 17.9253 40.5672 17.7212 40.8345 17.4932C40.7875 18.3759 40.8491 19.3009 39.911 19.8308C39.2363 19.7168 38.5616 19.6028 37.8869 19.4881C37.4687 19.0036 36.9126 18.8365 36.3019 18.7957C35.7488 18.0586 34.9509 17.9245 34.1076 17.9007C33.5923 17.6272 33.0762 17.3546 32.5609 17.0819C32.0719 16.1361 31.2138 15.8126 30.2311 15.7002L30.2419 15.6894C29.9715 15.4075 29.9861 15.1418 30.2873 14.8922C31.193 13.8301 32.313 14.2122 33.3928 14.4663C33.5854 14.5118 33.7786 14.7821 33.8695 14.9924C34.1121 15.5569 34.2246 16.1885 34.7876 16.5644C36.0338 17.3592 37.0458 17.1127 37.8368 15.8804V15.8735Z" fill="#7B785D"/>
<path d="M55.878 21.7186C55.6176 21.9659 55.3573 22.2131 55.097 22.4603C54.1388 22.4403 53.4372 21.9543 52.8665 21.2303C52.6238 20.923 52.4452 20.5341 52.7926 20.266C53.4888 19.7292 53.1268 19.1708 52.9381 18.5962C53.0652 18.4776 53.1915 18.359 53.3178 18.2389C53.8 18.007 54.306 17.9508 54.8305 18.0271C56.5334 18.8704 55.3157 20.5472 55.878 21.7186Z" fill="#A9A480"/>
<path d="M49.1927 16.9928C49.4437 16.9921 49.6956 16.9943 49.9467 16.9997C51.0827 17.2724 52.7633 16.5299 52.9336 18.6033L52.9382 18.5972C52.3313 18.8128 51.8876 19.2249 51.5302 19.7502C51.3955 19.9489 51.2299 20.2431 51.052 20.2639C50.8748 20.2847 50.6753 19.9966 50.4659 19.8795C50.2571 19.7625 50.0299 19.6646 49.7996 19.6007C49.4068 19.4913 49.1611 19.2618 49.1581 18.8498C49.1527 18.2305 49.1796 17.6113 49.1927 16.9928Z" fill="#A9A480"/>
<path d="M41.5778 17.4941C42.368 16.7994 42.368 16.7994 43.1143 17.5388C43.1844 17.8931 43.3084 18.2497 43.2984 18.6017C43.2945 18.7334 42.9526 18.9852 42.8086 18.9567C42.4751 18.8912 42.0737 18.7649 41.8766 18.5207C41.6694 18.265 41.6686 17.843 41.5778 17.4941Z" fill="#A39F7E"/>
<path d="M46.9784 42.668C46.5886 45.2196 47.4189 47.5957 48.0374 50.0018C48.9678 51.4082 49.1427 53.0811 49.3444 54.6485C49.614 56.7434 50.0138 58.8152 50.278 60.9078C50.5945 61.7335 50.1786 61.8414 49.5054 61.6966C49.3652 61.1151 49.2389 60.5258 48.736 60.1207C48.682 59.6424 48.6759 59.1526 48.565 58.6882C48.1453 56.9321 47.7063 55.1806 47.2365 53.4377C47.1471 53.1065 46.8821 52.8231 46.698 52.5173C46.5601 52.3987 46.4223 52.2801 46.2822 52.1638C45.4319 50.3515 45.1484 48.3567 44.4506 46.4935C43.9715 44.9023 43.6719 43.2679 43.2637 41.6582C43.0889 40.3319 42.9078 39.0002 44.1109 37.9943C45.9132 37.754 45.9925 39.2914 46.537 40.3481C46.7789 40.7971 46.9645 41.2724 47.1232 41.7576C47.2549 42.0888 47.2064 42.3922 46.9784 42.668Z" fill="#EBEDE6"/>
<path d="M42.7221 56.2464C42.6728 55.5949 42.5358 54.9617 41.801 54.7815C39.8309 54.2986 39.5004 52.648 39.15 51.0529C38.9467 50.1279 39.5551 49.3778 39.9548 48.6014C40.2012 48.5914 40.4462 48.5775 40.6919 48.5591C40.9368 48.3164 41.2257 48.1493 41.5576 48.0538C41.8957 48.0037 42.2347 47.9999 42.5751 48.0368C45.3979 48.2109 45.8238 50.5585 46.6525 52.5425L46.6979 52.5164C46.1495 53.9759 46.1496 53.9759 44.3242 54.0206C43.8398 54.5066 43.8105 55.0072 44.2764 55.524L44.2787 55.5255C44.244 56.7925 43.6009 56.7671 42.7298 56.2549L42.7221 56.2464Z" fill="#7F7B67"/>
<path d="M42.7291 56.2538C43.353 56.2399 43.9345 56.1352 44.278 55.5244C44.6153 55.6461 44.9874 55.7162 45.2754 55.911C45.4287 56.0142 45.5373 56.3585 45.4903 56.5503C45.3355 57.1734 44.8587 57.5778 44.3588 57.9436C43.9622 58.234 43.3175 58.1215 43.108 57.6494C42.9147 57.2134 42.85 56.7213 42.7291 56.2538Z" fill="#99947B"/>
<path d="M44.2757 55.5244C43.5386 54.7411 43.5385 54.7411 44.3233 54.021C44.3072 54.5224 44.2918 55.023 44.2757 55.5244Z" fill="#99947B"/>
<path d="M85.9697 30.189C86.7969 30.3114 87.403 30.6973 87.4022 31.6115C87.4015 32.8639 87.4515 34.0993 87.7758 35.3216C87.8867 35.739 87.5394 36.0071 87.1666 36.1241C86.8116 36.2358 86.4341 36.2782 86.0667 36.3498C85.3234 36.4954 85.1156 37.0707 84.9808 37.7038C84.5433 38.1336 84.0511 38.1552 83.522 37.8987C83.2771 37.5906 83.2724 37.2787 83.5097 36.9644L83.5135 36.9506C83.7862 36.7203 84.0203 36.4522 84.2637 36.1927C84.2783 35.9462 84.2929 35.6998 84.3084 35.4533C85.4606 35.0328 85.895 34.0045 86.3202 32.9994C86.4488 32.696 86.4172 32.2939 86.3641 31.9527C86.2724 31.3581 86.1052 30.7759 85.9697 30.189Z" fill="#CFCBB2"/>
<path d="M78.9964 35.296C78.3987 34.8801 77.7964 34.4704 77.2103 34.0398C77.141 33.989 77.1009 33.7934 77.1425 33.7156C77.2503 33.5146 77.3759 33.2342 77.5561 33.1757C78.2662 32.9446 79.0095 32.9154 79.7173 33.1826C79.8613 33.2373 80.0369 33.6209 79.976 33.7372C79.6926 34.2786 79.3322 34.7793 78.9995 35.2945L78.9964 35.296Z" fill="#D0CDA7"/>
<path d="M41.4213 48.5743C41.1771 48.5951 40.9337 48.5905 40.6911 48.5589C40.3206 47.7756 39.9139 47.0193 40.4161 46.1081C40.574 45.8224 40.591 45.3603 40.4816 45.0453C40.2005 44.2373 40.3322 43.625 41.0161 43.0905C41.5553 42.6692 41.633 42.0261 41.5637 41.403C41.5098 40.9185 41.3373 40.4449 41.1964 39.9727C40.9622 39.1863 41.0893 38.5248 41.7725 38.0026C42.3494 37.5612 42.3 37.0051 42.1413 36.3466C41.9141 35.4023 41.9742 35.3831 43.3406 35.0195C43.5108 35.085 43.681 35.1513 43.852 35.2152C44.7069 36.0016 45.3184 36.8657 44.7685 38.0988C44.3025 38.3361 44.0368 38.7049 44.0307 39.2395C44.0214 40.0882 44.0153 40.937 44.0084 41.7858C43.8143 42.6954 43.9159 43.6451 43.6402 44.5493C43.5324 44.8635 43.3876 45.1554 43.2174 45.4404C42.4364 46.3831 42.4156 47.7594 41.4213 48.5743Z" fill="#B5B192"/>
<path d="M43.4262 32.6431C43.7043 32.6538 43.9831 32.6646 44.2611 32.6754C44.3674 32.8333 44.473 32.9904 44.5808 33.1475C44.6871 34.1118 44.8465 35.1116 43.3507 35.0261L43.3423 35.0199C43.37 34.2281 43.3985 33.4356 43.4262 32.6431Z" fill="#8A815D"/>
<path d="M87.9585 39.3746C87.9585 39.6188 87.9569 39.8621 87.9539 40.1055C87.5695 40.5661 87.0527 40.7756 86.4866 40.8919C84.4024 40.1456 83.2233 43.2002 81.0744 42.1928C80.3805 41.9201 79.7042 41.5735 78.9864 41.3964C78.3679 41.2439 77.7841 41.1384 77.3359 40.6239C77.2226 40.4945 76.8029 40.4229 76.7174 40.5114C75.8009 41.4619 74.6402 41.2031 73.5326 41.2139C73.0643 41.1977 72.616 41.1083 72.2148 40.8472C71.966 40.6454 71.8343 40.3805 71.8004 40.064C72.0677 39.1528 72.9588 39.2144 73.6127 38.9048C73.8931 38.8925 74.1726 38.8801 74.453 38.867C74.453 38.867 74.7164 39.1335 74.7203 39.1297C75.3149 38.6837 76.0034 38.5513 76.729 38.4974C80.1579 37.644 83.5444 38.4958 86.9456 38.6753C87.3615 38.7977 87.6981 39.0303 87.9585 39.3746Z" fill="#9E997D"/>
<path d="M73.6134 38.906C73.0827 39.4043 72.5513 39.9034 72.0206 40.4017C72.6545 40.4302 73.2167 40.5935 73.5333 41.2143C72.847 42.5344 71.7256 42.911 70.3885 42.482C69.4412 42.1785 68.5369 41.7518 67.5218 41.7126C67.055 40.9916 66.6638 40.3054 67.0666 39.3573C67.2138 39.0099 66.8803 38.4592 66.7655 38.001C68.0109 38.0125 69.2563 38.0241 70.501 38.0349C70.9361 38.7227 71.5307 39.013 72.3302 38.7404C72.7908 38.5833 73.239 38.4261 73.6134 38.906Z" fill="#908B77"/>
<path d="M87.1883 39.2836C83.1493 39.2089 79.1112 39.1342 75.0723 39.0595C74.8666 39.2636 74.6925 39.3106 74.5485 39.2012C74.4176 39.1018 74.3529 39.0079 74.3559 38.9193C74.3559 38.9193 74.4514 38.8708 74.453 38.87C74.6309 38.706 74.7819 38.4549 74.9891 38.394C76.0427 38.0852 77.111 37.8256 78.1746 37.5483C78.8886 37.0392 79.7266 37.164 80.5253 37.0801C82.6441 37.7517 84.7845 38.3109 87.035 38.2793C87.4348 38.5604 87.4863 38.8946 87.1883 39.2836Z" fill="#CDCABA"/>
<path d="M80.4827 37.6331C79.7133 37.6046 78.9431 37.5769 78.1737 37.5484C79.7896 35.8624 81.5772 35.7554 83.5096 36.9646C83.4958 37.1987 83.4796 37.4321 83.4619 37.6662C82.4622 38.2631 81.4701 38.1591 80.4827 37.6331Z" fill="#C2BDA0"/>
<path d="M102.735 27.6407L102.917 27.3296L103.055 27.4759L102.735 27.6407Z" fill="#C5C1A6"/>
<path d="M81.0751 42.1933C81.7198 42.1225 82.336 41.9585 82.5555 41.2637C82.8782 40.2424 83.6045 39.9559 84.5765 40.0152C85.1996 40.053 85.8242 40.0691 86.448 40.0946C86.6552 40.5513 86.6499 41.1343 87.008 41.4825C90.3199 44.7011 90.2976 45.0439 86.4204 47.785C86.1162 47.9999 85.7518 48.1323 85.4568 48.3719L85.4406 48.3842C84.7705 48.09 84.0982 47.8019 83.432 47.4992C83.08 47.339 82.8412 47.1065 82.9698 46.6613C83.1739 45.9566 83.3689 45.2487 83.5483 44.5378C83.573 44.4416 83.4928 44.2251 83.4435 44.2197C83.2355 44.1959 82.9476 44.1481 82.822 44.259C82.3776 44.6541 82.0032 45.1286 81.5573 45.5206C81.5003 45.5707 81.1753 45.3173 80.9743 45.2048C80.7732 44.6803 80.7009 44.0957 80.2719 43.676C80.5391 43.1815 80.8071 42.687 81.0751 42.1933Z" fill="#ACA78D"/>
<path d="M80.271 43.675C80.4936 43.7112 80.7293 43.7135 80.9373 43.7905C81.31 43.9299 81.3763 44.2288 81.2415 44.58C81.1606 44.791 81.0635 44.9967 80.9742 45.2038C80.3966 45.0344 79.8051 44.9011 79.2444 44.687C78.4949 44.4005 77.8002 44.3844 77.2687 45.0444C76.6403 45.8239 75.8246 45.8339 74.9574 45.7399C74.9281 45.5081 74.9165 45.2762 74.9219 45.0436C75.4672 44.7124 75.6637 44.1502 75.8839 43.6003C76.0842 43.1004 76.5178 42.9087 77.0061 42.8786C77.5961 42.8416 78.1907 42.8686 78.783 42.8678C78.9571 42.7076 79.1257 42.6583 79.2905 42.7215C79.4538 42.7838 79.5347 42.844 79.5332 42.9002C79.7796 43.1582 80.0253 43.4162 80.271 43.675Z" fill="#9B9680"/>
<path d="M74.9412 44.277C74.6924 44.2701 74.4429 44.2624 74.1941 44.2539C74.0971 43.8118 73.9553 43.3728 73.9307 42.9276C73.923 42.7944 74.221 42.5795 74.4167 42.514C74.6924 42.4216 74.8834 42.5918 74.8988 42.8799C74.9227 43.3451 74.9281 43.811 74.9412 44.277Z" fill="#9B9680"/>
<path d="M79.5331 42.8996C79.2828 42.8888 79.0325 42.8781 78.783 42.8673C78.8985 42.5707 79.0902 42.4637 79.3267 42.6C79.4222 42.6547 79.4661 42.7972 79.5331 42.8996Z" fill="#ACA78D"/>
<path d="M37.836 15.8794C37.7428 16.4624 37.6311 17.057 36.9495 17.2264C36.1107 17.4344 35.3305 17.3605 34.7867 16.5633C35.8835 16.6927 36.8878 16.4101 37.836 15.8794Z" fill="#726D52"/>
<path d="M30.2872 14.8911C30.2725 15.1568 30.2572 15.4218 30.2417 15.6883C29.9968 15.6913 29.7542 15.6737 29.5131 15.6344C29.4915 15.4095 29.4739 15.1838 29.4592 14.9597C29.735 14.9373 30.0107 14.9142 30.2872 14.8911Z" fill="#9B9C7F"/>
<path d="M55.8781 21.7192C55.6255 21.3102 55.3991 20.8827 55.1156 20.4961C54.7559 20.0055 54.8761 19.6504 55.3082 19.2869C55.5423 19.0897 55.4607 18.8487 55.1434 18.7516C54.9154 18.6823 54.6681 18.6761 54.4294 18.6415C53.9002 18.1532 53.1054 17.7472 53.8756 16.8553C55.2019 16.8476 56.4942 16.9524 57.504 17.9737C57.4416 18.8671 57.6172 19.7067 57.9052 20.5608C58.0955 21.1246 58.0292 21.7869 58.0015 22.4016C57.9961 22.5248 57.5687 22.7767 57.4663 22.7228C56.914 22.4316 56.4034 22.0619 55.8781 21.7192Z" fill="#B4B089"/>
<path d="M57.5031 17.9751C56.6728 17.9605 55.8725 17.858 55.1062 17.4783C54.6964 17.275 54.2066 17.2334 53.753 17.1194C53.4911 16.8606 53.4996 16.6103 53.7776 16.3692C54.5262 16.3808 55.2741 16.3923 56.0228 16.4039C56.2007 16.2275 56.3755 16.1721 56.5464 16.2375C56.7182 16.303 56.803 16.3654 56.8007 16.4262C57.0456 16.4331 57.2913 16.4393 57.5362 16.4455C57.7264 16.2452 57.9082 16.1852 58.083 16.2653C58.2555 16.3446 58.341 16.4193 58.3387 16.4901C58.3172 16.9923 58.2964 17.4937 58.2748 17.9959C58.0183 17.9882 57.7611 17.9813 57.5031 17.9751Z" fill="#A9A480"/>
<path d="M44.1863 32.7529C44.6577 32.8084 45.1291 32.8631 45.5989 32.9193C46.4777 34.4073 47.8772 35.2484 49.3791 35.9624C50.3311 36.7834 51.2822 37.6052 52.2334 38.4263C52.5053 38.9069 52.778 39.3875 53.0499 39.8681C52.1595 40.3849 52.2997 41.2652 52.2674 42.0847L52.0386 42.3112L51.7174 42.3042L51.4994 42.0677C51.494 41.6934 51.5041 41.3176 51.481 40.9448C51.4209 39.9882 50.8925 39.228 50.11 38.8406C49.3583 38.4686 48.5612 38.1752 47.8141 37.7708C47.7201 37.72 47.3403 37.9765 47.2664 38.1598C47.1324 38.4933 47.0345 38.8945 47.0908 39.2396C47.2109 39.9713 47.4806 40.6783 47.6099 41.4092C47.7039 41.9391 47.4097 42.3581 46.9776 42.6678C46.9013 42.4691 46.8713 42.2641 46.8867 42.0516C46.7519 41.7173 46.4993 41.4624 46.3029 41.1689C45.7923 40.1461 45.2808 39.1233 44.7702 38.0997C44.2965 37.0753 43.8236 36.0502 43.3507 35.0258C44.2873 34.5106 44.1371 33.5955 44.1863 32.7529Z" fill="#A5A07F"/>
<path d="M55.8534 47.5047C55.0185 47.5995 54.4354 47.9799 54.363 48.8849C54.2829 49.8831 54.2698 50.889 54.1373 51.8803C54.0934 52.2107 53.7923 52.5188 53.572 52.8099C53.3956 53.0433 53.1199 53.0533 52.915 52.8222C52.3135 52.1429 52.0046 51.3419 52.0054 50.4276C50.3579 48.7193 51.0096 46.2262 49.9213 44.3269C49.9397 43.2186 50.4789 42.4753 51.4994 42.0679L51.501 42.0717C51.8915 42.4992 52.2334 42.9813 52.8026 43.2047C54.0179 43.3711 54.5741 44.3284 55.2041 45.1964C55.7748 45.5646 55.8688 46.1469 55.9026 46.7561C56.1868 47.0265 56.1846 47.2768 55.8534 47.5047Z" fill="#BEBB9B"/>
<path d="M55.2041 45.1976C54.9122 45.0197 54.5487 44.9018 54.3422 44.653C53.6937 43.8705 52.9713 44.0045 52.1964 44.3688C51.6835 43.6032 51.7104 42.8492 52.245 42.106L52.2673 42.0859C54.0411 42.3725 55.0331 43.3969 55.2041 45.1976Z" fill="#A5A07F"/>
<path d="M55.8533 47.5047C55.8748 47.2559 55.8917 47.0064 55.9033 46.7568C56.5071 47.1042 56.6273 47.6734 56.6142 48.3049C56.36 48.0385 56.1067 47.772 55.8533 47.5047Z" fill="#A09B82"/>
<path d="M53.7276 39.9692C53.75 40.1902 53.7646 40.4128 53.7716 40.6354C53.5359 40.3835 53.301 40.1324 53.066 39.8813C53.2886 39.8898 53.5097 39.9191 53.7276 39.9692Z" fill="#A5A07F"/>
<path d="M85.4559 48.3716C86.3216 46.9983 87.3168 45.7468 88.6592 44.7925C88.9581 44.5799 89.2007 44.1748 88.9596 43.8143C88.7786 43.5432 88.4312 43.2659 88.1231 43.219C87.2305 43.0819 86.4572 42.8023 85.8179 42.126C85.2942 41.5723 85.2827 41.3427 85.9512 40.6457C86.1222 40.467 86.2823 40.2783 86.4479 40.0942C86.9501 40.0989 87.4523 40.1027 87.9545 40.1066C88.6446 40.256 89.3339 40.5163 90.0255 40.5232C90.6571 40.5294 91.1731 40.7474 91.7177 40.9646C90.0348 43.4308 90.0502 43.4192 91.7685 45.7052C92.0496 46.0795 92.1305 46.6048 92.3038 47.0599L92.303 47.0622C91.8193 47.5552 91.7978 48.0628 92.2545 48.5857C92.2607 48.8299 92.2653 49.074 92.2692 49.3182C91.5151 49.2982 90.7595 49.3089 90.0093 49.2458C89.6458 49.2157 89.2792 49.0825 88.9403 48.9354C87.4793 48.303 87.4823 48.2892 86.5873 48.3762C86.213 48.4132 85.8333 48.3755 85.4559 48.3716Z" fill="#B9B598"/>
<path d="M30.2303 15.699C30.553 15.548 30.8657 15.3678 31.2008 15.2515C31.8847 15.0128 32.3176 15.2723 32.467 16.0163C32.5363 16.3637 32.5317 16.7257 32.5609 17.0807C32.2975 17.1131 32.0334 17.1447 31.77 17.177C31.3949 16.6941 30.868 16.49 30.2942 16.3714C30.2357 16.1503 30.2141 15.927 30.2303 15.699Z" fill="#9B9C7F"/>
<path d="M80.4829 37.6331C81.4757 37.6439 82.4693 37.6554 83.4621 37.6662C83.9681 37.6793 84.4749 37.6924 84.981 37.7047C86.3612 37.7679 87.7236 37.8749 89.0876 37.392C90.42 36.9199 91.8295 37.1055 93.1951 37.3497C93.5186 37.4074 93.7866 37.7764 94.0808 38.0013C92.9063 38.7414 91.5662 38.6367 90.2684 38.7468C89.2679 39.1288 88.279 39.1065 87.3031 38.6598C85.4431 38.5604 83.5822 38.4664 81.7222 38.3586C81.1954 38.3278 80.8018 38.0359 80.4829 37.6331Z" fill="#E7E6DA"/>
<path d="M100.154 37.4744C100.153 37.9458 100.152 38.4172 100.152 38.8878C99.5408 38.6089 99.4429 38.0405 99.3521 37.4683C99.6193 37.4713 99.8866 37.4729 100.154 37.4744Z" fill="#C9C4A3"/>
<path d="M97.9866 37.4155C97.7 37.6165 97.4143 37.8168 97.1285 38.0171C97.4143 37.816 97.7 37.6158 97.9866 37.4155Z" fill="#CFCBB2"/>
<path d="M95.6481 36.5386L95.4655 36.8489L95.3276 36.7026L95.6481 36.5386Z" fill="#CFCBB2"/>
<path d="M46.2343 66.2095C47.1747 66.7756 48.169 67.146 49.2912 67.0528C49.8781 67.3994 49.979 67.964 49.9767 68.5755C50.3495 68.9938 50.2948 69.5075 50.2948 70.0081C50.314 70.3655 50.1715 70.6474 49.8897 70.8623C49.1988 71.1272 48.5202 71.4076 47.8078 70.8846C46.7287 70.0913 45.6235 69.3334 44.556 68.5239C44.4712 68.46 44.5252 68.0564 44.6415 67.9216C44.784 67.7576 45.0544 67.6859 45.2831 67.6197C46.0009 67.4125 46.1442 66.8326 46.2343 66.2095Z" fill="#CDC9A5"/>
<path d="M50.9564 63.209C51.1713 63.2583 51.3869 63.2999 51.6041 63.3337C51.6218 64.0739 51.6403 64.8141 51.6588 65.5535C52.0185 66.7088 52.3666 67.8687 52.7409 69.0194C53.0121 69.8527 53.0289 70.7023 52.8279 71.531C52.7524 71.8414 52.3974 72.0832 52.171 72.3551C52.1756 71.1405 52.0655 69.9721 51.5779 68.8122C51.0203 67.4843 50.6753 66.0672 50.2378 64.6893C50.6283 64.2688 50.2902 63.4947 50.9564 63.209Z" fill="#D4D6C4"/>
<path d="M49.889 70.8627C49.902 70.6124 49.912 70.3628 49.9197 70.1125C50.0938 69.8676 50.264 69.7883 50.4304 69.8745C50.5975 69.9608 50.6799 70.0455 50.6776 70.1287L50.673 70.1264C50.8933 70.4075 51.1428 70.6609 51.4024 70.9051C51.1428 71.4719 50.797 72.0165 50.6452 72.6103C50.4211 73.4891 49.8827 73.8395 49.0448 73.8765C48.9993 73.6724 48.86 73.3266 48.9216 73.2858C49.8173 72.695 49.929 71.8131 49.889 70.8627Z" fill="#BFBA98"/>
<path d="M51.9993 76.2534C51.5425 76.4368 51.0974 76.6648 50.626 76.7941C49.7749 77.0267 49.195 76.6309 49.0548 75.7374C48.9978 75.3762 49.037 74.9996 49.0316 74.6299C49.2727 74.8763 49.4969 75.1428 49.7603 75.3616C49.9059 75.4825 50.1392 75.6173 50.2948 75.5811C50.6006 75.5094 50.914 75.1644 51.1628 75.2191C51.6388 75.3223 51.8483 75.7998 51.9993 76.2534Z" fill="#BFBA98"/>
<path d="M50.6784 70.1292C50.4258 70.1238 50.1732 70.1184 49.9205 70.1122C49.939 69.6 49.9575 69.0879 49.9768 68.5757C50.5567 68.9369 50.6723 69.5084 50.6784 70.1292Z" fill="#C6C19D"/>
<path d="M48.5557 64.7557C47.9596 64.4237 47.8333 63.8615 47.8132 63.2461C48.4479 63.5588 48.5611 64.128 48.5557 64.7557Z" fill="#C6C19D"/>
<path d="M49.259 66.2976C49.0171 66.0373 48.7753 65.7762 48.5342 65.5158C48.7052 65.3503 48.8715 65.2994 49.0332 65.3641C49.1942 65.428 49.2736 65.4889 49.272 65.5474C49.2782 65.797 49.2744 66.0473 49.259 66.2976Z" fill="#CDC9A5"/>
<path d="M49.2713 65.5466C49.0256 65.5335 48.7799 65.5235 48.5334 65.515C48.5411 65.2624 48.5489 65.009 48.5566 64.7563C48.7946 65.0205 49.0325 65.2832 49.2713 65.5466Z" fill="#C6C19D"/>
<path d="M49.9212 44.3271C51.3623 45.2645 52.1117 46.4714 51.7589 48.2937C51.6288 48.9645 51.9114 49.7147 52.0054 50.4279C51.6395 50.4064 51.2721 50.4025 50.9094 50.3586C50.2216 50.2754 49.7672 49.8171 49.6378 49.2071C49.4137 48.1504 49.2257 47.0637 49.2296 45.99C49.2311 45.4347 49.6763 44.8809 49.9212 44.3271Z" fill="#CCC8A5"/>
<path d="M92.2546 48.5855C91.5321 47.7991 91.5321 47.7991 92.3031 47.062C92.2869 47.5696 92.2707 48.0772 92.2546 48.5855Z" fill="#C7C3A1"/>
<path d="M95.3369 47.1499C95.2768 47.2539 95.1921 47.4542 95.1598 47.4457C94.9087 47.3825 94.9734 47.2677 95.34 47.1538L95.3369 47.1499Z" fill="#C9C4A3"/>
<path d="M87.3022 38.6597C88.2904 38.6882 89.2794 38.7167 90.2676 38.7459C89.6552 39.5338 88.7749 39.3359 87.9585 39.3752C87.7012 39.3452 87.4447 39.3151 87.1875 39.2843C87.2183 39.0741 87.2568 38.8661 87.3022 38.6597Z" fill="#B9B598"/>
<path d="M100.865 38.9849C101.132 38.9933 101.399 39.0018 101.667 39.0103C101.252 39.4547 101.252 39.4547 100.865 38.9849Z" fill="#C9C4A3"/>
<path d="M53.7777 16.3687C53.7576 16.6182 53.75 16.8686 53.7523 17.1189C53.9779 17.6272 54.2036 18.1347 54.4285 18.6423C53.9294 18.6292 53.4311 18.6161 52.9328 18.603C52.5939 18.0439 52.0702 17.8259 51.4448 17.7935C50.8224 17.7612 50.2917 17.5556 49.9459 16.9995C50.5251 16.1122 51.4217 16.3094 52.2635 16.3209C52.4237 16.522 52.5847 16.5905 52.7487 16.5266C52.9112 16.4634 52.9936 16.398 52.9951 16.3309C53.2562 16.3433 53.5173 16.3556 53.7777 16.3687Z" fill="#9B9574"/>
<path d="M58.3394 16.4893C58.0722 16.4747 57.805 16.4601 57.5377 16.4447C58.3264 15.7284 58.3264 15.7284 59.0465 16.4909C58.8109 16.4978 58.5751 16.497 58.3394 16.4893Z" fill="#A19D76"/>
<path d="M52.9959 16.3305C52.8889 16.6232 52.7026 16.7364 52.4676 16.6116C52.3745 16.5623 52.3305 16.4198 52.2643 16.3205C52.5084 16.3174 52.7518 16.3205 52.9959 16.3305Z" fill="#A9A480"/>
<path d="M56.8014 16.4246C56.5418 16.4177 56.2823 16.4099 56.0227 16.403C56.4255 15.9578 56.4255 15.9578 56.8014 16.4246Z" fill="#A19D76"/>
<path d="M46.6517 52.5428C46.0487 52.2424 45.8639 51.6162 45.5273 51.1064C45.1183 50.4871 44.804 49.73 44.2418 49.3087C43.6934 48.8982 42.8847 48.835 42.19 48.6201C41.6701 47.8484 41.7525 47.0928 42.2446 46.3503C42.7152 46.1401 42.971 46.3588 43.1165 46.7963C43.3946 46.3326 42.7622 46.3819 42.7214 46.0939C42.6066 45.6202 42.7106 45.2112 43.0695 44.8762H43.0726C44.4744 44.4588 44.6354 45.7403 45.2184 46.4443C45.9848 48.4091 46.795 50.3639 46.6517 52.5428Z" fill="#99947B"/>
<path d="M45.2192 46.4437C44.5036 45.9207 43.7889 45.3986 43.0734 44.8756C43.0965 44.3064 43.1049 43.7365 43.1458 43.1696C43.1897 42.565 43.4862 42.1014 44.0091 41.7871C44.1416 41.9981 44.3426 42.1938 44.3935 42.4233C44.6885 43.7588 44.948 45.1028 45.2192 46.4437Z" fill="#A49F81"/>
<path d="M46.3029 41.1694C46.6564 41.3581 46.8681 41.64 46.8866 42.0513C46.6918 41.7578 46.4977 41.4637 46.3029 41.1694Z" fill="#B4B092"/>
<path d="M41.9727 53.4495C41.8734 53.4002 41.7056 53.3671 41.6925 53.3031C41.6509 53.0906 41.5785 52.8133 41.674 52.6569C42.0922 51.9769 42.7137 51.6603 43.524 51.8367C43.6295 51.8598 43.7466 51.9692 43.7959 52.0693C43.8398 52.1586 43.832 52.3096 43.7851 52.4013C43.4084 53.1383 42.6628 53.25 41.9727 53.4495Z" fill="#6E6B59"/>
<path d="M43.0217 46.386C42.1198 46.8982 42.2493 47.7947 42.19 48.6204C41.9335 48.605 41.6777 48.5903 41.4213 48.5749C41.4475 48.0874 41.4859 47.6014 41.4983 47.1146C41.526 46.0163 42.0682 45.287 43.0703 44.8765C43.0541 45.3794 43.0379 45.8831 43.0217 46.386Z" fill="#A49F81"/>
<path d="M74.3552 38.9194C74.6009 38.9302 74.8404 38.9764 75.0723 39.0596C75.0284 39.4101 75.0915 39.8329 74.6148 39.9137C74.5647 39.9222 74.4283 39.5109 74.3606 39.286C74.3259 39.1728 74.3552 39.0419 74.3552 38.9194Z" fill="#908B77"/>
<path d="M72.0199 40.4027C71.9028 40.7454 71.8551 41.1398 71.6502 41.4186C71.413 41.7421 71.0024 41.7305 70.6643 41.514C70.3478 41.3115 70.0975 41.0358 70.1829 40.6099C70.2546 40.2525 70.6382 39.939 70.9801 40.0176C71.3375 40.0992 71.6748 40.2702 72.0199 40.4027Z" fill="#807C68"/>
<path d="M52.2449 42.1062C52.2287 42.8602 52.2125 43.6142 52.1964 44.369C51.2914 43.8075 51.4917 42.911 51.5009 42.0723C51.7489 42.0815 51.9969 42.0931 52.2449 42.1062Z" fill="#B4B092"/>
<path d="M43.5525 47.2031C43.5941 47.5081 43.4038 47.6028 43.2875 47.3702C43.1389 47.073 43.105 46.7171 43.0226 46.3867C43.1212 46.4499 43.2598 46.4907 43.3107 46.5816C43.4185 46.7741 43.5232 46.9875 43.5525 47.2031Z" fill="#A49F81"/>
</svg>
