<svg width="137" height="101" viewBox="0 0 137 101" fill="none" xmlns="http://www.w3.org/2000/svg">
<path d="M86.2611 44.0601C86.2665 44.3119 86.2681 44.563 86.2665 44.8149C85.809 47.5753 83.0216 47.878 81.4135 49.4261C79.6505 50.6453 77.8443 51.7929 76.4656 53.5036C75.4913 54.712 74.1073 54.9515 72.6747 54.504C71.1813 54.038 71.0072 52.7171 71.018 51.4232C71.0311 49.899 71.0643 48.3031 73.3826 48.2238C70.8024 48.0289 69.7488 50.0214 68.3593 51.3847C65.2107 54.4763 64.6662 54.5772 60.9438 52.1895C58.3551 52.5785 56.643 50.0122 54.1191 50.194C53.8326 50.3781 53.526 50.4998 53.1948 50.5675C49.8051 49.8012 50.6046 47.5938 51.5273 45.4703C52.0349 44.3019 53.3804 43.4185 52.5509 41.8835C52.5548 41.5662 52.7396 41.3266 52.9191 41.0856C52.4408 41.0401 52.8798 41.6139 52.5324 41.664C52.5648 42.5698 52.6033 43.5055 51.6167 43.9576C50.439 44.4968 50.077 43.4817 49.6249 42.7708C48.4218 40.8769 47.1041 40.4933 45.358 42.1816C44.6055 42.9086 43.7221 42.8339 43.2707 41.6932C42.1262 38.8004 44.2905 36.9373 45.5113 34.8285C46.4871 33.1425 48.0468 32.7474 49.9245 33.3135C50.0709 32.0526 49.7982 30.5377 50.0608 29.0342C50.7263 25.2333 52.0102 23.9355 55.6902 23.5866C56.7693 23.4842 58.1041 22.8965 58.818 24.1473C59.6167 25.5467 58.6063 26.4849 57.5727 27.2959C57.2653 27.5169 56.9272 27.5493 56.5691 27.4561C56.995 27.6964 57.32 27.4792 57.6373 27.2189C59.7392 27.832 57.9 29.5326 58.5731 30.7048C58.6663 29.7274 58.5169 28.7485 59.4173 28.3025C62.207 26.9208 63.6118 25.7193 60.6989 22.6177C59.5135 21.3561 61.6686 18.2029 60.0488 16.0817C60.0026 15.7875 60.4501 15.6743 60.39 15.5079C60.3261 15.3316 60.0204 15.414 59.8309 15.6235C58.1249 15.3293 57.5803 14.0399 57.2067 12.5997C57.2437 12.0975 57.4093 11.6308 57.598 11.1694C58.1364 10.0757 57.6705 9.27162 56.8471 8.57459C56.5883 8.36355 56.3442 8.13636 56.0977 7.90992C55.8281 7.69889 55.5732 7.474 55.3128 7.24756C55.1757 7.13434 55.0502 7.01497 54.9147 6.90021C54.1298 6.13694 53.6731 5.30357 54.481 4.29537C55.1534 3.45585 55.9791 3.81322 56.8609 3.92875C60.8213 4.44709 63.3283 6.84706 65.2238 10.1135C65.4048 10.4293 65.5319 10.7674 65.619 11.1209C64.5168 14.1624 66.7357 17.3811 64.8457 20.5643C63.9538 22.0662 65.9023 22.831 69.2435 21.5817C67.7847 21.4162 66.2451 22.4667 65.5935 20.9009C65.012 19.5045 66.1088 18.6712 66.9883 17.7061C68.7814 15.739 71.3585 14.7362 72.6393 12.0051C73.7361 9.66522 74.7974 10.1813 76.9262 14.1532C76.8831 13.8882 77.4484 15.2368 77.098 14.0561C76.9555 13.577 77.162 14.2194 77.2251 13.7003C79.8746 12.3732 81.2001 14.6415 82.4663 16.0016C83.9605 17.6067 82.3554 18.8799 81.0738 19.932C79.9878 20.8247 80.4261 22.2772 79.8523 23.3625C78.7131 25.1224 76.3077 25.8464 75.9596 28.3025C75.8372 29.1652 74.839 29.3015 74.0865 29.1929C72.3828 28.9472 71.2861 29.2537 70.6668 31.1723C70.0507 33.0816 68.595 31.1969 67.5467 31.4519C68.9986 31.686 69.8843 32.5356 69.1079 33.9042C68.2507 35.4146 66.7904 36.556 65.3109 37.4356C64.3235 38.0225 63.8944 36.7616 63.135 35.7766C63.4462 39.0037 67.3495 37.6428 67.8278 40.092C68.7305 39.8263 69.4376 39.308 69.6771 38.3729C70.6383 34.622 71.913 35.9691 73.3541 38.0571C73.8239 37.4109 73.1915 35.8005 74.5363 35.7935C76.6274 35.782 75.9388 38.0679 76.8461 39.3295C78.9773 37.0905 79.2508 34.5412 78.9812 31.854C78.7648 29.7005 79.0936 28.0076 81.8047 28.043C83.7132 28.2594 85.4309 28.8956 84.6013 31.2147C84.2956 32.0688 84.5628 31.8947 84.9872 32.0757C86.4367 32.695 87.5134 33.6269 87.6436 35.3268C87.2562 38.2458 85.8944 41.0155 86.2611 44.0601Z" fill="#FEFCE8"/>
<path d="M25.5714 31.1893C27.6717 31.8955 29.2445 33.3766 30.5292 35.0418C32.3022 37.3401 34.5859 39.0607 36.6415 41.0386C37.1375 41.5161 37.4533 41.2912 37.6998 40.2915C37.87 40.2468 38.0395 40.2029 38.2097 40.1575C39.5136 46.534 45.77 49.1334 48.8831 54.1351C48.9263 57.3722 47.8965 60.4068 46.9137 63.4114C46.487 64.7153 45.1053 65.397 43.6704 65.6257C42.5151 64.6491 41.5469 66.6647 40.3963 65.8391C38.0972 61.2849 33.8835 58.6246 29.5449 57.0033C26.0605 55.7009 25.2434 53.7523 25.6007 50.8833C26.032 47.4151 25.1424 44.7078 22.4421 42.5528C22.2441 42.2555 22.0886 41.9359 21.9677 41.5993C21.0557 37.6612 21.0557 37.6613 17.9441 39.1855C17.5852 39.3033 17.2186 39.3434 16.8419 39.3249C16.0194 39.1269 15.2114 38.5916 15.7259 37.7906C17.4366 35.1257 18.5472 31.7815 22.352 31.2016C23.4234 30.9659 24.5008 32.0434 25.5714 31.1893Z" fill="#FDFAE5"/>
<path d="M36.9766 38.7511C36.8688 38.2928 36.8295 37.8029 36.6385 37.3832C36.2827 36.6022 36.1926 35.7966 36.2126 34.9601C35.8814 30.1333 36.7694 25.3712 36.9828 20.5736C37.2439 19.2065 37.5157 17.8439 38.4569 16.7379C40.203 15.6119 40.3339 13.5832 41.1788 11.9458C43.417 7.60798 46.1344 3.78626 51.6313 3.40039C51.9663 3.54519 52.2128 3.78011 52.3583 4.11822C52.4407 4.98624 51.86 5.74331 51.9694 6.95406C53.2756 6.62904 54.6628 5.94436 55.9282 6.90865L55.9305 6.9094C56.1739 7.1705 56.4273 7.42235 56.6869 7.66804C57.0989 8.13555 57.142 8.6262 56.7839 9.14301C55.1179 9.64287 53.412 10.0457 52.3014 11.5945C50.8156 13.6648 49.8267 16.2782 46.618 16.4337C45.9179 16.4676 45.4427 17.4612 45.3995 18.2129C45.2486 20.8593 43.6396 22.5607 41.5416 23.9501C43.7328 25.3526 45.7145 24.034 47.6778 24.2073C48.5943 25.0885 49.4447 26.1144 49.8344 27.262C50.4729 29.142 51.1784 31.7361 48.5351 32.303C44.0448 33.2657 42.5699 36.4775 41.326 40.1436C39.7979 41.2273 38.966 39.4704 37.7506 39.2702C37.4503 39.1639 37.193 38.9875 36.9766 38.7511Z" fill="#FDF5DB"/>
<path d="M136.322 58.4701C136.326 58.7227 136.327 58.9753 136.323 59.2279C135.704 60.4934 135.703 61.7581 136.327 63.022C136.33 63.2738 136.33 63.5257 136.323 63.7767C135.587 64.6186 135.911 66.5834 133.893 66.0697C132.543 64.004 133.852 61.9136 133.928 59.8526C134.041 56.8188 133.301 54.5197 130.462 52.9724C128.048 51.6561 126 49.7275 123.647 48.3057C121.053 46.7391 120.342 47.1766 120.104 50.1149C120 51.3958 119.871 52.7521 118.571 53.3213C117.196 53.9236 116.368 52.9562 115.434 51.9804C113.407 49.8608 114.483 52.6974 113.948 53.0109C113.481 53.8597 113.416 55.3777 111.79 54.3356C111.189 54.4442 112.183 52.4263 110.787 53.5908C110.406 53.654 110.019 53.6633 109.666 53.53C105.634 52.0019 105.666 52.0089 104.376 55.8991C103.815 57.5944 102.653 58.9006 101.247 56.8988C99.8837 54.9572 100.099 56.8642 99.7804 57.2901C99.0295 58.296 98.2293 59.0562 96.9893 58.0811C96.0497 57.3417 95.2132 56.3582 96.3169 55.246C97.3412 54.2132 96.5649 52.7351 97.463 51.7524C99.6704 50.4546 100.129 47.735 102.321 46.2216C106.348 43.4396 106.182 43.1985 108.907 46.7699C110.905 41.6519 110.906 41.6474 117.112 42.7372C117.727 42.845 118.328 43.0869 118.868 42.5647C119.78 42.9975 120.658 43.532 121.61 43.8424C123.825 44.5664 125.635 45.8673 127.244 47.4993C127.509 47.7689 127.794 48.0215 128.047 48.3026C129.171 49.5519 130.495 50.4916 132.15 50.8751C133.59 51.2094 134.635 52.0212 135.385 53.2766C135.576 53.5955 135.878 53.8489 136.139 54.123C136.612 54.6198 136.738 55.1536 136.541 55.8429C136.37 56.4383 136.385 57.0853 136.317 57.7099C136.118 57.8801 136.052 58.0495 136.12 58.2182C136.187 58.3861 136.254 58.4701 136.322 58.4701Z" fill="#FDF8E1"/>
<path d="M118.867 42.5631C118.568 42.7826 118.295 43.1308 117.965 43.1978C117.098 43.3734 116.217 43.348 115.358 43.0368C114.411 42.6941 113.452 42.3837 112.49 42.0864C111.816 41.8776 110.9 42.4561 110.73 43.1423C110.452 44.263 110.514 45.3828 110.666 46.5135C110.818 47.6364 110.778 47.648 109.5 47.8683C109.011 47.953 108.52 48.0785 108.028 48.0832C107.843 48.0855 107.614 47.829 107.476 47.6395C107.172 47.2213 107.134 46.7338 107.099 46.2185C107.066 45.7448 106.844 45.2704 106.638 44.8275C106.401 44.3153 105.755 44.2337 105.353 44.5079C104.395 45.1618 104.248 46.4788 103.129 47.031C102.235 47.4716 101.439 48.1194 100.625 48.7109C100.178 49.0359 100.058 49.4988 100.269 50.0372C100.36 50.2682 100.437 50.5162 100.455 50.7611C100.524 51.6738 99.5847 52.3839 98.6805 52.0974C98.3224 51.9842 97.9873 51.7986 97.6415 51.6453C97.4805 51.5714 97.3204 51.4982 97.1579 51.4266C95.1469 47.4778 96.0711 45.3366 100.975 42.2712C99.3798 43.2963 97.4536 43.666 95.9833 44.9246C94.6493 46.0675 93.2691 46.0668 91.8058 45.2396C90.6859 44.0943 91.9928 43.3911 92.3071 42.5061C92.6721 41.9192 93.2429 41.7937 93.876 41.8099C94.1225 41.9084 94.3844 42.5308 94.6069 41.7891C94.9073 41.5719 95.19 41.1991 95.5104 41.1645C97.1309 40.9881 98.7637 40.9341 100.316 40.3496C100.542 40.2648 100.815 40.2895 101.066 40.2887C103.835 40.2849 106.611 40.184 109.372 40.3265C110.855 40.4027 112.325 40.8633 113.783 41.216C115.489 41.6273 117.174 42.111 118.867 42.5631Z" fill="#FDF5DC"/>
<path d="M1.33702 39.5267C1.33317 39.0369 1.3301 38.547 1.32471 38.0572C1.31777 37.4079 1.53109 36.8634 2.06792 36.4683C3.84324 35.1281 4.74667 32.5919 7.46009 32.5356C9.94938 35.407 13.6048 36.9011 16.0671 39.8117C16.1626 40.1606 16.1788 40.5118 16.1087 40.8684C15.7505 41.7742 14.9934 42.2602 14.1916 42.7038C13.8666 42.8702 13.5208 42.978 13.1627 43.0473C12.7984 43.0735 12.4417 43.0281 12.0936 42.921C11.7755 42.7562 11.4999 42.5336 11.2642 42.2632C10.2175 41.1996 10.3083 39.4351 8.85109 38.2189C7.8791 39.6531 7.18513 40.8546 8.52682 42.2224C9.21769 42.9264 9.00202 43.5472 8.6277 44.2419C8.08471 44.9906 7.43551 45.6106 6.56672 45.9726C5.61321 46.2398 4.74982 45.934 3.8949 45.5605C0.501388 44.6285 1.12676 41.9898 1.33702 39.5267Z" fill="#FBF0D2"/>
<path d="M134.048 66.0521C134.63 65.8087 135.054 65.3974 135.406 64.8767C135.673 64.4839 136.015 64.1419 136.323 63.7769C136.47 65.2541 135.888 66.5072 135.033 67.631C133.376 69.8106 131.185 71.3041 128.564 72.0073C126.512 72.5587 124.437 73.0616 122.239 72.9191C120.369 72.7975 118.442 72.6719 116.646 73.5006C114.002 73.6886 111.359 73.7949 108.721 73.4105C107.207 72.6141 105.482 73.0732 103.903 72.5872C102.345 72.1089 100.742 71.7746 99.1551 71.3942C98.9148 71.3364 98.6521 71.3726 98.3994 71.3649L98.3963 71.3618C97.1856 70.2812 95.3656 71.9125 94.2419 70.4376C93.464 69.2884 92.549 68.3966 91.0779 68.1C89.415 67.765 88.4077 66.8292 88.9984 64.9283C91.0726 63.4996 93.2584 64.4431 94.4067 65.7886C96.8698 68.6738 100.058 69.2029 103.383 69.7598C104.375 69.9261 105.313 70.2966 106.269 70.5962C113.84 72.1744 121.232 70.7202 128.618 69.2761C130.786 68.8502 131.847 66.4734 134.048 66.0521Z" fill="#FCF5D7"/>
<path d="M1.33708 39.5269C1.78379 39.8265 2.06724 40.2516 1.99022 40.78C1.91937 41.2675 1.66901 41.7258 1.56658 42.2118C1.45644 42.7371 1.63742 43.2492 2.07258 43.5342C2.8012 44.0125 3.59226 44.3968 4.3563 44.8204C4.02434 47.5315 4.36239 50.1926 5.04941 52.8074C6.00446 56.4428 7.81214 59.4874 11.2703 61.3028C11.59 61.4399 11.8958 61.6031 12.2 61.7687C12.6667 61.9975 13.1366 62.2201 13.6241 62.4065C14.0916 62.5466 14.5629 62.6737 15.0174 62.8424C16.2212 63.2891 18.0713 63.3823 17.948 64.9951C17.8464 66.3268 16.0765 66.2305 14.9466 66.5679C14.6054 66.6202 14.261 66.6187 13.9183 66.5848C13.2628 66.4723 12.6383 66.2367 12.0021 66.0457C11.6909 65.9587 11.3905 65.8392 11.0986 65.6998C10.9599 65.622 10.8229 65.5358 10.6835 65.458C10.4139 65.2893 10.159 65.0976 9.90942 64.9004C8.87966 64.3227 8.48532 63.3007 8.08405 62.2832C7.4132 61.9467 6.92797 61.4337 6.61604 60.7529C6.30565 60.0743 5.83893 59.5436 5.1627 59.2109C5.01328 58.7426 4.93314 58.2358 4.699 57.8145C4.15909 56.8402 3.50134 55.9314 2.9699 54.9532C2.08109 53.3165 1.15611 51.6791 1.25161 49.7143C0.291942 47.3313 0.566859 44.8312 0.53143 42.3566C0.516796 41.3153 0.883427 40.4172 1.33708 39.5269Z" fill="#F4E6C2"/>
<path d="M69.5862 5.38859C70.2108 5.40246 70.77 5.54722 71.1012 6.14798C72.5615 7.07607 74.7074 6.02092 75.8765 7.79778C75.8896 8.1875 75.8372 8.71047 75.5445 8.82446C72.6532 9.95126 69.3952 10.0498 66.8605 12.2703C66.299 12.7625 65.5665 11.3646 65.032 10.7007C64.6215 6.72025 58.8297 3.03948 54.5196 4.11469C53.6262 4.33727 52.8737 4.64301 52.1405 3.88359L52.135 3.87513C53.0415 1.49905 55.1696 1.76711 57.0212 1.80639C60.2291 1.87416 63.3938 2.44873 66.5293 3.13652C67.6083 3.80582 68.6966 4.46204 69.5862 5.38859Z" fill="#FCF5DA"/>
<path d="M86.261 44.0607C86.1447 44.1015 86.0308 44.1562 85.9106 44.1824C85.1304 44.3495 84.8354 44.1939 84.9664 43.691C85.2444 42.6235 85.4416 41.5252 85.8259 40.497C86.1455 39.6421 86.2472 38.8634 85.9676 37.9838C85.8767 37.6973 86.0732 37.2776 86.2303 36.9648C86.4498 36.5281 86.7556 36.1346 87.0244 35.7217C86.3705 32.5254 86.9989 29.3444 87.1298 26.1612C86.8888 25.4911 86.5337 24.8788 86.184 24.2603C85.4207 21.6956 84.7808 19.1308 86.3104 16.603C89.5198 17.6389 88.7411 20.769 89.6245 23.0088C89.968 23.8806 89.3572 24.9789 90.0473 25.8562C90.0319 26.229 90.102 26.631 89.9873 26.9699C89.3788 28.7629 89.204 30.6007 89.3049 32.4784C89.3865 33.9949 89.1855 35.4429 88.4215 36.8015C88.1249 37.3299 87.8369 37.9699 87.8569 38.5484C87.9054 39.9678 87.1761 41.1886 87.0174 42.5411C86.7463 42.7752 86.5198 43.0517 86.2757 43.3121C86.2726 43.5624 86.2679 43.8111 86.261 44.0607Z" fill="#FCF5D6"/>
<path d="M66.5292 3.13655C66.2242 3.31524 65.8191 3.72113 65.6289 3.63795C64.0145 2.92937 62.1615 3.33449 60.5856 2.51499C58.6085 2.48341 56.6245 2.34786 54.6566 2.46493C53.7039 2.52192 52.7495 3.00101 52.1357 3.87596C49.8243 3.66724 47.9566 4.52906 46.3939 6.19808C45.445 7.21167 44.4453 8.17985 43.4525 9.15107C42.5229 10.0607 41.8227 11.1505 41.6363 12.4036C41.4615 13.5797 41.0294 14.5494 40.3532 15.4898C39.8587 16.1784 40.1114 16.9255 40.4202 17.6487C40.5026 17.8412 40.4202 18.1162 40.3755 18.3465C40.3332 18.566 39.7793 18.4959 39.3634 18.2856C38.7172 17.9575 38.5324 17.3876 38.4569 16.7398C38.5339 16.3709 38.5409 15.9681 38.7003 15.64C39.8025 13.3779 40.9593 11.1428 42.0507 8.87531C42.6707 7.58754 43.5633 6.52234 44.731 5.77063C45.6906 5.15293 46.5703 4.46361 47.4352 3.73423C47.7148 3.49855 48.0753 3.26438 48.4226 3.21971C50.8202 2.91317 52.9907 1.8611 55.2712 1.17485C55.8935 0.987691 56.5167 0.833623 57.1067 1.10781C58.1795 1.60614 59.3133 1.68549 60.4362 1.57612C62.6752 1.35893 64.6584 1.99357 66.5292 3.13655Z" fill="#F7EBCB"/>
<path d="M90.0474 25.8565C89.6584 25.5384 89.3465 25.1633 89.3465 24.6357C89.3465 23.3918 89.0854 22.2188 88.4631 21.1336C88.031 20.3803 87.8046 19.5716 87.7422 18.7013C87.6752 17.7532 87.0922 17.1586 86.2704 16.7642C83.4792 15.6967 81.9618 13.1458 79.9185 11.2234C78.5606 9.94641 76.9987 8.94747 75.6524 7.67664C74.132 7.37164 72.6648 6.81785 71.0912 6.74468C70.8694 6.73467 70.881 6.36882 71.1028 6.147C72.8619 6.14469 74.6364 6.00298 76.3208 6.70463C78.0807 6.17319 79.0689 7.5719 80.3236 8.30436C82.2591 10.4563 84.5828 12.2124 86.5098 14.372C87.8585 15.8839 88.9853 17.5167 89.5899 19.4977C89.851 20.3518 90.0928 21.1775 90.0805 22.0725C90.062 23.3341 90.0574 24.5949 90.0474 25.8565Z" fill="#F9F0CF"/>
<path d="M92.3094 42.5063C92.6329 42.7289 92.793 43.0147 92.5551 43.3767C92.2354 43.8634 91.8842 44.3294 91.5469 44.8046C90.8992 46.0085 89.6699 46.4968 88.614 47.2023C88.3406 47.371 88.0555 47.5165 87.7659 47.6536C87.1898 47.9363 86.6145 48.222 86.0708 48.5655C84.7945 49.3065 83.8256 50.4448 82.6025 51.2451C82.3591 51.4245 82.1035 51.5932 81.8547 51.7634C81.7461 51.8605 81.626 51.9498 81.5174 52.0484C81.3294 52.2725 81.1377 52.4936 80.9628 52.7315C80.8088 52.9919 80.6363 53.236 80.4576 53.4817C80.2727 53.7367 80.0632 53.9654 79.8399 54.1872C79.7197 54.2951 79.5964 54.3944 79.4739 54.5015C79.2036 54.6994 78.9056 54.8311 78.5828 54.9158C78.4165 54.8873 78.2524 54.8565 78.0853 54.825C77.8003 54.6232 77.5877 54.3659 77.4514 54.044C77.1518 51.2813 80.1063 50.6281 80.9689 48.6187C82.725 47.3378 84.6882 46.3443 86.2656 44.8146C86.5159 44.8008 86.7655 44.7777 87.0143 44.7454C87.2923 44.5451 87.5472 44.3186 87.7736 44.0606C88.446 43.7348 89.1315 43.4345 89.787 43.0771C90.5803 42.645 91.4267 42.5133 92.3094 42.5063Z" fill="#FAE7BE"/>
<path d="M25.5714 31.1886C25.1956 31.7393 24.6526 31.9334 24.0103 31.928C23.5258 31.9242 23.0406 31.9311 22.5562 31.9326C18.4256 31.539 14.3666 32.8207 10.2352 32.4656C9.81081 32.3162 9.50655 32.0366 9.31785 31.6292C9.27395 31.1832 9.39261 30.785 9.67296 30.4361C10.6742 30.3961 11.6601 30.3699 12.6498 30.0757C15.2315 29.3093 17.8802 29.5388 20.4858 29.8931C21.9592 30.0934 23.3817 30.6633 24.8297 31.0584C25.0708 31.1239 25.3234 31.1462 25.5714 31.1886Z" fill="#F9F0D3"/>
<path d="M36.9828 20.5737C37.197 20.871 37.5512 21.1475 37.6013 21.4702C37.8116 22.8281 37.9317 24.2337 37.4418 25.5338C36.9836 26.7492 36.9812 27.9692 36.9689 29.2138C36.9543 30.7095 36.9505 32.2061 36.9174 33.7018C36.9058 34.2278 36.6047 34.6291 36.2119 34.9611C35.1606 32.042 35.4147 29.012 35.4925 26.0044C35.5086 25.3944 35.7521 24.7852 35.9223 24.1844C36.2643 22.9775 36.6285 21.7776 36.9828 20.5737Z" fill="#F8EDCD"/>
<path d="M7.39395 32.6985C6.97804 32.9742 6.58138 33.2861 6.14237 33.5195C4.3917 34.4483 3.19328 35.7923 2.78045 37.7779C2.70651 38.1345 2.46853 38.1746 2.27444 37.9181C2.20512 37.8264 2.14504 37.7071 2.13426 37.5946C2.0996 37.2203 2.08875 36.8444 2.06873 36.4686C2.29439 36.0303 2.51856 35.5921 2.745 35.1546C3.8772 32.9665 5.73418 31.9868 8.13951 31.9229C8.1734 32.09 8.20726 32.2564 8.24115 32.4235C8.03088 32.7393 7.74516 32.8202 7.39395 32.6985Z" fill="#F4E6C2"/>
<path d="M136.326 63.0221C135.62 62.5707 135.569 61.8598 135.569 61.1258C135.569 60.3918 135.617 59.6801 136.323 59.228C136.325 60.4927 136.326 61.7574 136.326 63.0221Z" fill="#FCF5D7"/>
<path d="M9.66301 31.1813C9.66224 31.4308 9.66144 31.6796 9.6599 31.9292C9.15388 32.332 8.64788 32.4075 8.14263 31.9268L8.13953 31.9237C8.38907 31.6626 8.63863 31.4016 8.88895 31.1405C9.16006 30.8979 9.41885 30.9117 9.66301 31.1813Z" fill="#F4E6C2"/>
<path d="M36.9766 38.7515C37.2199 38.7553 37.4642 38.7584 37.7076 38.76C38.1782 39.2521 38.1935 39.7528 37.7383 40.2642L37.6999 40.2904C37.1191 39.9368 36.9758 39.3784 36.9766 38.7515Z" fill="#FDFAE5"/>
<path d="M94.6092 41.7896C94.6893 41.9605 94.7702 42.1323 94.8503 42.3033C94.6515 42.3056 94.4182 42.3749 94.2641 42.2933C94.097 42.2047 94.0031 41.9767 93.8783 41.8096C94.1217 41.7996 94.365 41.7926 94.6092 41.7896Z" fill="#FAE7BE"/>
<path d="M87.7737 44.061C87.5203 44.2898 87.2677 44.5185 87.0143 44.7465C87.2677 44.517 87.521 44.289 87.7737 44.061Z" fill="#FEFCE8"/>
<path d="M9.66297 31.1811C9.40495 31.1673 9.14693 31.1542 8.88892 31.1403C9.15001 30.9054 9.41107 30.6705 9.67294 30.4355C9.66755 30.6843 9.66451 30.9323 9.66297 31.1811Z" fill="#FDF7DF"/>
<path d="M136.322 58.4701C135.858 58.0928 135.857 58.0928 136.316 57.71C136.318 57.9626 136.32 58.216 136.322 58.4701Z" fill="#FEFCEA"/>
<path d="M40.7575 66.0508C40.9793 65.7928 41.2312 65.5548 41.4138 65.2729C41.6348 64.9317 41.4245 64.2177 42.1338 64.3194C42.6252 64.3895 42.8494 64.86 43.035 65.2937C43.3107 65.3953 43.437 65.5933 43.4185 65.8813C43.4555 66.2364 43.5511 66.5691 43.8407 66.8164C44.054 66.9435 44.2511 67.0851 44.4537 67.2369C44.6609 67.4279 44.7926 67.6528 44.8588 67.9185C45.0483 68.7619 46.199 68.5901 46.4177 69.3988C44.4583 74.1371 41.6772 76.0234 37.6036 75.3995C37.1237 75.4218 36.6338 75.4711 36.2133 75.153C36.2118 74.8973 36.2102 74.6416 36.2087 74.3867C31.5852 75.3525 27.6387 77.5152 24.715 81.2569C23.9548 82.2296 23.5342 83.4766 22.4744 84.2522C18.9862 85.9197 15.87 84.6835 12.9371 82.8604C11.8811 82.2035 10.8645 81.4594 9.77618 80.841C8.88428 78.8808 10.8414 78.4264 11.5969 77.3073C12.4757 76.0049 13.876 75.0336 11.6447 73.1058C9.6753 71.4044 10.1042 68.1111 9.72992 65.4831C9.6375 64.8362 10.6134 64.8878 11.1895 65.286L11.1864 65.2836C11.4436 65.5147 11.7332 65.6934 12.0552 65.8174C12.1954 65.9106 12.337 66.0069 12.478 66.1001C13.4669 66.8957 13.3221 68.2951 13.9468 69.281C15.1074 68.852 15.0227 67.498 16.0317 67.1729C19.5153 67.2407 22.7648 68.5308 26.1491 69.0915C26.7437 69.311 27.336 69.586 28.0007 69.3126C28.3195 69.2086 28.6415 69.1408 28.9711 69.0884C30.6918 68.9359 32.4632 69.0453 33.9751 67.9801C34.2562 67.7807 34.5528 67.6058 34.8531 67.4364C36.7933 66.8626 38.6379 65.8659 40.7575 66.0508Z" fill="#FEFCE9"/>
<path d="M9.67685 80.4417C10.9877 80.5634 12.1607 81.1025 13.0395 82.0175C14.0816 83.102 15.3101 83.5225 16.7303 83.6843C17.2186 83.7397 17.673 84.0678 18.1629 84.1433C19.6856 84.3766 21.1837 84.3227 22.5569 83.4909C24.3492 82.5497 25.1672 80.5895 26.7646 79.4558C28.0493 78.5439 28.1525 78.6225 28.6346 80.4679C28.2711 81.3051 27.6388 81.9143 26.9086 82.418C25.9805 83.058 24.9792 83.5995 24.0873 84.2842C21.4532 86.3076 19.0255 86.0457 16.2605 85.2939C14.5445 84.828 12.9178 84.2088 11.6639 82.8601C11.4144 82.5913 11.0748 82.3903 10.7482 82.2116C6.69231 79.9942 5.02253 78.7103 2.44004 75.9283C1.73916 75.1735 1.15222 74.3432 0.869552 73.3851C0.318088 71.5143 0.199557 69.6797 1.837 68.1662C3.67393 66.4687 5.21583 64.443 7.46327 63.1992C7.75133 63.0397 7.8815 62.5961 8.08483 62.2842C8.86504 63.0328 9.64604 63.7815 10.427 64.5293C8.5331 65.6977 6.43965 66.5357 4.78449 68.1015C2.86053 69.9215 2.70731 71.7446 4.06826 74.076C5.54396 76.6015 8.60088 77.6358 9.67685 80.4417Z" fill="#FAF1D1"/>
<path d="M36.2133 75.1526C36.4659 74.903 36.7193 74.6535 36.972 74.4032C38.6949 74.3477 38.1281 75.5931 37.9525 76.368C37.6336 77.7751 36.7463 79.0105 36.5661 80.4778C36.657 84.8925 37.7221 88.8329 41.8096 91.316C43.7882 95.1979 48.1214 96.5434 50.8109 99.6596C50.4721 100.618 49.8621 100.692 49.0765 100.192C46.3662 98.8355 43.9408 97.1056 41.8674 94.8728C40.6782 93.592 39.4913 92.298 37.9001 91.45C37.1214 91.0357 36.6077 90.2893 36.1872 89.496C35.3007 87.8247 34.4419 86.1611 34.6691 84.1647C34.7245 83.6787 34.6283 83.165 34.5382 82.6752C34.3603 81.7062 33.3259 80.9029 33.7118 79.8808C34.0075 79.0983 34.7477 78.4937 35.2129 77.7605C35.4 77.4655 35.3823 77.0396 35.4578 76.6737C35.725 76.4388 35.9537 76.1693 36.1779 75.8958C36.1856 75.6478 36.1971 75.3998 36.2133 75.1526Z" fill="#FAEFCF"/>
<path d="M49.0765 100.193C49.7004 100.158 50.2819 100.039 50.6123 99.4208C52.0364 98.7215 53.5768 98.7307 55.1072 98.6737C59.1038 98.254 62.4172 96.8584 63.8305 92.6769C64.6315 90.3078 66.5678 90.4827 68.4879 90.6398C68.8176 90.8169 69.0094 91.0942 69.0856 91.4569C69.0363 92.0908 68.444 92.2472 68.0789 92.6038C67.2333 94.1388 65.7876 95.1316 64.6454 96.3993C63.7489 97.3944 62.6089 98.1723 61.9874 99.41C61.5091 99.5256 61.0262 99.6249 60.5541 99.7605C56.509 100.919 54.0197 101.197 50.3404 100.881C49.8236 100.836 49.42 100.565 49.0765 100.193Z" fill="#FBF5D8"/>
<path d="M28.6345 80.4674C28.586 80.231 28.5945 79.9568 28.4712 79.7689C28.3703 79.6148 27.9975 79.4361 27.9421 79.4854C27.4107 79.9675 26.9139 80.4882 26.4217 81.012C25.3403 82.1627 24.2382 83.2756 22.5569 83.4905C22.8519 82.5785 24.0002 82.0502 23.7175 80.8618C23.6729 80.6746 23.8392 80.3789 23.9941 80.2117C25.1702 78.9355 26.3585 77.6955 27.9991 76.9553C30.0285 76.0395 32.0257 75.0467 33.8341 73.7127C34.2185 73.4293 34.7222 73.2861 35.1912 73.1443C35.621 73.015 35.886 73.3092 36.0393 73.6673C36.1348 73.8907 36.1555 74.1449 36.2094 74.3852C34.7507 75.2593 33.2696 76.0989 31.8386 77.0169C30.4846 77.8865 29.6782 79.2936 28.6345 80.4674Z" fill="#FDF9DE"/>
<path d="M40.7474 40.2891C41.2126 39.3849 41.7079 38.4891 40.7444 37.5757C40.5719 37.4116 40.4748 37.1628 40.3608 36.9441C40.1821 36.6006 40.3339 36.0723 40.6481 35.986C41.1226 35.8558 41.6031 35.7449 42.0861 35.6525C42.7338 35.5292 43.1983 35.128 43.6481 34.6897C44.1533 34.1983 44.1094 33.6176 44.054 32.9729C44.0008 32.3599 44.2588 32.1435 44.9096 31.9648C45.7415 31.7368 46.5294 31.5743 47.4528 31.7499C49.0071 32.0464 50.08 30.8102 49.8081 29.2783C49.6286 28.2678 49.2174 27.3497 48.4179 26.7066C47.62 26.065 47.5922 25.2301 47.5853 24.3505C50.479 20.3455 52.7518 15.9161 55.9489 12.1159C56.2747 11.9357 56.6236 11.8771 56.9918 11.9203C57.1435 12.0196 57.2952 12.1198 57.4469 12.2191C58.0107 13.0417 58.5561 13.8781 59.146 14.6815C59.4618 15.1112 59.9732 15.2037 60.4792 15.2514C60.5208 15.8876 60.6803 16.4722 61.1101 16.9743C61.5953 17.5412 62.0628 18.125 62.5103 18.7219C62.7545 19.0477 62.6821 19.8356 62.3863 20.126C62.1221 20.3856 61.7956 20.5804 61.5237 20.8331C60.7535 21.5486 60.879 22.794 61.8009 23.3215C62.2276 23.5657 62.7382 23.6597 63.1742 23.8915C63.8997 24.2766 64.1947 24.9367 64.2424 25.7408C64.2786 26.3593 64.1054 26.8291 63.6101 26.9007C62.7113 27.0309 61.8949 27.3228 61.3249 28.0398C60.9075 28.5643 60.3598 28.7738 59.7776 29.0157C59.1945 29.2583 59.1507 29.5756 59.5034 30.1987C59.6705 30.4944 60.1496 30.7409 59.6783 31.1052C59.0891 31.5596 58.4667 31.9771 57.8236 32.3506C57.658 32.4469 57.3076 32.3915 57.1404 32.2705C56.9671 32.1458 56.8216 31.8538 56.827 31.639C56.8362 31.2808 56.9132 30.8942 57.0758 30.5784C57.3022 30.1386 57.6827 29.7782 57.9099 29.3392C58.3019 28.5813 58.1733 27.8981 57.4447 27.3821C57.4647 26.7328 57.6418 26.1436 58.0731 25.6399C58.402 25.2555 58.7032 24.8604 58.3712 24.3182C58.161 23.9755 57.8628 23.9477 57.0618 24.3544C56.5997 24.5893 56.1823 24.8165 55.6485 24.5908C54.7305 24.2034 53.9434 24.5962 53.1316 24.996C52.1588 25.4758 51.4971 26.1189 51.3739 27.2642C51.3077 27.8812 51.0628 28.4773 50.918 29.0873C50.8317 29.4516 50.6238 29.886 50.7416 30.1818C51.2846 31.5443 50.3511 32.9306 50.864 34.2777C50.8879 34.3401 50.7455 34.5126 50.6461 34.5596C50.5529 34.6042 50.3881 34.5896 50.2972 34.5326C49.8782 34.2731 49.4392 33.7224 49.0718 33.7701C48.2192 33.8803 47.3758 34.2168 46.5895 34.5888C46.3291 34.7121 46.1704 35.2119 46.1103 35.5639C45.9763 36.3541 45.6722 36.9811 44.969 37.4255C44.1595 37.9377 43.7913 38.7202 43.8121 39.6753C43.8259 40.303 43.8544 40.9307 43.8953 41.5576C43.9022 41.6693 43.9938 41.8642 44.0562 41.868C44.2919 41.8834 44.5746 41.9088 44.7633 41.7995C45.5851 41.325 45.9441 40.541 46.1512 39.6437C46.2444 39.2409 46.6819 39.17 47.0501 39.455C47.3489 39.686 47.6022 39.9802 47.9149 40.1874C48.2184 40.3892 48.5612 40.6164 48.9054 40.6549C49.4661 40.7173 49.8497 40.9107 50.0469 41.4498C50.2626 42.0398 50.482 42.6297 50.7223 43.2105C50.8417 43.4977 51.069 43.5786 51.3224 43.4623C51.4325 43.4123 51.5711 43.3568 51.6235 43.2629C51.8045 42.9386 52.0024 42.6113 52.1033 42.2585C52.2458 41.7571 52.4353 41.3127 52.8951 41.0277C52.9567 41.6793 53.2802 42.1607 53.7215 42.6505C54.551 43.5709 54.4663 44.2025 53.4851 44.717C52.919 45.0143 52.3659 45.2384 52.168 45.9231C52.0286 46.403 51.8461 46.8728 51.6551 47.3349C51.1691 48.5079 51.7159 49.8881 53.2794 50.0822C53.4041 50.0976 53.529 50.1115 53.653 50.1261C53.8502 49.9582 53.9156 49.7911 53.8509 49.6224C53.7862 49.4537 53.7207 49.3698 53.6553 49.3698C53.9757 48.7783 54.5372 48.5195 55.141 48.3747C55.3205 48.3315 55.7063 48.4756 55.7417 48.605C56.2131 50.3056 57.7204 50.6583 59.0737 51.1982C59.2778 51.2799 59.555 51.2082 59.7915 51.169C60.2759 51.0881 60.7557 50.9811 61.2371 50.8848C61.412 53.0991 59.1753 54.3353 58.2511 53.904C55.6008 52.6678 53.2825 55.1571 50.8541 54.0048C50.5329 53.8362 50.2355 53.6328 49.9459 53.4133C49.6448 53.2054 49.3599 52.9789 49.0718 52.7533C46.0627 50.1554 42.4319 48.1421 40.9184 44.1309C40.4417 42.8685 39.586 41.6254 40.7474 40.2891Z" fill="#FDFAE4"/>
<path d="M75.6515 7.67714C76.6912 7.62554 77.6456 7.77418 78.4342 8.57211C80.8303 10.9982 83.2565 13.3943 85.6549 15.8189C85.9137 16.0808 86.0678 16.4467 86.2703 16.7648C86.3088 17.9963 86.1494 19.2371 86.5268 20.454C86.6285 20.7806 86.603 21.2073 86.4821 21.5315C86.0831 22.6005 86.6077 23.4578 87.0251 24.3497C86.6824 25.1538 85.906 26.1751 87.7853 25.8647C88.2027 26.1866 88.5424 26.5902 88.4353 27.1355C88.242 28.1183 88.0333 29.1057 87.7229 30.0561C87.3209 31.2869 87.2516 32.4576 87.6867 33.713C87.9363 34.434 87.7653 35.2234 87.0251 35.7225C86.9758 34.3053 86.1024 33.4766 84.9548 32.8573C84.5559 32.6417 83.8796 32.7849 83.8102 32.1741C83.7748 31.8607 84.1091 31.5203 84.2146 31.1737C84.5088 30.2063 83.8673 29.1727 82.8322 28.9617C82.4709 28.8885 82.0888 28.9178 81.7161 28.9C81.324 28.5411 81.1869 28.0798 81.1746 27.5692C81.1923 26.7866 80.9998 26.0364 80.7996 25.2924C80.4969 25.1368 81.2894 24.5946 80.5469 24.59C80.1287 24.5299 79.8037 24.3158 79.5526 23.98C79.5133 23.8514 79.4764 23.722 79.4386 23.5933C79.4325 22.4611 79.4694 21.3344 79.0104 20.2453C78.8101 19.7708 79.1829 19.308 79.7351 19.1493C80.3351 18.9776 80.9729 18.8874 81.5259 18.6202C81.968 18.4068 82.2845 17.9639 82.3238 17.414C82.3508 17.0328 82.3761 16.576 81.9933 16.4066C80.8349 15.8936 79.7998 15.2813 79.0766 14.1738C78.7192 13.6269 78.1085 13.781 77.165 14.4934C75.3573 14.4202 74.9014 13.2234 74.8028 11.6945C74.7804 11.3541 74.5116 11.257 74.269 11.4596C73.7907 11.8593 73.2601 12.229 72.885 12.7142C72.2642 13.5183 71.7751 14.381 72.2958 15.4878C72.6054 16.1463 72.2626 16.6916 71.6981 17.0928C71.3715 17.3247 70.8609 17.3101 70.6784 17.0212C70.4812 16.7093 70.3449 16.3604 70.1692 16.0338C70.0291 15.7735 69.8034 15.7196 69.5346 15.8836C69.4299 15.9475 69.2989 16.0377 69.2673 16.1425C69.1641 16.4906 69.0139 16.8579 69.0424 17.2045C69.091 17.7976 68.96 18.2212 68.3169 18.2458C66.9421 18.2982 66.3444 19.1354 66.0633 20.3439C65.9847 20.6812 66.3898 21.1187 66.7449 21.0363C68.082 20.7266 69.4129 20.3924 70.7554 20.1082C70.9525 20.0666 71.2244 20.206 71.4124 20.3339C71.638 20.4887 71.5417 21.1557 71.3053 21.3459C71.2082 21.4245 71.1312 21.5315 71.028 21.5993C70.2047 22.1407 69.2396 22.3641 68.4671 23.0966C67.6407 23.8799 66.3676 23.7281 65.2623 23.8221C65.0728 23.8383 64.7802 23.6103 64.6692 23.4178C64.2942 22.7685 63.8951 22.1115 63.6648 21.4052C63.4284 20.6804 63.423 19.8548 64.0446 19.2933C64.6399 18.7557 64.9565 18.1357 65.1452 17.3802C65.3547 16.5406 65.3932 16.5506 64.4951 15.9537C64.2902 15.8174 63.9907 15.7281 63.8998 15.5378C63.7496 15.222 63.6033 14.8069 63.6896 14.4981C63.819 14.0344 64.0977 13.5846 64.4051 13.2033C65.0104 12.4524 65.0281 11.5867 65.032 10.7025C65.454 10.9744 65.873 11.2532 66.3005 11.5174C66.637 11.7246 66.9929 11.864 67.291 11.4658C67.6083 11.0422 68.0265 10.7957 68.5287 10.6655C69.2119 10.4892 69.1187 9.98622 69.0455 9.47173C68.9423 8.74389 69.3458 8.27942 69.935 7.96287C70.5612 7.62629 71.1204 7.79422 71.675 8.20859C73.5666 9.61882 74.1742 9.52794 75.6515 7.67714Z" fill="#FDFAE4"/>
<path d="M81.7138 27.3822C81.7146 27.8875 81.7153 28.3927 81.7153 28.8988C81.2147 28.9488 80.7041 28.9558 80.2188 29.0721C80.0286 29.1175 79.8784 29.3956 79.7459 29.592C79.6835 29.6844 79.6497 29.8685 79.7005 29.9524C80.3382 31.0084 79.6497 32.1806 80.0178 33.2843C80.205 33.845 80.1889 34.5644 80.0163 35.1374C79.4733 36.9466 78.8509 38.7373 77.8173 40.347C77.5686 40.7352 77.0032 40.87 76.4726 40.6474C75.5753 40.2723 75.3743 39.9712 75.5175 38.9584C75.6446 38.065 75.7625 37.1961 75.0832 36.4583C75.0038 36.372 74.8259 36.265 74.7604 36.2981C74.5717 36.3944 74.3353 36.5276 74.2691 36.7032C74.1866 36.9196 74.1835 37.2262 74.2744 37.4388C74.7389 38.5301 74.3075 39.4028 73.6244 40.1992C73.495 40.3501 73.1846 40.3655 72.9512 40.3964C72.8942 40.4041 72.7656 40.2323 72.7509 40.1314C72.6439 39.3874 72.6055 38.6303 72.4468 37.8986C72.3382 37.3956 71.9554 37.0298 71.4655 36.8265C71.3585 36.7818 71.1751 36.7703 71.0973 36.8319C70.9225 36.9705 70.656 37.1746 70.6683 37.334C70.7061 37.8262 70.8771 38.3068 70.9595 38.7974C71.0504 39.335 70.7947 39.9358 70.3811 40.0721C69.0548 40.5096 67.8032 41.0888 66.6687 41.909C66.4022 42.1016 66.1827 42.0508 66.0556 41.7381C66.0132 41.6341 66.0302 41.49 66.061 41.376C66.1912 40.8931 66.4176 40.4195 66.4507 39.9312C66.4739 39.5907 66.2875 39.2041 66.1011 38.8952C65.9902 38.7111 65.7052 38.6164 65.4795 38.5301C65.4248 38.5093 65.2538 38.6626 65.2091 38.7666C65.0605 39.1093 64.9665 39.476 64.8125 39.8164C64.603 40.2801 64.1255 40.6105 63.966 40.4349C63.8143 40.2685 63.5848 40.0813 63.5748 39.8934C63.5186 38.8336 63.0973 38.001 62.3787 37.2C61.1741 35.8583 61.4005 35.0581 63.1289 34.0491C63.259 33.9729 63.6881 34.1192 63.7497 34.2617C64.0924 35.0504 64.345 35.8784 64.6862 36.6678C64.7278 36.7641 65.2423 36.8072 65.317 36.7086C65.5326 36.4229 65.679 36.0647 65.7737 35.7135C66.0726 34.6029 66.0756 34.6137 67.2618 34.5097C68.263 34.4219 68.6812 34.0291 68.6905 33.1649C68.6943 32.7783 68.5942 32.3886 68.2068 32.2168C67.8687 32.0666 67.4897 32.0096 67.1331 31.9003C66.0233 31.5591 65.7768 31.1901 65.8592 29.9709C65.8669 29.8554 65.9424 29.6697 66.021 29.6489C66.2274 29.5943 66.5285 29.518 66.6571 29.6204C66.9452 29.8484 67.1647 30.1704 67.3889 30.4708C67.9835 31.2671 68.9038 31.271 69.748 31.4219C70.0291 31.472 70.214 31.1678 70.1084 30.8751C69.768 29.9285 70.1716 29.1553 70.6398 28.3943C71.1205 27.6149 71.8576 27.3191 72.5354 27.8559C73.3094 28.469 74.1088 28.5337 74.9961 28.4621C75.429 28.4274 75.6384 28.1779 75.5861 27.6826C75.5468 27.3091 75.4475 26.9424 75.3913 26.5704C75.3736 26.4541 75.3643 26.2624 75.4282 26.2192C76.6636 25.3897 77.4553 23.9356 79.0604 23.6298C79.1837 23.6059 79.3115 23.6036 79.4371 23.5913H79.4387C80.0279 24.9576 80.3983 26.4534 81.7138 27.3822Z" fill="#FEFDEE"/>
<path d="M50.6153 53.1647C50.841 53.2656 51.0744 53.3534 51.2923 53.4689C51.9131 53.7993 52.4353 53.7739 52.9005 53.1655C53.2333 52.7303 53.4921 53.0923 53.7978 53.3034C54.1544 53.5498 54.655 53.3773 54.6827 53.0423C54.722 52.5663 54.6512 52.0787 54.7182 51.6097C54.7405 51.4548 55.0317 51.3139 55.2258 51.22C55.3051 51.1814 55.5169 51.2508 55.5593 51.3293C55.7896 51.7607 55.9228 52.2559 56.207 52.6425C56.827 53.4859 57.906 53.6661 58.466 53.2394C59.0529 52.7919 59.7507 52.4892 60.3268 52.031C60.6988 51.7352 60.9383 51.2746 61.2372 50.8872C61.9758 51.1907 62.3902 51.8223 62.8646 52.4169C63.4893 53.2002 64.8402 53.3996 65.5703 52.7927C66.3405 52.1519 67.1485 51.4911 67.71 50.6808C68.6011 49.3946 70.0106 48.7438 71.0473 47.657C71.1251 47.5754 71.276 47.5384 71.3977 47.5268C72.0046 47.4683 72.6123 47.8588 73.2284 47.4791C73.7483 47.1587 74.1504 46.5672 74.8505 46.6411C75.0623 46.6634 75.325 46.8429 75.4328 47.0277C75.5468 47.2242 75.5953 47.5484 75.5121 47.7509C75.3257 48.2038 75.087 48.6529 74.7827 49.0349C74.3229 49.6126 73.9925 49.6226 73.1984 49.2298C72.4875 48.8786 71.9176 49.1366 71.913 49.8536C71.9068 50.8587 71.9068 51.8684 72.0115 52.8651C72.0431 53.1639 72.3805 53.5583 72.6731 53.6792C73.5119 54.025 74.4269 54.0566 75.2364 53.6276C75.6438 53.4112 76.109 52.9629 76.1929 52.5478C76.3716 51.6644 77.0148 51.4833 77.6309 51.052C78.7547 50.2664 79.7544 49.2968 80.9682 48.6205C80.8273 49.0888 80.7872 49.6264 80.523 50.01C80.1056 50.6154 79.578 51.1629 79.025 51.6536C78.0999 52.4746 77.822 53.4951 77.9113 54.6704C77.8751 54.8337 77.8389 54.997 77.805 55.1618C77.0394 56.4373 75.9488 57.008 74.457 56.7045C74.0241 56.5705 73.6374 56.3387 73.2585 56.1038C72.754 55.8412 72.218 55.8203 71.6657 55.9282C71.2321 55.9859 70.8146 55.9428 70.4157 55.7588C69.8858 54.7013 69.5415 55.9551 69.0917 55.8696C68.8044 55.9182 68.5172 55.9128 68.2314 55.8619C67.824 55.7572 67.4235 55.6186 67.0122 55.5293C66.7364 55.5077 66.4622 55.4769 66.1865 55.4599C65.7683 55.4645 65.3516 55.4784 64.9364 55.5238C64.3711 55.617 63.8281 55.7957 63.2705 55.9197C62.8354 55.9844 62.4118 55.9421 62.0013 55.7949C61.4845 55.5323 60.9784 55.5446 60.4839 55.8774C59.8223 56.2378 59.1337 56.492 58.3735 56.4951C57.6265 56.4666 56.8733 56.4011 56.2047 56.8655C55.2142 57.5164 54.4772 58.5669 53.2002 58.7356C52.5524 58.7602 51.8954 58.6824 51.2484 58.8334C49.1905 59.2185 49.0657 60.5425 49.6087 62.1899C49.621 62.5334 49.5787 62.8723 49.4986 63.2066C49.2351 64.0099 49.0457 64.854 48.3826 65.4633C46.6612 65.7482 45.3071 66.8358 43.7906 67.5675H43.4155H43.0404C42.6129 67.0653 42.5937 66.5608 43.0327 66.054C43.0342 65.8014 43.0351 65.5488 43.0351 65.2962C43.7051 64.9503 44.4106 64.6584 45.0376 64.2471C46.1366 63.5255 46.8637 62.5843 46.8499 61.1463C46.8414 60.2837 47.0731 59.4172 47.2179 58.5561C47.278 58.1949 47.2796 57.7389 47.4992 57.5048C48.4789 56.4581 48.3348 55.188 48.3386 53.9364C49.001 53.3911 49.8759 53.479 50.6153 53.1647Z" fill="#FCF5DA"/>
<path d="M52.1405 3.88457C52.8737 3.7675 53.6477 3.75981 54.3309 3.50718C55.3029 3.14827 56.2772 3.11435 57.2769 3.13515C57.9123 3.14824 58.5177 3.26686 59.033 3.66814C59.6283 4.13103 60.273 4.45682 61.0062 4.68942C61.815 4.94589 62.552 5.42342 63.3376 5.76231C63.6665 5.90403 64.2134 5.81931 64.3674 6.04112C64.9998 6.95304 65.9994 7.5792 66.4038 8.64746C66.4785 8.84387 66.423 9.18275 66.2913 9.34758C65.9085 9.82818 65.4564 10.2541 65.032 10.7016C64.4505 10.4436 63.9445 10.0716 63.6842 9.48856C63.2151 8.43723 62.3672 7.71167 61.6116 6.89834C60.7344 5.95407 59.7616 5.26707 58.3906 5.38722C57.4579 5.46887 56.7447 4.969 56.0284 4.47299C55.6741 4.22729 55.326 4.31818 55.0271 4.58698C54.5843 4.98364 54.5311 5.50044 54.89 5.87476C55.2282 6.22751 55.5817 6.56562 55.9283 6.9099C55.423 6.91838 54.9178 6.92608 54.4125 6.93609C53.7224 6.94995 53.1971 7.22184 52.9607 7.90655C52.8351 8.26854 52.6857 8.59896 52.2429 8.63054C51.7176 8.66828 50.9173 8.12145 50.7763 7.61312C50.6038 6.99002 50.5623 6.34536 50.8919 5.77233C51.2678 5.11996 51.7207 4.51228 52.1405 3.88457Z" fill="#FDFAE4"/>
<path d="M57.4086 27.432C56.6045 28.4764 55.4854 28.1359 54.4063 27.9557C54.0358 27.8933 53.7216 27.1809 53.831 26.7411C53.9512 26.2567 54.4841 25.8708 54.9178 25.9894C55.2628 26.0834 55.6256 26.1804 55.9244 26.3652C56.4428 26.6841 56.9164 27.0723 57.4086 27.432Z" fill="#FDFAE4"/>
<path d="M56.6853 9.18622C56.6861 8.6802 56.6869 8.17497 56.6869 7.66895C57.1236 7.90309 57.568 8.1241 57.9947 8.37441C58.4283 8.62858 58.8019 8.93671 58.882 9.48971C58.9952 10.2692 58.9174 10.9708 58.2034 11.4606C58.0794 11.3674 57.9562 11.2735 57.8299 11.1834C57.4348 10.7043 57.1344 10.1628 56.8225 9.62909C56.774 9.48199 56.7292 9.3341 56.6853 9.18622Z" fill="#FDFAE4"/>
<path d="M77.8405 15.6885C77.7534 15.9096 77.688 16.1445 77.5671 16.3455C77.5201 16.4241 77.3221 16.4864 77.2336 16.4518C76.7707 16.2723 76.9401 15.9049 77.0094 15.5745C77.0341 15.4559 77.0695 15.3388 77.091 15.2195C77.1134 15.1001 77.1281 14.9784 77.1404 14.8575C77.1527 14.7366 77.1573 14.6141 77.165 14.4932C77.3376 14.6603 77.5556 14.8012 77.6695 15.0015C77.7812 15.1986 77.7873 15.4567 77.8405 15.6885Z" fill="#FDFAE4"/>
<path d="M61.3442 14.0698C61.3442 14.2639 61.4251 14.5365 61.328 14.6374C61.0885 14.8846 60.7673 15.0525 60.4792 15.252C60.49 15.1334 60.467 14.9986 60.5178 14.9008C60.6711 14.6058 60.8429 14.3185 61.0339 14.0474C61.0639 14.0035 61.2333 14.059 61.3442 14.0698Z" fill="#FDFAE4"/>
<path d="M53.6553 49.3726C54.1197 49.7507 54.1198 49.7507 53.6538 50.1289C53.6538 49.877 53.6538 49.6252 53.6553 49.3726Z" fill="#FCF5DA"/>
<path d="M52.8951 41.0307L53.0684 40.7148L53.2109 40.8566L52.8951 41.0307Z" fill="#FDFAE4"/>
<path d="M58.2041 11.4604C57.9515 11.713 57.6997 11.9664 57.4478 12.219L57.4462 12.2175C57.2583 11.5267 57.5125 11.2755 58.2026 11.4588L58.2041 11.4604Z" fill="#FDFAE4"/>
<path d="M56.6869 7.66928C56.4343 7.41666 56.1824 7.16404 55.9305 6.91064C56.1824 7.16327 56.4351 7.41589 56.6869 7.66928Z" fill="#FDFAE4"/>
<path d="M28.6245 69.8412C28.3726 69.8435 28.1216 69.8443 27.8697 69.845C27.6148 70.0961 27.3591 70.1084 27.1034 69.8466C25.7262 69.805 24.3214 69.9945 23.0182 69.349C20.4889 69.1665 18.1636 68.1475 15.7313 67.5691C14.8533 67.4366 13.9283 67.3511 14.214 66.0541C15.0944 65.5411 16.0402 65.2546 17.0607 65.1999C17.1539 65.1953 17.3303 64.9858 17.3141 64.9558C17.2094 64.7632 17.0985 64.5121 16.9213 64.4336C16.3568 64.1833 15.7737 63.8767 15.1768 63.8205C14.271 63.735 13.4947 63.3753 12.7021 63.0102C12.468 62.7407 12.1923 62.5127 11.942 62.2601L11.9404 62.2586C8.67243 58.2612 9.07451 55.7049 13.1466 52.9961C14.8864 51.8385 16.3167 51.8978 17.9164 53.6715C18.3924 50.8611 17.5614 48.8178 15.7768 47.6293C12.7777 45.6322 13.9707 44.1642 16.1272 42.9449C18.4941 41.6063 15.8554 41.6526 15.7329 41.0295C15.7329 40.7768 15.7329 40.5242 15.7329 40.2716C16.1681 39.6955 16.7672 39.2835 17.2517 38.7574C17.5036 38.7566 17.7562 38.7566 18.0081 38.7559C21.1821 37.2825 21.1489 40.6174 22.5584 41.7889C23.1861 42.8325 22.8642 43.987 22.9551 45.0969C22.3327 46.7151 24.5933 48.6845 22.352 50.104C22.8426 50.8103 23.7407 50.1733 24.2914 50.6878C27.3352 52.8921 25.7031 55.872 25.1417 58.3213C24.6056 60.6604 21.8945 60.5117 19.9012 60.9361C21.5187 63.8975 24.346 64.3974 27.4561 64.5291C29.1983 64.603 31.0175 64.4475 32.6789 65.1391C34.0398 65.706 35.6742 66.2258 34.6929 68.3269C32.5749 68.4517 30.6347 69.2882 28.6245 69.8412Z" fill="#FCF4D8"/>
<path d="M34.6922 68.3269C34.6236 67.2232 34.1692 66.3898 33.0246 66.121C31.9602 65.8707 30.9397 65.1444 29.7775 65.7667C28.6792 65.6096 27.584 65.4093 26.4803 65.3092C25.4852 65.2191 24.4585 65.3554 23.4873 65.1729C22.7818 65.0404 22.0392 64.6707 21.4962 64.1962C20.1807 63.0471 19.0263 61.7277 18.189 60.1727C18.0797 59.9701 18.1013 59.686 18.1043 59.4395C18.1059 59.3294 18.1875 59.1945 18.2745 59.1198C18.35 59.0544 18.5241 58.9982 18.5865 59.039C19.0963 59.3779 19.587 59.746 20.0892 60.0957C20.4142 60.3214 20.787 60.4091 21.1197 60.1712C21.5248 59.8816 21.8922 59.535 22.2603 59.1969C22.6839 58.8079 23.1599 58.918 23.6659 58.9496C24.433 58.9966 24.7019 58.7394 24.5617 58.1525C24.3877 57.4246 24.1473 56.7507 24.5232 55.9805C24.8482 55.315 24.9761 54.5548 25.2195 53.847C25.4012 53.3187 25.3288 52.8535 24.9021 52.5023C24.3845 52.0756 24.1281 51.5403 24.0734 50.8887C23.8677 48.7915 23.9378 46.6249 22.5569 44.821C22.2935 44.1725 21.9977 43.5472 22.3836 42.8162C22.5376 42.5251 22.5045 42.1346 22.5569 41.7896C23.2346 42.0691 23.4311 42.9341 24.3376 43.0419C25.1224 43.1351 25.4228 44.0886 25.717 44.6986C26.4664 46.2505 27.1072 47.9111 26.5911 49.6964C26.0343 51.6235 26.4541 53.4196 27.1873 55.1887C27.3406 55.5584 27.6833 55.7263 28.0892 55.6393C28.834 55.4799 29.769 55.1926 30.2635 55.7294C31.2478 56.8 32.7713 56.8901 33.7294 57.9083C34.6683 58.9057 36.0176 59.458 36.7031 60.745C36.9272 61.1663 37.3686 61.5013 37.773 61.7879C38.0649 61.995 38.4523 62.0936 38.8112 62.1753C39.3804 62.3054 40.136 61.6577 40.5118 62.3455C40.7868 62.8476 40.7182 63.55 40.7521 64.1662C40.7868 64.7924 40.7583 65.4224 40.7575 66.0509C40.4448 66.2434 40.0975 66.3975 39.8256 66.637C39.1532 67.2293 38.4145 67.6252 37.4964 67.559C36.4667 67.485 35.574 67.8778 34.6922 68.3269Z" fill="#FCF7DD"/>
<path d="M17.2495 38.757C17.2194 39.739 16.7134 40.2443 15.7306 40.2712C14.4821 39.0936 12.8577 38.4035 11.6724 37.1442C10.2852 36.5904 9.47042 35.1794 8.00704 34.7088C7.75056 34.6264 7.56415 34.1389 7.46634 33.8031C7.36544 33.4572 7.41167 33.0683 7.39319 32.6978C7.64273 32.4406 7.8923 32.1833 8.14261 31.9261C8.64786 31.9268 9.15386 31.9276 9.65989 31.9284C9.91174 31.9207 10.1836 31.9731 10.4132 31.8968C12.9741 31.0519 15.6166 31.1358 18.2569 31.1736C19.2651 31.1875 20.2733 31.1898 21.2807 31.2237C21.8129 31.2414 22.2188 31.5379 22.5569 31.9323C21.5456 31.9361 20.5343 31.9253 20.2186 33.2162C20.1623 33.4442 20.0375 33.7291 19.855 33.8416C18.2068 34.8513 17.5644 36.7098 16.2974 38.0376C16.2397 38.0985 16.3953 38.4867 16.5432 38.5883C16.728 38.7169 17.0092 38.7077 17.2495 38.757Z" fill="#FDF7DF"/>
<path d="M50.6154 53.1651C50.5722 53.4015 50.5723 53.6572 50.4783 53.8713C50.2226 54.4528 49.9469 54.5653 49.3377 54.3558C48.9965 54.2379 48.6707 54.0762 48.338 53.9337C47.396 53.514 46.7674 52.7199 46.0627 52.0198C43.9385 49.9094 41.8266 47.7875 39.6993 45.6818C39.2619 45.2482 38.5795 44.9431 38.3708 44.4317C38.1674 43.9326 38.4547 43.2464 38.4724 42.6402C38.4863 42.145 38.4924 41.6282 38.3646 41.1576C38.2752 40.828 37.9548 40.5607 37.7376 40.265C37.7276 39.7636 37.7177 39.2622 37.7076 38.7607C37.9402 38.4403 38.256 38.3094 38.5818 38.5543C39.3197 39.1112 40.0274 39.7081 40.7475 40.2888C40.8731 41.0221 40.8878 41.7969 41.1497 42.4777C41.5525 43.5244 42.1386 44.4995 42.6223 45.5177C43.1137 46.5521 43.662 47.5002 44.7942 47.997C45.2363 48.1911 45.596 48.5877 45.9688 48.9182C47.272 50.0735 48.5652 51.2411 49.8622 52.4033C50.1325 52.6382 50.3343 52.9409 50.617 53.1643L50.6154 53.1651Z" fill="#FBE8BD"/>
<path d="M22.5569 41.7891C22.1841 41.7713 21.8082 41.7783 21.4393 41.7305C21.0465 41.6797 20.6906 41.5041 20.7823 41.0281C20.9548 40.1347 20.5728 39.5855 19.771 39.2944C19.1934 39.0849 18.5949 38.9331 18.0057 38.7552C18.313 38.2099 18.5911 37.6462 18.9369 37.127C19.1495 36.8082 19.5269 36.611 19.9074 36.7635C20.4842 36.9945 21.0527 37.2695 21.5795 37.5984C22.1356 37.945 22.4606 38.4949 22.4952 39.158C22.5422 40.0345 22.5392 40.9126 22.5569 41.7891Z" fill="#FDF7DF"/>
<path d="M56.6852 12.217C56.287 12.5382 56.0005 12.9187 55.9628 13.4571C55.9197 14.0748 55.8881 14.697 55.7864 15.3063C55.674 15.9794 54.9577 16.5017 54.1482 16.5463C53.9041 16.5594 53.6553 16.4724 53.4096 16.4754C52.9344 16.4824 52.3899 16.9245 52.3375 17.3419C52.2459 18.0767 52.1295 18.8161 52.1357 19.5524C52.1441 20.5914 51.6528 21.1529 50.6915 21.4217C50.2987 21.5318 50.0777 21.8969 50.1247 22.2728C50.2133 22.9806 50.0708 23.4342 49.2998 23.6391C48.7075 23.797 48.1561 24.1066 47.5861 24.3492C47.171 24.6242 46.7258 24.8645 46.3461 25.1826C45.4896 25.9012 44.4761 26.0752 43.5333 25.6493C42.4581 25.1633 41.3498 25.1702 40.2438 25.0239C39.9234 24.9816 39.7878 24.809 39.8487 24.5063C39.8725 24.39 39.8825 24.2422 39.9572 24.1705C40.4055 23.7446 40.813 23.2301 41.3421 22.9467C42.3634 22.3991 43.1405 21.6081 43.8984 20.774C44.255 20.3812 44.4198 19.926 44.3174 19.4014C43.9954 17.7455 44.704 16.5486 45.884 15.4519C46.524 14.8573 47.0809 14.6763 47.8819 14.972C48.2108 15.0937 48.6143 15.0845 48.9702 15.0344C49.185 15.0044 49.3853 14.7956 49.5663 14.6378C49.6503 14.5646 49.715 14.4213 49.7157 14.3081C49.7342 12.6283 50.7925 11.5685 51.9455 10.5726C52.4161 10.166 52.9683 9.84557 53.3935 9.4004C53.787 8.98834 53.6175 7.97475 54.4386 8.07873C54.9754 8.14651 55.4376 8.71953 55.9598 9.02145C56.1647 9.14006 56.4411 9.13543 56.6852 9.18627H56.6868C58.2781 10.1975 57.3468 11.2073 56.6852 12.217Z" fill="#FCF1D4"/>
<path d="M134.048 66.0523C133.332 67.4171 132.171 68.3953 131.01 69.3272C130.347 69.8594 129.482 70.4016 128.678 70.4502C126.432 70.5857 124.332 71.6702 122.029 71.379C121.157 71.2689 120.312 71.5446 119.458 71.7818C118.144 72.1462 116.783 72.3456 115.438 72.5975C115.198 72.6422 114.912 72.6807 114.698 72.5944C112.763 71.815 110.738 72.2232 108.753 72.1161C108.131 72.0822 107.496 72.103 106.893 71.9744C106.562 71.9043 106.286 71.5755 105.984 71.3636C104.061 70.3023 102.277 69.0692 99.8413 69.1886C98.314 69.2633 96.6102 68.5786 97.4205 66.4289C98.0567 64.7414 96.5717 64.5851 95.9047 63.8557C95.1846 63.0678 94.5022 62.2475 95.1276 61.2039C95.8616 59.9793 97.0993 60.3582 98.1807 60.634C98.7876 60.7888 99.1643 61.398 99.6811 61.7461C103.687 64.448 104.791 63.9998 105.67 59.2646C105.835 58.3765 105.816 57.4792 106.969 57.2782C108.702 56.9778 109.114 58.6546 110.413 59.672C109.121 57.9206 109.723 56.7036 111.098 56.1606C112.597 55.5691 113.122 54.4662 113.571 53.1615C113.222 52.3612 112.756 51.6041 112.845 50.666C112.895 50.1415 113.275 49.5638 113.711 49.6185C114.337 49.6971 114.937 49.7348 115.571 49.6139C116.124 49.5084 116.416 49.9343 116.335 50.5751C116.32 50.6968 116.234 50.81 116.217 50.9317C116.066 52.0154 116.133 52.1387 117.164 52.6401C117.389 52.7494 117.629 52.8911 117.865 52.8942C118.087 52.8973 118.434 52.7987 118.512 52.6393C118.841 51.9715 119.122 51.2745 119.358 50.5682C119.528 50.0622 119.343 49.597 119.022 49.1726C118.796 48.8753 118.568 48.5588 118.442 48.2137C118.369 48.0181 118.412 47.6445 118.55 47.5298C119.221 46.9729 119.925 46.4522 120.652 45.9716C120.988 45.7498 121.408 45.8361 121.677 46.1295C122.213 46.7126 122.834 47.0638 123.633 47.12C124.438 47.177 125.037 47.6037 125.506 48.2422C125.728 48.5449 125.911 48.9446 126.215 49.1064C127.883 49.9944 129.365 51.1459 130.869 52.2673C132.156 52.3351 132.686 53.5335 133.629 54.1196C134.435 54.6202 134.793 55.4051 134.794 56.3532C134.795 57.8612 134.845 59.3708 134.786 60.8766C134.758 61.616 134.621 62.3777 134.378 63.0747C134.034 64.0567 134.071 65.0511 134.048 66.0523Z" fill="#FEFCEA"/>
<path d="M113.57 53.1624C113.565 53.9172 113.58 54.672 113.55 55.4252C113.512 56.3718 113.265 56.6545 112.145 56.609C111.227 56.5713 110.782 57.0966 110.324 57.6973C110.136 57.9438 110.254 58.5477 110.541 58.6994C111.088 58.9882 111.676 59.2023 112.206 59.5173C112.362 59.6105 112.483 59.9687 112.43 60.1497C112.376 60.3353 112.109 60.5355 111.9 60.5848C111.042 60.7889 110.219 60.1951 109.317 60.477C108.887 60.6118 108.773 60.2297 108.756 59.7738C108.706 58.3258 108.319 57.8937 107.096 57.8414C106.912 57.8337 106.538 58.1171 106.553 58.2272C106.712 59.4719 106.886 60.6973 106.211 61.8711C105.843 62.5096 106.329 63.5493 105.606 63.9136C104.961 64.2379 104.233 64.4412 103.578 64.8017C103.407 64.8956 103.07 64.8356 102.883 64.7231C102.565 64.5321 102.287 64.2618 102.025 63.993C101.544 63.5008 101.007 63.319 100.325 63.5093C99.9499 63.614 99.5633 63.527 99.3299 63.1735C99.0526 62.7552 98.7869 62.3247 98.565 61.8757C98.3086 61.3558 97.9428 61.1717 97.3667 61.2618C97.0047 61.3188 96.6242 61.2511 96.2522 61.2488C95.7508 61.2457 95.4219 61.4551 95.4919 61.7917C95.5643 62.1375 95.6622 62.5781 95.9102 62.7699C96.8006 63.4592 97.7663 64.0492 98.6852 64.7038C98.9856 64.9172 99.2714 65.1814 99.4801 65.4802C99.601 65.6535 99.6434 65.9839 99.5579 66.1688C99.4739 66.3506 99.1936 66.4576 98.981 66.5578C98.8809 66.6047 98.7368 66.56 98.6121 66.5554C98.2285 66.5431 97.8611 66.5901 97.7617 67.0414C97.6593 67.5082 97.9959 68.0473 98.4911 68.216C99.0857 68.4193 99.6881 68.5996 100.291 68.7759C100.588 68.863 101.142 68.6057 101.234 68.323C101.349 67.9657 101.398 67.5867 101.519 67.2317C101.596 67.0052 101.707 66.7341 101.889 66.6155C102.049 66.5115 102.462 66.503 102.531 66.607C102.728 66.9043 102.923 67.2833 102.911 67.6237C102.868 68.9377 103.358 69.751 104.713 70.0506C105.345 70.19 105.71 70.7769 105.985 71.3615C103.444 70.753 100.902 70.1453 98.304 69.818C96.849 69.6347 95.6529 69.0216 95.0414 67.6268C94.5947 66.6078 93.8484 66.0941 92.7955 65.8461C91.8289 65.6181 90.8969 65.2445 89.935 64.9927C89.7617 64.9472 89.5144 65.1845 89.3018 65.2908C86.9604 65.7714 85.5063 64.2887 84.0091 62.9085C83.8288 62.6536 83.704 62.3655 83.6209 62.0659C83.5431 61.6523 83.4645 61.2318 83.2473 60.8582C83.0648 60.6595 82.8792 60.4662 82.6651 60.2991C82.4124 60.1751 82.1668 60.0503 81.9057 59.9448C81.6222 59.8578 81.3542 59.7476 81.0854 59.6267C80.5354 59.354 80.061 58.9859 79.6343 58.5538C79.4232 58.3374 79.2431 58.0955 79.0821 57.8398C78.8587 57.457 78.6693 57.0542 78.4813 56.6522C78.3496 56.3895 78.2649 56.11 78.2094 55.8211C78.1778 55.3621 78.3111 54.9701 78.6931 54.6859H78.6915C78.9403 54.4294 79.1961 54.1806 79.4402 53.9195L79.4426 53.9172C79.6967 53.6746 79.9416 53.4235 80.1781 53.1639C80.1935 52.9152 80.2043 52.6656 80.2104 52.4161C80.4738 52.1742 80.7049 51.9001 80.956 51.6451L80.9606 51.6405C81.2194 51.3994 81.4674 51.1476 81.7031 50.8849C82.769 50.422 83.4306 49.4778 84.2516 48.7268C84.8285 48.1992 85.4632 47.8695 86.2465 47.8418C86.6663 47.4043 87.3856 47.5731 87.7807 47.084L87.7761 47.0863C91.4746 47.2734 91.9174 47.7918 92.8925 53.1054C94.6802 53.2895 95.7985 51.2531 97.6447 51.6451C97.7063 52.5216 97.6832 53.415 97.8534 54.2692C98.0259 55.1357 97.5014 55.2989 96.923 55.5893C96.3731 55.8658 96.3446 56.368 96.7574 56.7993C97.0185 57.0711 97.2935 57.3307 97.5677 57.5895C98.1199 58.1109 98.639 57.9877 99.0095 57.2244C99.3368 56.5505 99.712 55.9028 99.42 55.0725C99.3161 54.7759 99.4685 54.3408 99.618 54.022C99.7027 53.8402 100.009 53.6869 100.229 53.6653C100.44 53.6445 100.75 53.7477 100.874 53.9072C101.097 54.1937 101.267 54.5488 101.363 54.9007C101.495 55.3821 101.516 55.892 101.624 56.3811C101.727 56.8494 102.372 57.3053 102.729 57.2044C103.096 57.1012 103.603 56.4904 103.629 56.0745C103.669 55.4468 103.636 54.8106 103.718 54.1891C103.816 53.4412 103.097 52.6186 103.635 52.0271C104.196 51.4102 105.093 51.1221 105.72 50.5013C105.845 50.3781 106.24 50.3881 106.421 50.4913C106.852 50.7386 107.254 51.0513 107.622 51.3863C108.675 52.3429 109.867 52.9914 111.296 53.1593L111.571 53.3719C111.571 53.3719 111.474 53.7062 111.474 53.7038C111.74 53.576 111.934 53.6484 112.054 53.918C112.247 53.9973 112.538 54.1975 112.616 54.1352C112.966 53.8525 113.257 53.4943 113.57 53.1624Z" fill="#FEFBE6"/>
<path d="M111.295 53.92C111.295 53.6673 111.295 53.4139 111.295 53.1613C111.818 52.8309 111.912 52.8378 111.998 53.2476C112.044 53.4655 112.037 53.6951 112.054 53.9192C111.801 53.92 111.548 53.92 111.295 53.92Z" fill="#FEFCEA"/>
<path d="M97.6431 51.6458C96.913 51.9477 96.4809 52.5461 96.0342 53.1608C95.8439 53.4226 95.3633 53.7384 95.1338 53.6637C93.8206 53.237 93.3877 54.3014 92.703 54.9607C92.6306 55.0308 92.4488 55.0762 92.3703 55.0339C92.1762 54.9307 91.845 54.7412 91.8628 54.6365C92.0384 53.6213 91.7102 52.6655 91.5916 51.6866C91.4884 50.834 91.7465 49.9306 91.2243 49.138C89.9627 48.642 89.2194 47.2741 87.7745 47.0877C88.9784 46.2382 89.8918 44.9088 91.5469 44.8064C92.291 44.905 93.0465 44.9573 93.7774 45.1175C94.3613 45.2446 94.7733 45.0035 95.1161 44.6385C95.5435 44.1825 95.8778 43.6411 96.2922 43.1713C96.4439 42.9995 96.7373 42.7946 96.9183 42.8331C98.0097 43.0634 98.7899 42.4265 99.7011 42.0344C100.74 41.5869 101.918 41.6532 103.01 42.0568C103.159 42.1114 103.284 42.4504 103.279 42.6537C103.272 42.9518 103.023 43.0811 102.72 43.0249C102.476 42.9795 102.226 42.9402 101.996 42.8524C101.467 42.6491 100.997 42.7885 100.588 43.1104C99.9907 43.581 99.4261 44.1132 99.2466 44.8842C99.0564 45.7021 98.6243 46.2066 97.794 46.4176C97.2795 46.5486 96.9483 46.9714 96.775 47.4528C96.6557 47.7847 96.4886 48.317 96.6449 48.4926C97.4621 49.413 97.0039 50.7 97.6431 51.6458Z" fill="#FDF8E1"/>
<path d="M15.7307 41.0298C16.611 41.0521 17.4914 41.056 18.3702 41.1083C18.6051 41.1222 18.9324 41.2177 19.0395 41.3879C19.2236 41.6791 19.3283 42.0542 19.3514 42.4023C19.3715 42.7027 19.1189 42.8297 18.8216 42.7928C18.19 42.7134 17.5838 42.6981 17.0532 43.1694C16.3962 43.7532 15.7084 44.3024 15.0283 44.86C14.7233 45.1103 14.4753 45.4192 14.6278 45.8058C14.7017 45.9938 14.9921 46.1308 15.2131 46.2179C15.4411 46.3072 15.7037 46.3126 15.9525 46.3449C16.3322 46.395 16.7489 46.4497 16.7967 46.9157C16.8968 47.8977 17.8033 48.3105 18.2754 49.0276C18.8661 49.9241 19.2936 50.6997 18.8885 51.7926C18.7861 52.0691 19.0071 52.5104 19.1681 52.8316C19.7727 54.0423 19.5139 54.5584 18.2061 54.6531C17.9558 54.6716 17.7024 54.6716 17.4513 54.6624C16.953 54.6439 16.3869 54.6724 16.1382 54.1509C15.9895 53.8398 16.0989 53.4139 15.991 53.0711C15.9387 52.9055 15.5728 52.6637 15.4865 52.7107C13.9477 53.5448 12.4327 54.4151 11.2581 55.7653C10.2199 56.9583 10.0489 58.6289 11.1179 59.8566C11.7688 60.6037 11.9413 61.3647 11.9383 62.2589C10.977 61.9731 10.005 61.7212 9.06232 61.3839C8.73575 61.2676 8.3938 60.9949 8.21511 60.7C7.4349 59.4083 6.72243 58.0913 5.65339 56.9807C5.15121 56.4585 4.82078 55.706 4.59511 54.9989C4.21463 53.8098 3.96742 52.5774 3.69554 51.3559C3.64394 51.1241 3.69708 50.8475 3.77179 50.6134C4.02827 49.817 3.63544 49.4704 2.93455 49.2609C2.71273 49.1947 2.51481 49.0022 2.33998 48.8327C2.0188 48.5216 2.16977 47.6212 2.59261 47.5858C4.43878 47.4302 4.33861 46.1023 4.35555 44.8207C5.09109 45.1326 5.76969 45.6179 6.62385 45.5755C7.28545 45.9314 5.89751 48.7749 8.53083 46.9249C10.377 45.6279 12.0761 44.3055 13.4586 42.5502C13.977 41.686 14.9435 41.4911 15.7307 41.0298Z" fill="#F8ECCD"/>
<path d="M13.4593 42.5506C13.9699 43.2638 14.0693 43.5965 13.7296 43.7798C12.4195 44.4861 11.8634 45.7646 11.1926 46.9646C10.856 47.5661 10.665 47.5846 9.66987 47.1571C9.16 46.9376 9.05527 46.9823 8.92665 47.5145C8.83808 47.8781 8.86886 48.3025 8.68709 48.6036C8.51765 48.8832 8.15186 49.1835 7.84609 49.2151C6.91184 49.3106 6.15626 48.8216 5.52007 48.1923C5.3876 48.0614 5.35903 47.6716 5.45454 47.4922C5.80575 46.8329 6.22938 46.2113 6.62526 45.5759C6.91948 44.8573 7.42394 44.3498 8.14639 44.061C9.32172 43.33 9.99803 41.3537 11.942 42.5444V42.5459C12.4465 43.005 12.9525 43.0389 13.4593 42.5506Z" fill="#F5E5C5"/>
<path d="M11.9404 42.5435C11.6108 42.6737 11.275 42.9255 10.9516 42.9109C10.1575 42.8739 9.65992 43.266 9.14311 43.7851C8.93208 43.9977 8.48457 43.9753 8.14491 44.06C8.18804 43.9422 8.23814 43.8274 8.27203 43.7073C8.53158 42.7954 8.49995 42.723 7.80908 42.7492C7.56338 42.7584 7.31769 42.8724 7.07507 42.8601C6.40654 42.827 5.8397 41.9528 6.25946 41.5438C7.16137 40.665 7.50641 39.7762 7.00578 38.5385C6.7339 37.8661 7.21142 37.3069 7.92463 37.2961C8.54233 37.2861 9.16934 37.3193 9.77934 37.4155C10.3616 37.5072 11.024 38.1811 10.9439 38.7172C10.806 39.6322 10.9038 40.3908 11.5169 41.1387C11.8034 41.4884 11.808 42.0683 11.9404 42.5435Z" fill="#F8ECCD"/>
<path d="M13.457 42.55C12.696 43.2979 12.696 43.2979 11.9404 42.5454C12.4457 42.547 12.9517 42.5485 13.457 42.55Z" fill="#F8ECCD"/>
<path d="M84.0312 62.2222C85.6378 63.5022 87.4517 64.4257 89.2995 65.2922C89.3734 65.6527 89.381 66.0447 89.5343 66.3674C89.9156 67.1707 90.4701 67.5088 91.3073 67.2539C92.1222 67.0059 92.6891 67.0752 93.2521 67.7515C93.7928 68.4015 94.6223 68.8398 94.6084 69.8426C93.8706 69.8426 93.1328 69.8449 92.3957 69.8433C91.7449 69.8426 91.1988 70.0567 90.8083 70.5997C89.663 69.9565 88.614 69.3627 87.1821 69.1086C84.8831 68.7004 84.2477 66.3312 83.5946 64.294C83.4983 63.9274 83.4675 63.5554 83.4875 63.178C83.5684 62.8029 83.7462 62.4817 84.0312 62.2222Z" fill="#FCF2CF"/>
<path d="M9.67685 80.442C8.35595 79.4885 7.01116 78.5658 5.72646 77.5661C5.24124 77.1879 4.87385 76.648 4.49106 76.1512C4.10827 75.6552 3.86564 75.0106 3.40044 74.6255C2.04103 73.5002 2.02031 72.0199 2.1058 70.4795C2.142 69.8271 2.37846 69.2487 2.82749 68.7765C3.86726 67.6821 4.97169 66.6909 6.2148 65.7936C7.53954 64.8377 8.85966 64.4126 10.427 64.5304C10.6812 64.7823 10.9346 65.0341 11.1888 65.2852C11.0648 65.3014 10.9377 65.3068 10.8167 65.3361C10.4355 65.4277 10.0072 65.755 10.2444 66.0438C11.352 67.3925 11.2165 69.1046 11.6878 70.6304C11.8187 71.054 11.5269 71.5932 11.5215 72.0799C11.5192 72.2725 11.7325 72.5728 11.9151 72.6406C12.3772 72.8116 12.8909 72.8394 13.3584 72.9988C13.7019 73.1159 14.0301 73.3161 14.3204 73.5371C15.0637 74.1025 15.0251 75.3063 14.2033 75.7191C13.5209 76.0619 12.7599 76.246 12.9633 77.2626C13.0511 77.7009 12.8331 78.0066 12.4488 78.106C11.141 78.4426 10.2707 79.2713 9.67685 80.442Z" fill="#FDF9E1"/>
<path d="M14.2141 66.0545C14.7194 66.5598 15.2254 67.065 15.7314 67.5695C15.8254 68.7271 15.5027 69.7599 14.8265 70.6988C14.4961 71.1571 13.5479 71.1209 13.2537 70.5795C13.025 70.1597 12.7577 69.6891 12.7492 69.2362C12.7269 68.0971 12.5166 67.0358 11.939 66.0522C12.445 65.6255 12.9518 65.6155 13.4593 66.0491C13.7104 66.0483 13.9623 66.0499 14.2141 66.0545Z" fill="#FDF9E1"/>
<path d="M13.4593 66.0487C12.9525 66.0495 12.4457 66.0511 11.9389 66.0518V66.051C11.7695 65.8824 11.7133 65.7145 11.7695 65.5466C11.8257 65.3779 11.8819 65.2939 11.9389 65.2939C12.5651 65.3055 13.1281 65.4433 13.4593 66.0487Z" fill="#FCF4D8"/>
<path d="M11.9389 65.2943C11.9389 65.5469 11.9389 65.7995 11.9389 66.0514C11.6879 65.7957 11.4368 65.5392 11.1857 65.2827C11.4368 65.2827 11.6879 65.2866 11.9389 65.2943Z" fill="#FDF9E1"/>
<path d="M69.5861 5.38853C69.5276 5.49481 69.4482 5.69967 69.4136 5.69197C69.1586 5.63806 69.2195 5.51792 69.5861 5.38853Z" fill="#F9F0CF"/>
<path d="M87.7853 25.8633C87.4141 26.9486 87.4133 26.9524 86.6532 26.8153C86.0485 26.706 85.4378 26.6182 84.8478 26.4541C84.663 26.4025 84.4466 26.1499 84.4134 25.9596C84.3803 25.7701 84.502 25.4258 84.6537 25.3527C85.427 24.9814 86.2311 24.6772 87.0244 24.3491C87.6344 24.6749 87.7684 25.2395 87.7853 25.8633Z" fill="#FEFCE8"/>
<path d="M87.7784 47.0854C87.4534 47.7147 86.8803 47.8426 86.2449 47.8433C86.5853 47.2441 87.1522 47.1039 87.7784 47.0854Z" fill="#FDF8E1"/>
<path d="M78.6915 54.6869C78.6946 55.1853 78.6977 55.6836 78.7008 56.1819C77.3676 56.2343 77.4561 55.5473 77.9128 54.6685V54.6693C78.1724 54.6754 78.4319 54.6815 78.6915 54.6869Z" fill="#F7E8C8"/>
<path d="M80.1764 53.165C79.9315 53.4161 79.6858 53.6672 79.4409 53.9183C79.6858 53.6672 79.9307 53.4161 80.1764 53.165Z" fill="#F7E8C8"/>
<path d="M55.1704 99.4123C54.5681 99.4762 53.8903 99.3854 53.3781 99.6357C52.3637 100.131 51.4996 99.9237 50.6123 99.42C50.2496 99.3453 49.8421 99.3515 49.5333 99.1797C48.3464 98.5204 47.168 97.8403 46.0296 97.101C44.4584 96.0804 43.1114 94.8188 42.1964 93.1521C41.9584 92.7185 41.7403 92.2733 41.5124 91.8336C41.326 88.9145 41.7843 86.0724 42.6947 83.3174C43.2654 81.5906 43.2145 80.1981 41.5078 79.1984C40.545 80.024 41.1242 80.6918 41.4407 81.3134C42.2371 82.8784 41.9468 84.1369 40.1884 84.502C38.7343 84.8039 36.7325 85.6057 36.6308 82.7767C36.5977 81.8563 35.9484 81.1786 35.4524 80.4561C35.6249 79.8646 35.7382 79.2469 35.9839 78.687C36.4337 77.6611 36.9913 76.6821 37.4449 75.6578C37.6714 75.1471 37.4434 74.7035 36.972 74.4016C37.1977 74.0789 37.5081 73.8108 37.8917 73.9695C38.2206 74.1058 38.4655 74.4339 38.7713 74.6427C39.5938 75.2026 40.6089 75.2249 41.205 74.6573C41.8412 74.0511 42.5006 73.4488 43.0228 72.7495C43.7137 71.8237 44.5 71.0427 45.4712 70.4204C45.9272 70.1285 46.0027 69.5932 46.065 69.0864C49.1289 69.6371 48.3487 72.0833 47.3728 73.2386C45.3726 75.6054 46.9308 77.3776 47.5277 79.4333C48.0283 81.1562 49.6395 80.3984 49.7489 79.9763C50.5183 77.0203 52.8367 78.0261 54.6282 77.9168C58.9398 77.6533 60.6434 76.3171 61.5099 72.2442C63.7889 70.1947 65.9848 67.7994 69.4145 70.2332C71.3608 71.3415 72.1509 72.6887 70.3002 74.5703C62.3933 75.2657 63.1697 76.2662 62.656 82.7198C62.6259 83.0964 62.6343 83.4761 62.6382 83.8542C62.6551 85.3985 62.706 87.0029 60.8221 87.5651C59.76 87.8824 59.1169 87.2093 57.8815 84.7955C56.3627 86.094 56.127 89.0793 53.3851 88.6857C51.3063 88.3876 49.5856 87.2401 49.2814 84.6953C48.9017 86.1279 47.6139 87.0914 47.3366 88.8352C48.9795 89.0077 50.2634 90.1175 52.0572 89.4667C54.3725 88.628 55.309 90.2955 54.8908 92.0523C54.2831 94.6147 55.0934 96.9677 55.1704 99.4123Z" fill="#FDF9E1"/>
<path d="M61.9959 72.1185C61.9758 73.5056 61.9613 74.8927 61.9328 76.2791C61.9228 76.7559 61.4791 77.191 60.9161 77.1233C59.5197 76.9561 58.4453 77.4729 57.6466 78.5651C57.1197 79.286 56.6345 79.6241 55.8166 78.9333C55.5855 78.7384 55.1072 78.716 54.7752 78.7815C53.6369 79.0056 52.5286 78.9964 51.411 78.6629C51.0537 78.5566 50.7671 79.0534 50.9635 79.4347C51.1353 79.7682 51.374 80.067 51.5542 80.3974C51.7468 80.7509 51.4495 81.1637 51.0321 81.1345C50.7833 81.1168 50.5122 81.1314 50.2934 81.0351C49.6272 80.7425 49.1035 80.925 48.5697 81.3655C48.2023 81.669 47.7541 81.8793 47.3274 82.1034C47.2589 82.1396 47.027 82.0426 47.017 81.9817C46.933 81.4903 46.8453 80.9935 46.8306 80.4967C46.8045 79.6018 46.749 78.7661 45.9927 78.0922C45.6453 77.7825 45.4497 77.2588 45.2825 76.7975C44.7126 75.224 44.2004 74.6956 46.3724 73.4648C46.9747 73.1236 47.2758 72.6507 47.0917 71.9067C47.0062 71.5593 47.0255 71.1519 47.1164 70.8022C47.3659 69.8379 46.7913 69.4282 46.065 69.0893C45.348 69.2795 44.6332 69.4783 43.9115 69.6492C43.823 69.67 43.6643 69.5661 43.6012 69.476C43.5465 69.3982 43.5341 69.2302 43.5827 69.1486C43.8961 68.6156 44.2304 68.0957 44.5577 67.5712C44.7734 67.3379 45.0422 67.2354 45.3564 67.2401C46.2668 67.4211 47.1565 67.237 48.0491 67.0637C48.5621 67.0483 49.0257 67.1838 49.4378 67.495C50.151 68.2221 50.6724 69.0677 50.9997 70.0297C52.5286 74.5215 55.4076 75.3503 59.5405 72.4774C60.286 71.8474 61.0562 71.3876 61.9959 72.1185Z" fill="#FDF6DA"/>
<path d="M45.3272 67.5768C45.0707 67.5745 44.8142 67.5722 44.5577 67.5699C44.302 67.5684 44.0464 67.566 43.7906 67.5645C44.2058 66.6595 44.9013 66.0125 45.7154 65.4772C46.5749 64.9127 47.4753 64.7479 48.4311 65.2354C48.8671 64.9735 49.3192 64.8341 49.6943 65.2985C50.0925 65.7907 49.7689 66.202 49.4031 66.4916C48.8293 66.946 48.1007 67.0762 47.4114 67.2718C46.7344 67.489 46.0843 67.9003 45.3272 67.5768Z" fill="#FDFAE5"/>
<path d="M28.6245 69.8415C29.4163 68.8903 30.8019 68.8041 31.5844 67.7997C31.7485 67.5895 32.3015 67.5509 32.6289 67.628C33.3321 67.7935 34.006 68.0855 34.6914 68.3258C33.882 69.3432 32.7805 69.7691 31.5251 69.8223C30.56 69.8638 29.5919 69.8377 28.6245 69.8415Z" fill="#FCF7DD"/>
<path d="M17.2541 74.1015C17.2171 74.3303 17.1716 74.6938 17.0915 75.0497C17.0668 75.1583 16.9221 75.3384 16.8728 75.3261C16.6448 75.2684 16.3691 75.2106 16.2243 75.0504C15.6512 74.4142 15.6744 73.7064 16.1596 73.0363C16.2828 72.8661 16.5793 72.7136 16.7742 72.7367C16.9298 72.7552 17.1069 73.0333 17.1762 73.2312C17.2548 73.4561 17.2256 73.7187 17.2541 74.1015Z" fill="#FDF9E1"/>
<path d="M43.0326 66.0518C43.035 66.5562 43.0373 67.0607 43.0404 67.5652C42.2833 66.8135 42.2832 66.8135 43.0326 66.0518Z" fill="#FDFAE5"/>
<path d="M27.1034 69.8468C27.3591 69.846 27.614 69.846 27.8697 69.8452C27.487 70.3081 27.487 70.3081 27.1034 69.8468Z" fill="#FCF7DD"/>
<path d="M70.3402 74.3923C70.3248 74.3846 70.3087 74.3762 70.2933 74.3677C70.5898 73.5436 70.8709 72.5677 70.3795 71.8429C69.8557 71.0704 68.5811 70.807 68.4964 69.8781C68.4263 69.1118 69.3652 68.5688 70.1161 68.7383C70.4766 68.8199 70.8177 69.0125 71.1866 69.0009C72.0554 68.9732 72.4844 67.9149 73.2477 67.4982C74.021 67.0769 75.1239 67.4998 75.4174 68.3301C75.7309 69.2174 75.1871 70.2093 75.3904 71.129C76.595 71.397 77.7018 70.033 78.9149 70.2609C79.6966 70.4081 80.195 71.1575 80.6024 71.8406C81.663 70.1647 83.6254 68.9793 85.5933 69.2204C86.5923 69.3429 87.5134 69.8065 88.4114 70.2625C89.0376 70.5806 89.6646 70.8987 90.2915 71.2175C90.843 71.4979 91.3976 71.779 91.9028 72.1364C92.8494 72.8057 93.6003 73.7422 94.0655 74.802C94.4368 75.6485 95.0391 77.3345 94.4376 78.1725C94.1849 78.5245 93.7451 78.7024 93.4855 79.049C93.1767 79.461 93.1805 80.0256 92.9764 80.4977C92.8108 80.8797 92.5151 81.1871 92.2571 81.5136C91.6217 82.3154 91.1865 83.2735 91.0016 84.2794C90.796 85.3954 90.893 86.5615 90.578 87.6514C90.0519 89.4713 88.4862 90.7676 87.0027 91.946C86.7732 92.1285 86.5407 92.3126 86.2749 92.4366C85.9815 92.5744 85.658 92.633 85.3399 92.6962C84.4765 92.8679 83.6208 93.0805 82.7497 93.2045C80.4129 93.5387 78.0376 93.233 75.697 92.9272C73.6845 92.6646 71.6712 92.4012 69.6586 92.1385C69.4276 92.1085 69.1811 92.0715 69.0093 91.9144C68.5657 91.5093 69.0001 90.7521 69.533 90.4749C70.5366 89.9527 71.7435 90.1337 72.8634 90.2931C74.7873 90.5673 76.7268 90.7383 78.6685 90.8053C80.4345 90.8661 82.2406 90.8346 83.9104 90.2569C85.5802 89.6793 87.1152 88.4716 87.689 86.8002C88.3105 84.9895 87.7915 82.789 88.9468 81.2625C89.355 80.7234 89.9341 80.3344 90.3446 79.7976C91.1379 78.7601 91.1857 77.3514 91.1788 76.0452C91.1772 75.7902 91.1711 75.5214 91.0386 75.3042C90.7059 74.7597 89.8641 74.9053 89.3249 75.248C88.7858 75.5908 88.2566 76.0821 87.6204 76.029C87.2662 75.9997 86.9527 75.801 86.6384 75.6346C85.547 75.0577 84.2747 74.829 83.0509 74.99C81.8509 75.1479 80.7318 75.6624 79.5757 76.0244C78.4197 76.3864 77.1388 76.5881 76.0197 76.126C75.3172 75.8364 74.7427 75.3104 74.1188 74.876C73.4949 74.4416 72.7502 74.0827 71.9992 74.2021C71.437 74.2922 70.84 74.6357 70.3402 74.3923Z" fill="#FCF2CF"/>
<path d="M35.4524 80.4569C36.017 80.738 36.5923 81.0006 37.1445 81.3048C38.0295 81.7916 38.0573 81.9857 37.4588 82.9962C37.3949 83.1041 37.2632 83.2373 37.2878 83.3205C37.3548 83.5407 37.455 83.8858 37.6044 83.9228C38.4562 84.1308 39.258 83.396 40.1746 83.7772C40.3864 83.865 40.8569 83.5508 41.0926 83.309C41.4199 82.9724 41.3229 82.3038 40.9571 81.9357C40.6921 81.6684 40.4049 81.4119 40.0906 81.2063C39.6015 80.8866 39.4336 80.4445 39.5784 79.9169C39.7448 79.31 39.9651 78.7155 40.1985 78.1301C40.4457 77.5101 41.7296 77.3037 42.1563 77.8598C42.9196 78.8541 43.6389 79.8869 44.3106 80.9452C44.5878 81.3827 44.5631 81.9773 44.2496 82.3863C43.3708 83.5323 42.9488 84.7762 42.9372 86.2342C42.9318 86.9597 42.5667 87.6821 42.3642 88.4061C43.0242 89.7832 42.1331 90.7752 41.5131 91.835C41.3991 91.7842 41.2852 91.7334 41.1712 91.6833C39.533 90.9563 38.2752 89.8841 37.361 88.2706C36.7333 87.163 36.1479 86.1602 36.1803 84.8355C36.198 84.1123 35.9222 83.3836 35.7967 82.6543C35.6704 81.9233 35.5664 81.1894 35.4524 80.4569Z" fill="#FDF6DC"/>
<path d="M82.4739 91.8319C80.7395 91.8311 79.005 91.8349 77.2705 91.8288C75.7886 91.8234 74.3468 91.7548 72.8749 91.3305C71.6049 90.9638 70.1792 91.1387 68.8221 91.074C67.7231 91.1918 66.6232 91.2989 65.5257 91.4313C64.9904 91.496 64.5653 91.9212 64.6931 92.4419C64.888 93.2336 64.8379 93.8775 64.2572 94.4906C63.7481 95.0289 63.195 95.5727 62.8577 96.2174C62.0844 97.6915 60.7805 98.3293 59.2817 98.5927C58.4013 98.7475 57.6026 98.9392 56.9087 99.5254C56.3156 100.026 55.7426 99.5878 55.1703 99.4145C54.709 98.6697 54.2823 97.8995 53.7694 97.1917C53.5337 96.8674 53.3319 96.5755 53.4335 96.1858C53.8109 94.7309 53.5714 93.1758 54.2561 91.7548C54.5403 91.1648 54.1398 90.5479 53.6454 90.0935C53.2626 89.7408 52.6071 89.7846 52.3429 90.2267C52.1519 90.5464 52.048 90.9168 51.8646 91.2418C51.6844 91.5623 51.1575 91.6717 50.8764 91.4629C50.4751 91.1649 50.0369 90.8937 49.7042 90.5294C48.8608 89.6067 48.0036 89.5875 47.0647 90.3523C46.9761 90.4247 46.8406 90.4439 46.7243 90.4771C46.4069 90.5672 46.2268 90.4455 46.169 90.1235C45.9364 88.8242 46.0204 87.6027 47.0902 86.6592C47.8827 85.9598 48.2085 85.0394 48.5435 84.0721C48.7345 83.5222 49.2899 83.0954 49.6988 82.6287C49.7712 82.5463 50.0077 82.4755 50.0362 82.5093C50.1733 82.6749 50.4067 82.9507 50.352 83.0554C49.6565 84.3855 50.4814 85.4877 50.8695 86.6445C50.935 86.8394 51.2145 87.0235 51.4333 87.0959C52.252 87.3662 53.194 87.3185 53.8133 88.0995C53.861 88.1595 54.3069 88.0463 54.4063 87.9023C55.3189 86.5767 56.7577 85.6017 57.0095 83.8186C57.0665 83.4128 57.6134 83.0454 57.9923 82.7296C58.1471 82.6002 58.4552 82.6287 58.6909 82.6395C58.7533 82.6426 58.8465 82.8444 58.8558 82.9607C58.9082 83.5845 58.9243 84.2115 58.9805 84.8353C59.0144 85.2081 59.0845 85.5786 59.163 85.9444C59.2801 86.4928 60.0472 87.0659 60.5602 87.0081C61.1286 86.9442 61.7849 86.3318 61.8403 85.7981C61.8657 85.5501 61.9304 85.2766 61.8572 85.0541C61.5376 84.0844 61.2734 83.1663 61.8148 82.145C62.1129 81.5828 61.7941 80.9273 61.6054 80.3196C61.5022 79.9861 61.4236 79.4485 61.6046 79.2537C62.964 77.7934 62.7021 75.9842 62.8092 74.2466C62.8238 74.0071 62.934 73.7652 63.0403 73.5426C63.0842 73.451 63.2381 73.3486 63.3321 73.3578C63.5547 73.3778 63.9129 73.404 63.9645 73.5311C64.1516 73.987 64.2287 74.4885 64.3635 74.9675C64.392 75.0684 64.479 75.2039 64.5629 75.224C64.6715 75.2502 64.8494 75.2171 64.9188 75.1393C65.3362 74.6717 65.7083 74.1611 66.1411 73.709C66.5108 73.3224 66.9914 73.1914 67.5097 73.4109C67.9734 73.6065 68.4147 73.8623 68.8876 74.0279C69.3566 74.1911 69.8542 74.2743 70.3387 74.3929L70.3372 74.3922C72.4182 74.021 74.0179 74.2767 75.8356 75.9303C77.4514 77.4006 80.0509 78.3179 82.6011 76.8014C84.364 75.7531 86.2934 75.0214 87.9594 77.0964C88.6826 77.9975 89.5505 79.142 88.2027 79.9669C85.0895 81.8739 86.6131 83.5645 88.2236 85.329C88.7719 85.9298 89.137 86.5167 88.5393 87.2815H88.5378C86.5545 88.8473 84.4318 90.2291 82.4739 91.8319Z" fill="#FEFCE9"/>
<path d="M90.8554 71.32C90.6451 71.434 90.4264 71.6574 90.2254 71.642C89.4868 71.5873 88.7542 71.3778 88.0179 71.367C86.9081 71.3501 86.1702 70.8463 85.5102 69.9899C84.8609 69.1473 84.6206 69.2189 83.9644 70.3187C83.7002 70.7608 83.4706 71.2591 82.9153 71.2599C81.72 71.2607 81.0638 71.8353 80.7811 72.9582C80.768 73.0114 80.2189 73.0506 80.1565 72.949C79.9779 72.6601 79.897 72.302 79.8207 71.9608C79.585 70.908 78.6931 70.472 77.9391 71.0735C77.4508 71.4625 77.0079 71.9084 76.5211 72.2989C75.8071 72.8712 74.9445 72.9205 74.4747 72.4476C73.9232 71.8922 73.7946 71.1899 74.3215 70.4805C74.8259 69.8019 74.9076 69.1334 74.6981 68.3755C74.6673 68.2638 74.5656 68.109 74.4732 68.089C74.2498 68.0412 73.9225 67.9611 73.7969 68.0728C73.4311 68.3994 73.1777 68.8507 72.8165 69.1842C72.2712 69.6872 71.6727 70.1308 71.0966 70.5999C70.6684 70.1824 70.8008 69.4846 70.3402 69.0833C69.8203 67.9958 67.9804 67.5961 68.6682 65.8755C69.4407 64.6501 70.6853 64.4798 71.9638 64.4405C72.905 64.412 73.7661 64.3551 73.7084 63.0735C73.8008 62.5312 74.085 62.1307 74.5649 61.8673C74.9014 61.7456 75.248 61.6932 75.6054 61.7009C76.3317 61.7864 76.9301 62.1415 77.4862 62.5813C78.3281 63.4085 79.2831 63.983 80.527 63.913C81.6846 64.1656 82.8437 64.6131 83.9567 63.7805C84.1924 64.0508 84.4989 64.2865 84.6475 64.5977C84.9086 65.143 85.075 65.7337 85.2768 66.3068C85.7697 67.7093 86.905 68.3694 88.1997 68.8538C88.7543 69.0618 89.4767 68.4556 89.8857 69.0895C90.203 69.5816 90.2091 70.2687 90.8106 70.5983C90.8261 70.8401 90.8415 71.0805 90.8554 71.32Z" fill="#FCEAC4"/>
<path d="M56.6853 12.2173C56.7377 11.8722 56.7054 11.4817 56.8594 11.1906C57.2461 10.4604 56.9503 9.83503 56.6869 9.18652C57.6766 9.2389 58.1965 9.73953 58.1865 10.7508C58.1842 10.9865 58.1965 11.2222 58.2019 11.4586C57.9493 11.7113 57.6974 11.9646 57.4455 12.2173C57.1921 12.2173 56.9387 12.2173 56.6853 12.2173Z" fill="#FDF5DB"/>
<path d="M81.7138 27.3822C81.1077 27.3052 80.4792 27.3021 79.9 27.1319C79.1452 26.9109 78.7924 26.1368 78.9842 25.3728C79.1328 24.7782 79.2885 24.1851 79.4402 23.5913C79.9454 23.8439 80.4515 24.0966 80.9567 24.3484C81.3072 24.8475 81.6614 25.3443 82.0057 25.8472C82.3969 26.4195 82.3647 26.5712 81.7138 27.3822Z" fill="#FEFCE8"/>
<path d="M80.9574 24.349L81.1315 24.0332L81.2732 24.1749L80.9574 24.349Z" fill="#FEFCE8"/>
<path d="M46.9115 66.879C47.7503 66.8205 48.4365 66.3915 49.1166 65.9563C49.1859 65.9117 49.2645 65.7384 49.2421 65.7153C49.0997 65.5635 48.9402 65.421 48.7654 65.3078C48.676 65.2501 48.5428 65.2593 48.4304 65.2369C48.311 64.3966 48.123 63.5379 49.0534 62.9895C50.5215 63.799 51.9748 63.2344 53.4297 62.9395C53.8703 65.1522 55.0772 63.4586 55.956 63.4254C56.8949 63.3438 57.8576 63.3607 58.6687 62.7515C59.2201 62.3864 59.7916 62.0645 60.427 61.8712C60.7559 61.8034 61.0848 61.8119 61.4129 61.8781C62.4272 62.6691 63.1681 63.7743 64.3188 64.4205C64.4536 64.7717 64.4067 65.0998 64.2072 65.4133C60.5426 66.4693 57.0397 68.3794 52.9522 66.9884C52.3237 66.7743 51.4141 68.6019 50.0516 68.1652C49.6997 68.0243 49.3793 67.8318 49.0889 67.5907C48.5883 67.5876 48.0876 67.5853 47.5869 67.5822C46.799 67.8895 46.6866 67.5468 46.9115 66.879Z" fill="#F5D5A7"/>
<path d="M68.1067 55.4086C68.3709 55.4348 68.6342 55.4602 68.8984 55.4857C69.2974 55.8815 69.4737 56.3691 69.4937 56.9205C68.8984 59.0016 66.0718 60.4149 67.6253 63.1515C67.6299 63.5296 67.5382 63.877 67.3426 64.2005C66.4322 65.1317 65.4479 65.4782 64.3049 64.5964L64.2511 64.4801C63.8067 63.5181 63.8698 62.3743 63.1774 61.4994C63.0126 61.0527 62.9956 60.6021 63.1327 60.1484C63.4115 59.5061 63.9823 59.0085 64.0708 58.2722C64.0808 57.8771 64.0339 57.4874 63.9545 57.1023C63.9106 56.8466 63.9198 56.5909 63.9768 56.3406C64.06 56.1018 64.221 55.9277 64.4436 55.8222C64.6608 55.7236 64.7648 55.5496 64.7339 55.297C64.7055 55.0497 64.7917 54.8548 64.9866 54.7085C65.5311 54.7154 66.0749 54.7231 66.6186 54.7308C66.9121 55.0066 67.0754 55.337 67.043 55.7452C67.0846 55.9123 66.7588 56.0047 66.9452 56.2011C67.0615 55.9785 67.2163 55.7914 67.4073 55.6312C67.6145 55.4741 67.8479 55.4009 68.1067 55.4086Z" fill="#E8CBAE"/>
<path d="M53.6569 63.036C53.3796 63.2863 53.0692 63.5089 52.8327 63.7931C52.4907 64.2051 52.0902 64.4639 51.5534 64.4462C51.052 64.4301 50.5506 64.3762 50.0499 64.333C49.212 64.2614 49.1404 63.6191 49.0533 62.989L49.0664 62.979C49.3414 61.0011 49.2412 58.8538 51.4378 57.7463C52.0756 57.5999 52.6741 57.5745 53.0322 58.2739C53.0376 58.4456 53.0438 58.6174 53.0522 58.7891C53.0469 59.0425 52.9821 59.2867 52.9529 59.5339C52.8466 60.4227 52.0626 60.8979 51.7036 61.6304C52.4353 61.1313 53.1754 60.6676 54.1166 61.0905C54.4393 61.283 54.6288 61.5634 54.6904 61.9331C54.6265 62.302 54.4455 62.6016 54.1651 62.845C53.9965 62.9097 53.8263 62.9728 53.6569 63.036Z" fill="#D09246"/>
<path d="M60.3977 55.3169C60.5086 54.968 60.5663 54.5891 60.7435 54.2779C60.9414 53.929 61.5083 53.9398 61.7009 54.2841C61.8803 54.6045 61.972 54.9749 62.1022 55.3231C63.1442 56.5107 63.6164 57.8 62.8269 59.3204C62.7014 59.6177 62.5366 59.8934 62.3502 60.1568C62.1484 60.4102 61.9127 60.629 61.6516 60.8215C61.5068 60.8931 61.3597 60.9594 61.2126 61.0295C61.0516 61.0433 60.8891 61.0533 60.7266 61.0672C60.571 61.0194 60.4162 60.9686 60.2599 60.9216C59.9803 60.7476 59.7368 60.5303 59.525 60.277C59.3432 59.9997 59.2101 59.7009 59.1215 59.3805C58.9767 58.7243 58.999 58.0688 59.143 57.4149C59.3117 56.5669 59.9641 56.0078 60.3977 55.3169Z" fill="#AF6113"/>
<path d="M53.033 58.2736C53.442 58.0379 53.8756 57.8361 54.253 57.5581C54.833 57.1314 55.3737 56.6516 55.9313 56.1948C56.0669 56.2888 56.2024 56.3828 56.3411 56.4736C57.2738 57.8238 58.4452 58.9391 59.7491 59.9242L59.7052 60.0266C59.8978 60.2461 59.9578 60.4625 59.8862 60.6743C59.8146 60.8846 59.7453 60.9901 59.6806 60.9909C58.2164 61.8928 56.8254 61.3213 55.4329 60.7868C54.6535 59.9511 52.2567 61.1542 52.7542 58.6888C52.8467 58.5501 52.9398 58.4115 53.033 58.2736Z" fill="#D09246"/>
<path d="M77.9127 54.6685C77.9412 55.2946 78.0637 55.8723 78.7007 56.1827H78.6991C79.1096 56.6055 78.9579 57.3133 79.4632 57.6892L79.4717 57.6961C79.658 57.8918 79.7296 58.0951 79.6865 58.3069C79.6426 58.5225 79.5926 58.6304 79.5387 58.6304C79.132 58.9669 78.656 59.1187 78.1407 59.1541C77.3805 59.1934 76.7213 58.8499 76.0535 58.5818C75.6322 58.6388 75.3757 58.9377 75.1023 59.2319C74.8381 59.4244 74.5531 59.4923 74.2304 59.443C73.9308 59.2597 73.719 59.0124 73.5781 58.6943C73.327 57.7693 73.3493 56.9082 74.1118 56.2073C75.2009 56.2412 76.236 56.1519 77.0293 55.2423C77.2512 54.9881 77.6139 54.8564 77.9127 54.6685Z" fill="#FAE7BE"/>
<path d="M51.4388 57.7456C51.3664 57.972 51.3339 58.2231 51.213 58.4188C50.9365 58.8663 49.9553 61.3255 49.8745 61.8793C49.7998 62.3884 49.5125 62.7412 49.0681 62.9792C49.0442 62.2282 48.7122 61.6174 48.3078 60.9943C47.7941 60.2026 48.22 58.9248 49.0588 58.5851C49.8374 58.2701 50.6439 58.0229 51.4388 57.7456Z" fill="#F5D5A7"/>
<path d="M70.5135 55.3682C70.9333 55.3728 71.3522 55.3782 71.7712 55.3828C72.2734 55.6993 72.4906 56.1915 72.6162 56.743C72.7224 57.279 72.7501 57.8228 72.747 58.3673C72.7517 59.0836 72.7202 59.7983 72.5831 60.5054C72.4976 60.8528 72.3512 61.1747 72.1548 61.4728C71.534 62.0173 70.911 62.0127 70.2886 61.4751C70.1192 61.1755 70.0444 60.8512 70.0575 60.5077C70.1584 59.6951 70.1815 58.8833 69.9189 58.0846C69.8133 57.7604 69.7502 57.4315 69.7063 57.095C69.694 56.3879 69.7441 55.7078 70.5135 55.3682Z" fill="#E4C39F"/>
<path d="M71.8967 58.55C71.8929 58.0008 71.8891 57.4517 71.8853 56.9017C72.4752 56.4727 72.6501 55.6185 73.4334 55.3867C73.6598 55.6601 73.8862 55.9336 74.1119 56.207C74.1258 57.2475 74.1388 58.2873 74.1527 59.3278C74.3976 59.5897 74.5062 59.8955 74.4577 60.2544C74.2598 60.7797 73.8755 61.0677 73.3255 61.1409C73.163 61.1139 72.9966 61.0855 72.8341 61.0593C72.7062 60.9584 72.5761 60.8552 72.4467 60.755C72.3412 60.0018 72.727 59.1245 71.8967 58.55Z" fill="#E3BD90"/>
<path d="M62.0929 60.0261C62.1252 59.6587 62.0705 59.2544 62.2061 58.9301C62.565 58.0713 62.4833 57.2657 62.1729 56.4192C62.052 56.0896 62.1206 55.6899 62.1029 55.3225C62.5111 55.2955 62.9193 55.2694 63.3267 55.2432C64.1993 55.5043 63.7219 56.4693 64.2071 56.9322C64.6307 57.0863 64.8448 57.382 64.8248 57.8379C64.395 58.3016 64.2255 58.944 63.7642 59.3869C63.2389 59.6834 62.8469 60.3303 62.0929 60.0261Z" fill="#D6A165"/>
<path d="M60.3978 55.3169C60.7228 56.2796 60.0889 56.9782 59.7262 57.7515C58.2466 59.3065 57.7344 58.6364 57.6943 56.8704C57.8006 56.5276 58.007 56.2627 58.3128 56.074C59.0083 55.8221 59.703 55.5695 60.3978 55.3169Z" fill="#D08F40"/>
<path d="M73.4334 55.3871C73.4118 55.508 73.3972 55.6313 73.3663 55.7499C73.0929 56.8004 73.0914 56.7997 71.8853 56.9029C71.8475 56.3961 71.8097 55.8901 71.772 55.3833C72.7085 54.7356 72.7086 54.7355 73.4334 55.3871Z" fill="#C28645"/>
<path d="M70.5136 55.3679C70.4004 56.1265 70.2871 56.8852 70.1731 57.6446C69.3922 58.0451 69.2034 57.3342 68.8461 56.9383C68.863 56.4539 68.8807 55.9694 68.8977 55.4857C69.7711 54.8834 69.7711 54.8834 70.5136 55.3679Z" fill="#BF7828"/>
<path d="M64.2072 56.9327C63.6211 56.5222 63.4716 55.8845 63.3268 55.2437C63.7088 54.5351 64.2927 54.4535 64.9858 54.7092C65.0159 54.9634 65.0459 55.2175 65.0759 55.4717L64.8942 55.7921C64.65 55.8922 64.489 56.0678 64.4128 56.3212C64.3365 56.523 64.268 56.7263 64.2072 56.9327Z" fill="#B87933"/>
<path d="M55.9314 56.1948C57.0089 55.138 57.0189 55.1373 58.3128 56.0746C58.2104 56.1824 58.1064 56.2895 58.0017 56.3958C57.3894 56.8379 56.7786 56.8202 56.1694 56.3881L55.9314 56.1948Z" fill="#D08F40"/>
<path d="M68.1066 55.4081C67.8763 55.6977 67.646 55.9873 67.4165 56.2769C66.8404 55.8487 66.8997 55.3511 67.2571 54.8204C67.6791 54.8135 67.921 55.0708 68.1066 55.4081Z" fill="#D5A067"/>
<path d="M67.2564 54.8204C67.3088 55.3056 67.3618 55.7909 67.415 56.2768L67.3604 56.3038C67.0731 56.417 66.8035 56.3908 66.5524 56.2052C66.5739 55.7138 66.5956 55.2224 66.6179 54.731C66.8459 54.654 67.0584 54.6841 67.2564 54.8204Z" fill="#B68246"/>
<path d="M22.5569 44.8209C22.6717 44.7801 22.7842 44.7277 22.902 44.7008C23.7246 44.5098 23.948 44.5652 24.0404 45.0512C24.3107 46.4722 24.5802 47.8948 24.7974 49.325C24.8945 49.9643 24.6318 50.5135 24.0742 50.8893C23.1353 50.8177 22.4953 51.5016 21.7112 51.8197C21.4355 51.9314 21.1975 51.8135 21.1551 51.5055C21.0881 51.0202 21.065 50.5273 21.0581 50.0367C21.0481 49.3343 21.082 49.3112 22.2619 49.1525C22.8673 49.0709 22.9428 48.933 22.6602 48.4255C22.4214 47.9957 22.0602 47.6036 21.9385 47.1461C21.7105 46.2889 21.6851 45.4163 22.5569 44.8209Z" fill="#FDFAE5"/>
<path d="M26.5443 59.6972C26.4357 59.7295 26.3271 59.7611 26.2186 59.7927C26.1924 59.698 26.1184 59.5439 26.1484 59.5193C26.2301 59.4538 26.3564 59.443 26.465 59.4106C26.4912 59.5069 26.5181 59.6024 26.5443 59.6972Z" fill="#FCF4D8"/>
<path d="M79.4002 58.5579C79.424 58.2706 79.4479 57.9826 79.4718 57.6953C80.2351 58.216 80.9991 58.7366 81.7624 59.2573C81.978 59.6455 81.9318 59.999 81.626 60.3209C80.9005 60.8062 80.118 61.3083 79.3439 60.5351C78.7447 59.9366 78.9041 59.2057 79.4002 58.5579Z" fill="#F7E8C8"/>
<path d="M84.0312 62.2229C83.9966 62.5241 83.962 62.826 83.9274 63.1271C83.0424 63.3189 82.5364 62.8091 82.1104 62.1475C81.7939 61.4011 81.8139 60.6794 82.2722 59.9901C82.591 59.662 82.9122 59.6605 83.2349 59.984C83.5938 60.4384 83.8195 60.959 83.9943 61.5043C84.0005 61.7439 84.0128 61.9834 84.0312 62.2229Z" fill="#F7E8C8"/>
<path d="M82.5526 59.9752C82.5734 60.693 82.5942 61.4108 82.615 62.1294C82.4756 62.2442 82.3362 62.3589 82.196 62.4745C81.8132 62.4598 81.5167 62.2981 81.318 61.9653C81.0345 61.2167 81.1285 60.542 81.7146 59.9659C81.7085 59.7279 81.7247 59.4922 81.7617 59.2573C81.955 59.2789 82.149 59.2873 82.3439 59.282C82.575 59.3805 82.682 59.5161 82.6673 59.6886C82.6504 59.8796 82.6127 59.9752 82.5526 59.9752Z" fill="#D7AB78"/>
<path d="M83.9944 61.5038C83.3782 61.178 83.2442 60.6119 83.2357 59.9834C83.5446 60.186 83.892 60.3484 84.1531 60.6003C84.4958 60.9307 84.3748 61.2589 83.9944 61.5038Z" fill="#FCF2CF"/>
<path d="M79.4633 57.6881C78.8233 57.3816 78.7031 56.8109 78.6992 56.1816C79.2861 56.5151 79.4279 57.0743 79.4633 57.6881Z" fill="#F7E8C8"/>
<path d="M82.5526 59.9754C82.4624 59.7505 82.3939 59.5194 82.3453 59.2822C82.7713 59.3515 83.0616 59.5934 83.2357 59.9831C83.0077 59.9831 82.7798 59.9808 82.5526 59.9754Z" fill="#FCF2CF"/>
<path d="M111.295 53.9199L111.121 54.2365L110.979 54.094L111.295 53.9199Z" fill="#FEFCEA"/>
<path d="M82.6141 62.1289C83.0523 62.4609 83.4906 62.7928 83.9281 63.1256C83.9065 63.3466 83.9158 63.5653 83.9558 63.7825C83.8511 64.2423 83.8094 64.7291 83.6284 65.1566C83.2765 65.9892 82.5424 66.1979 81.9563 65.5609C81.4441 65.0041 80.9027 64.629 80.1772 64.4903C79.9562 62.8305 81.6998 63.1941 82.3252 62.4046C82.4208 62.3122 82.517 62.2206 82.6141 62.1289Z" fill="#D7AB78"/>
<path d="M68.8206 66.054C68.9238 66.3782 68.9847 66.9613 69.1372 66.9859C70.4503 67.2008 70.3763 68.1397 70.3394 69.0839C69.3558 69.1124 68.8506 69.6184 68.8228 70.6012C67.998 71.242 67.7877 71.2436 67.4226 70.5673C67.3056 70.3509 67.3155 70.0451 67.163 69.8734C67.0375 69.7317 66.6347 69.6069 66.5639 69.6793C65.293 70.974 63.5709 71.4053 61.9966 72.117C61.1402 72.0739 60.4615 72.5606 59.7252 72.8756C58.3027 73.29 57.9723 72.3642 57.7659 71.2821C57.809 70.9416 57.9307 70.632 58.1379 70.3571C58.5207 70.0159 58.9659 69.784 59.4503 69.62C59.7761 69.5314 60.1088 69.5014 60.4438 69.5052C62.1544 69.5607 63.0401 68.3438 64.0021 67.2239C65.1836 65.8491 66.5092 64.8393 68.4662 65.6796C68.5848 65.8036 68.7028 65.9292 68.8206 66.054Z" fill="#FDF0CE"/>
<path d="M58.208 70.6079C58.2095 71.7008 58.7179 72.4548 59.7245 72.8769C59.6798 73.3767 59.6783 73.8866 59.5674 74.3711C59.5227 74.5652 59.2324 74.8502 59.0614 74.8455C57.9592 74.8132 56.8262 74.8948 55.8542 74.177C55.627 74.0091 55.3937 74.167 55.2504 74.4458C55.0856 74.7647 54.964 75.226 54.6998 75.34C54.4317 75.4547 53.9873 75.2784 53.6669 75.1298C52.6425 74.6538 51.5851 74.2294 50.7725 73.3868C50.208 72.8007 49.8713 72.186 50.2387 71.3658C50.5229 70.7311 50.4389 70.1411 49.9737 69.6228C49.4508 69.0413 49.1204 68.3828 49.0903 67.5902C49.3468 67.5833 49.604 67.5756 49.8613 67.5679C52.6525 68.5545 55.2751 70.0071 58.208 70.6079Z" fill="#FCEAC6"/>
<path d="M46.9115 66.8789C47.1371 67.1123 47.3629 67.3464 47.5878 67.5806C46.4517 68.5456 46.4116 68.5456 45.3264 67.5767C45.8548 67.3441 46.3831 67.1115 46.9115 66.8789Z" fill="#FCEAC6"/>
<path d="M88.5417 87.2802C88.4593 86.6301 88.2875 85.997 87.5604 85.8298C86.5514 85.5972 86.1317 84.8263 85.8205 83.996C85.6033 83.416 85.6026 82.7583 85.4239 82.1599C84.8963 80.3969 84.6321 79.706 87.1337 79.6567C87.3717 79.6521 87.6528 79.5712 87.83 79.4249C87.9963 79.2885 88.1966 78.9088 88.1327 78.8218C87.5373 78.0215 86.9065 77.2452 86.2372 76.5066C86.1247 76.3826 85.7104 76.3726 85.5487 76.4804C84.6945 77.0488 83.8173 77.4778 82.756 77.4986C82.3555 77.5063 82.1389 77.8737 82.0696 78.265C81.9872 78.7278 81.6406 78.8472 81.2594 78.895C80.4676 78.9936 79.7614 78.7741 79.156 78.2526C78.5429 77.7243 77.9244 77.5625 77.078 77.7951C75.9181 78.1132 75.5129 77.849 75.0254 76.7546C74.7727 76.1869 74.695 75.5592 74.0857 75.1841C73.2955 74.6981 72.5438 74.4008 71.6142 74.8653C71.1159 75.1141 70.6484 74.8653 70.3411 74.3901C70.9434 74.1451 71.347 73.6876 71.7405 73.1854C72.2234 72.5685 72.5169 72.5069 72.912 72.8527C73.6653 73.512 74.4585 74.0997 75.298 74.6566C76.3871 75.379 77.3622 76.0776 78.6939 75.2658C78.888 75.1472 79.1884 75.1487 79.431 75.1733C81.2363 75.359 82.243 74.4771 82.7167 72.8065C82.8183 72.4484 83.5176 72.3552 83.6216 72.6694C84.0182 73.8671 84.9186 74.3985 86.0446 74.7328C86.3866 74.8345 86.6685 75.1387 86.9797 75.3467C87.3617 75.6024 87.7237 75.4437 88.0079 75.2057C88.5833 74.7243 89.1055 74.1806 89.6685 73.6845C90.5581 72.8997 91.2081 73.053 91.7488 74.0296C92.3287 75.0778 92.5043 76.1831 92.2147 77.2945C91.9012 78.4968 91.4222 79.6582 90.964 80.8174C90.8338 81.1462 90.5673 81.4566 90.2885 81.6838C89.8456 82.0443 89.0022 81.9242 88.9691 82.7722C88.936 83.6194 88.4616 84.4758 89.0438 85.3184C89.1763 85.5102 89.2171 85.7929 89.2256 86.0363C89.2441 86.5731 88.9907 86.9867 88.5417 87.2802Z" fill="#FDF9E1"/>
<path d="M82.474 91.8311C82.6565 91.3983 82.7181 90.789 83.0439 90.5649C84.1353 89.8139 85.2367 89.1038 86.208 88.1765C86.8103 87.6011 87.649 87.2854 88.5393 87.2808C88.0364 88.0017 87.5527 88.7364 87.0228 89.4358C86.8041 89.7246 86.5122 90.1144 86.2103 90.1583C85.0134 90.3315 84.3094 91.3898 83.2181 91.7125C82.9793 91.7826 82.7228 91.7934 82.474 91.8311Z" fill="#FDF9E1"/>
<path d="M70.3386 69.084C70.9502 69.4105 71.0811 69.9759 71.095 70.6005C70.485 70.2739 70.3533 69.7078 70.3386 69.084Z" fill="#FDF0CE"/>
<path d="M58.208 70.6075C57.4964 70.807 56.7924 71.0458 56.0692 71.1875C55.7257 71.2545 55.2119 71.2753 55.0032 71.0766C53.5545 69.7002 51.4865 69.2889 50.0816 67.8656C49.9954 67.7786 49.9337 67.6669 49.8613 67.566C50.8564 67.5483 51.8539 67.6299 52.1897 66.2906C52.3337 65.7168 52.7797 65.7314 53.2965 66.2112C53.3858 66.2944 53.452 66.4038 53.5236 66.5047C53.8302 66.9375 54.2053 67.2302 54.7537 66.9614C55.9922 66.3545 57.2699 66.0841 58.6686 65.9909C60.3685 65.8777 62.046 65.394 63.7258 65.0382C63.9407 64.9927 64.1132 64.7479 64.305 64.5954C65.3971 64.6161 66.3952 64.2919 67.3395 63.7681C68.501 62.5951 70.1331 62.971 71.5087 62.495C71.8753 62.4002 72.2473 62.3556 72.6254 62.3486C73.2146 62.381 73.7245 62.5882 74.1219 63.0364C74.3199 63.3561 74.5178 63.6765 74.7165 63.9961C75.2125 64.7948 75.077 65.2677 74.3399 65.28C73.4588 65.2947 72.5754 65.3309 71.6974 65.2823C70.6422 65.2238 69.7249 65.5927 68.8207 66.0525V66.051C64.8172 64.9866 62.4596 67.8695 59.723 69.8427L59.7223 69.8435C59.3118 70.2825 58.5978 70.1177 58.2104 70.6029L58.208 70.6075Z" fill="#F9E0B6"/>
<path d="M82.3246 62.4051C82.407 63.1237 82.0912 63.5712 81.395 63.7445C80.9074 63.8661 80.4684 64.0556 80.1765 64.4908C80.0609 64.5354 79.9378 64.5655 79.8323 64.6271C79.0782 65.0677 78.4513 64.983 77.9237 64.2389C77.6395 63.8392 77.2844 63.4895 76.9609 63.1175C77.0503 62.851 77.2205 62.6562 77.4677 62.5222C77.9575 62.2572 77.5894 61.7373 77.8089 61.3899C78.0554 61.1643 78.335 61.0164 78.6569 60.9355C79.83 61.0141 81.083 60.9071 81.6884 62.2672C81.9017 62.3111 82.1136 62.3573 82.3246 62.4051Z" fill="#BF8238"/>
<path d="M74.1219 63.0378C73.6359 63.027 73.1499 63.0162 72.6639 63.0054C72.3135 62.7212 71.8282 62.6211 71.5725 62.2067C71.4747 61.8909 71.5555 61.6237 71.7912 61.398C71.8482 61.19 71.9284 60.9906 72.0293 60.8003C72.1856 60.406 72.3635 60.396 72.5638 60.7695L72.6 60.7896C72.8572 61.0175 73.1183 61.0345 73.3856 60.8073C73.6667 60.5493 73.9471 60.2912 74.2282 60.0324C75.241 59.1505 75.7 59.786 76.0604 60.6987C76.0697 61.0437 75.9858 61.3657 75.814 61.6645C75.5229 61.8339 75.2217 61.988 74.9121 62.1251C74.6479 62.4286 74.3853 62.7336 74.1219 63.0378Z" fill="#B77326"/>
<path d="M77.9529 61.4735C77.9529 61.7492 77.9521 62.025 77.9521 62.2999C78.1038 62.4632 78.1508 62.6234 78.0938 62.7805C78.0376 62.9361 77.9829 63.0139 77.9306 63.0139C77.6079 63.0478 77.2851 63.0824 76.9616 63.1171C76.5218 62.7805 76.082 62.4439 75.643 62.1066C75.4951 61.9695 75.4458 61.8324 75.4944 61.6945C75.5429 61.5567 75.5915 61.4874 75.64 61.4874L75.6315 61.4989C76.394 60.4784 77.158 59.5742 77.9529 61.4735Z" fill="#BC7F36"/>
<path d="M80.9574 69.8433C81.1076 69.667 81.2424 69.4737 81.4149 69.3235C81.4873 69.2603 81.6753 69.2356 81.7492 69.2849C82.045 69.4806 82.0072 69.6739 81.6552 69.7617C81.4296 69.8179 81.19 69.8171 80.9567 69.8425L80.9574 69.8433Z" fill="#FCF2CF"/>
<path d="M80.9574 69.8423C80.8997 69.9478 80.8211 70.1504 80.788 70.1427C80.5346 70.088 80.5947 69.9702 80.9574 69.8431V69.8423Z" fill="#FCF2CF"/>
<path d="M75.64 61.4868C75.6562 61.6932 75.6569 61.9004 75.6431 62.1068L75.2772 62.1484L74.9106 62.1245C75.1548 61.9112 75.3974 61.6994 75.64 61.4868Z" fill="#D18E41"/>
<path d="M55.1827 59.9937C56.6969 60.2209 58.1418 60.9025 59.7238 60.6938C60.0134 60.4581 60.2098 60.5189 60.313 60.8779L60.3608 60.8447C60.93 61.2622 60.9222 61.7382 60.504 62.2557C60.1913 62.8604 59.6383 62.992 59.026 63.0044C57.9585 63.0074 56.717 62.2496 55.9807 63.7006C55.6957 64.2629 55.1966 64.5432 54.6282 64.7412C54.1245 64.9168 53.7633 64.6827 53.697 64.0904C53.6578 63.7415 53.6685 63.3879 53.657 63.0367L53.6701 63.019C53.9527 62.7911 54.1452 62.4853 54.3701 62.2072C54.3231 61.9546 54.2769 61.7012 54.2299 61.4486C54.0905 60.6638 54.4672 60.217 55.1827 59.9937Z" fill="#ECD7C1"/>
<path d="M63.5039 61.4517C63.7388 61.4832 63.9822 61.4855 64.2071 61.5518C64.6946 61.6958 65.0289 62.1441 65.0481 62.5407C65.0858 63.3186 64.5884 63.8647 64.251 64.4808C63.7797 64.4747 63.2897 64.5502 62.8415 64.4462C62.1083 64.2768 61.5699 63.8978 61.6439 62.9766C61.6662 62.6963 61.362 62.389 61.2072 62.094C60.819 61.6357 60.7758 61.1913 61.2634 60.77L61.2588 60.7685C61.4706 60.5343 61.7316 60.4619 62.0358 60.5274C62.6189 60.6876 63.0795 61.0404 63.5039 61.4517Z" fill="#D4954E"/>
<path d="M55.9806 63.6999C55.7958 63.2602 55.587 62.8281 55.4353 62.3767C55.3375 62.0864 55.7048 61.6551 56.0098 61.6019C57.3431 61.3701 58.3567 61.8122 59.0252 63.0037C58.9736 63.2317 58.9604 63.4781 58.8634 63.6845C58.4991 64.4601 57.9076 64.7397 57.1744 64.4301C56.75 64.2506 56.3773 63.9479 55.9806 63.6999Z" fill="#D29555"/>
<path d="M61.2634 60.7705C61.2449 61.2126 61.2256 61.6547 61.2071 62.0952C60.9876 62.2138 60.7534 62.2678 60.5039 62.2547C60.4569 61.7841 60.4092 61.3135 60.3615 60.8429C60.6618 60.819 60.9622 60.7952 61.2634 60.7705Z" fill="#B57735"/>
<path d="M68.8467 56.9385C69.2888 57.1742 69.7317 57.4091 70.1738 57.6447L70.4788 57.7749C70.4056 58.7531 70.5111 59.7366 70.4002 60.714L70.0675 60.7725C69.8195 61.1222 69.4183 61.2138 69.0655 61.3941C68.7651 61.7553 68.6642 62.199 68.4879 62.6103C68.2067 63.0439 67.8786 63.3496 67.3249 63.0539C67.0876 62.9915 66.845 62.9445 66.6147 62.8636C66.2343 62.7296 65.9631 62.4385 66.0239 62.0457C66.1918 60.9581 66.3976 59.8737 66.6379 58.8C66.795 58.0976 67.2648 57.8519 68.0057 57.9236C68.6319 57.9829 68.722 57.4044 68.8467 56.9385Z" fill="#D5A067"/>
<path d="M67.3241 63.0536C67.5698 62.7902 67.8154 62.5268 68.0611 62.2626C68.202 62.1563 68.343 62.0508 68.4832 61.9437C68.6596 61.9306 68.8351 61.9183 69.0115 61.9014C70.0159 62.1617 71.1288 62.1687 71.8544 63.0937C71.43 63.5889 70.8723 63.7622 70.2423 63.7629C69.2742 63.7637 68.3053 63.7668 67.3379 63.7683C67.3148 63.5311 67.3094 63.2924 67.3241 63.0536Z" fill="#F3E5CF"/>
<path d="M63.4469 59.3021C63.5393 58.468 63.7796 57.7733 64.8256 57.8388C64.8271 58.2054 64.8618 58.5758 64.8248 58.9378C64.747 59.6919 64.2556 59.9514 63.5532 59.9152C63.3029 59.8182 63.2042 59.6949 63.2558 59.5455C63.3113 59.383 63.3745 59.3021 63.4469 59.3021Z" fill="#C27E31"/>
<path d="M63.4469 59.3018C63.4885 59.5051 63.5231 59.7092 63.5524 59.9149C63.5362 60.4278 63.5201 60.94 63.5039 61.4522C62.8084 61.5916 62.2932 61.3359 61.9342 60.7374C61.7301 60.4686 61.7386 60.2168 61.992 59.9834L62.093 60.0257C62.5443 59.7847 62.9956 59.5428 63.4469 59.3018Z" fill="#E9D2BD"/>
<path d="M66.5531 56.2051C66.8219 56.2374 67.0915 56.2698 67.3603 56.3029C66.8967 56.7627 66.8966 56.7627 66.5531 56.2051Z" fill="#D5A067"/>
<path d="M65.0759 55.4727C65.1768 55.6368 65.2962 55.7939 65.364 55.971C65.3786 56.0096 65.2107 56.1189 65.1268 56.1959C64.9173 56.0581 64.821 55.894 64.838 55.7045C64.8557 55.5028 64.8926 55.4019 64.9481 55.4019L65.0759 55.4727Z" fill="#FCF5DA"/>
<path d="M64.9473 55.4019C65.0066 55.6668 65.066 55.931 65.1261 56.1959C64.8865 56.226 64.6485 56.2676 64.4128 56.3223C64.4074 55.9087 64.5884 55.6036 64.9473 55.4019Z" fill="#D6A165"/>
<path d="M55.1826 59.9935C54.8653 60.478 54.5479 60.9624 54.2298 61.4477C53.1878 61.45 52.2597 61.6094 51.9978 62.8679C51.9709 62.9988 51.6235 63.1729 51.4633 63.1398C51.2616 63.0982 51.042 62.898 50.9311 62.707C50.67 62.2579 50.5922 61.5778 50.9273 61.3314C51.8669 60.6397 51.8676 59.3643 52.7534 58.6865C52.9167 59.3728 53.271 59.6954 54.0227 59.4505C54.538 59.2834 54.9416 59.5021 55.1826 59.9935Z" fill="#B8701A"/>
<path d="M54.3701 62.2065C54.2908 62.6101 54.0521 62.8759 53.67 63.0183C53.9034 62.7472 54.1367 62.4769 54.3701 62.2065Z" fill="#F5D5A7"/>
<path d="M56.1693 56.3875C56.7816 56.1557 57.3931 56.1688 58.0031 56.3937C58.0802 56.7557 58.1479 57.1192 58.2411 57.4766C58.3443 57.8755 58.6 58.0766 59.0229 57.9757C59.2616 57.9187 59.4927 57.827 59.7269 57.7508C59.7346 58.4755 59.7415 59.2003 59.7492 59.9235C58.5138 60.1107 57.6966 59.503 56.8247 58.6796C56.0614 57.9595 55.892 57.2948 56.1693 56.3875Z" fill="#B26820"/>
<path d="M61.9919 59.9834C61.9727 60.2345 61.9535 60.4863 61.9342 60.7374C61.7093 60.7544 61.4837 60.7652 61.2588 60.769C61.5037 60.5072 61.7478 60.2453 61.9919 59.9834Z" fill="#B57735"/>
<path d="M60.3129 60.8772C60.0965 60.8803 59.9001 60.8195 59.7237 60.6932C59.7206 60.4698 59.7144 60.2472 59.7052 60.0254C60.1003 60.1725 60.3299 60.4367 60.3129 60.8772Z" fill="#D08F40"/>
<path d="M77.9528 61.4733C77.5947 60.9426 77.1418 60.7531 76.5372 61.0666C76.2407 61.2206 75.9342 61.3554 75.6323 61.4994C75.6384 60.5559 75.1902 60.0476 74.2282 60.0314C74.2051 59.7965 74.1796 59.5616 74.1534 59.3275C74.3729 59.2558 74.5902 59.1796 74.8066 59.0995C75.6615 58.1406 77.0148 59.4068 77.8628 58.4155C78.3757 58.4633 78.8879 58.5103 79.4008 58.558C79.4332 58.9285 79.437 59.3051 79.5063 59.6687C79.6033 60.1747 79.836 60.3434 80.2596 60.2633C80.7463 60.1716 81.23 60.0653 81.7153 59.9659C81.7068 60.7331 81.6991 61.5002 81.6899 62.2673C80.5461 61.5202 79.2568 61.464 77.9528 61.4733Z" fill="#D18E41"/>
<path d="M77.8621 58.4151C77.5286 59.0343 76.9901 59.3031 76.3085 59.2654C75.8063 59.2376 75.3073 59.1576 74.8059 59.0998C74.8236 58.8749 74.8614 58.6546 74.9184 58.4374C75.3782 58.0669 75.1979 57.3892 75.6107 56.9956C75.8757 57.2136 76.2285 57.3807 76.3864 57.6587C76.7299 58.2618 77.2559 58.3881 77.8621 58.4151Z" fill="#E3BD90"/>
<path d="M75.6107 56.9956C75.653 57.6071 75.5676 58.1578 74.9183 58.4374C74.9376 57.8551 74.889 57.2405 75.6107 56.9956Z" fill="#C89663"/>
<path d="M70.4002 60.7138C69.5107 59.8735 69.5354 59.0047 70.3094 58.1036C70.388 58.0127 70.4234 57.8848 70.4788 57.7739C71.3869 59.1141 71.3761 59.5285 70.4002 60.7138Z" fill="#F6EAD9"/>
<path d="M68.9739 60.7982C69.339 60.7897 69.7048 60.7804 70.0684 60.772C70.5151 61.3304 71.1004 61.5098 71.7913 61.3974C71.8275 61.6516 71.8644 61.9065 71.9006 62.1607C70.9032 62.8785 69.8974 62.8307 68.8846 62.1953L68.8352 62.2438C68.3823 61.7147 68.3369 61.2233 68.9739 60.7982Z" fill="#BE814B"/>
<path d="M72.5638 60.7687C72.3851 60.7811 72.2064 60.7911 72.0285 60.7996C71.9846 60.0494 71.9407 59.2992 71.896 58.5498C73.2785 58.777 73.3648 58.9172 72.8488 60.0995C72.8003 60.2104 72.7325 60.3128 72.6855 60.4245C72.6385 60.5362 72.6039 60.654 72.5638 60.7687Z" fill="#CA8946"/>
<path d="M73.3856 60.8063C73.1145 61.2076 72.8526 61.2114 72.6 60.7886C72.8618 60.7947 73.1237 60.8001 73.3856 60.8063Z" fill="#CA8946"/>
<path d="M59.723 69.8446C59.7415 69.4733 59.6999 69.0851 59.7947 68.7347C59.8871 68.3919 60.0365 67.966 60.3022 67.785C62.1707 66.5157 64.2671 65.7717 66.4691 65.335C66.9397 65.2418 67.4743 65.2911 67.941 65.4159C68.2676 65.5037 68.5303 65.8325 68.8207 66.0536C68.3293 66.059 67.8378 66.0744 67.3472 66.0682C66.4145 66.0567 65.7075 66.5011 65.1036 67.1565C64.938 67.3367 64.7155 67.5093 64.6454 67.7265C64.1363 69.3031 62.6143 69.786 61.4821 70.6833C60.9538 71.1023 60.6226 70.6725 60.2914 70.3028C60.1304 70.1233 59.914 69.9955 59.723 69.8446Z" fill="#FCEAC4"/>
<path d="M58.2095 70.6047C58.5306 69.9877 59.096 69.8568 59.7214 69.8452C59.3964 70.4537 58.8326 70.5877 58.2095 70.6047Z" fill="#FCEAC6"/>
<path d="M68.8854 62.1953C69.8905 62.1837 70.8956 62.173 71.9015 62.1606C72.1557 62.441 72.4098 62.7229 72.664 63.004C72.3944 63.0333 72.1248 63.0625 71.8552 63.0926C71.2414 63.0618 70.6283 63.0302 70.0144 62.9994C69.4668 62.9717 69.1172 62.6659 68.8854 62.1953Z" fill="#CBAD8B"/>
<path d="M77.9305 63.0136C77.9336 62.7748 77.9405 62.5368 77.9513 62.2988C78.2448 62.3951 78.3495 62.5746 78.2147 62.8072C78.1623 62.9004 78.0284 62.9466 77.9305 63.0136Z" fill="#D18E41"/>
<path d="M68.9739 60.7989C68.9277 61.2811 68.8814 61.7632 68.836 62.2454C68.5779 62.2515 68.3199 62.2577 68.0612 62.2639C68.0966 61.7879 68.0504 61.2857 68.1898 60.8421C68.3407 60.3599 68.692 60.5193 68.9739 60.7989Z" fill="#E1C2A6"/>
</svg>
