<svg width="253" height="378" viewBox="0 0 253 378" fill="none" xmlns="http://www.w3.org/2000/svg">
<mask id="path-1-inside-1_1916_39" fill="white">
<path d="M0 126.5C0 56.636 56.636 0 126.5 0C196.364 0 253 56.636 253 126.5V378H0V126.5Z"/>
</mask>
<path d="M-2 126.5C-2 55.5314 55.5314 -2 126.5 -2C197.469 -2 255 55.5314 255 126.5H251C251 57.7405 195.259 2 126.5 2C57.7405 2 2 57.7405 2 126.5H-2ZM253 378H0H253ZM-2 378V126.5C-2 55.5314 55.5314 -2 126.5 -2V2C57.7405 2 2 57.7405 2 126.5V378H-2ZM126.5 -2C197.469 -2 255 55.5314 255 126.5V378H251V126.5C251 57.7405 195.259 2 126.5 2V-2Z" fill="#653C3C" mask="url(#path-1-inside-1_1916_39)"/>
</svg>
