<svg width="42" height="36" viewBox="0 0 42 36" fill="none" xmlns="http://www.w3.org/2000/svg">
<path d="M21.8532 4.85203C21.9651 4.95382 22.077 5.02168 22.1889 5.02168C22.3567 5.02168 22.4965 4.91989 22.6084 4.78416L23.8392 2.95193C23.9791 2.78228 23.9791 2.51084 23.8952 2.27333C23.8112 2.06975 23.6154 1.90009 23.4196 1.93402C23.3637 1.90009 21.8532 1.93402 21.5175 0.475022C21.5175 0.441091 21.4896 0.441092 21.4896 0.407162C21.4709 0.361922 21.4523 0.32799 21.4336 0.30537C21.415 0.26013 21.3963 0.226199 21.3777 0.203578C21.359 0.180958 21.3311 0.147032 21.2938 0.101792C21.2565 0.101792 21.2285 0.0904797 21.2098 0.0678595C21.1819 0.0678595 21.1539 0.0339272 21.1539 0.0339272C21.1352 0.0339272 21.1166 0.0339272 21.0979 0.0339272C21.0607 0.011307 21.0327 0 21.014 0C20.9767 0 20.9394 0.011307 20.9021 0.0339272C20.8835 0.0339272 20.8649 0.0339272 20.8462 0.0339272C20.8462 0.0339272 20.8182 0.0678595 20.7903 0.0678595C20.7716 0.0904797 20.7436 0.101792 20.7063 0.101792C20.6877 0.147032 20.6597 0.180958 20.6224 0.203578C20.6038 0.226199 20.5851 0.248823 20.5665 0.271443C20.5478 0.316684 20.5292 0.361922 20.5105 0.407162C20.5105 0.441092 20.5105 0.441091 20.4826 0.475022C20.1469 1.93402 18.6644 1.93402 18.5805 1.93402C18.3847 1.93402 18.1889 2.06975 18.1049 2.27333C18.021 2.51084 18.049 2.78228 18.1609 2.95193L19.3917 4.78416C19.5035 4.91989 19.6714 5.02168 19.8112 5.02168C19.9231 5.02168 20.035 4.95382 20.1469 4.85203C20.3707 4.64845 20.3986 4.24128 20.2308 3.96984L19.5875 3.01979C20.091 2.85014 20.5945 2.51084 21.014 1.96796C21.4056 2.51084 21.9371 2.85014 22.4126 3.01979L21.7972 3.96984C21.6014 4.24128 21.6294 4.64845 21.8532 4.85203Z" fill="black"/>
<path fill-rule="evenodd" clip-rule="evenodd" d="M20.1469 7.15908C20.1748 7.2948 20.1748 7.49839 20.0909 7.63411L15.2238 19.2383C14.4406 21.1383 12.8462 22.292 11.1119 22.292C10.5525 22.292 9.99301 22.1902 9.48951 21.9527L6.21679 29.7566C7.75525 30.9781 8.65035 33.1157 8.45455 35.423C8.42658 35.6266 8.34266 35.8302 8.17483 35.9319C8.10024 35.9772 8.01631 35.9998 7.92307 35.9998C7.84848 35.9998 7.77389 35.9772 7.6993 35.9319L0.286713 31.3514C0.118881 31.2496 0.0349649 31.0799 0.00699288 30.8763C-0.0209791 30.6388 0.0349666 30.4352 0.174827 30.2995C1.54546 28.8066 3.55944 28.3994 5.26573 29.1798L8.53846 21.3759C7.67133 20.6633 7.02797 19.6454 6.69231 18.4239C6.32867 16.9989 6.41259 15.472 6.97203 14.1148L11.8392 2.54457C11.979 2.23919 12.2867 2.10347 12.5385 2.27312L19.8671 6.78585C20.007 6.85371 20.0909 6.98943 20.1469 7.15908ZM5.26573 30.571C4.09091 29.8245 2.66434 29.8924 1.54545 30.6728L7.39161 34.3033C7.25175 32.7086 6.4965 31.3174 5.26573 30.571ZM17.8252 10.2807L8.98602 12.1808L7.92307 14.7255C7.47552 15.7434 7.41958 16.931 7.6993 18.0168C8.00699 19.1365 8.62238 20.0187 9.48951 20.5615C9.99301 20.8782 10.5338 21.0366 11.1119 21.0366C12.4545 21.0366 13.6853 20.1204 14.3007 18.6614L17.8252 10.2807ZM18.9161 7.63411L12.5385 3.69819L9.57343 10.7557L18.4126 8.82167L18.9161 7.63411Z" fill="black"/>
<path fill-rule="evenodd" clip-rule="evenodd" d="M9.65734 13.5041C9.82517 13.1308 10.1049 12.9272 10.4406 12.9272C10.5804 12.9272 10.7203 12.9612 10.8322 13.029C11.2518 13.3005 11.4196 13.9452 11.2238 14.4541C11.0559 14.7934 10.7762 15.0309 10.4406 15.0309C10.2914 15.0309 10.1608 14.997 10.0489 14.9291C9.62937 14.6577 9.43357 14.013 9.65734 13.5041ZM10.2168 14.488C10.2914 14.5333 10.366 14.5559 10.4406 14.5559C10.6084 14.5559 10.7762 14.4202 10.8601 14.2505C10.972 13.9452 10.8881 13.6059 10.6643 13.4701C10.5897 13.4249 10.5151 13.4023 10.4406 13.4023C10.2727 13.4023 10.1049 13.5041 10.021 13.7076C9.90909 13.9791 9.99301 14.3523 10.2168 14.488Z" fill="black"/>
<path fill-rule="evenodd" clip-rule="evenodd" d="M11.1957 16.8633C11.3076 16.8633 11.4195 16.8972 11.5313 16.9651C11.867 17.1687 12.0069 17.6776 11.839 18.1187C11.6992 18.4241 11.4754 18.5937 11.1957 18.5937C11.0838 18.5937 10.9719 18.5598 10.86 18.4919C10.5243 18.2884 10.3845 17.7455 10.5523 17.3383C10.6922 17.0329 10.916 16.8633 11.1957 16.8633ZM11.3355 17.3722C11.2982 17.3496 11.2516 17.3383 11.1957 17.3383C11.0838 17.3383 10.9719 17.4062 10.916 17.5419C10.832 17.7455 10.888 17.983 11.0558 18.0508C11.0931 18.0961 11.1397 18.1187 11.1957 18.1187C11.3076 18.1187 11.4194 18.0169 11.4754 17.9151C11.5593 17.7115 11.5034 17.474 11.3355 17.3722Z" fill="black"/>
<path fill-rule="evenodd" clip-rule="evenodd" d="M13.1261 14.081C13.2659 13.7417 13.5736 13.5381 13.8813 13.5381C14.0305 13.5381 14.1703 13.572 14.3009 13.6399C14.7205 13.9113 14.8883 14.5221 14.6645 15.0649C14.5247 15.4043 14.217 15.6418 13.8813 15.6418C13.7508 15.6418 13.6202 15.5965 13.4897 15.506C13.0701 15.2685 12.9023 14.6239 13.1261 14.081ZM13.6855 15.0989C13.7414 15.1441 13.8067 15.1667 13.8813 15.1667C14.0771 15.1667 14.2449 15.031 14.3009 14.8274C14.4407 14.556 14.3289 14.2167 14.1051 14.081C14.0305 14.0357 13.9559 14.0131 13.8813 14.0131C13.7135 14.0131 13.5456 14.1149 13.4617 14.3185C13.3498 14.5899 13.4337 14.9292 13.6855 15.0989Z" fill="black"/>
<path fill-rule="evenodd" clip-rule="evenodd" d="M41.993 30.8763C41.993 31.0799 41.8811 31.2496 41.7133 31.3514L34.3286 35.9319C34.2354 35.9772 34.1515 35.9998 34.0769 35.9998C33.9836 35.9998 33.8997 35.9772 33.8251 35.9319C33.6573 35.8302 33.5734 35.6266 33.5454 35.423C33.3776 33.1157 34.2447 30.9781 35.8111 29.7566L32.5105 21.9527C32.007 22.1902 31.4475 22.292 30.916 22.292C29.1538 22.292 27.5594 21.1383 26.7762 19.2383L21.909 7.63411C21.8531 7.49839 21.8251 7.2948 21.8811 7.15908C21.9091 6.98943 22.0209 6.85371 22.1328 6.78585L29.4615 2.27312C29.7132 2.10347 30.0209 2.23919 30.1608 2.54457L35.0279 14.1148C35.5874 15.472 35.6993 16.9989 35.3077 18.4239C34.972 19.6454 34.3286 20.6633 33.4615 21.3759L36.7342 29.1798C38.4405 28.3994 40.4545 28.8066 41.8251 30.2995C41.965 30.4352 42.0209 30.6388 41.993 30.8763ZM23.5874 8.82167L32.4265 10.7557L29.4615 3.69819L23.0839 7.63411L23.5874 8.82167ZM34.3007 18.0168C34.6084 16.8971 34.5244 15.7095 34.0769 14.6916L33.0139 12.1468L24.2028 10.2467L27.6993 18.6275C28.3146 20.0865 29.5454 21.0026 30.8881 21.0026C31.4662 21.0026 32.007 20.8443 32.5105 20.5276C33.3776 20.0187 33.993 19.1025 34.3007 18.0168ZM40.4545 30.6728C39.8671 30.2656 39.1958 30.0281 38.4965 30.0281C37.8811 30.0281 37.2937 30.1977 36.7342 30.537C35.5314 31.2835 34.7482 32.7086 34.6084 34.3033L40.4545 30.6728Z" fill="black"/>
<path fill-rule="evenodd" clip-rule="evenodd" d="M32.3429 13.5041C32.4548 13.7416 32.4548 14.0469 32.3988 14.2845C32.3149 14.5559 32.1751 14.7934 31.9513 14.9291C31.8394 14.997 31.7089 15.0309 31.5597 15.0309C31.252 15.0309 30.9443 14.7934 30.8044 14.4541C30.6926 14.2166 30.6646 13.9112 30.7485 13.6398C30.8044 13.3683 30.9723 13.1648 31.1681 13.029C31.2986 12.9612 31.4291 12.9272 31.5597 12.9272C31.8953 12.9272 32.203 13.1308 32.3429 13.5041ZM31.9793 13.7076C31.8953 13.5041 31.7275 13.4023 31.5597 13.4023C31.4851 13.4023 31.4198 13.4249 31.3639 13.4701C31.1121 13.6059 31.0282 13.9452 31.1401 14.2505C31.224 14.4202 31.3919 14.5559 31.5597 14.5559C31.6343 14.5559 31.7089 14.5333 31.7835 14.488C32.0072 14.3523 32.1191 13.9791 31.9793 13.7076Z" fill="black"/>
<path fill-rule="evenodd" clip-rule="evenodd" d="M31.4474 17.3383C31.6153 17.7455 31.4754 18.2884 31.1397 18.4919C31.0278 18.5598 30.916 18.5937 30.8041 18.5937C30.5243 18.5937 30.3006 18.4241 30.1607 18.1187C30.0768 17.9151 30.0768 17.6776 30.1327 17.4401C30.1887 17.2365 30.3006 17.0669 30.4964 16.9651C30.5896 16.8972 30.6922 16.8633 30.8041 16.8633C31.0838 16.8633 31.3076 17.0329 31.4474 17.3383ZM31.0838 17.5419C31.0278 17.4062 30.916 17.3383 30.8041 17.3383C30.7481 17.3383 30.7015 17.3496 30.6642 17.3722C30.4964 17.474 30.4404 17.7115 30.5243 17.9151C30.5803 18.0169 30.6922 18.1187 30.8041 18.1187C30.86 18.1187 30.9066 18.0961 30.9439 18.0508C31.1118 17.983 31.1677 17.7455 31.0838 17.5419Z" fill="black"/>
<path fill-rule="evenodd" clip-rule="evenodd" d="M28.8742 14.081C29.098 14.6239 28.9301 15.2346 28.5106 15.506C28.38 15.5965 28.2495 15.6418 28.119 15.6418C27.7833 15.6418 27.4756 15.4043 27.3357 15.0649C27.112 14.5221 27.2798 13.9113 27.7274 13.6399C27.8392 13.572 27.9698 13.5381 28.119 13.5381C28.4546 13.5381 28.7344 13.7417 28.8742 14.081ZM28.5385 14.3185C28.4546 14.1149 28.2868 14.0131 28.119 14.0131C28.0444 14.0131 27.9698 14.0357 27.8952 14.081C27.6714 14.2167 27.5595 14.556 27.6994 14.8274C27.7833 15.031 27.9511 15.1667 28.119 15.1667C28.1936 15.1667 28.2588 15.1441 28.3148 15.0989C28.5665 14.9292 28.6504 14.5899 28.5385 14.3185Z" fill="black"/>
</svg>
