<svg width="25" height="25" viewBox="0 0 25 25" fill="none" xmlns="http://www.w3.org/2000/svg">
<path d="M18.0624 5.68766C17.8152 5.68766 17.5735 5.76097 17.368 5.89833C17.1624 6.03568 17.0022 6.2309 16.9076 6.45931C16.813 6.68772 16.7882 6.93905 16.8364 7.18153C16.8847 7.424 17.0037 7.64673 17.1785 7.82155C17.3534 7.99636 17.5761 8.11541 17.8186 8.16364C18.061 8.21188 18.3124 8.18712 18.5408 8.09251C18.7692 7.9979 18.9644 7.83769 19.1018 7.63213C19.2391 7.42656 19.3124 7.18489 19.3124 6.93766C19.3124 6.60614 19.1807 6.2882 18.9463 6.05378C18.7119 5.81936 18.3939 5.68766 18.0624 5.68766ZM22.8541 8.2085C22.8338 7.34422 22.672 6.48912 22.3749 5.67725C22.1101 4.98259 21.6978 4.35358 21.1666 3.8335C20.6508 3.29956 20.0203 2.88993 19.3228 2.63558C18.5131 2.3295 17.6571 2.16392 16.7916 2.146C15.6874 2.0835 15.3333 2.0835 12.4999 2.0835C9.66658 2.0835 9.31242 2.0835 8.20825 2.146C7.34279 2.16392 6.48673 2.3295 5.677 2.63558C4.98083 2.8925 4.35089 3.30179 3.83325 3.8335C3.29932 4.34931 2.88969 4.97979 2.63534 5.67725C2.32925 6.48698 2.16368 7.34303 2.14575 8.2085C2.08325 9.31266 2.08325 9.66683 2.08325 12.5002C2.08325 15.3335 2.08325 15.6877 2.14575 16.7918C2.16368 17.6573 2.32925 18.5133 2.63534 19.3231C2.88969 20.0205 3.29932 20.651 3.83325 21.1668C4.35089 21.6985 4.98083 22.1078 5.677 22.3647C6.48673 22.6708 7.34279 22.8364 8.20825 22.8543C9.31242 22.9168 9.66658 22.9168 12.4999 22.9168C15.3333 22.9168 15.6874 22.9168 16.7916 22.8543C17.6571 22.8364 18.5131 22.6708 19.3228 22.3647C20.0203 22.1104 20.6508 21.7008 21.1666 21.1668C21.7002 20.6487 22.1128 20.0191 22.3749 19.3231C22.672 18.5112 22.8338 17.6561 22.8541 16.7918C22.8541 15.6877 22.9166 15.3335 22.9166 12.5002C22.9166 9.66683 22.9166 9.31266 22.8541 8.2085ZM20.9791 16.6668C20.9715 17.328 20.8517 17.9832 20.6249 18.6043C20.4586 19.0577 20.1915 19.4673 19.8437 19.8022C19.5058 20.1465 19.097 20.4131 18.6458 20.5835C18.0246 20.8103 17.3695 20.9301 16.7083 20.9377C15.6666 20.9897 15.2812 21.0002 12.5416 21.0002C9.802 21.0002 9.41658 21.0002 8.37492 20.9377C7.68835 20.9505 7.0047 20.8448 6.35408 20.6252C5.92261 20.4461 5.53258 20.1801 5.20825 19.8439C4.86251 19.5093 4.59871 19.0993 4.43742 18.646C4.1831 18.0159 4.04205 17.3459 4.02075 16.6668C4.02075 15.6252 3.95825 15.2397 3.95825 12.5002C3.95825 9.76058 3.95825 9.37516 4.02075 8.3335C4.02542 7.65751 4.14882 6.98761 4.38534 6.35433C4.56872 5.91465 4.85019 5.52272 5.20825 5.2085C5.52472 4.85034 5.91584 4.56589 6.35408 4.37516C6.98903 4.14604 7.65825 4.02629 8.33325 4.021C9.37492 4.021 9.76033 3.9585 12.4999 3.9585C15.2395 3.9585 15.6249 3.9585 16.6666 4.021C17.3278 4.02858 17.9829 4.14834 18.6041 4.37516C19.0774 4.55084 19.5023 4.83646 19.8437 5.2085C20.185 5.52847 20.4518 5.91968 20.6249 6.35433C20.8564 6.98864 20.9763 7.65827 20.9791 8.3335C21.0312 9.37516 21.0416 9.76058 21.0416 12.5002C21.0416 15.2397 21.0312 15.6252 20.9791 16.6668ZM12.4999 7.15641C11.4435 7.15847 10.4113 7.47363 9.53393 8.06206C8.65653 8.65049 7.97323 9.48578 7.57037 10.4624C7.16751 11.439 7.06317 12.5131 7.27054 13.549C7.4779 14.5849 7.98766 15.5361 8.73541 16.2824C9.48316 17.0287 10.4353 17.5366 11.4716 17.742C12.5079 17.9473 13.5819 17.8409 14.5577 17.4361C15.5335 17.0314 16.3675 16.3465 16.9542 15.4679C17.5409 14.5894 17.8541 13.5566 17.8541 12.5002C17.8555 11.7971 17.7178 11.1008 17.4491 10.4512C17.1804 9.80152 16.7859 9.21142 16.2883 8.7148C15.7907 8.21817 15.1999 7.82483 14.5497 7.55738C13.8995 7.28993 13.2029 7.15367 12.4999 7.15641ZM12.4999 15.9689C11.8139 15.9689 11.1432 15.7655 10.5728 15.3843C10.0024 15.0032 9.55775 14.4614 9.29521 13.8276C9.03267 13.1938 8.96398 12.4963 9.09782 11.8234C9.23166 11.1506 9.56203 10.5325 10.0471 10.0474C10.5323 9.56227 11.1503 9.23191 11.8232 9.09806C12.4961 8.96422 13.1935 9.03291 13.8274 9.29545C14.4612 9.558 15.0029 10.0026 15.3841 10.573C15.7652 11.1435 15.9687 11.8141 15.9687 12.5002C15.9687 12.9557 15.8789 13.4067 15.7046 13.8276C15.5303 14.2484 15.2748 14.6308 14.9527 14.9529C14.6306 15.275 14.2482 15.5305 13.8274 15.7049C13.4065 15.8792 12.9554 15.9689 12.4999 15.9689Z" fill="#653C3C"/>
</svg>
