<svg width="54" height="54" viewBox="0 0 54 54" fill="none" xmlns="http://www.w3.org/2000/svg">
<path d="M36.7031 21.9378C36.7031 22.2734 36.5698 22.5954 36.3324 22.8327C36.0951 23.0701 35.7732 23.2034 35.4375 23.2034H18.5625C18.2268 23.2034 17.9049 23.0701 17.6676 22.8327C17.4302 22.5954 17.2969 22.2734 17.2969 21.9378C17.2969 21.6021 17.4302 21.2802 17.6676 21.0428C17.9049 20.8055 18.2268 20.6721 18.5625 20.6721H35.4375C35.7732 20.6721 36.0951 20.8055 36.3324 21.0428C36.5698 21.2802 36.7031 21.6021 36.7031 21.9378ZM35.4375 27.4221H18.5625C18.2268 27.4221 17.9049 27.5555 17.6676 27.7928C17.4302 28.0302 17.2969 28.3521 17.2969 28.6878C17.2969 29.0234 17.4302 29.3454 17.6676 29.5827C17.9049 29.8201 18.2268 29.9534 18.5625 29.9534H35.4375C35.7732 29.9534 36.0951 29.8201 36.3324 29.5827C36.5698 29.3454 36.7031 29.0234 36.7031 28.6878C36.7031 28.3521 36.5698 28.0302 36.3324 27.7928C36.0951 27.5555 35.7732 27.4221 35.4375 27.4221ZM53.5781 21.9378V27.0003C53.5781 28.6786 52.9114 30.2882 51.7247 31.4749C50.5379 32.6617 48.9283 33.3284 47.25 33.3284H45.8789C44.4424 36.6781 41.3902 39.5722 36.8466 41.8439C33.7925 43.3419 30.5593 44.4428 27.2257 45.1198C27.0765 45.1478 26.9235 45.1478 26.7743 45.1198C23.4407 44.4428 20.2075 43.3419 17.1534 41.8439C12.6098 39.5722 9.55758 36.6781 8.12109 33.3284H6.75C5.07168 33.3284 3.46209 32.6617 2.27534 31.4749C1.08859 30.2882 0.421875 28.6786 0.421875 27.0003V21.9378C0.421875 20.2594 1.08859 18.6499 2.27534 17.4631C3.46209 16.2764 5.07168 15.6096 6.75 15.6096H7.2457C7.35475 15.1272 7.58321 14.6799 7.91012 14.3088C8.23703 13.9377 8.65192 13.6546 9.11672 13.4855L25.9917 7.34934C26.6431 7.11272 27.3569 7.11272 28.0083 7.34934L44.8833 13.4855C45.3481 13.6546 45.763 13.9377 46.0899 14.3088C46.4168 14.6799 46.6452 15.1272 46.7543 15.6096H47.25C48.9283 15.6096 50.5379 16.2764 51.7247 17.4631C52.9114 18.6499 53.5781 20.2594 53.5781 21.9378ZM7.35961 30.7971C7.23511 30.1009 7.17229 29.3951 7.17188 28.6878V18.1409H6.75C5.74301 18.1409 4.77726 18.5409 4.0652 19.253C3.35315 19.965 2.95312 20.9308 2.95312 21.9378V27.0003C2.95312 28.0073 3.35315 28.973 4.0652 29.6851C4.77726 30.3971 5.74301 30.7971 6.75 30.7971H7.35961ZM44.2969 28.6878V16.2614C44.2968 16.1747 44.2701 16.0902 44.2203 16.0192C44.1704 15.9482 44.1 15.8944 44.0184 15.8649L27.1434 9.72871C27.0507 9.6952 26.9493 9.6952 26.8566 9.72871L9.98156 15.8649C9.90003 15.8944 9.82955 15.9482 9.77973 16.0192C9.72991 16.0902 9.70316 16.1747 9.70312 16.2614V28.6878C9.70312 33.0542 12.574 36.7034 18.2377 39.5553C21.0244 40.9175 23.9669 41.9347 27 42.5843C30.033 41.9343 32.9755 40.9172 35.7623 39.5553C41.426 36.7034 44.2969 33.0542 44.2969 28.6878ZM51.0469 21.9378C51.0469 20.9308 50.6468 19.965 49.9348 19.253C49.2227 18.5409 48.257 18.1409 47.25 18.1409H46.8281V28.6878C46.8277 29.3951 46.7649 30.1009 46.6404 30.7971H47.25C48.257 30.7971 49.2227 30.3971 49.9348 29.6851C50.6468 28.973 51.0469 28.0073 51.0469 27.0003V21.9378Z" fill="#653C3C"/>
</svg>
