<svg width="36" height="36" viewBox="0 0 36 36" fill="none" xmlns="http://www.w3.org/2000/svg">
<path d="M14.3506 12.4534C14.4738 12.5128 14.6088 12.5436 14.7456 12.5436C14.8824 12.5436 15.0174 12.5128 15.1406 12.4534C16.5787 11.818 17.8414 10.8435 18.8206 9.61343C19.4506 10.0034 19.9906 10.2934 20.2706 10.4334C20.4115 10.5054 20.5674 10.5429 20.7256 10.5429C20.8838 10.5429 21.0397 10.5054 21.1806 10.4334C28.7106 6.94343 27.8206 1.60343 24.6206 0.293434C23.9822 0.0295551 23.2847 -0.0586033 22.6006 0.0381128C21.9166 0.134829 21.2709 0.412893 20.7306 0.843434C20.0948 0.335748 19.3143 0.0431159 18.5014 0.00774212C17.6886 -0.0276316 16.8855 0.196082 16.2081 0.646617C15.5306 1.09715 15.0137 1.75122 14.732 2.5145C14.4503 3.27777 14.4183 4.1108 14.6406 4.89343C11.2806 2.58343 6.15062 8.33343 14.3506 12.4534ZM20.3506 1.89343C20.4486 1.9841 20.5771 2.03446 20.7106 2.03446C20.8441 2.03446 20.9727 1.9841 21.0706 1.89343C21.4669 1.48721 21.9755 1.20855 22.5311 1.09316C23.0868 0.977761 23.6643 1.03089 24.1895 1.24572C24.7148 1.46056 25.164 1.82733 25.4795 2.29904C25.7951 2.77075 25.9626 3.32592 25.9606 3.89343C25.9606 6.99343 21.6106 9.16343 20.7006 9.56343C20.2138 9.31781 19.7398 9.04745 19.2806 8.75343C19.5506 8.21552 19.6525 7.60886 19.5731 7.01227C19.4937 6.41569 19.2368 5.85676 18.8356 5.40813C18.4344 4.9595 17.9076 4.64191 17.3235 4.49662C16.7395 4.35133 16.1252 4.38506 15.5606 4.59343C15.3908 3.98121 15.4311 3.32971 15.6752 2.74312C15.9194 2.15654 16.3531 1.66875 16.9071 1.35775C17.4612 1.04676 18.1035 0.930525 18.7314 1.02764C19.3592 1.12475 19.9364 1.4296 20.3706 1.89343H20.3506ZM14.3506 6.01343C14.4458 6.10568 14.5731 6.15727 14.7056 6.15727C14.8381 6.15727 14.9655 6.10568 15.0606 6.01343C15.3373 5.71772 15.6972 5.51296 16.0927 5.42623C16.4883 5.3395 16.9009 5.37488 17.2759 5.5277C17.6509 5.68052 17.9706 5.94358 18.1929 6.28208C18.4152 6.62058 18.5295 7.01858 18.5206 7.42343C18.5206 9.66343 15.3106 11.2534 14.7506 11.5534C7.67062 7.97343 12.2006 3.77343 14.4006 6.01343H14.3506Z" fill="black"/>
<path d="M17.9807 14.2935C16.2526 13.1146 14.2357 12.4294 12.1471 12.3117C10.0585 12.194 7.9774 12.6482 6.12778 13.6254C4.27816 14.6026 2.73013 16.0659 1.65037 17.8576C0.570601 19.6493 0 21.7016 0 23.7935C0 25.8854 0.570601 27.9376 1.65037 29.7293C2.73013 31.521 4.27816 32.9843 6.12778 33.9615C7.9774 34.9387 10.0585 35.393 12.1471 35.2752C14.2357 35.1575 16.2526 34.4723 17.9807 33.2935C19.7088 34.4723 21.7258 35.1575 23.8144 35.2752C25.9029 35.393 27.9841 34.9387 29.8337 33.9615C31.6833 32.9843 33.2313 31.521 34.3111 29.7293C35.3909 27.9376 35.9615 25.8854 35.9615 23.7935C35.9615 21.7016 35.3909 19.6493 34.3111 17.8576C33.2313 16.0659 31.6833 14.6026 29.8337 13.6254C27.9841 12.6482 25.9029 12.194 23.8144 12.3117C21.7258 12.4294 19.7088 13.1146 17.9807 14.2935ZM0.980741 23.7735C0.987948 21.8926 1.49931 20.048 2.46157 18.4318C3.42382 16.8157 4.80178 15.4871 6.45194 14.5844C8.10209 13.6817 9.96409 13.238 11.844 13.2994C13.7239 13.3608 15.553 13.925 17.1407 14.9335C16.607 15.374 16.1149 15.8627 15.6707 16.3935C13.865 15.3628 11.7441 15.0298 9.70944 15.4574C7.67473 15.8849 5.86729 17.0434 4.62909 18.7137C3.39088 20.3839 2.80779 22.45 2.99013 24.5212C3.17248 26.5923 4.1076 28.5248 5.6186 29.953C7.12959 31.3812 9.11164 32.206 11.1898 32.2715C13.2679 32.337 15.2979 31.6385 16.8958 30.3082C18.4937 28.978 19.5486 27.1082 19.8609 25.0526C20.1733 22.9971 19.7214 20.8983 18.5907 19.1535C19.012 18.6138 19.5068 18.1358 20.0607 17.7335C21.0136 19.0842 21.634 20.6409 21.8716 22.2767C22.1092 23.9126 21.9572 25.5814 21.4279 27.1475C20.8987 28.7135 20.0072 30.1324 18.826 31.2888C17.6449 32.4452 16.2073 33.3064 14.6304 33.8023C13.0535 34.2981 11.3818 34.4147 9.7514 34.1425C8.12095 33.8702 6.57781 33.2169 5.24755 32.2356C3.9173 31.2544 2.83751 29.9729 2.09608 28.4955C1.35464 27.0181 0.972494 25.3865 0.980741 23.7335V23.7735ZM15.0607 17.2035C13.706 19.1302 12.979 21.4281 12.979 23.7835C12.979 26.1388 13.706 28.4367 15.0607 30.3635C13.9199 30.9838 12.6375 31.2969 11.3391 31.2721C10.0408 31.2472 8.77125 30.8852 7.65504 30.2217C6.53882 29.5581 5.61431 28.6157 4.97222 27.487C4.33013 26.3583 3.99251 25.082 3.99251 23.7835C3.99251 22.4849 4.33013 21.2086 4.97222 20.0799C5.61431 18.9512 6.53882 18.0088 7.65504 17.3453C8.77125 16.6817 10.0408 16.3197 11.3391 16.2948C12.6375 16.27 13.9199 16.5831 15.0607 17.2035ZM17.9707 20.0635C18.6268 21.1916 18.9724 22.4734 18.9724 23.7785C18.9724 25.0835 18.6268 26.3653 17.9707 27.4935C17.3147 26.3653 16.9691 25.0835 16.9691 23.7785C16.9691 22.4734 17.3147 21.1916 17.9707 20.0635ZM20.9007 17.1835C22.0415 16.5631 23.324 16.25 24.6223 16.2748C25.9207 16.2997 27.1902 16.6617 28.3064 17.3253C29.4227 17.9888 30.3472 18.9312 30.9893 20.0599C31.6314 21.1886 31.969 22.4649 31.969 23.7635C31.969 25.062 31.6314 26.3383 30.9893 27.467C30.3472 28.5957 29.4227 29.5381 28.3064 30.2017C27.1902 30.8652 25.9207 31.2272 24.6223 31.2521C23.324 31.2769 22.0415 30.9638 20.9007 30.3435C22.2555 28.4167 22.9825 26.1188 22.9825 23.7635C22.9825 21.4081 22.2555 19.1102 20.9007 17.1835ZM18.8207 32.6135C19.3569 32.1756 19.8492 31.6866 20.2907 31.1535C22.0982 32.1817 24.2198 32.5117 26.2542 32.081C28.2886 31.6504 30.0945 30.4889 31.3302 28.8164C32.5659 27.144 33.1457 25.0765 32.9597 23.0054C32.7738 20.9343 31.8352 19.0032 30.3214 17.5775C28.8076 16.1518 26.8237 15.3305 24.7451 15.2691C22.6666 15.2076 20.6376 15.9101 19.0422 17.2438C17.4468 18.5775 16.3956 20.4498 16.0876 22.5063C15.7795 24.5628 16.2361 26.6609 17.3707 28.4035C16.9468 28.9407 16.4524 29.4184 15.9007 29.8235C14.3961 27.6918 13.7391 25.0764 14.0576 22.4867C14.3761 19.8971 15.6473 17.5188 17.6236 15.8153C19.5999 14.1118 22.1397 13.2051 24.748 13.2719C27.3563 13.3388 29.8463 14.3743 31.7327 16.1768C33.6192 17.9793 34.767 20.4195 34.9525 23.0221C35.1379 25.6247 34.3478 28.203 32.736 30.2548C31.1242 32.3066 28.8062 33.6848 26.2338 34.1208C23.6613 34.5569 21.0186 34.0195 18.8207 32.6135Z" fill="black"/>
</svg>
