<svg width="48" height="48" viewBox="0 0 48 48" fill="none" xmlns="http://www.w3.org/2000/svg">
<path d="M26.3506 18.4534C26.4738 18.5128 26.6088 18.5436 26.7456 18.5436C26.8824 18.5436 27.0174 18.5128 27.1406 18.4534C28.5787 17.818 29.8414 16.8435 30.8206 15.6134C31.4506 16.0034 31.9906 16.2934 32.2706 16.4334C32.4115 16.5054 32.5674 16.5429 32.7256 16.5429C32.8838 16.5429 33.0397 16.5054 33.1806 16.4334C40.7106 12.9434 39.8206 7.60343 36.6206 6.29343C35.9822 6.02956 35.2847 5.9414 34.6006 6.03811C33.9166 6.13483 33.2709 6.41289 32.7306 6.84343C32.0948 6.33575 31.3143 6.04312 30.5014 6.00774C29.6886 5.97237 28.8855 6.19608 28.2081 6.64662C27.5306 7.09715 27.0137 7.75122 26.732 8.5145C26.4503 9.27777 26.4183 10.1108 26.6406 10.8934C23.2806 8.58343 18.1506 14.3334 26.3506 18.4534ZM32.3506 7.89343C32.4486 7.9841 32.5771 8.03446 32.7106 8.03446C32.8441 8.03446 32.9727 7.9841 33.0706 7.89343C33.4669 7.48721 33.9755 7.20855 34.5311 7.09316C35.0868 6.97776 35.6643 7.03089 36.1895 7.24572C36.7148 7.46056 37.164 7.82733 37.4795 8.29904C37.7951 8.77075 37.9626 9.32592 37.9606 9.89343C37.9606 12.9934 33.6106 15.1634 32.7006 15.5634C32.2138 15.3178 31.7398 15.0475 31.2806 14.7534C31.5506 14.2155 31.6525 13.6089 31.5731 13.0123C31.4937 12.4157 31.2368 11.8568 30.8356 11.4081C30.4344 10.9595 29.9076 10.6419 29.3235 10.4966C28.7395 10.3513 28.1252 10.3851 27.5606 10.5934C27.3908 9.98121 27.4311 9.32971 27.6752 8.74312C27.9194 8.15654 28.3531 7.66875 28.9071 7.35775C29.4612 7.04676 30.1035 6.93052 30.7314 7.02764C31.3592 7.12475 31.9364 7.4296 32.3706 7.89343H32.3506ZM26.3506 12.0134C26.4458 12.1057 26.5731 12.1573 26.7056 12.1573C26.8381 12.1573 26.9655 12.1057 27.0606 12.0134C27.3373 11.7177 27.6972 11.513 28.0927 11.4262C28.4883 11.3395 28.9009 11.3749 29.2759 11.5277C29.6509 11.6805 29.9706 11.9436 30.1929 12.2821C30.4152 12.6206 30.5295 13.0186 30.5206 13.4234C30.5206 15.6634 27.3106 17.2534 26.7506 17.5534C19.6706 13.9734 24.2006 9.77343 26.4006 12.0134H26.3506Z" fill="black"/>
<path d="M29.9807 20.2935C28.2526 19.1146 26.2357 18.4294 24.1471 18.3117C22.0585 18.194 19.9774 18.6482 18.1278 19.6254C16.2782 20.6026 14.7301 22.0659 13.6504 23.8576C12.5706 25.6493 12 27.7016 12 29.7935C12 31.8854 12.5706 33.9376 13.6504 35.7293C14.7301 37.521 16.2782 38.9843 18.1278 39.9615C19.9774 40.9387 22.0585 41.393 24.1471 41.2752C26.2357 41.1575 28.2526 40.4723 29.9807 39.2935C31.7088 40.4723 33.7258 41.1575 35.8144 41.2752C37.9029 41.393 39.9841 40.9387 41.8337 39.9615C43.6833 38.9843 45.2313 37.521 46.3111 35.7293C47.3909 33.9376 47.9615 31.8854 47.9615 29.7935C47.9615 27.7016 47.3909 25.6493 46.3111 23.8576C45.2313 22.0659 43.6833 20.6026 41.8337 19.6254C39.9841 18.6482 37.9029 18.194 35.8144 18.3117C33.7258 18.4294 31.7088 19.1146 29.9807 20.2935ZM12.9807 29.7735C12.9879 27.8926 13.4993 26.048 14.4616 24.4318C15.4238 22.8157 16.8018 21.4871 18.4519 20.5844C20.1021 19.6817 21.9641 19.238 23.844 19.2994C25.7239 19.3608 27.553 19.925 29.1407 20.9335C28.607 21.374 28.1149 21.8627 27.6707 22.3935C25.865 21.3628 23.7441 21.0298 21.7094 21.4574C19.6747 21.8849 17.8673 23.0434 16.6291 24.7137C15.3909 26.3839 14.8078 28.45 14.9901 30.5212C15.1725 32.5923 16.1076 34.5248 17.6186 35.953C19.1296 37.3812 21.1116 38.206 23.1898 38.2715C25.2679 38.337 27.2979 37.6385 28.8958 36.3082C30.4937 34.978 31.5486 33.1082 31.8609 31.0526C32.1733 28.9971 31.7214 26.8983 30.5907 25.1535C31.012 24.6138 31.5068 24.1358 32.0607 23.7335C33.0136 25.0842 33.634 26.6409 33.8716 28.2767C34.1092 29.9126 33.9572 31.5814 33.4279 33.1475C32.8987 34.7135 32.0072 36.1324 30.826 37.2888C29.6449 38.4452 28.2073 39.3064 26.6304 39.8023C25.0535 40.2981 23.3818 40.4147 21.7514 40.1425C20.1209 39.8702 18.5778 39.2169 17.2476 38.2356C15.9173 37.2544 14.8375 35.9729 14.0961 34.4955C13.3546 33.0181 12.9725 31.3865 12.9807 29.7335V29.7735ZM27.0607 23.2035C25.706 25.1302 24.979 27.4281 24.979 29.7835C24.979 32.1388 25.706 34.4367 27.0607 36.3635C25.9199 36.9838 24.6375 37.2969 23.3391 37.2721C22.0408 37.2472 20.7712 36.8852 19.655 36.2217C18.5388 35.5581 17.6143 34.6157 16.9722 33.487C16.3301 32.3583 15.9925 31.082 15.9925 29.7835C15.9925 28.4849 16.3301 27.2086 16.9722 26.0799C17.6143 24.9512 18.5388 24.0088 19.655 23.3453C20.7712 22.6817 22.0408 22.3197 23.3391 22.2948C24.6375 22.27 25.9199 22.5831 27.0607 23.2035ZM29.9707 26.0635C30.6268 27.1916 30.9724 28.4734 30.9724 29.7785C30.9724 31.0835 30.6268 32.3653 29.9707 33.4935C29.3147 32.3653 28.9691 31.0835 28.9691 29.7785C28.9691 28.4734 29.3147 27.1916 29.9707 26.0635ZM32.9007 23.1835C34.0415 22.5631 35.324 22.25 36.6223 22.2748C37.9207 22.2997 39.1902 22.6617 40.3064 23.3253C41.4227 23.9888 42.3472 24.9312 42.9893 26.0599C43.6314 27.1886 43.969 28.4649 43.969 29.7635C43.969 31.062 43.6314 32.3383 42.9893 33.467C42.3472 34.5957 41.4227 35.5381 40.3064 36.2017C39.1902 36.8652 37.9207 37.2272 36.6223 37.2521C35.324 37.2769 34.0415 36.9638 32.9007 36.3435C34.2555 34.4167 34.9825 32.1188 34.9825 29.7635C34.9825 27.4081 34.2555 25.1102 32.9007 23.1835ZM30.8207 38.6135C31.3569 38.1756 31.8492 37.6866 32.2907 37.1535C34.0982 38.1817 36.2198 38.5117 38.2542 38.081C40.2886 37.6504 42.0945 36.4889 43.3302 34.8164C44.5659 33.144 45.1457 31.0765 44.9597 29.0054C44.7738 26.9343 43.8352 25.0032 42.3214 23.5775C40.8076 22.1518 38.8237 21.3305 36.7451 21.2691C34.6666 21.2076 32.6376 21.9101 31.0422 23.2438C29.4468 24.5775 28.3956 26.4498 28.0876 28.5063C27.7795 30.5628 28.2361 32.6609 29.3707 34.4035C28.9468 34.9407 28.4524 35.4184 27.9007 35.8235C26.3961 33.6918 25.7391 31.0764 26.0576 28.4867C26.3761 25.8971 27.6473 23.5188 29.6236 21.8153C31.5999 20.1118 34.1397 19.2051 36.748 19.2719C39.3563 19.3388 41.8463 20.3743 43.7327 22.1768C45.6192 23.9793 46.767 26.4195 46.9525 29.0221C47.1379 31.6247 46.3478 34.203 44.736 36.2548C43.1242 38.3066 40.8062 39.6848 38.2338 40.1208C35.6613 40.5569 33.0186 40.0195 30.8207 38.6135Z" fill="black"/>
</svg>
