<svg width="55" height="55" viewBox="0 0 55 55" fill="none" xmlns="http://www.w3.org/2000/svg">
<path d="M13.2194 11.7945C13.4342 12.0093 13.5549 12.3007 13.5549 12.6046C13.5549 12.9084 13.4342 13.1998 13.2194 13.4147L11.7378 14.8962H43.262L41.7804 13.4147C41.5717 13.1986 41.4562 12.9091 41.4588 12.6087C41.4614 12.3083 41.5819 12.0209 41.7944 11.8084C42.0068 11.596 42.2942 11.4755 42.5946 11.4729C42.8951 11.4703 43.1845 11.5857 43.4006 11.7945L45.8309 14.2248C46.0438 14.4376 46.2127 14.6903 46.3279 14.9684C46.4432 15.2465 46.5025 15.5445 46.5025 15.8456C46.5025 16.1466 46.4432 16.4447 46.3279 16.7228C46.2127 17.0009 46.0438 17.2535 45.8309 17.4663L43.4006 19.8967C43.2949 20.0061 43.1685 20.0934 43.0287 20.1534C42.8889 20.2135 42.7385 20.2451 42.5864 20.2464C42.4343 20.2477 42.2834 20.2188 42.1426 20.1611C42.0017 20.1035 41.8738 20.0184 41.7662 19.9109C41.6586 19.8033 41.5735 19.6753 41.5159 19.5345C41.4583 19.3937 41.4293 19.2428 41.4307 19.0907C41.432 18.9385 41.4636 18.7882 41.5236 18.6484C41.5837 18.5086 41.671 18.3821 41.7804 18.2764L42.869 17.1879H12.132L13.2205 18.2764C13.4354 18.4915 13.556 18.783 13.5559 19.087C13.5558 19.3909 13.435 19.6824 13.22 19.8972C13.0049 20.1121 12.7134 20.2327 12.4094 20.2326C12.1055 20.2325 11.814 20.1117 11.5992 19.8967L9.16886 17.4663C8.95596 17.2535 8.78707 17.0009 8.67185 16.7228C8.55662 16.4447 8.49731 16.1466 8.49731 15.8456C8.49731 15.5445 8.55662 15.2465 8.67185 14.9684C8.78707 14.6903 8.95596 14.4376 9.16886 14.2248L11.5992 11.7945C11.814 11.5797 12.1054 11.459 12.4093 11.459C12.7131 11.459 13.0045 11.5797 13.2194 11.7945Z" fill="#653C3C"/>
<path fill-rule="evenodd" clip-rule="evenodd" d="M17.1874 29.2194C17.1874 31.4354 15.393 33.2298 13.177 33.2298C12.1134 33.2298 11.0933 32.8073 10.3412 32.0552C9.58911 31.3031 9.16658 30.283 9.16658 29.2194C9.16658 27.0034 10.961 25.209 13.177 25.209C15.393 25.209 17.1874 27.0034 17.1874 29.2194ZM13.177 30.9382C13.6328 30.9382 14.07 30.7571 14.3923 30.4347C14.7147 30.1124 14.8958 29.6752 14.8958 29.2194C14.8958 28.7636 14.7147 28.3264 14.3923 28.0041C14.07 27.6817 13.6328 27.5007 13.177 27.5007C12.7212 27.5007 12.284 27.6817 11.9617 28.0041C11.6393 28.3264 11.4583 28.7636 11.4583 29.2194C11.4583 29.6752 11.6393 30.1124 11.9617 30.4347C12.284 30.7571 12.7212 30.9382 13.177 30.9382ZM4.58325 39.2649C4.58325 36.013 10.309 34.3757 13.177 34.3757C16.045 34.3757 21.7708 36.0142 21.7708 39.2649V43.5423H4.58325V39.2649ZM6.87492 39.2649C6.87492 39.1194 7.06742 38.4548 8.75409 37.686C10.2483 37.0065 12.0724 36.6673 13.177 36.6673C14.2816 36.6673 16.1069 37.0065 17.5999 37.6871C19.2866 38.4548 19.4791 39.1194 19.4791 39.2649V41.2507H6.87492V39.2649ZM45.8332 29.2194C45.8332 31.4354 44.0389 33.2298 41.8228 33.2298C40.7592 33.2298 39.7391 32.8073 38.987 32.0552C38.2349 31.3031 37.8124 30.283 37.8124 29.2194C37.8124 27.0034 39.6068 25.209 41.8228 25.209C44.0389 25.209 45.8332 27.0034 45.8332 29.2194ZM41.8228 30.9382C42.2787 30.9382 42.7158 30.7571 43.0382 30.4347C43.3605 30.1124 43.5416 29.6752 43.5416 29.2194C43.5416 28.7636 43.3605 28.3264 43.0382 28.0041C42.7158 27.6817 42.2787 27.5007 41.8228 27.5007C41.367 27.5007 40.9298 27.6817 40.6075 28.0041C40.2852 28.3264 40.1041 28.7636 40.1041 29.2194C40.1041 29.6752 40.2852 30.1124 40.6075 30.4347C40.9298 30.7571 41.367 30.9382 41.8228 30.9382ZM33.2291 39.2649C33.2291 36.013 38.9548 34.3757 41.8228 34.3757C44.6909 34.3757 50.4166 36.0142 50.4166 39.2649V43.5423H33.2291V39.2649ZM35.5208 39.2649C35.5208 39.1194 35.7132 38.4548 37.3999 37.686C38.8929 37.0065 40.7171 36.6673 41.8228 36.6673C42.9286 36.6673 44.7527 37.0065 46.2458 37.6871C47.9324 38.4548 48.1249 39.1194 48.1249 39.2649V41.2507H35.5208V39.2649Z" fill="#653C3C"/>
</svg>
