<svg width="45" height="45" viewBox="0 0 45 45" fill="none" xmlns="http://www.w3.org/2000/svg">
<path d="M36.5625 42.1875H30.9375C30.1923 42.1853 29.4782 41.8882 28.9512 41.3613C28.4243 40.8343 28.1272 40.1202 28.125 39.375V29.5313C27.3798 29.529 26.6657 29.232 26.1387 28.705C25.6118 28.1781 25.3147 27.464 25.3125 26.7188V18.2813C25.3024 17.7245 25.4046 17.1713 25.6131 16.6549C25.8215 16.1385 26.1319 15.6694 26.5256 15.2756C26.9194 14.8819 27.3885 14.5715 27.9049 14.363C28.4213 14.1546 28.9745 14.0524 29.5313 14.0625H37.9688C38.5256 14.0524 39.0787 14.1546 39.5951 14.363C40.1115 14.5715 40.5806 14.8819 40.9744 15.2756C41.3682 15.6694 41.6785 16.1385 41.887 16.6549C42.0954 17.1713 42.1976 17.7245 42.1875 18.2813V26.7188C42.1853 27.464 41.8883 28.1781 41.3613 28.705C40.8343 29.232 40.1202 29.529 39.375 29.5313V39.375C39.3728 40.1202 39.0758 40.8343 38.5488 41.3613C38.0218 41.8882 37.3077 42.1853 36.5625 42.1875ZM29.5313 16.875C29.3436 16.8637 29.1558 16.8924 28.9801 16.9591C28.8043 17.0257 28.6447 17.1289 28.5118 17.2618C28.3789 17.3947 28.2757 17.5543 28.2091 17.73C28.1424 17.9058 28.1137 18.0936 28.125 18.2813V26.7188H30.9375V39.375H36.5625V26.7188H39.375V18.2813C39.3863 18.0936 39.3576 17.9058 39.291 17.73C39.2243 17.5543 39.1211 17.3947 38.9882 17.2618C38.8553 17.1289 38.6957 17.0257 38.52 16.9591C38.3442 16.8924 38.1564 16.8637 37.9688 16.875H29.5313ZM33.75 12.6563C32.6375 12.6563 31.55 12.3264 30.6249 11.7083C29.6999 11.0902 28.9789 10.2117 28.5532 9.18385C28.1274 8.15601 28.0161 7.02501 28.2331 5.93387C28.4501 4.84273 28.9859 3.84045 29.7725 3.05378C30.5592 2.26711 31.5615 1.73138 32.6526 1.51434C33.7438 1.29729 34.8748 1.40869 35.9026 1.83443C36.9304 2.26017 37.8089 2.98114 38.427 3.90617C39.0451 4.8312 39.375 5.91873 39.375 7.03125C39.3713 8.52195 38.7775 9.95054 37.7234 11.0046C36.6693 12.0587 35.2407 12.6525 33.75 12.6563ZM33.75 4.21875C33.1938 4.21875 32.65 4.3837 32.1875 4.69274C31.725 5.00179 31.3645 5.44104 31.1516 5.95496C30.9387 6.46887 30.883 7.03437 30.9916 7.57994C31.1001 8.12552 31.3679 8.62666 31.7613 9.01999C32.1546 9.41333 32.6557 9.68119 33.2013 9.78971C33.7469 9.89823 34.3124 9.84254 34.8263 9.62966C35.3402 9.41679 35.7795 9.05631 36.0885 8.59379C36.3976 8.13128 36.5625 7.58751 36.5625 7.03125C36.5603 6.28602 36.2633 5.57194 35.7363 5.04497C35.2093 4.51801 34.4952 4.22098 33.75 4.21875ZM14.0625 28.3838V16.875H11.25V28.3838C10.3117 28.7155 9.52095 29.3682 9.0174 30.2266C8.51386 31.085 8.32998 32.0938 8.49826 33.0746C8.66655 34.0555 9.17617 34.9453 9.93705 35.5867C10.6979 36.2282 11.6611 36.58 12.6563 36.58C13.6514 36.58 14.6146 36.2282 15.3755 35.5867C16.1363 34.9453 16.646 34.0555 16.8143 33.0746C16.9825 32.0938 16.7987 31.085 16.2951 30.2266C15.7916 29.3682 15.0008 28.7155 14.0625 28.3838Z" fill="#653C3C"/>
<path d="M12.6563 42.1875C10.7184 42.1897 8.82311 41.6193 7.20835 40.5479C5.5936 39.4765 4.33138 37.952 3.58019 36.1656C2.829 34.3793 2.62233 32.4108 2.98613 30.5075C3.34993 28.6041 4.26798 26.8506 5.625 25.4672V9.84375C5.625 7.97895 6.36579 6.19052 7.68441 4.87191C9.00302 3.55329 10.7914 2.8125 12.6563 2.8125C14.5211 2.8125 16.3095 3.55329 17.6281 4.87191C18.9467 6.19052 19.6875 7.97895 19.6875 9.84375V25.4672C21.0445 26.8506 21.9626 28.6041 22.3264 30.5075C22.6902 32.4108 22.4835 34.3793 21.7323 36.1656C20.9811 37.952 19.7189 39.4765 18.1041 40.5479C16.4894 41.6193 14.5941 42.1897 12.6563 42.1875ZM12.6563 5.625C11.5377 5.62612 10.4653 6.07095 9.67438 6.86188C8.88345 7.6528 8.43862 8.72521 8.4375 9.84375V26.6948L7.97063 27.1153C6.90874 28.0644 6.1601 29.3136 5.82382 30.6976C5.48753 32.0815 5.57945 33.535 6.0874 34.8655C6.59536 36.1961 7.4954 37.341 8.6684 38.1488C9.84139 38.9565 11.232 39.389 12.6563 39.389C14.0805 39.389 15.4711 38.9565 16.6441 38.1488C17.8171 37.341 18.7171 36.1961 19.2251 34.8655C19.7331 33.535 19.825 32.0815 19.4887 30.6976C19.1524 29.3136 18.4038 28.0644 17.3419 27.1153L16.875 26.6948V9.84375C16.8739 8.72521 16.4291 7.6528 15.6381 6.86188C14.8472 6.07095 13.7748 5.62612 12.6563 5.625Z" fill="#653C3C"/>
</svg>
