<svg width="51" height="51" viewBox="0 0 51 51" fill="none" xmlns="http://www.w3.org/2000/svg">
<path fill-rule="evenodd" clip-rule="evenodd" d="M37.7188 8.4998L38.5688 7.8623L38.573 7.86868L38.5837 7.88355L38.6262 7.93987C38.8677 8.26566 39.1043 8.59507 39.3359 8.92799C39.9179 9.7561 40.4769 10.6 41.0125 11.4589C41.6213 12.4406 42.244 13.5276 42.7179 14.5539C43.1726 15.541 43.5625 16.6184 43.5625 17.5311C43.5625 20.7738 40.9615 23.3748 37.7188 23.3748C36.9506 23.3776 36.1894 23.2284 35.4792 22.9357C34.7689 22.643 34.1236 22.2127 33.5804 21.6695C33.0372 21.1263 32.6068 20.4809 32.3141 19.7707C32.0215 19.0604 31.8722 18.2993 31.875 17.5311C31.875 16.6184 32.265 15.541 32.7197 14.5539C33.1936 13.5276 33.8162 12.4396 34.425 11.4589C35.1751 10.2557 35.9711 9.08181 36.8114 7.93987L36.8539 7.88355L36.8645 7.86868L36.8688 7.8623L37.7188 8.4998ZM36.2313 12.5798C36.7079 11.8151 37.2039 11.0626 37.7188 10.3231C38.2337 11.0626 38.7297 11.8151 39.2063 12.5798C39.7928 13.5244 40.3655 14.5295 40.7884 15.4443C41.2293 16.4006 41.4375 17.1156 41.4375 17.5311C41.4375 19.6008 39.7885 21.2498 37.7188 21.2498C37.2296 21.2526 36.7448 21.1584 36.2924 20.9725C35.8399 20.7866 35.4288 20.5128 35.083 20.1669C34.7371 19.821 34.4633 19.4099 34.2774 18.9575C34.0915 18.505 33.9972 18.0202 34 17.5311C34 17.1156 34.2083 16.4006 34.6492 15.4443C35.0721 14.5295 35.6448 13.5244 36.2313 12.5798Z" fill="#653C3C"/>
<path d="M37.7187 8.4997L38.5687 7.8622L37.7187 6.72852L36.8687 7.8622L37.7187 8.4997Z" fill="#653C3C"/>
<path fill-rule="evenodd" clip-rule="evenodd" d="M25.2992 15.3158L24.4513 14.1523L23.5875 15.2998L23.5843 15.3041L23.5758 15.3147L23.5471 15.354L23.4409 15.4985C22.9112 16.2259 22.4096 16.9734 21.9374 17.7393C21.5055 18.4286 21.1179 19.1448 20.7772 19.8835C20.468 20.5741 20.1864 21.371 20.1864 22.086C20.1875 24.5138 21.998 26.5623 24.4375 26.5623C26.877 26.5623 28.6875 24.5138 28.6875 22.085C28.6875 21.3943 28.3996 20.6092 28.0946 19.9366C27.7509 19.2011 27.3653 18.4859 26.9397 17.7946C26.435 16.9658 25.8999 16.156 25.3353 15.3668L25.3066 15.3264L25.2992 15.3158ZM24.4269 17.7967C24.2144 18.1133 23.9806 18.4714 23.749 18.8497C23.3654 19.4611 23.0212 20.0963 22.7184 20.7515C22.4294 21.3943 22.3125 21.8438 22.3125 22.085C22.3125 23.48 23.307 24.4373 24.4375 24.4373C25.568 24.4373 26.5625 23.4811 26.5625 22.085C26.5625 21.8863 26.452 21.4602 26.1588 20.8132C25.8846 20.2075 25.5106 19.535 25.1228 18.8953C24.8974 18.525 24.6654 18.1587 24.4269 17.7967ZM13.8125 42.2342V42.4956C13.8125 43.0592 13.5886 43.5997 13.1901 43.9982C12.7916 44.3967 12.2511 44.6206 11.6875 44.6206H8.5C7.93641 44.6206 7.39591 44.3967 6.9974 43.9982C6.59888 43.5997 6.375 43.0592 6.375 42.4956V30.8134C6.375 30.2498 6.59888 29.7093 6.9974 29.3108C7.39591 28.9123 7.93641 28.6884 8.5 28.6884H11.6875C12.1661 28.6882 12.6307 28.8495 13.0062 29.1463C13.3816 29.4431 13.6459 29.8579 13.7562 30.3236C15.1629 29.8168 16.8066 29.2133 17.3092 28.9838C17.7363 28.7893 18.2293 28.7235 18.6394 28.699C19.0627 28.6783 19.4869 28.6858 19.9091 28.7213C20.3819 28.7598 20.8527 28.8194 21.3201 28.8998L21.3446 28.9041L21.352 28.9052H21.3552L21.3743 28.9094L28.4824 30.5032L28.526 30.518L28.5377 30.5223L28.5866 30.5372L28.7874 30.5945C28.9627 30.6434 29.2145 30.7082 29.5152 30.7741C30.1261 30.9069 30.8964 31.0312 31.6136 31.0312C32.2766 31.0312 32.963 31.2788 33.3285 31.9503C33.643 32.5262 33.5697 33.1594 33.4528 33.5972C33.3051 34.1433 33.0013 34.717 32.6156 35.2047C33.1362 35.0082 33.7067 34.7755 34.3187 34.5247L34.4494 34.4716C36.1739 33.7629 38.2181 32.9235 40.0222 32.626C42.0835 32.285 43.5827 33.033 44.2627 34.36C44.8683 35.5415 44.7281 37.0917 43.8164 38.0257C43.588 38.2605 43.2395 38.507 42.8899 38.7333C42.5159 38.9766 42.0559 39.2497 41.5448 39.5408C40.3707 40.1981 39.1821 40.8294 37.9801 41.4342C35.4599 42.7123 32.8185 43.9555 31.9791 44.2625C31.0059 44.6185 29.9604 44.6525 28.9563 44.6004C28.35 44.5627 27.7445 44.5114 27.1405 44.4463C26.6983 44.4006 26.2555 44.3598 25.8124 44.3242C23.7639 44.169 22.1914 43.6686 20.7443 43.2085L20.5679 43.1522C19.0719 42.6783 17.68 42.2565 15.8366 42.1822C15.4158 42.1652 14.5743 42.1981 13.8125 42.2342ZM18.19 30.9165C18.2591 30.8846 18.4397 30.8389 18.7616 30.8198C19.0634 30.8017 19.4076 30.8134 19.7444 30.8389C20.1474 30.8719 20.5487 30.9226 20.9472 30.9908H20.9504L27.9278 32.5559L27.9756 32.5708C28.0344 32.5892 28.1159 32.6126 28.22 32.6409C28.4261 32.6983 28.7173 32.7737 29.0626 32.8492C29.6841 32.9852 30.5182 33.1275 31.3661 33.152C31.2905 33.3564 31.1891 33.5503 31.0643 33.7289C30.8943 33.9754 30.7084 34.1656 30.5554 34.275C30.1134 34.5917 29.7564 34.7234 29.5396 34.7797C29.4658 34.8001 29.3905 34.8143 29.3144 34.8222H29.291L23.5939 34.7542L23.392 36.8622L23.4483 36.8728L23.6109 36.9015L24.2016 37.0057C24.6978 37.0928 25.3789 37.2097 26.1205 37.3308C27.5804 37.5688 29.3399 37.8323 30.3386 37.8928C31.0293 37.9353 31.8325 37.7228 32.5794 37.4732C33.3582 37.2128 34.2391 36.8527 35.1252 36.4893C36.9495 35.7413 38.8078 34.9795 40.3686 34.7213C41.718 34.4982 42.1993 34.9912 42.3714 35.328C42.619 35.8114 42.4851 36.348 42.2949 36.5413C42.2492 36.5892 42.0824 36.7241 41.7339 36.9504C41.4088 37.1597 40.9891 37.4115 40.4961 37.691C39.351 38.332 38.1919 38.9477 37.0196 39.5376C34.4781 40.8264 31.9494 42.009 31.2481 42.2661C30.6807 42.4743 29.9784 42.5243 29.0658 42.4775C28.5281 42.4459 27.9913 42.4002 27.4561 42.3405C26.9623 42.2885 26.4678 42.2431 25.9728 42.2045C24.1751 42.0685 22.8087 41.6339 21.3435 41.1685L21.2107 41.126C19.6934 40.6447 18.0699 40.1443 15.9226 40.0582C15.4392 40.0391 14.5786 40.0688 13.8125 40.105V32.5602C15.3064 32.0257 17.5174 31.2235 18.19 30.9165ZM11.6875 30.8123H8.5V42.4945H11.6875V30.8123Z" fill="#653C3C"/>
</svg>
